<?xml version="1.0" encoding="utf-8" standalone="no"?>
<!DOCTYPE svg PUBLIC "-//W3C//DTD SVG 1.1//EN"
  "http://www.w3.org/Graphics/SVG/1.1/DTD/svg11.dtd">
<svg xmlns:xlink="http://www.w3.org/1999/xlink" width="460.8pt" height="345.6pt" viewBox="0 0 460.8 345.6" xmlns="http://www.w3.org/2000/svg" version="1.1">
 <metadata>
  <rdf:RDF xmlns:dc="http://purl.org/dc/elements/1.1/" xmlns:cc="http://creativecommons.org/ns#" xmlns:rdf="http://www.w3.org/1999/02/22-rdf-syntax-ns#">
   <cc:Work>
    <dc:type rdf:resource="http://purl.org/dc/dcmitype/StillImage"/>
    <dc:date>2025-03-19T16:28:32.587861</dc:date>
    <dc:format>image/svg+xml</dc:format>
    <dc:creator>
     <cc:Agent>
      <dc:title>Matplotlib v3.8.3, https://matplotlib.org/</dc:title>
     </cc:Agent>
    </dc:creator>
   </cc:Work>
  </rdf:RDF>
 </metadata>
 <defs>
  <style type="text/css">*{stroke-linejoin: round; stroke-linecap: butt}</style>
 </defs>
 <g id="figure_1">
  <g id="patch_1">
   <path d="M 0 345.6 
L 460.8 345.6 
L 460.8 0 
L 0 0 
z
" style="fill: #ffffff"/>
  </g>
  <g id="axes_1">
   <g id="patch_2">
    <path d="M 57.17 135.88 
L 440.505 135.88 
L 440.505 26.16 
L 57.17 26.16 
z
" style="fill: #ffffff"/>
   </g>
   <g id="matplotlib.axis_1">
    <g id="xtick_1">
     <g id="line2d_1">
      <path d="M 57.17 135.88 
L 57.17 26.16 
" clip-path="url(#p9f45fdd095)" style="fill: none; stroke: #b0b0b0; stroke-opacity: 0.3; stroke-width: 0.8; stroke-linecap: square"/>
     </g>
     <g id="line2d_2">
      <defs>
       <path id="mfa44cafaa2" d="M 0 0 
L 0 3.5 
" style="stroke: #000000; stroke-width: 0.8"/>
      </defs>
      <g>
       <use xlink:href="#mfa44cafaa2" x="57.17" y="135.88" style="stroke: #000000; stroke-width: 0.8"/>
      </g>
     </g>
     <g id="text_1">
      <!-- 0 -->
      <g transform="translate(53.98875 150.478437) scale(0.1 -0.1)">
       <defs>
        <path id="DejaVuSerif-30" d="M 2034 219 
Q 2513 219 2750 744 
Q 2988 1269 2988 2328 
Q 2988 3391 2750 3916 
Q 2513 4441 2034 4441 
Q 1556 4441 1318 3916 
Q 1081 3391 1081 2328 
Q 1081 1269 1318 744 
Q 1556 219 2034 219 
z
M 2034 -91 
Q 1275 -91 848 546 
Q 422 1184 422 2328 
Q 422 3475 848 4112 
Q 1275 4750 2034 4750 
Q 2797 4750 3222 4112 
Q 3647 3475 3647 2328 
Q 3647 1184 3222 546 
Q 2797 -91 2034 -91 
z
" transform="scale(0.015625)"/>
       </defs>
       <use xlink:href="#DejaVuSerif-30"/>
      </g>
     </g>
    </g>
    <g id="xtick_2">
     <g id="line2d_3">
      <path d="M 133.837 135.88 
L 133.837 26.16 
" clip-path="url(#p9f45fdd095)" style="fill: none; stroke: #b0b0b0; stroke-opacity: 0.3; stroke-width: 0.8; stroke-linecap: square"/>
     </g>
     <g id="line2d_4">
      <g>
       <use xlink:href="#mfa44cafaa2" x="133.837" y="135.88" style="stroke: #000000; stroke-width: 0.8"/>
      </g>
     </g>
     <g id="text_2">
      <!-- 20 -->
      <g transform="translate(127.4745 150.478437) scale(0.1 -0.1)">
       <defs>
        <path id="DejaVuSerif-32" d="M 819 3553 
L 469 3553 
L 469 4384 
Q 803 4563 1142 4656 
Q 1481 4750 1806 4750 
Q 2534 4750 2956 4397 
Q 3378 4044 3378 3438 
Q 3378 2753 2422 1800 
Q 2347 1728 2309 1691 
L 1131 513 
L 3078 513 
L 3078 1088 
L 3444 1088 
L 3444 0 
L 434 0 
L 434 341 
L 1850 1753 
Q 2319 2222 2519 2614 
Q 2719 3006 2719 3438 
Q 2719 3909 2473 4175 
Q 2228 4441 1797 4441 
Q 1350 4441 1106 4219 
Q 863 3997 819 3553 
z
" transform="scale(0.015625)"/>
       </defs>
       <use xlink:href="#DejaVuSerif-32"/>
       <use xlink:href="#DejaVuSerif-30" x="63.623047"/>
      </g>
     </g>
    </g>
    <g id="xtick_3">
     <g id="line2d_5">
      <path d="M 210.504 135.88 
L 210.504 26.16 
" clip-path="url(#p9f45fdd095)" style="fill: none; stroke: #b0b0b0; stroke-opacity: 0.3; stroke-width: 0.8; stroke-linecap: square"/>
     </g>
     <g id="line2d_6">
      <g>
       <use xlink:href="#mfa44cafaa2" x="210.504" y="135.88" style="stroke: #000000; stroke-width: 0.8"/>
      </g>
     </g>
     <g id="text_3">
      <!-- 40 -->
      <g transform="translate(204.1415 150.478437) scale(0.1 -0.1)">
       <defs>
        <path id="DejaVuSerif-34" d="M 2234 1581 
L 2234 4063 
L 641 1581 
L 2234 1581 
z
M 3609 0 
L 1484 0 
L 1484 331 
L 2234 331 
L 2234 1247 
L 197 1247 
L 197 1588 
L 2241 4750 
L 2859 4750 
L 2859 1581 
L 3750 1581 
L 3750 1247 
L 2859 1247 
L 2859 331 
L 3609 331 
L 3609 0 
z
" transform="scale(0.015625)"/>
       </defs>
       <use xlink:href="#DejaVuSerif-34"/>
       <use xlink:href="#DejaVuSerif-30" x="63.623047"/>
      </g>
     </g>
    </g>
    <g id="xtick_4">
     <g id="line2d_7">
      <path d="M 287.171 135.88 
L 287.171 26.16 
" clip-path="url(#p9f45fdd095)" style="fill: none; stroke: #b0b0b0; stroke-opacity: 0.3; stroke-width: 0.8; stroke-linecap: square"/>
     </g>
     <g id="line2d_8">
      <g>
       <use xlink:href="#mfa44cafaa2" x="287.171" y="135.88" style="stroke: #000000; stroke-width: 0.8"/>
      </g>
     </g>
     <g id="text_4">
      <!-- 60 -->
      <g transform="translate(280.8085 150.478437) scale(0.1 -0.1)">
       <defs>
        <path id="DejaVuSerif-36" d="M 2094 219 
Q 2534 219 2771 542 
Q 3009 866 3009 1472 
Q 3009 2078 2771 2401 
Q 2534 2725 2094 2725 
Q 1647 2725 1412 2412 
Q 1178 2100 1178 1509 
Q 1178 888 1415 553 
Q 1653 219 2094 219 
z
M 1075 2569 
Q 1288 2803 1556 2918 
Q 1825 3034 2163 3034 
Q 2859 3034 3264 2615 
Q 3669 2197 3669 1472 
Q 3669 763 3233 336 
Q 2797 -91 2069 -91 
Q 1278 -91 853 498 
Q 428 1088 428 2181 
Q 428 3406 931 4078 
Q 1434 4750 2350 4750 
Q 2597 4750 2869 4703 
Q 3141 4656 3425 4563 
L 3425 3794 
L 3072 3794 
Q 3034 4109 2831 4275 
Q 2628 4441 2284 4441 
Q 1678 4441 1381 3981 
Q 1084 3522 1075 2569 
z
" transform="scale(0.015625)"/>
       </defs>
       <use xlink:href="#DejaVuSerif-36"/>
       <use xlink:href="#DejaVuSerif-30" x="63.623047"/>
      </g>
     </g>
    </g>
    <g id="xtick_5">
     <g id="line2d_9">
      <path d="M 363.838 135.88 
L 363.838 26.16 
" clip-path="url(#p9f45fdd095)" style="fill: none; stroke: #b0b0b0; stroke-opacity: 0.3; stroke-width: 0.8; stroke-linecap: square"/>
     </g>
     <g id="line2d_10">
      <g>
       <use xlink:href="#mfa44cafaa2" x="363.838" y="135.88" style="stroke: #000000; stroke-width: 0.8"/>
      </g>
     </g>
     <g id="text_5">
      <!-- 80 -->
      <g transform="translate(357.4755 150.478437) scale(0.1 -0.1)">
       <defs>
        <path id="DejaVuSerif-38" d="M 2981 1275 
Q 2981 1775 2732 2051 
Q 2484 2328 2034 2328 
Q 1584 2328 1336 2051 
Q 1088 1775 1088 1275 
Q 1088 772 1336 495 
Q 1584 219 2034 219 
Q 2484 219 2732 495 
Q 2981 772 2981 1275 
z
M 2853 3541 
Q 2853 3966 2637 4203 
Q 2422 4441 2034 4441 
Q 1650 4441 1433 4203 
Q 1216 3966 1216 3541 
Q 1216 3113 1433 2875 
Q 1650 2638 2034 2638 
Q 2422 2638 2637 2875 
Q 2853 3113 2853 3541 
z
M 2516 2484 
Q 3047 2413 3344 2092 
Q 3641 1772 3641 1275 
Q 3641 619 3225 264 
Q 2809 -91 2034 -91 
Q 1263 -91 845 264 
Q 428 619 428 1275 
Q 428 1772 725 2092 
Q 1022 2413 1556 2484 
Q 1084 2569 832 2842 
Q 581 3116 581 3541 
Q 581 4103 968 4426 
Q 1356 4750 2034 4750 
Q 2713 4750 3100 4426 
Q 3488 4103 3488 3541 
Q 3488 3116 3236 2842 
Q 2984 2569 2516 2484 
z
" transform="scale(0.015625)"/>
       </defs>
       <use xlink:href="#DejaVuSerif-38"/>
       <use xlink:href="#DejaVuSerif-30" x="63.623047"/>
      </g>
     </g>
    </g>
    <g id="xtick_6">
     <g id="line2d_11">
      <path d="M 440.505 135.88 
L 440.505 26.16 
" clip-path="url(#p9f45fdd095)" style="fill: none; stroke: #b0b0b0; stroke-opacity: 0.3; stroke-width: 0.8; stroke-linecap: square"/>
     </g>
     <g id="line2d_12">
      <g>
       <use xlink:href="#mfa44cafaa2" x="440.505" y="135.88" style="stroke: #000000; stroke-width: 0.8"/>
      </g>
     </g>
     <g id="text_6">
      <!-- 100 -->
      <g transform="translate(430.96125 150.478437) scale(0.1 -0.1)">
       <defs>
        <path id="DejaVuSerif-31" d="M 909 0 
L 909 331 
L 1722 331 
L 1722 4213 
L 781 3603 
L 781 4013 
L 1919 4750 
L 2350 4750 
L 2350 331 
L 3163 331 
L 3163 0 
L 909 0 
z
" transform="scale(0.015625)"/>
       </defs>
       <use xlink:href="#DejaVuSerif-31"/>
       <use xlink:href="#DejaVuSerif-30" x="63.623047"/>
       <use xlink:href="#DejaVuSerif-30" x="127.246094"/>
      </g>
     </g>
    </g>
    <g id="text_7">
     <!-- Time [ns] -->
     <g transform="translate(224.925781 164.156562) scale(0.1 -0.1)">
      <defs>
       <path id="DejaVuSerif-54" d="M 1222 0 
L 1222 331 
L 1819 331 
L 1819 4294 
L 447 4294 
L 447 3566 
L 63 3566 
L 63 4666 
L 4206 4666 
L 4206 3566 
L 3822 3566 
L 3822 4294 
L 2450 4294 
L 2450 331 
L 3047 331 
L 3047 0 
L 1222 0 
z
" transform="scale(0.015625)"/>
       <path id="DejaVuSerif-69" d="M 622 4353 
Q 622 4497 726 4603 
Q 831 4709 978 4709 
Q 1122 4709 1226 4603 
Q 1331 4497 1331 4353 
Q 1331 4206 1228 4103 
Q 1125 4000 978 4000 
Q 831 4000 726 4103 
Q 622 4206 622 4353 
z
M 1356 331 
L 1900 331 
L 1900 0 
L 231 0 
L 231 331 
L 781 331 
L 781 2988 
L 231 2988 
L 231 3322 
L 1356 3322 
L 1356 331 
z
" transform="scale(0.015625)"/>
       <path id="DejaVuSerif-6d" d="M 3316 2675 
Q 3481 3041 3739 3227 
Q 3997 3413 4341 3413 
Q 4863 3413 5119 3089 
Q 5375 2766 5375 2113 
L 5375 331 
L 5894 331 
L 5894 0 
L 4300 0 
L 4300 331 
L 4800 331 
L 4800 2047 
Q 4800 2556 4650 2772 
Q 4500 2988 4153 2988 
Q 3769 2988 3567 2697 
Q 3366 2406 3366 1850 
L 3366 331 
L 3866 331 
L 3866 0 
L 2291 0 
L 2291 331 
L 2791 331 
L 2791 2069 
Q 2791 2566 2641 2777 
Q 2491 2988 2144 2988 
Q 1759 2988 1557 2697 
Q 1356 2406 1356 1850 
L 1356 331 
L 1856 331 
L 1856 0 
L 263 0 
L 263 331 
L 781 331 
L 781 2994 
L 231 2994 
L 231 3322 
L 1356 3322 
L 1356 2731 
Q 1516 3063 1762 3238 
Q 2009 3413 2322 3413 
Q 2709 3413 2968 3220 
Q 3228 3028 3316 2675 
z
" transform="scale(0.015625)"/>
       <path id="DejaVuSerif-65" d="M 3469 1600 
L 991 1600 
L 991 1575 
Q 991 903 1244 561 
Q 1497 219 1991 219 
Q 2369 219 2611 417 
Q 2853 616 2950 1006 
L 3413 1006 
Q 3275 459 2904 184 
Q 2534 -91 1931 -91 
Q 1203 -91 761 389 
Q 319 869 319 1663 
Q 319 2450 753 2931 
Q 1188 3413 1894 3413 
Q 2647 3413 3050 2948 
Q 3453 2484 3469 1600 
z
M 2791 1931 
Q 2772 2513 2545 2808 
Q 2319 3103 1894 3103 
Q 1497 3103 1269 2806 
Q 1041 2509 991 1931 
L 2791 1931 
z
" transform="scale(0.015625)"/>
       <path id="DejaVuSerif-20" transform="scale(0.015625)"/>
       <path id="DejaVuSerif-5b" d="M 550 4863 
L 2003 4863 
L 2003 4531 
L 1147 4531 
L 1147 -513 
L 2003 -513 
L 2003 -844 
L 550 -844 
L 550 4863 
z
" transform="scale(0.015625)"/>
       <path id="DejaVuSerif-6e" d="M 263 0 
L 263 331 
L 781 331 
L 781 2988 
L 231 2988 
L 231 3322 
L 1356 3322 
L 1356 2731 
Q 1516 3069 1770 3241 
Q 2025 3413 2363 3413 
Q 2913 3413 3172 3097 
Q 3431 2781 3431 2113 
L 3431 331 
L 3944 331 
L 3944 0 
L 2356 0 
L 2356 331 
L 2853 331 
L 2853 1931 
Q 2853 2541 2703 2767 
Q 2553 2994 2175 2994 
Q 1775 2994 1565 2701 
Q 1356 2409 1356 1850 
L 1356 331 
L 1856 331 
L 1856 0 
L 263 0 
z
" transform="scale(0.015625)"/>
       <path id="DejaVuSerif-73" d="M 359 184 
L 359 959 
L 691 959 
Q 703 588 923 403 
Q 1144 219 1575 219 
Q 1963 219 2166 364 
Q 2369 509 2369 788 
Q 2369 1006 2220 1140 
Q 2072 1275 1594 1428 
L 1178 1569 
Q 750 1706 558 1912 
Q 366 2119 366 2438 
Q 366 2894 700 3153 
Q 1034 3413 1625 3413 
Q 1888 3413 2178 3344 
Q 2469 3275 2778 3144 
L 2778 2419 
L 2447 2419 
Q 2434 2741 2221 2922 
Q 2009 3103 1644 3103 
Q 1281 3103 1095 2975 
Q 909 2847 909 2591 
Q 909 2381 1050 2254 
Q 1191 2128 1613 1997 
L 2069 1856 
Q 2541 1709 2748 1489 
Q 2956 1269 2956 922 
Q 2956 450 2595 179 
Q 2234 -91 1600 -91 
Q 1278 -91 972 -22 
Q 666 47 359 184 
z
" transform="scale(0.015625)"/>
       <path id="DejaVuSerif-5d" d="M 1947 4863 
L 1947 -844 
L 494 -844 
L 494 -513 
L 1350 -513 
L 1350 4531 
L 494 4531 
L 494 4863 
L 1947 4863 
z
" transform="scale(0.015625)"/>
      </defs>
      <use xlink:href="#DejaVuSerif-54"/>
      <use xlink:href="#DejaVuSerif-69" x="66.699219"/>
      <use xlink:href="#DejaVuSerif-6d" x="98.681641"/>
      <use xlink:href="#DejaVuSerif-65" x="193.505859"/>
      <use xlink:href="#DejaVuSerif-20" x="252.685547"/>
      <use xlink:href="#DejaVuSerif-5b" x="284.472656"/>
      <use xlink:href="#DejaVuSerif-6e" x="323.486328"/>
      <use xlink:href="#DejaVuSerif-73" x="387.890625"/>
      <use xlink:href="#DejaVuSerif-5d" x="439.208984"/>
     </g>
    </g>
   </g>
   <g id="matplotlib.axis_2">
    <g id="ytick_1">
     <g id="line2d_13">
      <path d="M 57.17 135.88 
L 440.505 135.88 
" clip-path="url(#p9f45fdd095)" style="fill: none; stroke: #b0b0b0; stroke-opacity: 0.3; stroke-width: 0.8; stroke-linecap: square"/>
     </g>
     <g id="line2d_14">
      <defs>
       <path id="mb0a92c7c9c" d="M 0 0 
L -3.5 0 
" style="stroke: #000000; stroke-width: 0.8"/>
      </defs>
      <g>
       <use xlink:href="#mb0a92c7c9c" x="57.17" y="135.88" style="stroke: #000000; stroke-width: 0.8"/>
      </g>
     </g>
     <g id="text_8">
      <!-- 0 -->
      <g transform="translate(43.8075 139.679219) scale(0.1 -0.1)">
       <use xlink:href="#DejaVuSerif-30"/>
      </g>
     </g>
    </g>
    <g id="ytick_2">
     <g id="line2d_15">
      <path d="M 57.17 108.45 
L 440.505 108.45 
" clip-path="url(#p9f45fdd095)" style="fill: none; stroke: #b0b0b0; stroke-opacity: 0.3; stroke-width: 0.8; stroke-linecap: square"/>
     </g>
     <g id="line2d_16">
      <g>
       <use xlink:href="#mb0a92c7c9c" x="57.17" y="108.45" style="stroke: #000000; stroke-width: 0.8"/>
      </g>
     </g>
     <g id="text_9">
      <!-- 500 -->
      <g transform="translate(31.0825 112.249219) scale(0.1 -0.1)">
       <defs>
        <path id="DejaVuSerif-35" d="M 3219 4666 
L 3219 4153 
L 1081 4153 
L 1081 2816 
Q 1244 2928 1461 2984 
Q 1678 3041 1947 3041 
Q 2703 3041 3140 2622 
Q 3578 2203 3578 1478 
Q 3578 738 3136 323 
Q 2694 -91 1894 -91 
Q 1572 -91 1234 -12 
Q 897 66 544 225 
L 544 1131 
L 897 1131 
Q 925 688 1179 453 
Q 1434 219 1894 219 
Q 2388 219 2653 544 
Q 2919 869 2919 1478 
Q 2919 2084 2655 2407 
Q 2391 2731 1894 2731 
Q 1613 2731 1398 2631 
Q 1184 2531 1019 2322 
L 750 2322 
L 750 4666 
L 3219 4666 
z
" transform="scale(0.015625)"/>
       </defs>
       <use xlink:href="#DejaVuSerif-35"/>
       <use xlink:href="#DejaVuSerif-30" x="63.623047"/>
       <use xlink:href="#DejaVuSerif-30" x="127.246094"/>
      </g>
     </g>
    </g>
    <g id="ytick_3">
     <g id="line2d_17">
      <path d="M 57.17 81.02 
L 440.505 81.02 
" clip-path="url(#p9f45fdd095)" style="fill: none; stroke: #b0b0b0; stroke-opacity: 0.3; stroke-width: 0.8; stroke-linecap: square"/>
     </g>
     <g id="line2d_18">
      <g>
       <use xlink:href="#mb0a92c7c9c" x="57.17" y="81.02" style="stroke: #000000; stroke-width: 0.8"/>
      </g>
     </g>
     <g id="text_10">
      <!-- 1000 -->
      <g transform="translate(24.72 84.819219) scale(0.1 -0.1)">
       <use xlink:href="#DejaVuSerif-31"/>
       <use xlink:href="#DejaVuSerif-30" x="63.623047"/>
       <use xlink:href="#DejaVuSerif-30" x="127.246094"/>
       <use xlink:href="#DejaVuSerif-30" x="190.869141"/>
      </g>
     </g>
    </g>
    <g id="ytick_4">
     <g id="line2d_19">
      <path d="M 57.17 53.59 
L 440.505 53.59 
" clip-path="url(#p9f45fdd095)" style="fill: none; stroke: #b0b0b0; stroke-opacity: 0.3; stroke-width: 0.8; stroke-linecap: square"/>
     </g>
     <g id="line2d_20">
      <g>
       <use xlink:href="#mb0a92c7c9c" x="57.17" y="53.59" style="stroke: #000000; stroke-width: 0.8"/>
      </g>
     </g>
     <g id="text_11">
      <!-- 1500 -->
      <g transform="translate(24.72 57.389219) scale(0.1 -0.1)">
       <use xlink:href="#DejaVuSerif-31"/>
       <use xlink:href="#DejaVuSerif-35" x="63.623047"/>
       <use xlink:href="#DejaVuSerif-30" x="127.246094"/>
       <use xlink:href="#DejaVuSerif-30" x="190.869141"/>
      </g>
     </g>
    </g>
    <g id="ytick_5">
     <g id="line2d_21">
      <path d="M 57.17 26.16 
L 440.505 26.16 
" clip-path="url(#p9f45fdd095)" style="fill: none; stroke: #b0b0b0; stroke-opacity: 0.3; stroke-width: 0.8; stroke-linecap: square"/>
     </g>
     <g id="line2d_22">
      <g>
       <use xlink:href="#mb0a92c7c9c" x="57.17" y="26.16" style="stroke: #000000; stroke-width: 0.8"/>
      </g>
     </g>
     <g id="text_12">
      <!-- 2000 -->
      <g transform="translate(24.72 29.959219) scale(0.1 -0.1)">
       <use xlink:href="#DejaVuSerif-32"/>
       <use xlink:href="#DejaVuSerif-30" x="63.623047"/>
       <use xlink:href="#DejaVuSerif-30" x="127.246094"/>
       <use xlink:href="#DejaVuSerif-30" x="190.869141"/>
      </g>
     </g>
    </g>
    <g id="text_13">
     <!-- Power [mW] -->
     <g transform="translate(18.640312 112.194219) rotate(-90) scale(0.1 -0.1)">
      <defs>
       <path id="DejaVuSerif-50" d="M 1581 2375 
L 2406 2375 
Q 2872 2375 3115 2626 
Q 3359 2878 3359 3353 
Q 3359 3831 3115 4081 
Q 2872 4331 2406 4331 
L 1581 4331 
L 1581 2375 
z
M 353 0 
L 353 331 
L 947 331 
L 947 4331 
L 353 4331 
L 353 4666 
L 2559 4666 
Q 3259 4666 3668 4311 
Q 4078 3956 4078 3353 
Q 4078 2753 3668 2397 
Q 3259 2041 2559 2041 
L 1581 2041 
L 1581 331 
L 2303 331 
L 2303 0 
L 353 0 
z
" transform="scale(0.015625)"/>
       <path id="DejaVuSerif-6f" d="M 1925 219 
Q 2388 219 2623 584 
Q 2859 950 2859 1663 
Q 2859 2375 2623 2739 
Q 2388 3103 1925 3103 
Q 1463 3103 1227 2739 
Q 991 2375 991 1663 
Q 991 950 1228 584 
Q 1466 219 1925 219 
z
M 1925 -91 
Q 1200 -91 759 389 
Q 319 869 319 1663 
Q 319 2456 758 2934 
Q 1197 3413 1925 3413 
Q 2653 3413 3092 2934 
Q 3531 2456 3531 1663 
Q 3531 869 3092 389 
Q 2653 -91 1925 -91 
z
" transform="scale(0.015625)"/>
       <path id="DejaVuSerif-77" d="M 3072 3322 
L 3922 728 
L 4672 2988 
L 4191 2988 
L 4191 3322 
L 5394 3322 
L 5394 2988 
L 5025 2988 
L 4038 0 
L 3559 0 
L 2741 2484 
L 1919 0 
L 1459 0 
L 475 2988 
L 103 2988 
L 103 3322 
L 1606 3322 
L 1606 2988 
L 1069 2988 
L 1813 728 
L 2669 3322 
L 3072 3322 
z
" transform="scale(0.015625)"/>
       <path id="DejaVuSerif-72" d="M 3059 3328 
L 3059 2497 
L 2728 2497 
Q 2713 2744 2591 2866 
Q 2469 2988 2234 2988 
Q 1809 2988 1582 2694 
Q 1356 2400 1356 1850 
L 1356 331 
L 2022 331 
L 2022 0 
L 263 0 
L 263 331 
L 781 331 
L 781 2994 
L 231 2994 
L 231 3322 
L 1356 3322 
L 1356 2731 
Q 1525 3078 1790 3245 
Q 2056 3413 2438 3413 
Q 2578 3413 2733 3391 
Q 2888 3369 3059 3328 
z
" transform="scale(0.015625)"/>
       <path id="DejaVuSerif-57" d="M 4878 0 
L 4366 0 
L 3297 3794 
L 2228 0 
L 1716 0 
L 494 4331 
L 31 4331 
L 31 4666 
L 1734 4666 
L 1734 4331 
L 1153 4331 
L 2125 884 
L 3188 4666 
L 3694 4666 
L 4775 844 
L 5753 4331 
L 5216 4331 
L 5216 4666 
L 6559 4666 
L 6559 4331 
L 6100 4331 
L 4878 0 
z
" transform="scale(0.015625)"/>
      </defs>
      <use xlink:href="#DejaVuSerif-50"/>
      <use xlink:href="#DejaVuSerif-6f" x="63.285156"/>
      <use xlink:href="#DejaVuSerif-77" x="123.490234"/>
      <use xlink:href="#DejaVuSerif-65" x="209.085938"/>
      <use xlink:href="#DejaVuSerif-72" x="268.265625"/>
      <use xlink:href="#DejaVuSerif-20" x="316.068359"/>
      <use xlink:href="#DejaVuSerif-5b" x="347.855469"/>
      <use xlink:href="#DejaVuSerif-6d" x="386.869141"/>
      <use xlink:href="#DejaVuSerif-57" x="481.693359"/>
      <use xlink:href="#DejaVuSerif-5d" x="584.476562"/>
     </g>
    </g>
   </g>
   <g id="line2d_23">
    <path d="M 57.17 80.835277 
L 57.649468 80.616914 
L 57.889203 80.985094 
L 58.128937 79.655827 
L 58.368671 80.030544 
L 58.608405 79.252915 
L 58.848139 82.137354 
L 59.087874 79.887934 
L 59.327608 81.692625 
L 59.567342 80.970837 
L 59.807076 80.901406 
L 60.046811 80.431958 
L 60.286545 80.77938 
L 60.526279 80.306581 
L 60.766013 80.731114 
L 61.005747 81.654369 
L 61.245482 80.576511 
L 61.485216 82.449898 
L 61.964684 80.534758 
L 62.204418 82.056102 
L 62.444153 80.396273 
L 62.683887 81.866464 
L 62.923621 80.841625 
L 63.163355 81.214111 
L 63.403089 79.586692 
L 63.642824 81.720754 
L 63.882558 80.992514 
L 64.122292 81.876281 
L 64.362026 79.445288 
L 64.60176 81.525162 
L 64.841495 80.627014 
L 65.320963 81.987406 
L 65.560697 79.999856 
L 65.800432 81.505512 
L 66.040166 80.814287 
L 66.2799 81.153077 
L 66.519634 80.849208 
L 66.759368 81.823872 
L 66.999103 79.614693 
L 67.238837 80.406189 
L 67.478571 82.723086 
L 67.958039 80.203181 
L 68.197774 80.879835 
L 68.437508 80.821622 
L 68.677242 80.062018 
L 68.916976 80.859736 
L 69.15671 81.039207 
L 69.396445 80.523254 
L 69.636179 81.655896 
L 69.875913 81.242767 
L 70.115647 80.114429 
L 70.355381 81.103378 
L 70.595116 81.17898 
L 70.83485 81.653482 
L 71.074584 81.254002 
L 71.314318 82.059816 
L 71.554053 81.158129 
L 71.793787 81.69567 
L 72.033521 81.620255 
L 72.273255 81.246915 
L 72.512989 81.387115 
L 72.752724 80.735298 
L 72.992458 80.467997 
L 73.232192 80.677569 
L 73.471926 81.209173 
L 73.71166 81.404308 
L 73.951395 80.601197 
L 74.191129 80.775618 
L 74.910331 80.583626 
L 75.150066 81.945264 
L 75.3898 81.626029 
L 75.629534 80.226742 
L 75.869268 80.54803 
L 76.109003 81.49433 
L 76.348737 80.696685 
L 76.588471 80.285476 
L 77.067939 81.385204 
L 77.307674 80.218734 
L 77.547408 82.637271 
L 77.787142 79.911929 
L 78.26661 81.752481 
L 78.506345 81.020438 
L 78.746079 79.008771 
L 79.225547 81.326417 
L 79.465281 81.248859 
L 79.705016 80.324068 
L 79.94475 81.323193 
L 80.184484 81.730176 
L 80.424218 81.053581 
L 80.663952 81.969765 
L 80.903687 80.734779 
L 81.143421 81.443459 
L 81.383155 81.14679 
L 81.862624 79.838528 
L 82.102358 81.611023 
L 82.342092 80.759644 
L 82.581826 80.907354 
L 82.82156 80.41205 
L 83.061295 80.881206 
L 83.301029 80.660757 
L 83.540763 81.202232 
L 83.780497 80.450994 
L 84.020231 81.240269 
L 84.259966 81.586186 
L 84.4997 80.215148 
L 84.979168 81.679577 
L 85.218902 81.774393 
L 85.458637 80.794271 
L 85.698371 80.39859 
L 85.938105 80.584302 
L 86.177839 81.483395 
L 86.417573 81.404925 
L 86.897042 80.848082 
L 87.136776 79.639274 
L 87.37651 82.562393 
L 87.616245 81.143925 
L 87.855979 81.305156 
L 88.095713 80.889538 
L 88.335447 81.232031 
L 88.575181 82.225404 
L 89.05465 80.122715 
L 89.294384 81.075906 
L 89.534118 80.973616 
L 90.013587 81.738353 
L 90.493055 80.283541 
L 90.732789 81.384137 
L 90.972523 80.231196 
L 91.212258 82.213524 
L 91.691726 79.741394 
L 91.93146 81.036417 
L 92.171194 81.633572 
L 92.410929 80.438337 
L 92.650663 80.077217 
L 92.890397 80.225426 
L 93.130131 81.346762 
L 93.369866 80.872015 
L 93.6096 81.296266 
L 94.089068 81.411152 
L 94.328802 80.647296 
L 94.568537 81.404574 
L 94.808271 81.595468 
L 95.048005 81.295145 
L 95.287739 81.9199 
L 95.527473 81.21458 
L 95.767208 80.005238 
L 96.006942 80.959594 
L 96.246676 80.705111 
L 96.48641 81.215865 
L 96.726144 80.531453 
L 96.965879 80.385654 
L 97.205613 80.704765 
L 97.445347 79.916805 
L 97.685081 80.68833 
L 98.16455 80.29501 
L 98.644018 81.93785 
L 98.883752 80.601118 
L 99.123487 80.915778 
L 99.363221 81.888 
L 99.602955 79.677588 
L 99.842689 80.90938 
L 100.082423 80.135531 
L 100.322158 81.306293 
L 100.801626 80.11399 
L 101.04136 80.343066 
L 101.520829 82.182185 
L 102.000297 81.113214 
L 102.240031 82.342885 
L 102.7195 81.137112 
L 102.959234 80.786626 
L 103.198968 80.144104 
L 103.438702 81.365575 
L 103.918171 80.45795 
L 104.157905 81.304516 
L 104.397639 81.461729 
L 104.637373 81.387448 
L 104.877108 81.611846 
L 105.116842 80.309873 
L 105.356576 81.015662 
L 105.59631 79.233955 
L 106.075779 80.951134 
L 106.315513 81.000035 
L 106.555247 80.360876 
L 106.794981 80.858161 
L 107.034715 81.71143 
L 107.27445 80.920214 
L 107.514184 82.99787 
L 107.993652 80.371968 
L 108.473121 79.04356 
L 108.712855 81.563076 
L 109.192323 80.894595 
L 109.432058 80.825671 
L 109.671792 81.243257 
L 110.15126 80.445533 
L 110.390994 81.718226 
L 110.630729 80.922744 
L 111.110197 80.73675 
L 111.349931 81.461866 
L 111.589665 80.935616 
L 111.8294 81.095013 
L 112.069134 79.825679 
L 112.548602 80.830121 
L 112.788336 80.9611 
L 113.028071 81.493291 
L 113.267805 79.891024 
L 113.507539 81.428317 
L 113.747273 79.793031 
L 113.987008 79.992405 
L 114.226742 81.025478 
L 114.466476 80.940935 
L 115.185679 79.752601 
L 115.425413 81.237344 
L 116.38435 80.553127 
L 116.624084 80.987222 
L 116.863818 80.483516 
L 117.103552 80.623527 
L 117.583021 80.410241 
L 117.822755 81.330323 
L 118.541957 80.214462 
L 119.26116 81.047281 
L 119.500894 79.948895 
L 119.740629 80.337588 
L 119.980363 82.411094 
L 120.220097 79.934013 
L 120.459831 81.126514 
L 120.699565 81.57066 
L 121.179034 81.316772 
L 121.418768 81.434547 
L 121.658502 80.944437 
L 121.898236 81.23504 
L 122.137971 80.695372 
L 122.377705 81.085037 
L 122.617439 81.237756 
L 122.857173 80.576856 
L 123.096907 80.720032 
L 123.336642 80.318006 
L 123.576376 80.50544 
L 123.81611 81.441583 
L 124.055844 81.764258 
L 124.295578 80.464477 
L 124.535313 82.117228 
L 124.775047 80.647675 
L 125.014781 81.140146 
L 125.254515 79.894665 
L 125.733984 81.260133 
L 125.973718 80.915917 
L 126.213452 81.174712 
L 126.453186 80.533701 
L 126.692921 80.74919 
L 126.932655 80.197664 
L 127.412123 81.775158 
L 127.651857 79.845474 
L 127.891592 79.830237 
L 128.131326 81.677724 
L 128.37106 82.49541 
L 128.610794 81.386627 
L 129.329997 81.120068 
L 129.569731 80.770773 
L 129.809465 80.725776 
L 130.049199 80.552812 
L 130.288934 80.730446 
L 130.528668 80.071609 
L 130.768402 80.555729 
L 131.008136 80.682155 
L 131.247871 81.077451 
L 131.487605 82.529956 
L 131.727339 81.330907 
L 131.967073 81.946889 
L 132.206807 81.46777 
L 132.446542 82.496645 
L 132.686276 80.976186 
L 132.92601 80.98089 
L 133.165744 81.885016 
L 133.405478 80.908332 
L 133.645213 81.021525 
L 133.884947 81.826443 
L 134.124681 80.501149 
L 134.364415 80.57805 
L 134.604149 81.621965 
L 135.083618 80.500055 
L 135.323352 81.16311 
L 135.563086 82.22503 
L 135.802821 82.505145 
L 136.042555 80.350169 
L 136.282289 82.188373 
L 136.522023 80.641265 
L 136.761757 81.102988 
L 137.241226 80.642437 
L 137.48096 81.520961 
L 137.720694 80.057327 
L 137.960428 81.028958 
L 138.200163 80.983915 
L 138.439897 81.399435 
L 138.679631 81.051801 
L 138.919365 79.721355 
L 139.159099 81.61391 
L 139.638568 80.195649 
L 139.878302 80.96239 
L 140.118036 80.462374 
L 140.35777 81.58706 
L 140.597505 81.631168 
L 140.837239 79.85075 
L 141.556442 81.82044 
L 141.796176 79.96345 
L 142.03591 81.622783 
L 142.275644 81.633386 
L 142.515378 80.860767 
L 142.755113 81.355591 
L 143.234581 80.466234 
L 143.474315 81.360555 
L 143.953784 81.311406 
L 144.91272 80.707192 
L 145.152455 79.945276 
L 145.631923 80.499883 
L 145.871657 81.560065 
L 146.111391 80.761203 
L 146.351126 81.552277 
L 146.59086 81.274431 
L 146.830594 81.232364 
L 147.070328 82.301258 
L 147.310063 80.334782 
L 147.549797 81.423109 
L 147.789531 81.011494 
L 148.029265 81.161604 
L 148.268999 79.888809 
L 148.508734 81.302236 
L 148.748468 81.000524 
L 148.988202 81.600904 
L 149.227936 82.506472 
L 149.707405 80.42691 
L 149.947139 80.579934 
L 150.186873 80.295937 
L 150.426607 80.321155 
L 150.666341 81.271639 
L 150.906076 80.532009 
L 151.14581 80.627961 
L 151.385544 79.867159 
L 151.625278 81.830539 
L 151.865013 81.072684 
L 152.104747 81.208881 
L 152.344481 81.746683 
L 152.584215 81.911277 
L 152.823949 81.130537 
L 153.063684 80.988288 
L 153.303418 81.581445 
L 153.543152 80.34232 
L 154.02262 81.162402 
L 154.262355 80.389819 
L 154.502089 80.183259 
L 154.741823 80.426732 
L 154.981557 80.927416 
L 155.221291 82.046401 
L 155.461026 81.137456 
L 155.940494 80.46551 
L 156.180228 80.854983 
L 156.419962 81.48852 
L 156.659697 80.32021 
L 156.899431 80.512734 
L 157.139165 81.857837 
L 157.378899 81.426113 
L 157.618634 79.709205 
L 157.858368 81.49102 
L 158.098102 82.301475 
L 158.337836 80.158687 
L 158.57757 80.9544 
L 158.817305 79.427042 
L 159.057039 81.947572 
L 159.536507 81.168172 
L 159.776241 82.124868 
L 160.015976 80.933277 
L 160.25571 80.348752 
L 160.735178 81.576559 
L 161.214647 80.263129 
L 161.454381 81.854039 
L 161.694115 81.016417 
L 161.933849 81.816273 
L 162.173583 80.638681 
L 162.413318 81.280955 
L 162.653052 81.405483 
L 162.892786 80.54645 
L 163.13252 80.989615 
L 163.611989 80.812176 
L 163.851723 81.281747 
L 164.091457 81.122977 
L 164.331191 80.645479 
L 164.570926 81.032606 
L 164.81066 81.77919 
L 165.050394 81.246341 
L 165.290128 82.41957 
L 165.529862 80.461675 
L 166.009331 81.624327 
L 166.249065 80.460625 
L 166.488799 80.597498 
L 166.728533 81.514996 
L 166.968268 80.634193 
L 167.208002 80.395968 
L 167.447736 82.116338 
L 167.68747 80.256787 
L 167.927205 82.30551 
L 168.166939 82.277015 
L 168.406673 81.423455 
L 168.646407 81.185555 
L 168.886141 81.263478 
L 169.125876 81.54388 
L 169.36561 79.56871 
L 169.605344 81.723145 
L 169.845078 81.500206 
L 170.084812 80.787297 
L 170.324547 81.159884 
L 170.564281 80.069276 
L 170.804015 80.114223 
L 171.043749 81.304294 
L 171.283483 80.412461 
L 171.523218 81.07409 
L 171.762952 79.896578 
L 172.002686 80.210126 
L 172.24242 81.368069 
L 172.482154 81.309587 
L 172.721889 80.275877 
L 173.201357 82.210358 
L 173.441091 81.04764 
L 173.680826 81.569891 
L 173.92056 80.054347 
L 174.160294 80.221963 
L 174.400028 81.491685 
L 174.639762 79.952466 
L 174.879497 80.810175 
L 175.119231 80.324998 
L 175.358965 81.556074 
L 175.598699 80.814365 
L 175.838433 82.397336 
L 176.317902 79.965126 
L 176.557636 81.390307 
L 176.79737 81.202624 
L 177.037104 79.861136 
L 177.276839 80.72262 
L 177.516573 80.442499 
L 177.756307 81.87016 
L 177.996041 80.745485 
L 178.235775 81.744905 
L 178.47551 80.138926 
L 178.715244 81.19914 
L 178.954978 80.402914 
L 179.194712 81.130829 
L 179.434447 80.019967 
L 179.674181 80.768262 
L 179.913915 80.135716 
L 180.153649 80.408627 
L 180.393383 81.641777 
L 180.872852 80.103266 
L 181.112586 80.664079 
L 181.35232 81.919517 
L 181.592054 79.349356 
L 181.831789 81.686846 
L 182.071523 79.338315 
L 182.311257 82.07373 
L 182.550991 80.901021 
L 183.03046 80.379748 
L 183.270194 80.595405 
L 183.509928 80.530823 
L 183.749662 81.769406 
L 184.468865 80.044596 
L 184.708599 81.268149 
L 184.948333 81.789023 
L 185.188068 81.301904 
L 185.427802 80.359174 
L 185.667536 80.999658 
L 185.90727 80.607791 
L 186.147004 81.334189 
L 186.386739 80.973359 
L 186.866207 82.777142 
L 187.105941 82.564077 
L 187.58541 80.473712 
L 187.825144 81.565582 
L 188.064878 80.108892 
L 188.304612 81.822369 
L 188.544346 80.87396 
L 188.784081 80.453028 
L 189.023815 80.503638 
L 189.263549 81.311328 
L 189.503283 81.491013 
L 189.743018 81.221278 
L 189.982752 80.380767 
L 190.222486 80.373163 
L 190.46222 80.509234 
L 190.701954 81.665349 
L 190.941689 80.359902 
L 191.421157 81.271576 
L 191.660891 80.833853 
L 191.900625 79.872183 
L 192.380094 81.660342 
L 192.619828 80.498376 
L 192.859562 81.48035 
L 193.099296 81.754459 
L 193.339031 80.685769 
L 193.818499 81.540294 
L 194.058233 81.12153 
L 194.777436 80.720093 
L 195.01717 81.207974 
L 195.256904 81.406092 
L 195.496639 80.519309 
L 195.736373 81.994222 
L 195.976107 81.132739 
L 196.215841 80.727896 
L 196.455575 80.696979 
L 196.69531 80.997616 
L 196.935044 80.742205 
L 197.174778 81.11967 
L 197.414512 80.9556 
L 197.654246 79.806227 
L 197.893981 80.855711 
L 198.133715 81.362594 
L 198.373449 82.309063 
L 198.613183 80.508774 
L 198.852917 81.397184 
L 199.092652 81.385003 
L 199.57212 80.913961 
L 199.811854 81.430496 
L 200.051588 81.271182 
L 200.291323 81.303122 
L 200.531057 80.588512 
L 201.010525 80.000898 
L 201.25026 81.222957 
L 201.489994 81.533344 
L 201.729728 80.571517 
L 201.969462 81.2311 
L 202.209196 81.215302 
L 202.448931 80.975987 
L 202.688665 80.423015 
L 202.928399 82.513981 
L 203.168133 80.875106 
L 203.407867 81.751166 
L 203.647602 81.089369 
L 203.887336 82.125328 
L 204.12707 82.088738 
L 204.366804 81.066297 
L 204.606538 81.020035 
L 204.846273 80.231915 
L 205.086007 80.826586 
L 205.325741 80.286422 
L 205.80521 81.856024 
L 206.044944 81.303459 
L 206.284678 80.121054 
L 206.524412 82.16276 
L 206.764146 81.109917 
L 207.003881 81.580267 
L 207.483349 81.20992 
L 207.962817 80.984598 
L 208.202552 80.437787 
L 208.442286 81.301921 
L 208.68202 81.418724 
L 208.921754 80.688977 
L 209.161488 81.948762 
L 209.640957 80.032536 
L 209.880691 81.894379 
L 210.120425 79.570247 
L 210.599894 81.32056 
L 210.839628 80.376662 
L 211.079362 80.481899 
L 211.319096 81.862814 
L 211.558831 80.571447 
L 211.798565 80.19843 
L 212.038299 80.332006 
L 212.278033 82.123523 
L 212.517767 82.066171 
L 212.757502 82.257923 
L 212.997236 80.895967 
L 213.23697 80.24262 
L 213.476704 80.967149 
L 214.195907 81.644615 
L 214.435641 81.992626 
L 214.675375 80.910311 
L 214.915109 81.738877 
L 215.154844 81.699996 
L 215.634312 80.636109 
L 215.874046 80.626344 
L 216.11378 79.155198 
L 216.353515 81.706729 
L 216.593249 79.675607 
L 216.832983 80.528826 
L 217.072717 81.827553 
L 217.312452 80.16343 
L 217.79192 82.313388 
L 218.031654 81.28473 
L 218.271388 81.687622 
L 218.511123 81.208654 
L 218.750857 81.290801 
L 218.990591 80.913296 
L 219.230325 80.974011 
L 219.470059 80.345253 
L 219.709794 80.536358 
L 219.949528 80.465345 
L 220.189262 81.086115 
L 220.428996 80.746431 
L 220.66873 80.077143 
L 220.908465 81.384992 
L 221.148199 81.892608 
L 221.387933 81.157218 
L 221.627667 81.185989 
L 222.107136 80.865325 
L 222.34687 80.105174 
L 222.586604 80.383785 
L 222.826338 81.284132 
L 223.066073 81.626691 
L 223.545541 80.752094 
L 223.785275 80.632888 
L 224.025009 81.591476 
L 224.264744 81.651243 
L 224.504478 80.210734 
L 224.744212 81.259207 
L 224.983946 79.936582 
L 225.22368 79.627541 
L 225.463415 80.878616 
L 225.703149 80.388129 
L 225.942883 80.988879 
L 226.182617 80.212462 
L 226.422351 80.281433 
L 226.662086 82.195089 
L 226.90182 81.326766 
L 227.141554 81.159756 
L 227.381288 81.766956 
L 227.621023 80.840875 
L 227.860757 80.499222 
L 228.340225 82.267607 
L 228.579959 80.873805 
L 229.059428 82.25162 
L 229.299162 80.973873 
L 229.538896 81.171583 
L 229.77863 80.545212 
L 230.018365 81.687361 
L 230.497833 80.871831 
L 230.737567 79.193208 
L 230.977301 80.8487 
L 231.217036 80.222076 
L 231.696504 81.915674 
L 231.936238 80.123771 
L 232.175972 81.500204 
L 232.415707 80.468909 
L 232.655441 80.905317 
L 232.895175 81.0861 
L 233.134909 81.650699 
L 233.374644 81.411162 
L 233.614378 79.658167 
L 233.854112 80.388892 
L 234.093846 80.568571 
L 234.33358 80.996127 
L 234.573315 80.553418 
L 234.813049 81.007386 
L 235.052783 82.477529 
L 235.532251 80.627143 
L 235.771986 81.811604 
L 236.01172 80.535426 
L 236.251454 81.336184 
L 236.970657 79.872344 
L 237.210391 79.998846 
L 237.450125 81.255497 
L 237.689859 80.550407 
L 237.929593 81.113017 
L 238.409062 81.092489 
L 238.648796 83.005718 
L 238.88853 81.05765 
L 239.128265 80.84147 
L 239.367999 80.468521 
L 239.607733 80.81985 
L 239.847467 80.614625 
L 240.087201 81.085125 
L 240.326936 80.97524 
L 240.56667 80.623355 
L 240.806404 81.394367 
L 241.046138 80.904701 
L 241.285872 81.485263 
L 241.525607 81.59803 
L 241.765341 81.302927 
L 242.005075 81.947727 
L 242.244809 80.777251 
L 242.484543 80.880872 
L 242.724278 81.676831 
L 242.964012 81.215645 
L 243.203746 82.171774 
L 243.44348 81.742147 
L 243.683215 81.581606 
L 243.922949 80.500014 
L 244.162683 80.334905 
L 244.402417 81.581215 
L 244.642151 81.324431 
L 244.881886 80.124646 
L 245.12162 80.948274 
L 245.361354 80.996835 
L 245.601088 80.259479 
L 245.840822 81.488379 
L 246.080557 80.148447 
L 246.320291 82.77095 
L 246.799759 80.3443 
L 247.039493 80.095982 
L 247.279228 81.458849 
L 247.518962 80.026898 
L 247.758696 80.757109 
L 248.238164 81.068676 
L 248.477899 80.848822 
L 248.717633 83.49398 
L 248.957367 81.13439 
L 249.197101 81.454907 
L 249.436836 80.815107 
L 250.156038 81.689864 
L 250.395772 80.223418 
L 250.635507 80.37488 
L 250.875241 81.639884 
L 251.114975 81.445419 
L 251.354709 82.225178 
L 251.594443 81.87734 
L 252.073912 80.332725 
L 252.313646 80.490211 
L 252.55338 81.462753 
L 252.793114 79.847078 
L 253.272583 81.01069 
L 253.512317 80.057942 
L 253.752051 81.028443 
L 253.991785 81.388376 
L 254.471254 81.159772 
L 254.710988 80.478956 
L 254.950722 81.171631 
L 255.190457 81.029257 
L 255.430191 81.307469 
L 255.909659 81.23632 
L 256.149393 80.77406 
L 256.389128 80.673553 
L 256.628862 80.10991 
L 256.868596 81.778512 
L 257.10833 79.75005 
L 257.348064 80.407337 
L 257.587799 81.439049 
L 257.827533 81.010552 
L 258.067267 79.74136 
L 258.546735 81.70305 
L 258.78647 79.921465 
L 259.026204 82.005637 
L 259.505672 80.620007 
L 259.745407 81.261194 
L 259.985141 81.364573 
L 260.224875 82.623632 
L 260.464609 80.070729 
L 260.704343 80.707022 
L 260.944078 79.949433 
L 261.183812 81.389956 
L 261.423546 80.331309 
L 261.66328 80.034011 
L 261.903014 82.434914 
L 262.142749 81.216834 
L 262.382483 81.655687 
L 262.622217 79.944585 
L 263.581154 81.894143 
L 263.820888 81.57991 
L 264.060622 83.336217 
L 264.300356 81.135747 
L 264.540091 80.446784 
L 264.779825 80.544902 
L 265.019559 80.971012 
L 265.259293 80.744568 
L 265.499028 81.455602 
L 265.738762 81.206979 
L 265.978496 81.664328 
L 266.21823 80.671836 
L 266.457964 80.777097 
L 266.697699 80.120428 
L 266.937433 80.967687 
L 267.177167 79.9226 
L 267.416901 80.916352 
L 267.656635 81.004501 
L 267.89637 80.881278 
L 268.136104 82.209436 
L 268.375838 80.608797 
L 268.615572 82.096967 
L 268.855306 80.565179 
L 269.095041 81.458353 
L 269.334775 81.152994 
L 269.574509 79.495671 
L 269.814243 81.36309 
L 270.053977 80.625527 
L 270.293712 82.08195 
L 270.533446 80.661857 
L 271.012914 81.461019 
L 271.252649 82.318704 
L 271.732117 81.550494 
L 272.211585 81.528462 
L 272.45132 81.806961 
L 272.930788 80.238841 
L 273.410256 81.643709 
L 273.649991 80.973126 
L 273.889725 80.731797 
L 274.129459 80.062722 
L 274.369193 81.006253 
L 274.608927 80.548165 
L 274.848662 80.980372 
L 275.32813 79.43784 
L 275.567864 82.046982 
L 276.047333 80.115971 
L 276.287067 81.301474 
L 276.526801 80.648819 
L 276.766535 80.660217 
L 277.00627 80.265246 
L 277.246004 81.1465 
L 277.725472 81.472364 
L 277.965206 80.734172 
L 278.204941 81.019472 
L 278.444675 81.068626 
L 278.684409 80.585885 
L 278.924143 81.04473 
L 279.163877 82.414345 
L 279.403612 81.475297 
L 279.643346 81.797505 
L 279.88308 82.695377 
L 280.122814 80.695764 
L 280.362548 80.624916 
L 280.602283 81.634855 
L 280.842017 81.155781 
L 281.321485 81.598449 
L 281.800954 80.846371 
L 282.040688 82.0851 
L 282.280422 82.615306 
L 282.520156 80.891837 
L 282.759891 80.568506 
L 282.999625 81.536895 
L 283.239359 80.720025 
L 283.479093 81.788359 
L 283.718827 80.837362 
L 283.958562 81.406018 
L 284.198296 79.415606 
L 284.43803 80.721522 
L 284.677764 80.566315 
L 284.917498 80.791785 
L 285.157233 80.241286 
L 285.396967 81.447648 
L 285.636701 80.493743 
L 285.876435 81.971589 
L 286.116169 82.221145 
L 286.355904 80.252384 
L 286.595638 81.327835 
L 286.835372 80.287319 
L 287.075106 82.077913 
L 287.314841 81.806455 
L 287.554575 80.853572 
L 287.794309 80.708593 
L 288.034043 80.711536 
L 288.273777 81.603275 
L 288.513512 80.265419 
L 288.753246 81.469796 
L 288.99298 80.810033 
L 289.232714 81.337261 
L 289.472448 80.034393 
L 289.712183 80.124005 
L 289.951917 80.565047 
L 290.191651 81.493871 
L 290.431385 81.420703 
L 290.671119 80.644321 
L 290.910854 79.205622 
L 291.150588 80.515174 
L 291.390322 80.86545 
L 291.630056 80.609214 
L 291.86979 80.990268 
L 292.109525 80.794424 
L 292.349259 80.86874 
L 292.588993 80.277143 
L 292.828727 81.395577 
L 293.068462 79.927907 
L 293.308196 80.102627 
L 293.54793 81.189746 
L 294.267133 82.356653 
L 294.506867 80.667584 
L 294.986335 81.909468 
L 295.226069 80.637494 
L 295.465804 79.971358 
L 295.705538 80.669234 
L 296.185006 80.320672 
L 296.42474 82.269842 
L 296.664475 81.097821 
L 296.904209 80.527903 
L 297.143943 81.767499 
L 297.383677 80.979385 
L 297.623412 80.651049 
L 297.863146 80.988294 
L 298.10288 80.481286 
L 298.342614 81.421198 
L 298.582348 82.868777 
L 298.822083 81.554528 
L 299.061817 81.18057 
L 299.541285 79.766002 
L 299.781019 80.30785 
L 300.020754 80.52142 
L 300.260488 81.325913 
L 300.500222 80.563167 
L 300.739956 80.372389 
L 300.97969 82.064709 
L 301.219425 80.109551 
L 301.459159 80.502878 
L 301.698893 80.357975 
L 301.938627 81.520721 
L 302.178361 81.015173 
L 302.418096 81.17296 
L 302.65783 79.752896 
L 302.897564 80.893777 
L 303.137298 81.247841 
L 303.616767 80.985458 
L 303.856501 81.391535 
L 304.096235 83.089691 
L 304.335969 80.11343 
L 304.575704 82.242031 
L 304.815438 81.107657 
L 305.055172 81.331166 
L 305.53464 80.932733 
L 305.774375 81.977941 
L 306.014109 81.048651 
L 306.253843 80.988009 
L 306.493577 80.127884 
L 306.733311 79.817317 
L 306.973046 81.508067 
L 307.21278 81.308898 
L 307.452514 81.862401 
L 307.931982 81.415957 
L 308.171717 80.385025 
L 308.411451 81.693921 
L 308.890919 80.645267 
L 309.130654 82.181539 
L 309.370388 80.611438 
L 309.610122 81.031044 
L 309.849856 80.33372 
L 310.08959 81.432651 
L 310.329325 81.574669 
L 310.569059 81.295009 
L 310.808793 80.638196 
L 311.048527 82.276437 
L 311.288261 82.337902 
L 311.527996 81.39652 
L 311.76773 82.40346 
L 312.007464 80.60524 
L 312.247198 80.412586 
L 312.486932 80.373393 
L 312.966401 82.102402 
L 313.206135 80.639223 
L 313.445869 81.115265 
L 313.685604 81.035963 
L 314.165072 81.39096 
L 314.404806 80.935069 
L 314.64454 80.884705 
L 314.884275 81.869299 
L 315.124009 81.660185 
L 315.363743 80.442957 
L 315.603477 81.771815 
L 315.843211 81.748714 
L 316.082946 80.298806 
L 316.32268 81.620148 
L 316.562414 79.23623 
L 316.802148 79.32087 
L 317.041882 81.765321 
L 317.281617 80.731601 
L 317.521351 81.344708 
L 317.761085 81.399819 
L 318.240553 80.881851 
L 318.480288 81.811571 
L 318.720022 83.31992 
L 318.959756 81.433484 
L 319.19949 80.6706 
L 319.439225 81.252109 
L 319.678959 81.406093 
L 319.918693 81.404258 
L 320.158427 79.547731 
L 320.398161 80.924411 
L 320.637896 81.456303 
L 320.87763 80.656413 
L 321.117364 81.116151 
L 321.596832 80.323594 
L 321.836567 81.210332 
L 322.076301 84.161083 
L 322.316035 80.617945 
L 322.555769 80.431045 
L 322.795503 81.5778 
L 323.274972 80.401882 
L 323.514706 79.923094 
L 323.75444 81.780609 
L 323.994174 80.670104 
L 324.233909 81.88914 
L 324.473643 81.084377 
L 324.713377 82.48816 
L 324.953111 80.019243 
L 325.192846 80.903898 
L 325.43258 80.355484 
L 325.912048 79.951397 
L 326.151782 80.048951 
L 326.391517 81.010119 
L 326.631251 80.133092 
L 326.870985 82.128953 
L 327.110719 80.918094 
L 327.350453 81.08958 
L 327.590188 81.572718 
L 327.829922 80.678447 
L 328.069656 81.223542 
L 328.30939 81.465508 
L 328.549124 79.589205 
L 329.028593 81.619819 
L 329.268327 82.00334 
L 329.98753 80.13792 
L 330.227264 80.08947 
L 330.466998 81.897628 
L 330.706732 81.08768 
L 330.946467 81.030389 
L 331.186201 81.227097 
L 331.425935 80.565696 
L 331.665669 80.818389 
L 331.905403 81.270089 
L 332.145138 80.672159 
L 332.384872 80.640627 
L 332.624606 80.346281 
L 332.86434 81.611648 
L 333.104074 81.248497 
L 333.343809 82.904165 
L 333.583543 79.900744 
L 334.063011 80.820534 
L 334.302745 82.462835 
L 334.54248 80.954425 
L 334.782214 80.177299 
L 335.021948 80.892322 
L 335.261682 80.245883 
L 335.501417 80.126765 
L 335.741151 81.455077 
L 335.980885 80.296449 
L 336.220619 81.589495 
L 336.460353 80.739832 
L 336.700088 80.797111 
L 336.939822 81.868682 
L 337.179556 80.234388 
L 337.41929 81.228333 
L 337.659024 79.20301 
L 337.898759 80.128715 
L 338.138493 80.115769 
L 338.378227 79.61277 
L 338.617961 81.105491 
L 338.857695 80.529872 
L 339.09743 82.658707 
L 339.337164 81.954482 
L 339.576898 82.531428 
L 339.816632 81.852679 
L 340.296101 79.371219 
L 340.775569 82.256704 
L 341.255038 81.052914 
L 341.494772 81.610371 
L 341.734506 80.442974 
L 341.97424 80.308701 
L 342.453709 81.782854 
L 342.693443 80.219713 
L 342.933177 79.846986 
L 343.172911 82.011452 
L 343.412645 81.485909 
L 343.65238 82.19967 
L 343.892114 81.375302 
L 344.131848 81.628457 
L 344.371582 78.920136 
L 344.611316 81.410348 
L 344.851051 81.324064 
L 345.090785 81.433169 
L 345.330519 80.848729 
L 345.570253 81.638677 
L 345.809987 81.674642 
L 346.049722 81.436542 
L 346.289456 80.476012 
L 346.52919 81.102369 
L 346.768924 80.047251 
L 347.008659 80.583297 
L 347.248393 80.241222 
L 347.488127 79.193802 
L 347.727861 79.709656 
L 347.967595 81.54904 
L 348.20733 81.864059 
L 348.447064 80.293011 
L 348.686798 81.088213 
L 348.926532 81.350009 
L 349.406001 80.961701 
L 349.645735 80.72005 
L 349.885469 79.755425 
L 350.125203 80.953625 
L 350.364937 81.418398 
L 350.604672 81.163185 
L 350.844406 80.673417 
L 351.08414 80.932591 
L 351.323874 79.621089 
L 351.803343 81.384782 
L 352.043077 80.759267 
L 352.282811 81.76576 
L 352.522545 80.822469 
L 352.76228 82.764291 
L 353.002014 80.826484 
L 353.241748 81.379313 
L 353.481482 80.261453 
L 353.721216 81.197502 
L 354.200685 80.686511 
L 354.440419 80.414365 
L 354.680153 81.865068 
L 354.919887 82.163054 
L 355.159622 80.217247 
L 355.399356 80.80232 
L 355.63909 80.387467 
L 355.878824 81.153758 
L 356.118558 80.208456 
L 356.358293 82.350537 
L 356.598027 81.815196 
L 356.837761 80.73303 
L 357.077495 80.99813 
L 357.31723 80.168705 
L 357.796698 81.254407 
L 358.036432 79.941849 
L 358.276166 81.77087 
L 358.515901 81.514892 
L 358.755635 80.882304 
L 358.995369 82.096718 
L 359.235103 81.117512 
L 359.474837 80.749302 
L 359.714572 81.642375 
L 359.954306 79.567516 
L 360.19404 81.249352 
L 360.433774 82.024412 
L 360.913243 81.684274 
L 361.392711 80.164827 
L 361.632445 80.232813 
L 361.872179 81.658303 
L 362.111914 80.559073 
L 362.591382 80.985374 
L 362.831116 79.980989 
L 363.070851 81.310401 
L 363.310585 80.259562 
L 363.550319 81.429172 
L 363.790053 81.819641 
L 364.029787 80.606222 
L 364.269522 81.52028 
L 364.509256 80.585104 
L 364.74899 81.488511 
L 364.988724 81.316598 
L 365.228458 79.120134 
L 365.468193 81.91553 
L 365.707927 80.906937 
L 365.947661 81.81198 
L 366.187395 81.075944 
L 366.427129 81.21452 
L 366.666864 80.51877 
L 366.906598 80.897229 
L 367.146332 81.709639 
L 367.386066 80.675963 
L 367.625801 81.504275 
L 367.865535 80.425848 
L 368.105269 81.790607 
L 368.584737 81.337017 
L 368.824472 81.922287 
L 369.064206 82.053956 
L 369.30394 81.049552 
L 369.543674 81.030474 
L 369.783408 80.469312 
L 370.023143 81.978919 
L 370.262877 79.845688 
L 370.502611 81.109837 
L 370.742345 81.391819 
L 370.982079 82.022207 
L 371.221814 80.574555 
L 371.461548 82.767849 
L 371.701282 82.016693 
L 371.941016 80.170121 
L 372.18075 82.128783 
L 372.420485 80.781422 
L 372.660219 81.317401 
L 373.139687 80.786185 
L 373.379422 80.764293 
L 373.619156 80.184342 
L 374.338358 80.708636 
L 374.578093 80.424764 
L 374.817827 81.49804 
L 375.057561 79.597243 
L 375.297295 82.20582 
L 375.776764 81.024281 
L 376.016498 81.447121 
L 376.256232 81.102794 
L 376.495966 81.516388 
L 376.7357 80.736623 
L 376.975435 81.538987 
L 377.454903 81.582197 
L 377.694637 80.449737 
L 377.934371 80.42948 
L 378.174106 80.204751 
L 378.41384 80.941054 
L 378.653574 81.135882 
L 378.893308 80.595531 
L 379.133043 82.258128 
L 379.372777 80.045074 
L 379.852245 81.39304 
L 380.091979 81.43183 
L 380.331714 80.927608 
L 380.571448 80.892763 
L 380.811182 79.737425 
L 381.050916 79.593487 
L 381.29065 80.636679 
L 381.770119 80.06362 
L 382.009853 80.987921 
L 382.249587 80.691219 
L 382.489321 80.602186 
L 382.729056 81.585724 
L 382.96879 81.482556 
L 383.448258 79.821407 
L 383.687992 80.427042 
L 383.927727 80.401083 
L 384.167461 81.481451 
L 384.407195 80.43843 
L 384.646929 80.921185 
L 384.886664 80.364081 
L 385.126398 81.059222 
L 385.366132 81.221481 
L 385.605866 80.044269 
L 385.8456 81.481444 
L 386.085335 81.547634 
L 386.325069 80.669538 
L 386.564803 80.298016 
L 386.804537 81.16615 
L 387.044271 81.280694 
L 387.284006 80.2304 
L 387.763474 81.03599 
L 388.003208 80.902475 
L 388.242942 82.162849 
L 388.482677 80.806474 
L 388.722411 82.818607 
L 388.962145 80.79719 
L 389.201879 80.439462 
L 389.441614 80.438947 
L 389.681348 81.40439 
L 389.921082 80.677777 
L 390.160816 80.837281 
L 390.40055 81.409029 
L 390.640285 80.711325 
L 391.119753 80.16224 
L 391.359487 80.959221 
L 391.599221 80.952525 
L 391.838956 80.433781 
L 392.07869 80.735556 
L 392.318424 81.601555 
L 392.558158 80.979882 
L 392.797892 81.117302 
L 393.037627 82.220007 
L 393.277361 79.639643 
L 393.517095 80.271068 
L 393.756829 80.587128 
L 393.996563 81.295726 
L 394.236298 82.481041 
L 394.476032 80.703437 
L 394.9555 82.209452 
L 395.434969 80.741945 
L 395.674703 81.311668 
L 395.914437 81.297444 
L 396.154171 81.866124 
L 396.393906 81.477541 
L 396.63364 81.614631 
L 396.873374 81.109674 
L 397.113108 81.759984 
L 397.352842 80.625256 
L 397.832311 81.49462 
L 398.072045 81.288133 
L 398.311779 81.312467 
L 398.551513 80.130715 
L 398.791248 81.183194 
L 399.030982 81.436552 
L 399.270716 80.290536 
L 399.51045 80.331215 
L 399.750184 81.465414 
L 400.469387 81.316817 
L 400.709121 79.954523 
L 401.18859 80.145239 
L 401.428324 80.563417 
L 401.668058 81.223012 
L 401.907792 80.056173 
L 402.147527 81.102015 
L 402.626995 81.34161 
L 402.866729 82.745881 
L 403.346198 80.844955 
L 403.585932 81.187745 
L 403.825666 80.933521 
L 404.0654 81.1973 
L 404.305134 80.494474 
L 404.544869 81.089799 
L 404.784603 80.02021 
L 405.024337 80.664391 
L 405.264071 82.042817 
L 405.503806 81.029356 
L 405.74354 79.361353 
L 405.983274 81.480015 
L 406.223008 82.417368 
L 406.462742 80.622542 
L 406.702477 81.987323 
L 406.942211 81.701922 
L 407.181945 81.630196 
L 407.421679 80.315832 
L 407.661413 80.965766 
L 407.901148 79.60813 
L 408.140882 81.104884 
L 408.380616 80.36418 
L 408.62035 80.84309 
L 408.860084 80.87208 
L 409.099819 81.045178 
L 409.339553 80.391074 
L 409.579287 81.695351 
L 409.819021 80.253366 
L 410.058755 81.35032 
L 410.29849 80.320598 
L 410.538224 81.053246 
L 410.777958 80.321046 
L 411.017692 80.776512 
L 411.257427 80.793458 
L 411.497161 81.582472 
L 411.736895 80.639374 
L 411.976629 81.198119 
L 412.216363 81.075716 
L 412.935566 80.412167 
L 413.1753 82.103514 
L 413.415034 80.577726 
L 413.654769 80.195394 
L 413.894503 80.823487 
L 414.134237 80.948296 
L 414.373971 80.137649 
L 414.613705 82.481806 
L 415.093174 81.396335 
L 415.332908 81.006004 
L 415.572642 81.205334 
L 415.812376 81.556283 
L 416.052111 81.509588 
L 416.291845 81.218827 
L 416.531579 81.474322 
L 417.011048 80.434787 
L 417.250782 81.947798 
L 417.490516 81.634454 
L 417.73025 80.726441 
L 417.969984 81.819464 
L 418.209719 81.243478 
L 418.449453 81.45994 
L 418.689187 82.362592 
L 419.168655 80.849282 
L 419.40839 79.780952 
L 419.648124 80.842628 
L 419.887858 80.759676 
L 420.127592 79.710074 
L 420.367326 81.13976 
L 420.607061 80.649595 
L 421.086529 81.616455 
L 421.326263 81.757976 
L 421.565997 80.666924 
L 421.805732 80.921566 
L 422.045466 80.52765 
L 422.2852 79.502546 
L 422.524934 81.96895 
L 422.764669 80.06731 
L 423.004403 81.69699 
L 423.244137 80.623958 
L 423.483871 80.085771 
L 423.723605 81.308248 
L 423.96334 81.148158 
L 424.203074 82.255085 
L 424.442808 80.641477 
L 424.682542 81.683957 
L 424.922276 81.283495 
L 425.162011 82.530369 
L 425.641479 81.276027 
L 425.881213 81.156134 
L 426.120947 80.480002 
L 426.360682 81.19421 
L 426.600416 81.294367 
L 426.84015 80.821646 
L 427.079884 80.771313 
L 427.319619 79.900388 
L 427.559353 80.292354 
L 427.799087 80.05149 
L 428.038821 80.238781 
L 428.278555 82.051702 
L 428.51829 80.830928 
L 428.758024 82.393458 
L 428.997758 79.228779 
L 429.237492 81.282249 
L 429.477226 81.183581 
L 429.716961 81.446793 
L 429.956695 82.714531 
L 430.196429 81.10957 
L 430.675897 81.573473 
L 430.915632 80.77806 
L 431.3951 81.67533 
L 431.634834 81.094958 
L 431.874568 79.535284 
L 432.114303 81.661398 
L 432.354037 81.162256 
L 432.593771 81.027437 
L 432.833505 81.504685 
L 433.07324 80.73129 
L 433.552708 80.467709 
L 433.792442 81.570825 
L 434.032176 81.855413 
L 434.271911 80.72607 
L 434.511645 80.985896 
L 434.751379 81.646653 
L 435.230847 81.846883 
L 435.470582 81.225425 
L 435.95005 80.93327 
L 436.189784 80.70083 
L 436.429518 82.651789 
L 436.669253 81.311012 
L 436.908987 80.707586 
L 437.148721 81.468116 
L 437.388455 80.967474 
L 437.628189 80.932632 
L 437.867924 81.630705 
L 438.107658 81.466671 
L 438.347392 80.956016 
L 438.587126 79.563474 
L 439.066595 81.145127 
L 439.306329 80.617668 
L 439.546063 80.920067 
L 439.785797 80.624235 
L 440.025532 82.30707 
L 440.265266 79.862088 
L 440.505 80.522115 
L 440.505 80.522115 
" clip-path="url(#p9f45fdd095)" style="fill: none; stroke: #0000ff; stroke-width: 1.5; stroke-linecap: square"/>
   </g>
   <g id="patch_3">
    <path d="M 57.17 135.88 
L 57.17 26.16 
" style="fill: none; stroke: #000000; stroke-width: 0.8; stroke-linejoin: miter; stroke-linecap: square"/>
   </g>
   <g id="patch_4">
    <path d="M 440.505 135.88 
L 440.505 26.16 
" style="fill: none; stroke: #000000; stroke-width: 0.8; stroke-linejoin: miter; stroke-linecap: square"/>
   </g>
   <g id="patch_5">
    <path d="M 57.17 135.88 
L 440.505 135.88 
" style="fill: none; stroke: #000000; stroke-width: 0.8; stroke-linejoin: miter; stroke-linecap: square"/>
   </g>
   <g id="patch_6">
    <path d="M 57.17 26.16 
L 440.505 26.16 
" style="fill: none; stroke: #000000; stroke-width: 0.8; stroke-linejoin: miter; stroke-linecap: square"/>
   </g>
   <g id="text_14">
    <!-- Time Domain -->
    <g transform="translate(208.295312 20.16) scale(0.12 -0.12)">
     <defs>
      <path id="DejaVuSerif-44" d="M 1581 331 
L 2163 331 
Q 3072 331 3558 850 
Q 4044 1369 4044 2338 
Q 4044 3306 3559 3818 
Q 3075 4331 2163 4331 
L 1581 4331 
L 1581 331 
z
M 353 0 
L 353 331 
L 947 331 
L 947 4331 
L 353 4331 
L 353 4666 
L 2209 4666 
Q 3416 4666 4089 4050 
Q 4763 3434 4763 2338 
Q 4763 1238 4088 619 
Q 3413 0 2209 0 
L 353 0 
z
" transform="scale(0.015625)"/>
      <path id="DejaVuSerif-61" d="M 2547 1044 
L 2547 1747 
L 1806 1747 
Q 1378 1747 1168 1562 
Q 959 1378 959 997 
Q 959 650 1171 447 
Q 1384 244 1747 244 
Q 2106 244 2326 466 
Q 2547 688 2547 1044 
z
M 3122 2075 
L 3122 331 
L 3634 331 
L 3634 0 
L 2547 0 
L 2547 359 
Q 2356 128 2106 18 
Q 1856 -91 1522 -91 
Q 969 -91 644 203 
Q 319 497 319 997 
Q 319 1513 691 1797 
Q 1063 2081 1741 2081 
L 2547 2081 
L 2547 2309 
Q 2547 2688 2317 2895 
Q 2088 3103 1672 3103 
Q 1328 3103 1125 2947 
Q 922 2791 872 2484 
L 575 2484 
L 575 3156 
Q 875 3284 1158 3348 
Q 1441 3413 1709 3413 
Q 2400 3413 2761 3070 
Q 3122 2728 3122 2075 
z
" transform="scale(0.015625)"/>
     </defs>
     <use xlink:href="#DejaVuSerif-54"/>
     <use xlink:href="#DejaVuSerif-69" x="66.699219"/>
     <use xlink:href="#DejaVuSerif-6d" x="98.681641"/>
     <use xlink:href="#DejaVuSerif-65" x="193.505859"/>
     <use xlink:href="#DejaVuSerif-20" x="252.685547"/>
     <use xlink:href="#DejaVuSerif-44" x="284.472656"/>
     <use xlink:href="#DejaVuSerif-6f" x="364.648438"/>
     <use xlink:href="#DejaVuSerif-6d" x="424.853516"/>
     <use xlink:href="#DejaVuSerif-61" x="519.677734"/>
     <use xlink:href="#DejaVuSerif-69" x="579.296875"/>
     <use xlink:href="#DejaVuSerif-6e" x="611.279297"/>
    </g>
   </g>
  </g>
  <g id="axes_2">
   <g id="patch_7">
    <path d="M 57.17 303.64 
L 440.505 303.64 
L 440.505 193.92 
L 57.17 193.92 
z
" style="fill: #ffffff"/>
   </g>
   <g id="matplotlib.axis_3">
    <g id="xtick_7">
     <g id="line2d_24">
      <path d="M 84.551071 303.64 
L 84.551071 193.92 
" clip-path="url(#pfa3418ab5e)" style="fill: none; stroke: #000000; stroke-opacity: 0.3; stroke-width: 0.8; stroke-linecap: square"/>
     </g>
     <g id="line2d_25">
      <g>
       <use xlink:href="#mfa44cafaa2" x="84.551071" y="303.64" style="stroke: #000000; stroke-width: 0.8"/>
      </g>
     </g>
     <g id="text_15">
      <!-- 3 -->
      <g transform="translate(77.179978 318.238437) scale(0.1 -0.1)">
       <defs>
        <path id="DejaVuSans-2212" d="M 678 2272 
L 4684 2272 
L 4684 1741 
L 678 1741 
L 678 2272 
z
" transform="scale(0.015625)"/>
        <path id="DejaVuSans-33" d="M 2597 2516 
Q 3050 2419 3304 2112 
Q 3559 1806 3559 1356 
Q 3559 666 3084 287 
Q 2609 -91 1734 -91 
Q 1441 -91 1130 -33 
Q 819 25 488 141 
L 488 750 
Q 750 597 1062 519 
Q 1375 441 1716 441 
Q 2309 441 2620 675 
Q 2931 909 2931 1356 
Q 2931 1769 2642 2001 
Q 2353 2234 1838 2234 
L 1294 2234 
L 1294 2753 
L 1863 2753 
Q 2328 2753 2575 2939 
Q 2822 3125 2822 3475 
Q 2822 3834 2567 4026 
Q 2313 4219 1838 4219 
Q 1578 4219 1281 4162 
Q 984 4106 628 3988 
L 628 4550 
Q 988 4650 1302 4700 
Q 1616 4750 1894 4750 
Q 2613 4750 3031 4423 
Q 3450 4097 3450 3541 
Q 3450 3153 3228 2886 
Q 3006 2619 2597 2516 
z
" transform="scale(0.015625)"/>
       </defs>
       <use xlink:href="#DejaVuSans-2212"/>
       <use xlink:href="#DejaVuSans-33" x="83.789062"/>
      </g>
     </g>
    </g>
    <g id="xtick_8">
     <g id="line2d_26">
      <path d="M 139.313214 303.64 
L 139.313214 193.92 
" clip-path="url(#pfa3418ab5e)" style="fill: none; stroke: #000000; stroke-opacity: 0.3; stroke-width: 0.8; stroke-linecap: square"/>
     </g>
     <g id="line2d_27">
      <g>
       <use xlink:href="#mfa44cafaa2" x="139.313214" y="303.64" style="stroke: #000000; stroke-width: 0.8"/>
      </g>
     </g>
     <g id="text_16">
      <!-- 2 -->
      <g transform="translate(131.942121 318.238437) scale(0.1 -0.1)">
       <defs>
        <path id="DejaVuSans-32" d="M 1228 531 
L 3431 531 
L 3431 0 
L 469 0 
L 469 531 
Q 828 903 1448 1529 
Q 2069 2156 2228 2338 
Q 2531 2678 2651 2914 
Q 2772 3150 2772 3378 
Q 2772 3750 2511 3984 
Q 2250 4219 1831 4219 
Q 1534 4219 1204 4116 
Q 875 4013 500 3803 
L 500 4441 
Q 881 4594 1212 4672 
Q 1544 4750 1819 4750 
Q 2544 4750 2975 4387 
Q 3406 4025 3406 3419 
Q 3406 3131 3298 2873 
Q 3191 2616 2906 2266 
Q 2828 2175 2409 1742 
Q 1991 1309 1228 531 
z
" transform="scale(0.015625)"/>
       </defs>
       <use xlink:href="#DejaVuSans-2212"/>
       <use xlink:href="#DejaVuSans-32" x="83.789062"/>
      </g>
     </g>
    </g>
    <g id="xtick_9">
     <g id="line2d_28">
      <path d="M 194.075357 303.64 
L 194.075357 193.92 
" clip-path="url(#pfa3418ab5e)" style="fill: none; stroke: #000000; stroke-opacity: 0.3; stroke-width: 0.8; stroke-linecap: square"/>
     </g>
     <g id="line2d_29">
      <g>
       <use xlink:href="#mfa44cafaa2" x="194.075357" y="303.64" style="stroke: #000000; stroke-width: 0.8"/>
      </g>
     </g>
     <g id="text_17">
      <!-- 1 -->
      <g transform="translate(186.704263 318.238437) scale(0.1 -0.1)">
       <defs>
        <path id="DejaVuSans-31" d="M 794 531 
L 1825 531 
L 1825 4091 
L 703 3866 
L 703 4441 
L 1819 4666 
L 2450 4666 
L 2450 531 
L 3481 531 
L 3481 0 
L 794 0 
L 794 531 
z
" transform="scale(0.015625)"/>
       </defs>
       <use xlink:href="#DejaVuSans-2212"/>
       <use xlink:href="#DejaVuSans-31" x="83.789062"/>
      </g>
     </g>
    </g>
    <g id="xtick_10">
     <g id="line2d_30">
      <path d="M 248.8375 303.64 
L 248.8375 193.92 
" clip-path="url(#pfa3418ab5e)" style="fill: none; stroke: #000000; stroke-opacity: 0.3; stroke-width: 0.8; stroke-linecap: square"/>
     </g>
     <g id="line2d_31">
      <g>
       <use xlink:href="#mfa44cafaa2" x="248.8375" y="303.64" style="stroke: #000000; stroke-width: 0.8"/>
      </g>
     </g>
     <g id="text_18">
      <!-- 0 -->
      <g transform="translate(245.65625 318.238437) scale(0.1 -0.1)">
       <defs>
        <path id="DejaVuSans-30" d="M 2034 4250 
Q 1547 4250 1301 3770 
Q 1056 3291 1056 2328 
Q 1056 1369 1301 889 
Q 1547 409 2034 409 
Q 2525 409 2770 889 
Q 3016 1369 3016 2328 
Q 3016 3291 2770 3770 
Q 2525 4250 2034 4250 
z
M 2034 4750 
Q 2819 4750 3233 4129 
Q 3647 3509 3647 2328 
Q 3647 1150 3233 529 
Q 2819 -91 2034 -91 
Q 1250 -91 836 529 
Q 422 1150 422 2328 
Q 422 3509 836 4129 
Q 1250 4750 2034 4750 
z
" transform="scale(0.015625)"/>
       </defs>
       <use xlink:href="#DejaVuSans-30"/>
      </g>
     </g>
    </g>
    <g id="xtick_11">
     <g id="line2d_32">
      <path d="M 303.599643 303.64 
L 303.599643 193.92 
" clip-path="url(#pfa3418ab5e)" style="fill: none; stroke: #000000; stroke-opacity: 0.3; stroke-width: 0.8; stroke-linecap: square"/>
     </g>
     <g id="line2d_33">
      <g>
       <use xlink:href="#mfa44cafaa2" x="303.599643" y="303.64" style="stroke: #000000; stroke-width: 0.8"/>
      </g>
     </g>
     <g id="text_19">
      <!-- 1 -->
      <g transform="translate(300.418393 318.238437) scale(0.1 -0.1)">
       <use xlink:href="#DejaVuSans-31"/>
      </g>
     </g>
    </g>
    <g id="xtick_12">
     <g id="line2d_34">
      <path d="M 358.361786 303.64 
L 358.361786 193.92 
" clip-path="url(#pfa3418ab5e)" style="fill: none; stroke: #000000; stroke-opacity: 0.3; stroke-width: 0.8; stroke-linecap: square"/>
     </g>
     <g id="line2d_35">
      <g>
       <use xlink:href="#mfa44cafaa2" x="358.361786" y="303.64" style="stroke: #000000; stroke-width: 0.8"/>
      </g>
     </g>
     <g id="text_20">
      <!-- 2 -->
      <g transform="translate(355.180536 318.238437) scale(0.1 -0.1)">
       <use xlink:href="#DejaVuSans-32"/>
      </g>
     </g>
    </g>
    <g id="xtick_13">
     <g id="line2d_36">
      <path d="M 413.123929 303.64 
L 413.123929 193.92 
" clip-path="url(#pfa3418ab5e)" style="fill: none; stroke: #000000; stroke-opacity: 0.3; stroke-width: 0.8; stroke-linecap: square"/>
     </g>
     <g id="line2d_37">
      <g>
       <use xlink:href="#mfa44cafaa2" x="413.123929" y="303.64" style="stroke: #000000; stroke-width: 0.8"/>
      </g>
     </g>
     <g id="text_21">
      <!-- 3 -->
      <g transform="translate(409.942679 318.238437) scale(0.1 -0.1)">
       <use xlink:href="#DejaVuSans-33"/>
      </g>
     </g>
    </g>
    <g id="text_22">
     <!-- Frequency [GHz] -->
     <g transform="translate(207.258594 331.916562) scale(0.1 -0.1)">
      <defs>
       <path id="DejaVuSans-46" d="M 628 4666 
L 3309 4666 
L 3309 4134 
L 1259 4134 
L 1259 2759 
L 3109 2759 
L 3109 2228 
L 1259 2228 
L 1259 0 
L 628 0 
L 628 4666 
z
" transform="scale(0.015625)"/>
       <path id="DejaVuSans-72" d="M 2631 2963 
Q 2534 3019 2420 3045 
Q 2306 3072 2169 3072 
Q 1681 3072 1420 2755 
Q 1159 2438 1159 1844 
L 1159 0 
L 581 0 
L 581 3500 
L 1159 3500 
L 1159 2956 
Q 1341 3275 1631 3429 
Q 1922 3584 2338 3584 
Q 2397 3584 2469 3576 
Q 2541 3569 2628 3553 
L 2631 2963 
z
" transform="scale(0.015625)"/>
       <path id="DejaVuSans-65" d="M 3597 1894 
L 3597 1613 
L 953 1613 
Q 991 1019 1311 708 
Q 1631 397 2203 397 
Q 2534 397 2845 478 
Q 3156 559 3463 722 
L 3463 178 
Q 3153 47 2828 -22 
Q 2503 -91 2169 -91 
Q 1331 -91 842 396 
Q 353 884 353 1716 
Q 353 2575 817 3079 
Q 1281 3584 2069 3584 
Q 2775 3584 3186 3129 
Q 3597 2675 3597 1894 
z
M 3022 2063 
Q 3016 2534 2758 2815 
Q 2500 3097 2075 3097 
Q 1594 3097 1305 2825 
Q 1016 2553 972 2059 
L 3022 2063 
z
" transform="scale(0.015625)"/>
       <path id="DejaVuSans-71" d="M 947 1747 
Q 947 1113 1208 752 
Q 1469 391 1925 391 
Q 2381 391 2643 752 
Q 2906 1113 2906 1747 
Q 2906 2381 2643 2742 
Q 2381 3103 1925 3103 
Q 1469 3103 1208 2742 
Q 947 2381 947 1747 
z
M 2906 525 
Q 2725 213 2448 61 
Q 2172 -91 1784 -91 
Q 1150 -91 751 415 
Q 353 922 353 1747 
Q 353 2572 751 3078 
Q 1150 3584 1784 3584 
Q 2172 3584 2448 3432 
Q 2725 3281 2906 2969 
L 2906 3500 
L 3481 3500 
L 3481 -1331 
L 2906 -1331 
L 2906 525 
z
" transform="scale(0.015625)"/>
       <path id="DejaVuSans-75" d="M 544 1381 
L 544 3500 
L 1119 3500 
L 1119 1403 
Q 1119 906 1312 657 
Q 1506 409 1894 409 
Q 2359 409 2629 706 
Q 2900 1003 2900 1516 
L 2900 3500 
L 3475 3500 
L 3475 0 
L 2900 0 
L 2900 538 
Q 2691 219 2414 64 
Q 2138 -91 1772 -91 
Q 1169 -91 856 284 
Q 544 659 544 1381 
z
M 1991 3584 
L 1991 3584 
z
" transform="scale(0.015625)"/>
       <path id="DejaVuSans-6e" d="M 3513 2113 
L 3513 0 
L 2938 0 
L 2938 2094 
Q 2938 2591 2744 2837 
Q 2550 3084 2163 3084 
Q 1697 3084 1428 2787 
Q 1159 2491 1159 1978 
L 1159 0 
L 581 0 
L 581 3500 
L 1159 3500 
L 1159 2956 
Q 1366 3272 1645 3428 
Q 1925 3584 2291 3584 
Q 2894 3584 3203 3211 
Q 3513 2838 3513 2113 
z
" transform="scale(0.015625)"/>
       <path id="DejaVuSans-63" d="M 3122 3366 
L 3122 2828 
Q 2878 2963 2633 3030 
Q 2388 3097 2138 3097 
Q 1578 3097 1268 2742 
Q 959 2388 959 1747 
Q 959 1106 1268 751 
Q 1578 397 2138 397 
Q 2388 397 2633 464 
Q 2878 531 3122 666 
L 3122 134 
Q 2881 22 2623 -34 
Q 2366 -91 2075 -91 
Q 1284 -91 818 406 
Q 353 903 353 1747 
Q 353 2603 823 3093 
Q 1294 3584 2113 3584 
Q 2378 3584 2631 3529 
Q 2884 3475 3122 3366 
z
" transform="scale(0.015625)"/>
       <path id="DejaVuSans-79" d="M 2059 -325 
Q 1816 -950 1584 -1140 
Q 1353 -1331 966 -1331 
L 506 -1331 
L 506 -850 
L 844 -850 
Q 1081 -850 1212 -737 
Q 1344 -625 1503 -206 
L 1606 56 
L 191 3500 
L 800 3500 
L 1894 763 
L 2988 3500 
L 3597 3500 
L 2059 -325 
z
" transform="scale(0.015625)"/>
       <path id="DejaVuSans-20" transform="scale(0.015625)"/>
       <path id="DejaVuSans-5b" d="M 550 4863 
L 1875 4863 
L 1875 4416 
L 1125 4416 
L 1125 -397 
L 1875 -397 
L 1875 -844 
L 550 -844 
L 550 4863 
z
" transform="scale(0.015625)"/>
       <path id="DejaVuSans-47" d="M 3809 666 
L 3809 1919 
L 2778 1919 
L 2778 2438 
L 4434 2438 
L 4434 434 
Q 4069 175 3628 42 
Q 3188 -91 2688 -91 
Q 1594 -91 976 548 
Q 359 1188 359 2328 
Q 359 3472 976 4111 
Q 1594 4750 2688 4750 
Q 3144 4750 3555 4637 
Q 3966 4525 4313 4306 
L 4313 3634 
Q 3963 3931 3569 4081 
Q 3175 4231 2741 4231 
Q 1884 4231 1454 3753 
Q 1025 3275 1025 2328 
Q 1025 1384 1454 906 
Q 1884 428 2741 428 
Q 3075 428 3337 486 
Q 3600 544 3809 666 
z
" transform="scale(0.015625)"/>
       <path id="DejaVuSans-48" d="M 628 4666 
L 1259 4666 
L 1259 2753 
L 3553 2753 
L 3553 4666 
L 4184 4666 
L 4184 0 
L 3553 0 
L 3553 2222 
L 1259 2222 
L 1259 0 
L 628 0 
L 628 4666 
z
" transform="scale(0.015625)"/>
       <path id="DejaVuSans-7a" d="M 353 3500 
L 3084 3500 
L 3084 2975 
L 922 459 
L 3084 459 
L 3084 0 
L 275 0 
L 275 525 
L 2438 3041 
L 353 3041 
L 353 3500 
z
" transform="scale(0.015625)"/>
       <path id="DejaVuSans-5d" d="M 1947 4863 
L 1947 -844 
L 622 -844 
L 622 -397 
L 1369 -397 
L 1369 4416 
L 622 4416 
L 622 4863 
L 1947 4863 
z
" transform="scale(0.015625)"/>
      </defs>
      <use xlink:href="#DejaVuSans-46"/>
      <use xlink:href="#DejaVuSans-72" x="50.269531"/>
      <use xlink:href="#DejaVuSans-65" x="89.132812"/>
      <use xlink:href="#DejaVuSans-71" x="150.65625"/>
      <use xlink:href="#DejaVuSans-75" x="214.132812"/>
      <use xlink:href="#DejaVuSans-65" x="277.511719"/>
      <use xlink:href="#DejaVuSans-6e" x="339.035156"/>
      <use xlink:href="#DejaVuSans-63" x="402.414062"/>
      <use xlink:href="#DejaVuSans-79" x="457.394531"/>
      <use xlink:href="#DejaVuSans-20" x="516.574219"/>
      <use xlink:href="#DejaVuSans-5b" x="548.361328"/>
      <use xlink:href="#DejaVuSans-47" x="587.375"/>
      <use xlink:href="#DejaVuSans-48" x="664.865234"/>
      <use xlink:href="#DejaVuSans-7a" x="740.060547"/>
      <use xlink:href="#DejaVuSans-5d" x="792.550781"/>
     </g>
    </g>
   </g>
   <g id="matplotlib.axis_4">
    <g id="ytick_6">
     <g id="line2d_38">
      <path d="M 57.17 291.448889 
L 440.505 291.448889 
" clip-path="url(#pfa3418ab5e)" style="fill: none; stroke: #000000; stroke-opacity: 0.3; stroke-width: 0.8; stroke-linecap: square"/>
     </g>
     <g id="line2d_39">
      <g>
       <use xlink:href="#mb0a92c7c9c" x="57.17" y="291.448889" style="stroke: #000000; stroke-width: 0.8"/>
      </g>
     </g>
     <g id="text_23">
      <!-- 40 -->
      <g transform="translate(29.065313 295.248108) scale(0.1 -0.1)">
       <defs>
        <path id="DejaVuSans-34" d="M 2419 4116 
L 825 1625 
L 2419 1625 
L 2419 4116 
z
M 2253 4666 
L 3047 4666 
L 3047 1625 
L 3713 1625 
L 3713 1100 
L 3047 1100 
L 3047 0 
L 2419 0 
L 2419 1100 
L 313 1100 
L 313 1709 
L 2253 4666 
z
" transform="scale(0.015625)"/>
       </defs>
       <use xlink:href="#DejaVuSans-2212"/>
       <use xlink:href="#DejaVuSans-34" x="83.789062"/>
       <use xlink:href="#DejaVuSans-30" x="147.412109"/>
      </g>
     </g>
    </g>
    <g id="ytick_7">
     <g id="line2d_40">
      <path d="M 57.17 267.066667 
L 440.505 267.066667 
" clip-path="url(#pfa3418ab5e)" style="fill: none; stroke: #000000; stroke-opacity: 0.3; stroke-width: 0.8; stroke-linecap: square"/>
     </g>
     <g id="line2d_41">
      <g>
       <use xlink:href="#mb0a92c7c9c" x="57.17" y="267.066667" style="stroke: #000000; stroke-width: 0.8"/>
      </g>
     </g>
     <g id="text_24">
      <!-- 20 -->
      <g transform="translate(29.065313 270.865885) scale(0.1 -0.1)">
       <use xlink:href="#DejaVuSans-2212"/>
       <use xlink:href="#DejaVuSans-32" x="83.789062"/>
       <use xlink:href="#DejaVuSans-30" x="147.412109"/>
      </g>
     </g>
    </g>
    <g id="ytick_8">
     <g id="line2d_42">
      <path d="M 57.17 242.684444 
L 440.505 242.684444 
" clip-path="url(#pfa3418ab5e)" style="fill: none; stroke: #000000; stroke-opacity: 0.3; stroke-width: 0.8; stroke-linecap: square"/>
     </g>
     <g id="line2d_43">
      <g>
       <use xlink:href="#mb0a92c7c9c" x="57.17" y="242.684444" style="stroke: #000000; stroke-width: 0.8"/>
      </g>
     </g>
     <g id="text_25">
      <!-- 0 -->
      <g transform="translate(43.8075 246.483663) scale(0.1 -0.1)">
       <use xlink:href="#DejaVuSans-30"/>
      </g>
     </g>
    </g>
    <g id="ytick_9">
     <g id="line2d_44">
      <path d="M 57.17 218.302222 
L 440.505 218.302222 
" clip-path="url(#pfa3418ab5e)" style="fill: none; stroke: #000000; stroke-opacity: 0.3; stroke-width: 0.8; stroke-linecap: square"/>
     </g>
     <g id="line2d_45">
      <g>
       <use xlink:href="#mb0a92c7c9c" x="57.17" y="218.302222" style="stroke: #000000; stroke-width: 0.8"/>
      </g>
     </g>
     <g id="text_26">
      <!-- 20 -->
      <g transform="translate(37.445 222.101441) scale(0.1 -0.1)">
       <use xlink:href="#DejaVuSans-32"/>
       <use xlink:href="#DejaVuSans-30" x="63.623047"/>
      </g>
     </g>
    </g>
    <g id="ytick_10">
     <g id="line2d_46">
      <path d="M 57.17 193.92 
L 440.505 193.92 
" clip-path="url(#pfa3418ab5e)" style="fill: none; stroke: #000000; stroke-opacity: 0.3; stroke-width: 0.8; stroke-linecap: square"/>
     </g>
     <g id="line2d_47">
      <g>
       <use xlink:href="#mb0a92c7c9c" x="57.17" y="193.92" style="stroke: #000000; stroke-width: 0.8"/>
      </g>
     </g>
     <g id="text_27">
      <!-- 40 -->
      <g transform="translate(37.445 197.719219) scale(0.1 -0.1)">
       <use xlink:href="#DejaVuSans-34"/>
       <use xlink:href="#DejaVuSans-30" x="63.623047"/>
      </g>
     </g>
    </g>
    <g id="text_28">
     <!-- Power [dBm] -->
     <g transform="translate(22.985625 280.859687) rotate(-90) scale(0.1 -0.1)">
      <defs>
       <path id="DejaVuSans-50" d="M 1259 4147 
L 1259 2394 
L 2053 2394 
Q 2494 2394 2734 2622 
Q 2975 2850 2975 3272 
Q 2975 3691 2734 3919 
Q 2494 4147 2053 4147 
L 1259 4147 
z
M 628 4666 
L 2053 4666 
Q 2838 4666 3239 4311 
Q 3641 3956 3641 3272 
Q 3641 2581 3239 2228 
Q 2838 1875 2053 1875 
L 1259 1875 
L 1259 0 
L 628 0 
L 628 4666 
z
" transform="scale(0.015625)"/>
       <path id="DejaVuSans-6f" d="M 1959 3097 
Q 1497 3097 1228 2736 
Q 959 2375 959 1747 
Q 959 1119 1226 758 
Q 1494 397 1959 397 
Q 2419 397 2687 759 
Q 2956 1122 2956 1747 
Q 2956 2369 2687 2733 
Q 2419 3097 1959 3097 
z
M 1959 3584 
Q 2709 3584 3137 3096 
Q 3566 2609 3566 1747 
Q 3566 888 3137 398 
Q 2709 -91 1959 -91 
Q 1206 -91 779 398 
Q 353 888 353 1747 
Q 353 2609 779 3096 
Q 1206 3584 1959 3584 
z
" transform="scale(0.015625)"/>
       <path id="DejaVuSans-77" d="M 269 3500 
L 844 3500 
L 1563 769 
L 2278 3500 
L 2956 3500 
L 3675 769 
L 4391 3500 
L 4966 3500 
L 4050 0 
L 3372 0 
L 2619 2869 
L 1863 0 
L 1184 0 
L 269 3500 
z
" transform="scale(0.015625)"/>
       <path id="DejaVuSans-64" d="M 2906 2969 
L 2906 4863 
L 3481 4863 
L 3481 0 
L 2906 0 
L 2906 525 
Q 2725 213 2448 61 
Q 2172 -91 1784 -91 
Q 1150 -91 751 415 
Q 353 922 353 1747 
Q 353 2572 751 3078 
Q 1150 3584 1784 3584 
Q 2172 3584 2448 3432 
Q 2725 3281 2906 2969 
z
M 947 1747 
Q 947 1113 1208 752 
Q 1469 391 1925 391 
Q 2381 391 2643 752 
Q 2906 1113 2906 1747 
Q 2906 2381 2643 2742 
Q 2381 3103 1925 3103 
Q 1469 3103 1208 2742 
Q 947 2381 947 1747 
z
" transform="scale(0.015625)"/>
       <path id="DejaVuSans-42" d="M 1259 2228 
L 1259 519 
L 2272 519 
Q 2781 519 3026 730 
Q 3272 941 3272 1375 
Q 3272 1813 3026 2020 
Q 2781 2228 2272 2228 
L 1259 2228 
z
M 1259 4147 
L 1259 2741 
L 2194 2741 
Q 2656 2741 2882 2914 
Q 3109 3088 3109 3444 
Q 3109 3797 2882 3972 
Q 2656 4147 2194 4147 
L 1259 4147 
z
M 628 4666 
L 2241 4666 
Q 2963 4666 3353 4366 
Q 3744 4066 3744 3513 
Q 3744 3084 3544 2831 
Q 3344 2578 2956 2516 
Q 3422 2416 3680 2098 
Q 3938 1781 3938 1306 
Q 3938 681 3513 340 
Q 3088 0 2303 0 
L 628 0 
L 628 4666 
z
" transform="scale(0.015625)"/>
       <path id="DejaVuSans-6d" d="M 3328 2828 
Q 3544 3216 3844 3400 
Q 4144 3584 4550 3584 
Q 5097 3584 5394 3201 
Q 5691 2819 5691 2113 
L 5691 0 
L 5113 0 
L 5113 2094 
Q 5113 2597 4934 2840 
Q 4756 3084 4391 3084 
Q 3944 3084 3684 2787 
Q 3425 2491 3425 1978 
L 3425 0 
L 2847 0 
L 2847 2094 
Q 2847 2600 2669 2842 
Q 2491 3084 2119 3084 
Q 1678 3084 1418 2786 
Q 1159 2488 1159 1978 
L 1159 0 
L 581 0 
L 581 3500 
L 1159 3500 
L 1159 2956 
Q 1356 3278 1631 3431 
Q 1906 3584 2284 3584 
Q 2666 3584 2933 3390 
Q 3200 3197 3328 2828 
z
" transform="scale(0.015625)"/>
      </defs>
      <use xlink:href="#DejaVuSans-50"/>
      <use xlink:href="#DejaVuSans-6f" x="56.677734"/>
      <use xlink:href="#DejaVuSans-77" x="117.859375"/>
      <use xlink:href="#DejaVuSans-65" x="199.646484"/>
      <use xlink:href="#DejaVuSans-72" x="261.169922"/>
      <use xlink:href="#DejaVuSans-20" x="302.283203"/>
      <use xlink:href="#DejaVuSans-5b" x="334.070312"/>
      <use xlink:href="#DejaVuSans-64" x="373.083984"/>
      <use xlink:href="#DejaVuSans-42" x="436.560547"/>
      <use xlink:href="#DejaVuSans-6d" x="505.164062"/>
      <use xlink:href="#DejaVuSans-5d" x="602.576172"/>
     </g>
    </g>
   </g>
   <g id="line2d_48">
    <path d="M 56.622379 302.545988 
L 57.17 305.150595 
L 57.717621 296.41491 
L 58.265243 305.71246 
L 58.812864 308.612913 
L 59.360486 296.165518 
L 59.908107 302.636515 
L 60.455729 292.588467 
L 61.00335 304.716255 
L 61.550971 294.189632 
L 62.098593 318.573179 
L 62.646214 296.354209 
L 63.193836 308.760129 
L 63.741457 317.993721 
L 64.289079 303.413261 
L 64.8367 310.892571 
L 65.384321 300.297322 
L 65.931943 303.582756 
L 66.479564 304.036933 
L 67.027186 303.445952 
L 67.574807 293.452217 
L 68.122429 304.641159 
L 68.67005 299.475772 
L 69.217671 320.244713 
L 69.765293 294.666931 
L 70.312914 303.334895 
L 70.860536 297.881788 
L 71.408157 296.025389 
L 71.955779 301.173233 
L 72.5034 297.846178 
L 73.051021 308.72217 
L 73.598643 304.599482 
L 74.146264 305.833877 
L 74.693886 300.771669 
L 75.241507 297.037327 
L 75.789129 305.520055 
L 76.33675 297.033494 
L 76.884371 293.768269 
L 77.431993 294.763523 
L 77.979614 303.348578 
L 78.527236 302.403784 
L 79.074857 293.551378 
L 79.622479 298.638563 
L 80.1701 299.267956 
L 80.717721 296.443322 
L 81.265343 299.698456 
L 81.812964 308.728741 
L 82.908207 299.948295 
L 83.455829 301.66138 
L 84.00345 312.443733 
L 84.551071 302.059243 
L 85.098693 302.306193 
L 85.646314 313.525686 
L 86.193936 301.168549 
L 86.741557 309.615974 
L 87.289179 309.829529 
L 87.8368 295.88173 
L 88.384421 302.799912 
L 88.932043 304.275552 
L 89.479664 299.444107 
L 90.027286 297.272099 
L 90.574907 300.367431 
L 91.122529 316.383934 
L 91.67015 303.234645 
L 92.217771 299.96056 
L 92.765393 311.11987 
L 93.313014 290.355599 
L 93.860636 305.039103 
L 94.408257 308.998769 
L 94.955879 304.325799 
L 95.5035 301.524302 
L 96.051121 299.600479 
L 97.146364 310.47765 
L 97.693986 300.601052 
L 98.241607 299.647309 
L 98.789229 301.291355 
L 99.33685 295.347076 
L 99.884471 295.24419 
L 100.432093 308.880862 
L 100.979714 301.455506 
L 101.527336 305.478822 
L 102.074957 301.964234 
L 102.622579 296.470988 
L 103.1702 300.398597 
L 103.717821 299.301658 
L 104.265443 295.44568 
L 104.813064 308.966772 
L 105.360686 311.123802 
L 105.908307 302.357706 
L 106.455929 302.894432 
L 107.00355 300.963499 
L 107.551171 295.808703 
L 108.098793 299.490077 
L 108.646414 326.766874 
L 109.194036 306.780441 
L 109.741657 306.379105 
L 110.289279 304.484322 
L 110.8369 311.086539 
L 111.932143 302.177141 
L 112.479764 318.690403 
L 113.027386 313.595597 
L 113.575007 293.954737 
L 114.122629 297.891951 
L 114.67025 301.006093 
L 115.217871 307.661501 
L 115.765493 294.720573 
L 116.313114 296.15291 
L 116.860736 295.802254 
L 117.408357 292.974751 
L 117.955979 310.600278 
L 118.5036 296.871586 
L 119.051221 312.693749 
L 119.598843 295.355061 
L 120.146464 301.728064 
L 120.694086 297.785494 
L 121.241707 298.726134 
L 121.789329 315.757278 
L 122.33695 295.336193 
L 122.884571 298.889971 
L 123.432193 311.347251 
L 123.979814 312.913176 
L 124.527436 291.052336 
L 125.075057 309.252616 
L 125.622679 289.980037 
L 126.1703 298.22108 
L 126.717921 308.193737 
L 127.265543 301.279471 
L 127.813164 309.064925 
L 128.360786 300.670408 
L 128.908407 300.443766 
L 129.456029 304.373422 
L 130.00365 329.110082 
L 131.098893 295.697294 
L 131.646514 313.763907 
L 132.194136 302.321694 
L 132.741757 305.344283 
L 133.289379 309.306955 
L 133.837 301.760679 
L 134.384621 287.948953 
L 134.932243 306.518602 
L 135.479864 296.860706 
L 136.027486 303.239225 
L 136.575107 305.527763 
L 137.122729 304.412446 
L 137.67035 297.510428 
L 138.217971 304.725516 
L 138.765593 299.742661 
L 139.860836 297.168035 
L 140.408457 300.945085 
L 140.956079 302.690999 
L 141.5037 294.311376 
L 142.051321 307.333344 
L 143.146564 299.79249 
L 143.694186 297.305902 
L 144.241807 299.993803 
L 144.789429 304.783173 
L 145.33705 304.508584 
L 145.884671 300.695009 
L 146.432293 299.69444 
L 146.979914 292.736402 
L 148.075157 310.557755 
L 148.622779 304.909777 
L 149.1704 294.719466 
L 149.718021 299.195315 
L 150.265643 304.655879 
L 150.813264 304.702155 
L 151.360886 299.281965 
L 151.908507 296.787143 
L 152.456129 297.934207 
L 153.00375 294.947751 
L 153.551371 293.484446 
L 154.098993 292.52765 
L 154.646614 310.000416 
L 155.194236 299.864199 
L 155.741857 296.650232 
L 156.289479 299.529132 
L 156.8371 299.434698 
L 157.384721 291.834728 
L 158.479964 299.559103 
L 159.027586 290.904374 
L 159.575207 298.266103 
L 160.122829 308.397988 
L 160.67045 310.330851 
L 161.218071 299.3801 
L 161.765693 306.678866 
L 162.313314 301.936249 
L 162.860936 299.677935 
L 163.408557 294.652114 
L 163.956179 301.655201 
L 164.5038 302.712312 
L 165.051421 306.647085 
L 165.599043 302.752029 
L 166.146664 314.208388 
L 166.694286 300.646436 
L 167.241907 298.726274 
L 168.33715 311.007814 
L 168.884771 313.906375 
L 169.432393 301.415644 
L 169.980014 293.788881 
L 170.527636 314.026013 
L 171.075257 299.157369 
L 171.622879 301.055738 
L 172.1705 299.410217 
L 172.718121 305.748497 
L 173.265743 302.958713 
L 173.813364 309.088073 
L 174.360986 298.734335 
L 174.908607 297.83404 
L 175.456229 303.07009 
L 176.00385 314.773645 
L 176.551471 297.882015 
L 177.099093 301.488064 
L 177.646714 309.510993 
L 178.194336 296.166584 
L 178.741957 294.926151 
L 179.289579 305.259282 
L 179.8372 298.77476 
L 180.384821 308.53788 
L 180.932443 301.914877 
L 181.480064 292.516568 
L 182.027686 307.403473 
L 183.122929 301.098618 
L 183.67055 306.430469 
L 184.218171 296.343113 
L 184.765793 301.229265 
L 185.313414 303.511751 
L 185.861036 301.289341 
L 186.408657 310.749666 
L 186.956279 297.674035 
L 187.5039 312.905814 
L 188.051521 300.217453 
L 188.599143 300.713507 
L 189.146764 305.492056 
L 189.694386 304.854499 
L 190.242007 305.183168 
L 190.789629 302.518654 
L 191.33725 304.281018 
L 192.432493 292.305072 
L 192.980114 301.15935 
L 193.527736 303.137849 
L 194.075357 300.056123 
L 194.622979 301.498716 
L 195.1706 298.858444 
L 195.718221 316.34455 
L 196.265843 317.316933 
L 196.813464 294.304957 
L 197.361086 296.305629 
L 198.456329 303.063371 
L 199.00395 295.513654 
L 199.551571 297.233654 
L 200.099193 305.207662 
L 200.646814 294.504841 
L 201.194436 305.094637 
L 201.742057 301.033806 
L 202.289679 312.149022 
L 203.384921 295.895471 
L 203.932543 299.874633 
L 204.480164 296.060955 
L 205.027786 300.469895 
L 205.575407 289.704458 
L 206.123029 292.634556 
L 206.67065 301.769255 
L 207.218271 302.799997 
L 207.765893 304.291281 
L 208.861136 293.229425 
L 209.408757 304.623338 
L 209.956379 306.365536 
L 211.051621 298.330837 
L 211.599243 307.264246 
L 212.146864 299.661387 
L 212.694486 312.249561 
L 213.242107 298.864553 
L 213.789729 293.800809 
L 214.33735 298.027358 
L 214.884971 297.405749 
L 215.432593 305.477908 
L 215.980214 296.758413 
L 216.527836 298.34018 
L 217.075457 315.026589 
L 217.623079 294.827121 
L 218.1707 328.236369 
L 219.265943 294.398957 
L 219.813564 300.627915 
L 220.361186 295.174318 
L 220.908807 319.412727 
L 221.456429 302.969972 
L 222.00405 305.569206 
L 222.551671 304.622689 
L 223.099293 295.166446 
L 223.646914 298.402989 
L 224.194536 293.924106 
L 224.742157 298.161678 
L 225.289779 297.174193 
L 225.8374 307.439217 
L 226.385021 296.489391 
L 226.932643 306.900085 
L 227.480264 301.199222 
L 228.027886 290.789503 
L 228.575507 294.896908 
L 229.123129 291.551816 
L 229.67075 292.615021 
L 230.218371 304.682389 
L 230.765993 295.747867 
L 231.313614 298.688272 
L 231.861236 300.134918 
L 232.408857 296.815353 
L 232.956479 295.061137 
L 233.5041 297.693385 
L 234.599343 290.756056 
L 235.146964 303.880482 
L 235.694586 304.580035 
L 236.242207 297.072752 
L 236.789829 298.728811 
L 237.33745 298.212654 
L 237.885071 303.749217 
L 238.432693 307.666524 
L 238.980314 299.022389 
L 239.527936 294.975939 
L 240.075557 320.78258 
L 240.623179 292.304373 
L 241.1708 311.212054 
L 241.718421 295.204627 
L 242.266043 294.875111 
L 242.813664 295.090415 
L 243.361286 300.810801 
L 243.908907 298.679468 
L 244.456529 300.017527 
L 245.00415 292.527936 
L 245.551771 303.295886 
L 246.099393 295.570669 
L 246.647014 298.993963 
L 247.194636 303.130715 
L 247.742257 294.877626 
L 248.289879 298.991858 
L 248.8375 293.873151 
L 249.385121 298.250189 
L 249.932743 296.636437 
L 250.480364 303.821621 
L 251.027986 294.75663 
L 251.575607 303.378622 
L 252.123229 295.960616 
L 252.67085 298.141415 
L 253.218471 297.62911 
L 253.766093 307.992951 
L 254.313714 297.09279 
L 254.861336 302.849519 
L 255.956579 294.715692 
L 256.5042 297.967829 
L 257.051821 297.923101 
L 257.599443 306.023499 
L 258.147064 299.043882 
L 258.694686 310.345161 
L 259.242307 296.836068 
L 259.789929 299.121742 
L 260.33755 300.419849 
L 260.885171 305.784375 
L 261.432793 307.059569 
L 261.980414 288.879628 
L 262.528036 302.448671 
L 263.075657 303.314693 
L 263.623279 296.80462 
L 264.1709 294.004219 
L 264.718521 304.072998 
L 265.266143 319.39342 
L 266.361386 299.829637 
L 266.909007 308.939213 
L 267.456629 309.999868 
L 268.00425 298.139251 
L 268.551871 297.838399 
L 269.099493 299.739896 
L 269.647114 316.789352 
L 270.194736 308.68808 
L 270.742357 302.79305 
L 271.289979 307.280974 
L 271.8376 298.230111 
L 272.385221 296.229903 
L 272.932843 308.488623 
L 273.480464 294.843667 
L 274.028086 305.657085 
L 274.575707 300.07801 
L 275.123329 298.222348 
L 275.67095 296.874139 
L 276.218571 296.572753 
L 276.766193 301.667501 
L 277.313814 298.039704 
L 277.861436 302.290624 
L 278.409057 293.147246 
L 278.956679 305.730382 
L 279.5043 299.253004 
L 280.051921 307.145444 
L 280.599543 291.899777 
L 281.147164 307.103829 
L 281.694786 292.572616 
L 282.242407 298.124047 
L 282.790029 299.508797 
L 283.33765 292.76961 
L 283.885271 305.931536 
L 284.432893 299.909516 
L 284.980514 312.632084 
L 285.528136 296.966929 
L 286.075757 308.807922 
L 286.623379 299.262239 
L 287.171 299.480429 
L 287.718621 301.649095 
L 288.266243 297.339172 
L 288.813864 308.189074 
L 289.361486 299.675914 
L 289.909107 302.197768 
L 290.456729 299.453952 
L 291.00435 300.876212 
L 291.551971 309.675127 
L 292.099593 303.157822 
L 292.647214 293.988444 
L 293.194836 297.836464 
L 293.742457 307.817314 
L 294.290079 308.336428 
L 294.8377 320.301233 
L 295.385321 300.934116 
L 295.932943 307.52314 
L 296.480564 291.280804 
L 297.028186 306.438085 
L 297.575807 301.013394 
L 298.123429 294.062364 
L 298.67105 310.111923 
L 299.218671 304.681989 
L 299.766293 293.707655 
L 300.313914 311.294622 
L 300.861536 305.107241 
L 301.409157 305.504035 
L 301.956779 300.404679 
L 302.5044 306.3442 
L 303.052021 300.031193 
L 303.599643 206.110108 
L 304.147264 300.031193 
L 304.694886 306.3442 
L 305.242507 300.404679 
L 305.790129 305.504035 
L 306.33775 305.107241 
L 306.885371 311.294622 
L 307.432993 293.707655 
L 307.980614 304.681989 
L 308.528236 310.111923 
L 309.075857 294.062364 
L 309.623479 301.013394 
L 310.1711 306.438085 
L 310.718721 291.280804 
L 311.266343 307.52314 
L 311.813964 300.934116 
L 312.361586 320.301233 
L 312.909207 308.336428 
L 313.456829 307.817314 
L 314.00445 297.836464 
L 314.552071 293.988444 
L 315.099693 303.157822 
L 315.647314 309.675127 
L 316.194936 300.876212 
L 316.742557 299.453952 
L 317.290179 302.197768 
L 317.8378 299.675914 
L 318.385421 308.189074 
L 318.933043 297.339172 
L 319.480664 301.649095 
L 320.028286 299.480429 
L 320.575907 299.262239 
L 321.123529 308.807922 
L 321.67115 296.966929 
L 322.218771 312.632084 
L 322.766393 299.909516 
L 323.314014 305.931536 
L 323.861636 292.76961 
L 324.409257 299.508797 
L 324.956879 298.124047 
L 325.5045 292.572616 
L 326.052121 307.103829 
L 326.599743 291.899777 
L 327.147364 307.145444 
L 327.694986 299.253004 
L 328.242607 305.730382 
L 328.790229 293.147246 
L 329.33785 302.290624 
L 329.885471 298.039704 
L 330.433093 301.667501 
L 330.980714 296.572753 
L 331.528336 296.874139 
L 332.075957 298.222348 
L 332.623579 300.07801 
L 333.1712 305.657085 
L 333.718821 294.843667 
L 334.266443 308.488623 
L 334.814064 296.229903 
L 335.361686 298.230111 
L 335.909307 307.280974 
L 336.456929 302.79305 
L 337.00455 308.68808 
L 337.552171 316.789352 
L 338.099793 299.739896 
L 338.647414 297.838399 
L 339.195036 298.139251 
L 339.742657 309.999868 
L 340.290279 308.939213 
L 340.8379 299.829637 
L 341.933143 319.39342 
L 342.480764 304.072998 
L 343.028386 294.004219 
L 343.576007 296.80462 
L 344.123629 303.314693 
L 344.67125 302.448671 
L 345.218871 288.879628 
L 345.766493 307.059569 
L 346.314114 305.784375 
L 346.861736 300.419849 
L 347.409357 299.121742 
L 347.956979 296.836068 
L 348.5046 310.345161 
L 349.052221 299.043882 
L 349.599843 306.023499 
L 350.147464 297.923101 
L 350.695086 297.967829 
L 351.242707 294.715692 
L 352.33795 302.849519 
L 352.885571 297.09279 
L 353.433193 307.992951 
L 353.980814 297.62911 
L 354.528436 298.141415 
L 355.076057 295.960616 
L 355.623679 303.378622 
L 356.1713 294.75663 
L 356.718921 303.821621 
L 357.266543 296.636437 
L 357.814164 298.250189 
L 358.361786 293.873151 
L 358.909407 298.991858 
L 359.457029 294.877626 
L 360.00465 303.130715 
L 361.099893 295.570669 
L 361.647514 303.295886 
L 362.195136 292.527936 
L 362.742757 300.017527 
L 363.290379 298.679468 
L 363.838 300.810801 
L 364.385621 295.090415 
L 364.933243 294.875111 
L 365.480864 295.204627 
L 366.028486 311.212054 
L 366.576107 292.304373 
L 367.123729 320.78258 
L 367.67135 294.975939 
L 368.218971 299.022389 
L 368.766593 307.666524 
L 369.314214 303.749217 
L 369.861836 298.212654 
L 370.409457 298.728811 
L 370.957079 297.072752 
L 371.5047 304.580035 
L 372.052321 303.880482 
L 372.599943 290.756056 
L 373.147564 293.829027 
L 373.695186 297.693385 
L 374.242807 295.061137 
L 374.790429 296.815353 
L 375.33805 300.134918 
L 375.885671 298.688272 
L 376.433293 295.747867 
L 376.980914 304.682389 
L 377.528536 292.615021 
L 378.076157 291.551816 
L 378.623779 294.896908 
L 379.1714 290.789503 
L 379.719021 301.199222 
L 380.266643 306.900085 
L 380.814264 296.489391 
L 381.361886 307.439217 
L 381.909507 297.174193 
L 382.457129 298.161678 
L 383.00475 293.924106 
L 383.552371 298.402989 
L 384.099993 295.166446 
L 384.647614 304.622689 
L 385.195236 305.569206 
L 385.742857 302.969972 
L 386.290479 319.412727 
L 386.8381 295.174318 
L 387.385721 300.627915 
L 387.933343 294.398957 
L 389.028586 328.236369 
L 389.576207 294.827121 
L 390.123829 315.026589 
L 390.67145 298.34018 
L 391.219071 296.758413 
L 391.766693 305.477908 
L 392.314314 297.405749 
L 392.861936 298.027358 
L 393.409557 293.800809 
L 393.957179 298.864553 
L 394.5048 312.249561 
L 395.052421 299.661387 
L 395.600043 307.264246 
L 396.147664 298.330837 
L 397.242907 306.365536 
L 397.790529 304.623338 
L 398.33815 293.229425 
L 399.433393 304.291281 
L 399.981014 302.799997 
L 400.528636 301.769255 
L 401.076257 292.634556 
L 401.623879 289.704458 
L 402.1715 300.469895 
L 402.719121 296.060955 
L 403.266743 299.874633 
L 403.814364 295.895471 
L 404.909607 312.149022 
L 405.457229 301.033806 
L 406.00485 305.094637 
L 406.552471 294.504841 
L 407.100093 305.207662 
L 407.647714 297.233654 
L 408.195336 295.513654 
L 408.742957 303.063371 
L 410.385821 294.304957 
L 410.933443 317.316933 
L 411.481064 316.34455 
L 412.028686 298.858444 
L 412.576307 301.498716 
L 413.123929 300.056123 
L 413.67155 303.137849 
L 414.219171 301.15935 
L 414.766793 292.305072 
L 415.862036 304.281018 
L 416.409657 302.518654 
L 416.957279 305.183168 
L 417.5049 304.854499 
L 418.052521 305.492056 
L 418.600143 300.713507 
L 419.147764 300.217453 
L 419.695386 312.905814 
L 420.243007 297.674035 
L 420.790629 310.749666 
L 421.33825 301.289341 
L 421.885871 303.511751 
L 422.433493 301.229265 
L 422.981114 296.343113 
L 423.528736 306.430469 
L 424.076357 301.098618 
L 425.1716 307.403473 
L 425.719221 292.516568 
L 426.266843 301.914877 
L 426.814464 308.53788 
L 427.362086 298.77476 
L 427.909707 305.259282 
L 428.457329 294.926151 
L 429.00495 296.166584 
L 429.552571 309.510993 
L 430.100193 301.488064 
L 430.647814 297.882015 
L 431.195436 314.773645 
L 431.743057 303.07009 
L 432.290679 297.83404 
L 432.8383 298.734335 
L 433.385921 309.088073 
L 433.933543 302.958713 
L 434.481164 305.748497 
L 435.028786 299.410217 
L 435.576407 301.055738 
L 436.124029 299.157369 
L 436.67165 314.026013 
L 437.219271 293.788881 
L 437.766893 301.415644 
L 438.314514 313.906375 
L 438.862136 311.007814 
L 439.957379 298.726274 
L 440.505 300.646436 
L 441.052621 314.208388 
L 441.052621 314.208388 
" clip-path="url(#pfa3418ab5e)" style="fill: none; stroke: #ff0000; stroke-width: 1.5; stroke-linecap: square"/>
   </g>
   <g id="patch_8">
    <path d="M 57.17 303.64 
L 57.17 193.92 
" style="fill: none; stroke: #000000; stroke-width: 0.8; stroke-linejoin: miter; stroke-linecap: square"/>
   </g>
   <g id="patch_9">
    <path d="M 440.505 303.64 
L 440.505 193.92 
" style="fill: none; stroke: #000000; stroke-width: 0.8; stroke-linejoin: miter; stroke-linecap: square"/>
   </g>
   <g id="patch_10">
    <path d="M 57.17 303.64 
L 440.505 303.64 
" style="fill: none; stroke: #000000; stroke-width: 0.8; stroke-linejoin: miter; stroke-linecap: square"/>
   </g>
   <g id="patch_11">
    <path d="M 57.17 193.92 
L 440.505 193.92 
" style="fill: none; stroke: #000000; stroke-width: 0.8; stroke-linejoin: miter; stroke-linecap: square"/>
   </g>
   <g id="text_29">
    <!-- Frequency domain -->
    <g transform="translate(193.464062 187.92) scale(0.12 -0.12)">
     <defs>
      <path id="DejaVuSans-61" d="M 2194 1759 
Q 1497 1759 1228 1600 
Q 959 1441 959 1056 
Q 959 750 1161 570 
Q 1363 391 1709 391 
Q 2188 391 2477 730 
Q 2766 1069 2766 1631 
L 2766 1759 
L 2194 1759 
z
M 3341 1997 
L 3341 0 
L 2766 0 
L 2766 531 
Q 2569 213 2275 61 
Q 1981 -91 1556 -91 
Q 1019 -91 701 211 
Q 384 513 384 1019 
Q 384 1609 779 1909 
Q 1175 2209 1959 2209 
L 2766 2209 
L 2766 2266 
Q 2766 2663 2505 2880 
Q 2244 3097 1772 3097 
Q 1472 3097 1187 3025 
Q 903 2953 641 2809 
L 641 3341 
Q 956 3463 1253 3523 
Q 1550 3584 1831 3584 
Q 2591 3584 2966 3190 
Q 3341 2797 3341 1997 
z
" transform="scale(0.015625)"/>
      <path id="DejaVuSans-69" d="M 603 3500 
L 1178 3500 
L 1178 0 
L 603 0 
L 603 3500 
z
M 603 4863 
L 1178 4863 
L 1178 4134 
L 603 4134 
L 603 4863 
z
" transform="scale(0.015625)"/>
     </defs>
     <use xlink:href="#DejaVuSans-46"/>
     <use xlink:href="#DejaVuSans-72" x="50.269531"/>
     <use xlink:href="#DejaVuSans-65" x="89.132812"/>
     <use xlink:href="#DejaVuSans-71" x="150.65625"/>
     <use xlink:href="#DejaVuSans-75" x="214.132812"/>
     <use xlink:href="#DejaVuSans-65" x="277.511719"/>
     <use xlink:href="#DejaVuSans-6e" x="339.035156"/>
     <use xlink:href="#DejaVuSans-63" x="402.414062"/>
     <use xlink:href="#DejaVuSans-79" x="457.394531"/>
     <use xlink:href="#DejaVuSans-20" x="516.574219"/>
     <use xlink:href="#DejaVuSans-64" x="548.361328"/>
     <use xlink:href="#DejaVuSans-6f" x="611.837891"/>
     <use xlink:href="#DejaVuSans-6d" x="673.019531"/>
     <use xlink:href="#DejaVuSans-61" x="770.431641"/>
     <use xlink:href="#DejaVuSans-69" x="831.710938"/>
     <use xlink:href="#DejaVuSans-6e" x="859.494141"/>
    </g>
   </g>
  </g>
 </g>
 <defs>
  <clipPath id="p9f45fdd095">
   <rect x="57.17" y="26.16" width="383.335" height="109.72"/>
  </clipPath>
  <clipPath id="pfa3418ab5e">
   <rect x="57.17" y="193.92" width="383.335" height="109.72"/>
  </clipPath>
 </defs>
</svg>
