<?xml version="1.0" encoding="utf-8" standalone="no"?>
<!DOCTYPE svg PUBLIC "-//W3C//DTD SVG 1.1//EN"
  "http://www.w3.org/Graphics/SVG/1.1/DTD/svg11.dtd">
<svg xmlns:xlink="http://www.w3.org/1999/xlink" width="460.8pt" height="345.6pt" viewBox="0 0 460.8 345.6" xmlns="http://www.w3.org/2000/svg" version="1.1">
 <metadata>
  <rdf:RDF xmlns:dc="http://purl.org/dc/elements/1.1/" xmlns:cc="http://creativecommons.org/ns#" xmlns:rdf="http://www.w3.org/1999/02/22-rdf-syntax-ns#">
   <cc:Work>
    <dc:type rdf:resource="http://purl.org/dc/dcmitype/StillImage"/>
    <dc:date>2024-02-04T21:34:03.070189</dc:date>
    <dc:format>image/svg+xml</dc:format>
    <dc:creator>
     <cc:Agent>
      <dc:title>Matplotlib v3.8.2, https://matplotlib.org/</dc:title>
     </cc:Agent>
    </dc:creator>
   </cc:Work>
  </rdf:RDF>
 </metadata>
 <defs>
  <style type="text/css">*{stroke-linejoin: round; stroke-linecap: butt}</style>
 </defs>
 <g id="figure_1">
  <g id="patch_1">
   <path d="M 0 345.6 
L 460.8 345.6 
L 460.8 0 
L 0 0 
z
" style="fill: #ffffff"/>
  </g>
  <g id="axes_1">
   <g id="patch_2">
    <path d="M 57.6 307.584 
L 414.72 307.584 
L 414.72 41.472 
L 57.6 41.472 
z
" style="fill: #ffffff"/>
   </g>
   <g id="matplotlib.axis_1">
    <g id="xtick_1">
     <g id="line2d_1">
      <defs>
       <path id="m08e3845642" d="M 0 0 
L 0 3.5 
" style="stroke: #000000; stroke-width: 0.8"/>
      </defs>
      <g>
       <use xlink:href="#m08e3845642" x="57.6" y="307.584" style="stroke: #000000; stroke-width: 0.8"/>
      </g>
     </g>
     <g id="text_1">
      <!-- −30 -->
      <g transform="translate(47.047656 322.182437) scale(0.1 -0.1)">
       <defs>
        <path id="DejaVuSerif-2212" d="M 678 2259 
L 4684 2259 
L 4684 1753 
L 678 1753 
L 678 2259 
z
" transform="scale(0.015625)"/>
        <path id="DejaVuSerif-33" d="M 622 4469 
Q 988 4606 1323 4678 
Q 1659 4750 1953 4750 
Q 2638 4750 3022 4454 
Q 3406 4159 3406 3634 
Q 3406 3213 3140 2930 
Q 2875 2647 2388 2547 
Q 2963 2466 3280 2130 
Q 3597 1794 3597 1259 
Q 3597 606 3158 257 
Q 2719 -91 1894 -91 
Q 1528 -91 1179 -12 
Q 831 66 488 225 
L 488 1131 
L 838 1131 
Q 869 681 1141 450 
Q 1413 219 1906 219 
Q 2384 219 2661 495 
Q 2938 772 2938 1253 
Q 2938 1803 2653 2086 
Q 2369 2369 1819 2369 
L 1522 2369 
L 1522 2688 
L 1678 2688 
Q 2225 2688 2498 2914 
Q 2772 3141 2772 3597 
Q 2772 4006 2547 4223 
Q 2322 4441 1900 4441 
Q 1478 4441 1245 4241 
Q 1013 4041 972 3647 
L 622 3647 
L 622 4469 
z
" transform="scale(0.015625)"/>
        <path id="DejaVuSerif-30" d="M 2034 219 
Q 2513 219 2750 744 
Q 2988 1269 2988 2328 
Q 2988 3391 2750 3916 
Q 2513 4441 2034 4441 
Q 1556 4441 1318 3916 
Q 1081 3391 1081 2328 
Q 1081 1269 1318 744 
Q 1556 219 2034 219 
z
M 2034 -91 
Q 1275 -91 848 546 
Q 422 1184 422 2328 
Q 422 3475 848 4112 
Q 1275 4750 2034 4750 
Q 2797 4750 3222 4112 
Q 3647 3475 3647 2328 
Q 3647 1184 3222 546 
Q 2797 -91 2034 -91 
z
" transform="scale(0.015625)"/>
       </defs>
       <use xlink:href="#DejaVuSerif-2212"/>
       <use xlink:href="#DejaVuSerif-33" x="83.789062"/>
       <use xlink:href="#DejaVuSerif-30" x="147.412109"/>
      </g>
     </g>
    </g>
    <g id="xtick_2">
     <g id="line2d_2">
      <g>
       <use xlink:href="#m08e3845642" x="117.12" y="307.584" style="stroke: #000000; stroke-width: 0.8"/>
      </g>
     </g>
     <g id="text_2">
      <!-- −20 -->
      <g transform="translate(106.567656 322.182437) scale(0.1 -0.1)">
       <defs>
        <path id="DejaVuSerif-32" d="M 819 3553 
L 469 3553 
L 469 4384 
Q 803 4563 1142 4656 
Q 1481 4750 1806 4750 
Q 2534 4750 2956 4397 
Q 3378 4044 3378 3438 
Q 3378 2753 2422 1800 
Q 2347 1728 2309 1691 
L 1131 513 
L 3078 513 
L 3078 1088 
L 3444 1088 
L 3444 0 
L 434 0 
L 434 341 
L 1850 1753 
Q 2319 2222 2519 2614 
Q 2719 3006 2719 3438 
Q 2719 3909 2473 4175 
Q 2228 4441 1797 4441 
Q 1350 4441 1106 4219 
Q 863 3997 819 3553 
z
" transform="scale(0.015625)"/>
       </defs>
       <use xlink:href="#DejaVuSerif-2212"/>
       <use xlink:href="#DejaVuSerif-32" x="83.789062"/>
       <use xlink:href="#DejaVuSerif-30" x="147.412109"/>
      </g>
     </g>
    </g>
    <g id="xtick_3">
     <g id="line2d_3">
      <g>
       <use xlink:href="#m08e3845642" x="176.64" y="307.584" style="stroke: #000000; stroke-width: 0.8"/>
      </g>
     </g>
     <g id="text_3">
      <!-- −10 -->
      <g transform="translate(166.087656 322.182437) scale(0.1 -0.1)">
       <defs>
        <path id="DejaVuSerif-31" d="M 909 0 
L 909 331 
L 1722 331 
L 1722 4213 
L 781 3603 
L 781 4013 
L 1919 4750 
L 2350 4750 
L 2350 331 
L 3163 331 
L 3163 0 
L 909 0 
z
" transform="scale(0.015625)"/>
       </defs>
       <use xlink:href="#DejaVuSerif-2212"/>
       <use xlink:href="#DejaVuSerif-31" x="83.789062"/>
       <use xlink:href="#DejaVuSerif-30" x="147.412109"/>
      </g>
     </g>
    </g>
    <g id="xtick_4">
     <g id="line2d_4">
      <g>
       <use xlink:href="#m08e3845642" x="236.16" y="307.584" style="stroke: #000000; stroke-width: 0.8"/>
      </g>
     </g>
     <g id="text_4">
      <!-- 0 -->
      <g transform="translate(232.97875 322.182437) scale(0.1 -0.1)">
       <use xlink:href="#DejaVuSerif-30"/>
      </g>
     </g>
    </g>
    <g id="xtick_5">
     <g id="line2d_5">
      <g>
       <use xlink:href="#m08e3845642" x="295.68" y="307.584" style="stroke: #000000; stroke-width: 0.8"/>
      </g>
     </g>
     <g id="text_5">
      <!-- 10 -->
      <g transform="translate(289.3175 322.182437) scale(0.1 -0.1)">
       <use xlink:href="#DejaVuSerif-31"/>
       <use xlink:href="#DejaVuSerif-30" x="63.623047"/>
      </g>
     </g>
    </g>
    <g id="xtick_6">
     <g id="line2d_6">
      <g>
       <use xlink:href="#m08e3845642" x="355.2" y="307.584" style="stroke: #000000; stroke-width: 0.8"/>
      </g>
     </g>
     <g id="text_6">
      <!-- 20 -->
      <g transform="translate(348.8375 322.182437) scale(0.1 -0.1)">
       <use xlink:href="#DejaVuSerif-32"/>
       <use xlink:href="#DejaVuSerif-30" x="63.623047"/>
      </g>
     </g>
    </g>
    <g id="xtick_7">
     <g id="line2d_7">
      <g>
       <use xlink:href="#m08e3845642" x="414.72" y="307.584" style="stroke: #000000; stroke-width: 0.8"/>
      </g>
     </g>
     <g id="text_7">
      <!-- 30 -->
      <g transform="translate(408.3575 322.182437) scale(0.1 -0.1)">
       <use xlink:href="#DejaVuSerif-33"/>
       <use xlink:href="#DejaVuSerif-30" x="63.623047"/>
      </g>
     </g>
    </g>
    <g id="text_8">
     <!-- Frecuencia [GHz] -->
     <g transform="translate(191.281094 335.860562) scale(0.1 -0.1)">
      <defs>
       <path id="DejaVuSerif-46" d="M 353 0 
L 353 331 
L 947 331 
L 947 4331 
L 353 4331 
L 353 4666 
L 4172 4666 
L 4172 3628 
L 3788 3628 
L 3788 4281 
L 1581 4281 
L 1581 2719 
L 3175 2719 
L 3175 3303 
L 3559 3303 
L 3559 1753 
L 3175 1753 
L 3175 2338 
L 1581 2338 
L 1581 331 
L 2328 331 
L 2328 0 
L 353 0 
z
" transform="scale(0.015625)"/>
       <path id="DejaVuSerif-72" d="M 3059 3328 
L 3059 2497 
L 2728 2497 
Q 2713 2744 2591 2866 
Q 2469 2988 2234 2988 
Q 1809 2988 1582 2694 
Q 1356 2400 1356 1850 
L 1356 331 
L 2022 331 
L 2022 0 
L 263 0 
L 263 331 
L 781 331 
L 781 2994 
L 231 2994 
L 231 3322 
L 1356 3322 
L 1356 2731 
Q 1525 3078 1790 3245 
Q 2056 3413 2438 3413 
Q 2578 3413 2733 3391 
Q 2888 3369 3059 3328 
z
" transform="scale(0.015625)"/>
       <path id="DejaVuSerif-65" d="M 3469 1600 
L 991 1600 
L 991 1575 
Q 991 903 1244 561 
Q 1497 219 1991 219 
Q 2369 219 2611 417 
Q 2853 616 2950 1006 
L 3413 1006 
Q 3275 459 2904 184 
Q 2534 -91 1931 -91 
Q 1203 -91 761 389 
Q 319 869 319 1663 
Q 319 2450 753 2931 
Q 1188 3413 1894 3413 
Q 2647 3413 3050 2948 
Q 3453 2484 3469 1600 
z
M 2791 1931 
Q 2772 2513 2545 2808 
Q 2319 3103 1894 3103 
Q 1497 3103 1269 2806 
Q 1041 2509 991 1931 
L 2791 1931 
z
" transform="scale(0.015625)"/>
       <path id="DejaVuSerif-63" d="M 3291 997 
Q 3169 466 2822 187 
Q 2475 -91 1925 -91 
Q 1200 -91 759 389 
Q 319 869 319 1663 
Q 319 2459 759 2936 
Q 1200 3413 1925 3413 
Q 2241 3413 2553 3339 
Q 2866 3266 3181 3116 
L 3181 2266 
L 2847 2266 
Q 2781 2703 2561 2903 
Q 2341 3103 1931 3103 
Q 1466 3103 1228 2742 
Q 991 2381 991 1663 
Q 991 944 1227 581 
Q 1463 219 1931 219 
Q 2303 219 2525 412 
Q 2747 606 2828 997 
L 3291 997 
z
" transform="scale(0.015625)"/>
       <path id="DejaVuSerif-75" d="M 2266 3322 
L 3341 3322 
L 3341 331 
L 3884 331 
L 3884 0 
L 2766 0 
L 2766 588 
Q 2606 256 2353 82 
Q 2100 -91 1766 -91 
Q 1213 -91 952 223 
Q 691 538 691 1209 
L 691 2988 
L 172 2988 
L 172 3322 
L 1269 3322 
L 1269 1388 
Q 1269 781 1417 556 
Q 1566 331 1947 331 
Q 2347 331 2556 625 
Q 2766 919 2766 1478 
L 2766 2988 
L 2266 2988 
L 2266 3322 
z
" transform="scale(0.015625)"/>
       <path id="DejaVuSerif-6e" d="M 263 0 
L 263 331 
L 781 331 
L 781 2988 
L 231 2988 
L 231 3322 
L 1356 3322 
L 1356 2731 
Q 1516 3069 1770 3241 
Q 2025 3413 2363 3413 
Q 2913 3413 3172 3097 
Q 3431 2781 3431 2113 
L 3431 331 
L 3944 331 
L 3944 0 
L 2356 0 
L 2356 331 
L 2853 331 
L 2853 1931 
Q 2853 2541 2703 2767 
Q 2553 2994 2175 2994 
Q 1775 2994 1565 2701 
Q 1356 2409 1356 1850 
L 1356 331 
L 1856 331 
L 1856 0 
L 263 0 
z
" transform="scale(0.015625)"/>
       <path id="DejaVuSerif-69" d="M 622 4353 
Q 622 4497 726 4603 
Q 831 4709 978 4709 
Q 1122 4709 1226 4603 
Q 1331 4497 1331 4353 
Q 1331 4206 1228 4103 
Q 1125 4000 978 4000 
Q 831 4000 726 4103 
Q 622 4206 622 4353 
z
M 1356 331 
L 1900 331 
L 1900 0 
L 231 0 
L 231 331 
L 781 331 
L 781 2988 
L 231 2988 
L 231 3322 
L 1356 3322 
L 1356 331 
z
" transform="scale(0.015625)"/>
       <path id="DejaVuSerif-61" d="M 2547 1044 
L 2547 1747 
L 1806 1747 
Q 1378 1747 1168 1562 
Q 959 1378 959 997 
Q 959 650 1171 447 
Q 1384 244 1747 244 
Q 2106 244 2326 466 
Q 2547 688 2547 1044 
z
M 3122 2075 
L 3122 331 
L 3634 331 
L 3634 0 
L 2547 0 
L 2547 359 
Q 2356 128 2106 18 
Q 1856 -91 1522 -91 
Q 969 -91 644 203 
Q 319 497 319 997 
Q 319 1513 691 1797 
Q 1063 2081 1741 2081 
L 2547 2081 
L 2547 2309 
Q 2547 2688 2317 2895 
Q 2088 3103 1672 3103 
Q 1328 3103 1125 2947 
Q 922 2791 872 2484 
L 575 2484 
L 575 3156 
Q 875 3284 1158 3348 
Q 1441 3413 1709 3413 
Q 2400 3413 2761 3070 
Q 3122 2728 3122 2075 
z
" transform="scale(0.015625)"/>
       <path id="DejaVuSerif-20" transform="scale(0.015625)"/>
       <path id="DejaVuSerif-5b" d="M 550 4863 
L 2003 4863 
L 2003 4531 
L 1147 4531 
L 1147 -513 
L 2003 -513 
L 2003 -844 
L 550 -844 
L 550 4863 
z
" transform="scale(0.015625)"/>
       <path id="DejaVuSerif-47" d="M 4097 3272 
Q 3988 3856 3641 4136 
Q 3294 4416 2675 4416 
Q 1869 4416 1472 3897 
Q 1075 3378 1075 2328 
Q 1075 1300 1484 772 
Q 1894 244 2688 244 
Q 3041 244 3362 331 
Q 3684 419 3975 594 
L 3975 1797 
L 3097 1797 
L 3097 2131 
L 4609 2131 
L 4609 391 
Q 4194 150 3714 29 
Q 3234 -91 2688 -91 
Q 1631 -91 995 570 
Q 359 1231 359 2328 
Q 359 3434 996 4092 
Q 1634 4750 2713 4750 
Q 3113 4750 3539 4658 
Q 3966 4566 4447 4378 
L 4447 3272 
L 4097 3272 
z
" transform="scale(0.015625)"/>
       <path id="DejaVuSerif-48" d="M 353 0 
L 353 331 
L 947 331 
L 947 4331 
L 353 4331 
L 353 4666 
L 2175 4666 
L 2175 4331 
L 1581 4331 
L 1581 2719 
L 4000 2719 
L 4000 4331 
L 3406 4331 
L 3406 4666 
L 5228 4666 
L 5228 4331 
L 4634 4331 
L 4634 331 
L 5228 331 
L 5228 0 
L 3406 0 
L 3406 331 
L 4000 331 
L 4000 2338 
L 1581 2338 
L 1581 331 
L 2175 331 
L 2175 0 
L 353 0 
z
" transform="scale(0.015625)"/>
       <path id="DejaVuSerif-7a" d="M 256 0 
L 256 269 
L 2338 2988 
L 691 2988 
L 691 2413 
L 359 2413 
L 359 3322 
L 3078 3322 
L 3078 3053 
L 997 331 
L 2803 331 
L 2803 934 
L 3138 934 
L 3138 0 
L 256 0 
z
" transform="scale(0.015625)"/>
       <path id="DejaVuSerif-5d" d="M 1947 4863 
L 1947 -844 
L 494 -844 
L 494 -513 
L 1350 -513 
L 1350 4531 
L 494 4531 
L 494 4863 
L 1947 4863 
z
" transform="scale(0.015625)"/>
      </defs>
      <use xlink:href="#DejaVuSerif-46"/>
      <use xlink:href="#DejaVuSerif-72" x="69.384766"/>
      <use xlink:href="#DejaVuSerif-65" x="117.1875"/>
      <use xlink:href="#DejaVuSerif-63" x="176.367188"/>
      <use xlink:href="#DejaVuSerif-75" x="232.373047"/>
      <use xlink:href="#DejaVuSerif-65" x="296.777344"/>
      <use xlink:href="#DejaVuSerif-6e" x="355.957031"/>
      <use xlink:href="#DejaVuSerif-63" x="420.361328"/>
      <use xlink:href="#DejaVuSerif-69" x="476.367188"/>
      <use xlink:href="#DejaVuSerif-61" x="508.349609"/>
      <use xlink:href="#DejaVuSerif-20" x="567.96875"/>
      <use xlink:href="#DejaVuSerif-5b" x="599.755859"/>
      <use xlink:href="#DejaVuSerif-47" x="638.769531"/>
      <use xlink:href="#DejaVuSerif-48" x="718.652344"/>
      <use xlink:href="#DejaVuSerif-7a" x="805.859375"/>
      <use xlink:href="#DejaVuSerif-5d" x="858.544922"/>
     </g>
    </g>
   </g>
   <g id="matplotlib.axis_2">
    <g id="ytick_1">
     <g id="line2d_8">
      <defs>
       <path id="mc396f22ce0" d="M 0 0 
L -3.5 0 
" style="stroke: #000000; stroke-width: 0.8"/>
      </defs>
      <g>
       <use xlink:href="#mc396f22ce0" x="57.6" y="307.584" style="stroke: #000000; stroke-width: 0.8"/>
      </g>
     </g>
     <g id="text_9">
      <!-- −20 -->
      <g transform="translate(29.495313 311.383219) scale(0.1 -0.1)">
       <use xlink:href="#DejaVuSerif-2212"/>
       <use xlink:href="#DejaVuSerif-32" x="83.789062"/>
       <use xlink:href="#DejaVuSerif-30" x="147.412109"/>
      </g>
     </g>
    </g>
    <g id="ytick_2">
     <g id="line2d_9">
      <g>
       <use xlink:href="#mc396f22ce0" x="57.6" y="254.3616" style="stroke: #000000; stroke-width: 0.8"/>
      </g>
     </g>
     <g id="text_10">
      <!-- −15 -->
      <g transform="translate(29.495313 258.160819) scale(0.1 -0.1)">
       <defs>
        <path id="DejaVuSerif-35" d="M 3219 4666 
L 3219 4153 
L 1081 4153 
L 1081 2816 
Q 1244 2928 1461 2984 
Q 1678 3041 1947 3041 
Q 2703 3041 3140 2622 
Q 3578 2203 3578 1478 
Q 3578 738 3136 323 
Q 2694 -91 1894 -91 
Q 1572 -91 1234 -12 
Q 897 66 544 225 
L 544 1131 
L 897 1131 
Q 925 688 1179 453 
Q 1434 219 1894 219 
Q 2388 219 2653 544 
Q 2919 869 2919 1478 
Q 2919 2084 2655 2407 
Q 2391 2731 1894 2731 
Q 1613 2731 1398 2631 
Q 1184 2531 1019 2322 
L 750 2322 
L 750 4666 
L 3219 4666 
z
" transform="scale(0.015625)"/>
       </defs>
       <use xlink:href="#DejaVuSerif-2212"/>
       <use xlink:href="#DejaVuSerif-31" x="83.789062"/>
       <use xlink:href="#DejaVuSerif-35" x="147.412109"/>
      </g>
     </g>
    </g>
    <g id="ytick_3">
     <g id="line2d_10">
      <g>
       <use xlink:href="#mc396f22ce0" x="57.6" y="201.1392" style="stroke: #000000; stroke-width: 0.8"/>
      </g>
     </g>
     <g id="text_11">
      <!-- −10 -->
      <g transform="translate(29.495313 204.938419) scale(0.1 -0.1)">
       <use xlink:href="#DejaVuSerif-2212"/>
       <use xlink:href="#DejaVuSerif-31" x="83.789062"/>
       <use xlink:href="#DejaVuSerif-30" x="147.412109"/>
      </g>
     </g>
    </g>
    <g id="ytick_4">
     <g id="line2d_11">
      <g>
       <use xlink:href="#mc396f22ce0" x="57.6" y="147.9168" style="stroke: #000000; stroke-width: 0.8"/>
      </g>
     </g>
     <g id="text_12">
      <!-- −5 -->
      <g transform="translate(35.857813 151.716019) scale(0.1 -0.1)">
       <use xlink:href="#DejaVuSerif-2212"/>
       <use xlink:href="#DejaVuSerif-35" x="83.789062"/>
      </g>
     </g>
    </g>
    <g id="ytick_5">
     <g id="line2d_12">
      <g>
       <use xlink:href="#mc396f22ce0" x="57.6" y="94.6944" style="stroke: #000000; stroke-width: 0.8"/>
      </g>
     </g>
     <g id="text_13">
      <!-- 0 -->
      <g transform="translate(44.2375 98.493619) scale(0.1 -0.1)">
       <use xlink:href="#DejaVuSerif-30"/>
      </g>
     </g>
    </g>
    <g id="ytick_6">
     <g id="line2d_13">
      <g>
       <use xlink:href="#mc396f22ce0" x="57.6" y="41.472" style="stroke: #000000; stroke-width: 0.8"/>
      </g>
     </g>
     <g id="text_14">
      <!-- 5 -->
      <g transform="translate(44.2375 45.271219) scale(0.1 -0.1)">
       <use xlink:href="#DejaVuSerif-35"/>
      </g>
     </g>
    </g>
    <g id="text_15">
     <!-- Potencia [dBm] -->
     <g transform="translate(23.415625 213.378781) rotate(-90) scale(0.1 -0.1)">
      <defs>
       <path id="DejaVuSerif-50" d="M 1581 2375 
L 2406 2375 
Q 2872 2375 3115 2626 
Q 3359 2878 3359 3353 
Q 3359 3831 3115 4081 
Q 2872 4331 2406 4331 
L 1581 4331 
L 1581 2375 
z
M 353 0 
L 353 331 
L 947 331 
L 947 4331 
L 353 4331 
L 353 4666 
L 2559 4666 
Q 3259 4666 3668 4311 
Q 4078 3956 4078 3353 
Q 4078 2753 3668 2397 
Q 3259 2041 2559 2041 
L 1581 2041 
L 1581 331 
L 2303 331 
L 2303 0 
L 353 0 
z
" transform="scale(0.015625)"/>
       <path id="DejaVuSerif-6f" d="M 1925 219 
Q 2388 219 2623 584 
Q 2859 950 2859 1663 
Q 2859 2375 2623 2739 
Q 2388 3103 1925 3103 
Q 1463 3103 1227 2739 
Q 991 2375 991 1663 
Q 991 950 1228 584 
Q 1466 219 1925 219 
z
M 1925 -91 
Q 1200 -91 759 389 
Q 319 869 319 1663 
Q 319 2456 758 2934 
Q 1197 3413 1925 3413 
Q 2653 3413 3092 2934 
Q 3531 2456 3531 1663 
Q 3531 869 3092 389 
Q 2653 -91 1925 -91 
z
" transform="scale(0.015625)"/>
       <path id="DejaVuSerif-74" d="M 691 2988 
L 184 2988 
L 184 3322 
L 691 3322 
L 691 4353 
L 1269 4353 
L 1269 3322 
L 2350 3322 
L 2350 2988 
L 1269 2988 
L 1269 878 
Q 1269 456 1350 337 
Q 1431 219 1650 219 
Q 1875 219 1978 351 
Q 2081 484 2088 781 
L 2522 781 
Q 2497 328 2275 118 
Q 2053 -91 1600 -91 
Q 1103 -91 897 129 
Q 691 350 691 878 
L 691 2988 
z
" transform="scale(0.015625)"/>
       <path id="DejaVuSerif-64" d="M 3359 331 
L 3909 331 
L 3909 0 
L 2784 0 
L 2784 519 
Q 2616 206 2355 57 
Q 2094 -91 1709 -91 
Q 1097 -91 708 395 
Q 319 881 319 1663 
Q 319 2444 706 2928 
Q 1094 3413 1709 3413 
Q 2094 3413 2355 3264 
Q 2616 3116 2784 2803 
L 2784 4531 
L 2241 4531 
L 2241 4863 
L 3359 4863 
L 3359 331 
z
M 2784 1497 
L 2784 1825 
Q 2784 2422 2554 2737 
Q 2325 3053 1888 3053 
Q 1444 3053 1217 2703 
Q 991 2353 991 1663 
Q 991 975 1217 622 
Q 1444 269 1888 269 
Q 2325 269 2554 583 
Q 2784 897 2784 1497 
z
" transform="scale(0.015625)"/>
       <path id="DejaVuSerif-42" d="M 1581 331 
L 2516 331 
Q 3078 331 3337 575 
Q 3597 819 3597 1350 
Q 3597 1878 3339 2120 
Q 3081 2363 2516 2363 
L 1581 2363 
L 1581 331 
z
M 1581 2694 
L 2375 2694 
Q 2888 2694 3123 2891 
Q 3359 3088 3359 3513 
Q 3359 3941 3123 4136 
Q 2888 4331 2375 4331 
L 1581 4331 
L 1581 2694 
z
M 353 0 
L 353 331 
L 947 331 
L 947 4331 
L 353 4331 
L 353 4666 
L 2656 4666 
Q 3363 4666 3720 4377 
Q 4078 4088 4078 3513 
Q 4078 3097 3829 2850 
Q 3581 2603 3103 2547 
Q 3697 2472 4005 2167 
Q 4313 1863 4313 1350 
Q 4313 656 3875 328 
Q 3438 0 2509 0 
L 353 0 
z
" transform="scale(0.015625)"/>
       <path id="DejaVuSerif-6d" d="M 3316 2675 
Q 3481 3041 3739 3227 
Q 3997 3413 4341 3413 
Q 4863 3413 5119 3089 
Q 5375 2766 5375 2113 
L 5375 331 
L 5894 331 
L 5894 0 
L 4300 0 
L 4300 331 
L 4800 331 
L 4800 2047 
Q 4800 2556 4650 2772 
Q 4500 2988 4153 2988 
Q 3769 2988 3567 2697 
Q 3366 2406 3366 1850 
L 3366 331 
L 3866 331 
L 3866 0 
L 2291 0 
L 2291 331 
L 2791 331 
L 2791 2069 
Q 2791 2566 2641 2777 
Q 2491 2988 2144 2988 
Q 1759 2988 1557 2697 
Q 1356 2406 1356 1850 
L 1356 331 
L 1856 331 
L 1856 0 
L 263 0 
L 263 331 
L 781 331 
L 781 2994 
L 231 2994 
L 231 3322 
L 1356 3322 
L 1356 2731 
Q 1516 3063 1762 3238 
Q 2009 3413 2322 3413 
Q 2709 3413 2968 3220 
Q 3228 3028 3316 2675 
z
" transform="scale(0.015625)"/>
      </defs>
      <use xlink:href="#DejaVuSerif-50"/>
      <use xlink:href="#DejaVuSerif-6f" x="63.285156"/>
      <use xlink:href="#DejaVuSerif-74" x="123.490234"/>
      <use xlink:href="#DejaVuSerif-65" x="163.675781"/>
      <use xlink:href="#DejaVuSerif-6e" x="222.855469"/>
      <use xlink:href="#DejaVuSerif-63" x="287.259766"/>
      <use xlink:href="#DejaVuSerif-69" x="343.265625"/>
      <use xlink:href="#DejaVuSerif-61" x="375.248047"/>
      <use xlink:href="#DejaVuSerif-20" x="434.867188"/>
      <use xlink:href="#DejaVuSerif-5b" x="466.654297"/>
      <use xlink:href="#DejaVuSerif-64" x="505.667969"/>
      <use xlink:href="#DejaVuSerif-42" x="569.681641"/>
      <use xlink:href="#DejaVuSerif-6d" x="643.167969"/>
      <use xlink:href="#DejaVuSerif-5d" x="737.992188"/>
     </g>
    </g>
   </g>
   <g id="line2d_14">
    <path d="M 95.383907 346.6 
L 97.4784 336.848417 
L 99.8592 324.485953 
L 101.6448 314.12905 
L 103.4304 302.629078 
L 105.216 289.738366 
L 107.0016 275.149269 
L 108.7872 258.499323 
L 110.5728 239.409503 
L 112.3584 217.585561 
L 114.144 193.003625 
L 116.5248 156.885757 
L 119.5008 111.335426 
L 120.6912 95.337491 
L 121.8816 82.137416 
L 122.4768 76.984975 
L 123.072 73.03996 
L 123.6672 70.502156 
L 124.2624 69.579258 
L 124.8576 70.468355 
L 125.4528 73.30897 
L 126.048 78.073875 
L 127.2384 90.918377 
L 127.8336 95.603045 
L 128.4288 96.012381 
L 129.024 91.733268 
L 130.2144 79.043433 
L 130.8096 75.904491 
L 131.4048 76.704158 
L 132 81.351346 
L 132.5952 88.016554 
L 133.1904 92.523505 
L 133.7856 90.883868 
L 134.976 78.917059 
L 135.5712 77.876943 
L 136.1664 82.195352 
L 136.7616 88.803766 
L 137.3568 91.005563 
L 137.952 85.973241 
L 138.5472 79.884638 
L 139.1424 79.117 
L 140.3328 90.016821 
L 140.928 87.76158 
L 141.5232 81.194694 
L 142.1184 79.577222 
L 143.3088 89.705668 
L 143.904 85.500361 
L 144.4992 79.965676 
L 145.0944 82.150853 
L 145.6896 88.526176 
L 146.2848 87.032259 
L 146.88 80.754665 
L 147.4752 81.899535 
L 148.0704 88.273138 
L 148.6656 86.326477 
L 149.2608 80.516491 
L 149.856 83.502509 
L 150.4512 88.679332 
L 151.0464 83.659194 
L 151.6416 80.83515 
L 152.2368 86.924177 
L 152.832 86.57759 
L 153.4272 80.802746 
L 154.0224 84.781673 
L 154.6176 87.767146 
L 155.2128 81.519684 
L 155.808 83.716279 
L 156.4032 87.938215 
L 156.9984 81.853076 
L 157.5936 83.710893 
L 158.1888 87.703618 
L 158.784 81.595143 
L 159.3792 84.648855 
L 159.9744 86.891753 
L 160.5696 81.221385 
L 161.1648 86.360433 
L 161.76 84.940873 
L 162.3552 81.889304 
L 162.9504 87.65434 
L 163.5456 82.287402 
L 164.1408 84.669492 
L 164.736 86.047804 
L 165.3312 81.688326 
L 165.9264 87.462807 
L 166.5216 82.226017 
L 167.1168 85.363299 
L 167.712 84.869642 
L 168.3072 82.765445 
L 168.9024 86.949217 
L 169.4976 81.669388 
L 170.0928 87.25063 
L 170.688 82.078304 
L 171.2832 86.287457 
L 171.8784 83.208515 
L 172.4736 85.017158 
L 173.0688 84.361578 
L 173.664 84.000352 
L 174.2592 85.196627 
L 174.8544 83.379689 
L 175.4496 85.653812 
L 176.0448 83.110329 
L 176.64 85.78284 
L 177.2352 83.129053 
L 177.8304 85.621685 
L 178.4256 83.423975 
L 179.0208 85.159338 
L 179.616 84.030792 
L 180.2112 84.375626 
L 180.8064 84.962158 
L 181.4016 83.349667 
L 181.9968 86.061518 
L 182.592 82.396346 
L 183.1872 86.834821 
L 183.7824 82.103851 
L 184.3776 86.524082 
L 184.9728 83.06856 
L 185.568 84.804664 
L 186.1632 85.171435 
L 186.7584 82.717423 
L 187.3536 86.760161 
L 187.9488 82.343894 
L 188.544 85.660811 
L 189.1392 84.607655 
L 189.7344 82.893197 
L 190.3296 86.725104 
L 190.9248 82.636791 
L 191.52 84.819668 
L 192.1152 85.740479 
L 192.7104 82.274721 
L 193.3056 86.076954 
L 193.9008 84.570821 
L 194.496 82.631955 
L 195.0912 86.495292 
L 195.6864 83.981192 
L 196.2816 82.887837 
L 196.8768 86.532117 
L 197.472 84.003606 
L 198.0672 82.770909 
L 198.6624 86.342858 
L 199.2576 84.616561 
L 199.8528 82.443756 
L 200.448 85.641524 
L 201.0432 85.727723 
L 201.6384 82.541065 
L 202.2336 84.118256 
L 202.8288 86.538657 
L 203.424 83.950952 
L 204.0192 82.561463 
L 204.6144 85.411511 
L 205.2096 86.16666 
L 205.8048 83.244687 
L 206.4 82.847845 
L 206.9952 85.65528 
L 207.5904 86.117766 
L 208.1856 83.426176 
L 208.7808 82.644504 
L 209.376 85.009464 
L 209.9712 86.444396 
L 211.1616 82.575619 
L 211.7568 83.409247 
L 212.352 85.763375 
L 212.9472 86.262534 
L 214.1376 82.609427 
L 214.7328 83.156655 
L 215.328 85.208111 
L 215.9232 86.41312 
L 216.5184 85.476085 
L 217.1136 83.539789 
L 217.7088 82.532192 
L 218.304 83.249059 
L 218.8992 84.999559 
L 219.4944 86.310162 
L 220.0896 86.140711 
L 221.28 83.146564 
L 221.8752 82.426541 
L 222.4704 82.915847 
L 223.6608 85.870341 
L 224.256 86.797947 
L 224.8512 86.622957 
L 225.4464 85.418822 
L 226.6368 82.003908 
L 227.232 80.885559 
L 227.8272 80.611558 
L 228.4224 81.294646 
L 229.0176 82.92127 
L 229.6128 85.397192 
L 230.8032 92.297763 
L 233.7792 112.240756 
L 234.3744 115.182716 
L 234.9696 117.396054 
L 235.5648 118.770637 
L 236.16 119.236788 
L 236.7552 118.770637 
L 237.3504 117.396054 
L 237.9456 115.182716 
L 238.5408 112.240756 
L 239.7312 104.767312 
L 242.112 88.579653 
L 242.7072 85.397192 
L 243.3024 82.92127 
L 243.8976 81.294646 
L 244.4928 80.611558 
L 245.088 80.885559 
L 245.6832 82.003908 
L 246.8736 85.418822 
L 247.4688 86.622957 
L 248.064 86.797947 
L 248.6592 85.870341 
L 249.8496 82.915847 
L 250.4448 82.426541 
L 251.04 83.146564 
L 252.2304 86.140711 
L 252.8256 86.310162 
L 253.4208 84.999559 
L 254.016 83.249059 
L 254.6112 82.532192 
L 255.2064 83.539789 
L 255.8016 85.476085 
L 256.3968 86.41312 
L 256.992 85.208111 
L 257.5872 83.156655 
L 258.1824 82.609427 
L 259.3728 86.262534 
L 259.968 85.763375 
L 260.5632 83.409247 
L 261.1584 82.575619 
L 262.3488 86.444396 
L 262.944 85.009464 
L 263.5392 82.644504 
L 264.1344 83.426176 
L 264.7296 86.117766 
L 265.3248 85.65528 
L 265.92 82.847845 
L 266.5152 83.244687 
L 267.1104 86.16666 
L 267.7056 85.411511 
L 268.3008 82.561463 
L 268.896 83.950952 
L 269.4912 86.538657 
L 270.0864 84.118256 
L 270.6816 82.541065 
L 271.2768 85.727723 
L 271.872 85.641524 
L 272.4672 82.443756 
L 273.0624 84.616561 
L 273.6576 86.342858 
L 274.2528 82.770909 
L 274.848 84.003606 
L 275.4432 86.532117 
L 276.0384 82.887837 
L 276.6336 83.981192 
L 277.2288 86.495292 
L 277.824 82.631955 
L 278.4192 84.570821 
L 279.0144 86.076954 
L 279.6096 82.274721 
L 280.2048 85.740479 
L 280.8 84.819668 
L 281.3952 82.636791 
L 281.9904 86.725104 
L 282.5856 82.893197 
L 283.1808 84.607655 
L 283.776 85.660811 
L 284.3712 82.343894 
L 284.9664 86.760161 
L 285.5616 82.717423 
L 286.1568 85.171435 
L 286.752 84.804664 
L 287.3472 83.06856 
L 287.9424 86.524082 
L 288.5376 82.103851 
L 289.1328 86.834821 
L 289.728 82.396346 
L 290.3232 86.061518 
L 290.9184 83.349667 
L 291.5136 84.962158 
L 292.1088 84.375626 
L 292.704 84.030792 
L 293.2992 85.159338 
L 293.8944 83.423975 
L 294.4896 85.621685 
L 295.0848 83.129053 
L 295.68 85.78284 
L 296.2752 83.110329 
L 296.8704 85.653812 
L 297.4656 83.379689 
L 298.0608 85.196627 
L 298.656 84.000352 
L 299.2512 84.361578 
L 299.8464 85.017158 
L 300.4416 83.208515 
L 301.0368 86.287457 
L 301.632 82.078304 
L 302.2272 87.25063 
L 302.8224 81.669388 
L 303.4176 86.949217 
L 304.0128 82.765445 
L 304.608 84.869642 
L 305.2032 85.363299 
L 305.7984 82.226017 
L 306.3936 87.462807 
L 306.9888 81.688326 
L 307.584 86.047804 
L 308.1792 84.669492 
L 308.7744 82.287402 
L 309.3696 87.65434 
L 309.9648 81.889304 
L 310.56 84.940873 
L 311.1552 86.360433 
L 311.7504 81.221385 
L 312.3456 86.891753 
L 312.9408 84.648855 
L 313.536 81.595143 
L 314.1312 87.703618 
L 314.7264 83.710893 
L 315.3216 81.853076 
L 315.9168 87.938215 
L 316.512 83.716279 
L 317.1072 81.519684 
L 317.7024 87.767146 
L 318.2976 84.781673 
L 318.8928 80.802746 
L 319.488 86.57759 
L 320.0832 86.924177 
L 320.6784 80.83515 
L 321.2736 83.659194 
L 321.8688 88.679332 
L 322.464 83.502509 
L 323.0592 80.516491 
L 323.6544 86.326477 
L 324.2496 88.273138 
L 324.8448 81.899535 
L 325.44 80.754665 
L 326.0352 87.032259 
L 326.6304 88.526176 
L 327.2256 82.150853 
L 327.8208 79.965676 
L 328.416 85.500361 
L 329.0112 89.705668 
L 330.2016 79.577222 
L 330.7968 81.194694 
L 331.392 87.76158 
L 331.9872 90.016821 
L 333.1776 79.117 
L 333.7728 79.884638 
L 334.9632 91.005563 
L 335.5584 88.803766 
L 336.1536 82.195352 
L 336.7488 77.876943 
L 337.344 78.917059 
L 338.5344 90.883868 
L 339.1296 92.523505 
L 339.7248 88.016554 
L 340.32 81.351346 
L 340.9152 76.704158 
L 341.5104 75.904491 
L 342.1056 79.043433 
L 343.8912 96.012381 
L 344.4864 95.603045 
L 345.0816 90.918377 
L 346.272 78.073875 
L 346.8672 73.30897 
L 347.4624 70.468355 
L 348.0576 69.579258 
L 348.6528 70.502156 
L 349.248 73.03996 
L 349.8432 76.984975 
L 350.4384 82.137416 
L 351.6288 95.337491 
L 352.8192 111.335426 
L 355.2 147.559363 
L 358.176 193.003625 
L 359.9616 217.585561 
L 361.7472 239.409503 
L 363.5328 258.499323 
L 365.3184 275.149269 
L 367.104 289.738366 
L 368.8896 302.629078 
L 370.6752 314.12905 
L 372.4608 324.485953 
L 374.8416 336.848417 
L 376.936093 346.6 
L 376.936093 346.6 
" clip-path="url(#p7013d29e1f)" style="fill: none; stroke: #ff0000; stroke-width: 2; stroke-linecap: square"/>
   </g>
   <g id="line2d_15">
    <path d="M 128.727534 346.6 
L 129.024 344.09875 
L 130.2144 331.725341 
L 130.8096 326.948698 
L 131.4048 324.111928 
L 132 323.037678 
L 132.5952 322.664252 
L 133.1904 321.311648 
L 133.7856 317.767117 
L 134.976 307.289233 
L 135.5712 303.775411 
L 136.1664 302.243862 
L 136.7616 301.38334 
L 137.3568 299.128236 
L 139.1424 286.687982 
L 140.3328 283.860529 
L 140.928 280.509117 
L 141.5232 275.977561 
L 142.1184 272.634519 
L 143.3088 269.397262 
L 144.4992 261.733112 
L 145.0944 259.410837 
L 145.6896 257.993791 
L 146.2848 255.078473 
L 146.88 251.154232 
L 147.4752 248.655863 
L 148.0704 247.183761 
L 148.6656 244.301987 
L 149.2608 240.660577 
L 149.856 238.559034 
L 150.4512 236.870773 
L 151.6416 230.60291 
L 152.2368 229.038033 
L 152.832 226.594269 
L 153.4272 223.307184 
L 154.6176 219.489617 
L 155.2128 216.314322 
L 156.4032 212.474976 
L 156.9984 209.465683 
L 158.1888 205.651516 
L 158.784 202.757576 
L 159.9744 199.00981 
L 160.5696 196.259401 
L 161.1648 194.669609 
L 162.3552 190.096163 
L 162.9504 188.633914 
L 163.5456 186.149718 
L 164.736 182.570506 
L 165.3312 180.225026 
L 165.9264 178.82799 
L 166.5216 176.530534 
L 167.712 173.08526 
L 168.3072 171.07465 
L 168.9024 169.651698 
L 169.4976 167.480365 
L 170.0928 166.170593 
L 170.688 164.10426 
L 171.2832 162.704063 
L 172.4736 159.323446 
L 174.8544 152.927093 
L 175.4496 151.594782 
L 176.0448 149.906656 
L 176.64 148.637462 
L 177.2352 146.993318 
L 177.8304 145.753451 
L 178.4256 144.182769 
L 179.616 141.4743 
L 184.9728 130.107792 
L 186.1632 127.904337 
L 186.7584 126.710291 
L 187.3536 125.767813 
L 187.9488 124.477339 
L 188.544 123.595032 
L 189.7344 121.390856 
L 190.3296 120.512211 
L 190.9248 119.328847 
L 192.1152 117.504649 
L 192.7104 116.450779 
L 193.3056 115.692909 
L 194.496 113.74527 
L 195.0912 113.002457 
L 196.2816 111.16967 
L 196.8768 110.448041 
L 198.0672 108.710411 
L 198.6624 108.037582 
L 199.8528 106.364238 
L 200.448 105.759497 
L 201.6384 104.138814 
L 202.8288 102.893951 
L 203.424 102.072051 
L 205.2096 100.222668 
L 205.8048 99.494188 
L 206.9952 98.52956 
L 208.1856 97.132171 
L 209.376 96.324071 
L 211.1616 94.535884 
L 211.7568 94.278456 
L 212.352 93.853983 
L 213.5424 92.521796 
L 214.1376 92.189231 
L 214.7328 92.06145 
L 215.328 91.780448 
L 217.1136 89.933763 
L 217.7088 89.821417 
L 218.304 89.896595 
L 218.8992 89.78924 
L 219.4944 89.272855 
L 220.6848 87.663336 
L 221.28 87.245615 
L 221.8752 87.320979 
L 223.0656 88.197429 
L 223.6608 88.304505 
L 224.256 87.846555 
L 224.8512 86.838447 
L 226.0416 84.184086 
L 226.6368 83.180883 
L 227.232 82.729914 
L 227.8272 82.962646 
L 228.4224 83.921899 
L 229.0176 85.58269 
L 229.6128 87.8721 
L 230.8032 93.893273 
L 233.7792 110.713549 
L 234.3744 113.18034 
L 234.9696 115.036288 
L 235.5648 116.189103 
L 236.16 116.580094 
L 236.7552 116.189103 
L 237.3504 115.036288 
L 237.9456 113.18034 
L 238.5408 110.713549 
L 239.7312 104.441967 
L 242.112 90.68467 
L 243.3024 85.58269 
L 243.8976 83.921899 
L 244.4928 82.962646 
L 245.088 82.729914 
L 245.6832 83.180883 
L 246.2784 84.184086 
L 247.4688 86.838447 
L 248.064 87.846555 
L 248.6592 88.304505 
L 249.2544 88.197429 
L 250.4448 87.320979 
L 251.04 87.245615 
L 251.6352 87.663336 
L 252.8256 89.272855 
L 253.4208 89.78924 
L 254.016 89.896595 
L 254.6112 89.821417 
L 255.2064 89.933763 
L 255.8016 90.43211 
L 256.992 91.780448 
L 257.5872 92.06145 
L 258.1824 92.189231 
L 258.7776 92.521796 
L 259.968 93.853983 
L 260.5632 94.278456 
L 261.1584 94.535884 
L 261.7536 94.977028 
L 262.944 96.324071 
L 264.1344 97.132171 
L 265.92 99.019355 
L 266.5152 99.494188 
L 267.7056 100.961233 
L 268.896 102.072051 
L 270.0864 103.582957 
L 270.6816 104.138814 
L 274.2528 108.710411 
L 274.848 109.479277 
L 275.4432 110.448041 
L 276.6336 111.987073 
L 277.2288 113.002457 
L 278.4192 114.657576 
L 279.0144 115.692909 
L 279.6096 116.450779 
L 280.8 118.492989 
L 281.3952 119.328847 
L 281.9904 120.512211 
L 283.1808 122.445088 
L 283.776 123.595032 
L 284.3712 124.477339 
L 284.9664 125.767813 
L 285.5616 126.710291 
L 291.5136 138.866677 
L 295.0848 146.993318 
L 295.68 148.637462 
L 296.2752 149.906656 
L 296.8704 151.594782 
L 297.4656 152.927093 
L 299.2512 157.713446 
L 301.632 164.10426 
L 302.2272 166.170593 
L 302.8224 167.480365 
L 303.4176 169.651698 
L 304.0128 171.07465 
L 305.2032 174.907461 
L 305.7984 176.530534 
L 306.3936 178.82799 
L 306.9888 180.225026 
L 307.584 182.570506 
L 308.7744 186.149718 
L 309.3696 188.633914 
L 309.9648 190.096163 
L 311.1552 194.669609 
L 311.7504 196.259401 
L 312.3456 199.00981 
L 313.536 202.757576 
L 314.1312 205.651516 
L 315.3216 209.465683 
L 315.9168 212.474976 
L 317.1072 216.314322 
L 317.7024 219.489617 
L 318.8928 223.307184 
L 319.488 226.594269 
L 320.0832 229.038033 
L 320.6784 230.60291 
L 321.8688 236.870773 
L 322.464 238.559034 
L 323.0592 240.660577 
L 323.6544 244.301987 
L 324.2496 247.183761 
L 324.8448 248.655863 
L 325.44 251.154232 
L 326.0352 255.078473 
L 326.6304 257.993791 
L 327.2256 259.410837 
L 327.8208 261.733112 
L 329.0112 269.397262 
L 330.2016 272.634519 
L 330.7968 275.977561 
L 331.392 280.509117 
L 331.9872 283.860529 
L 333.1776 286.687982 
L 333.7728 289.942343 
L 334.9632 299.128236 
L 335.5584 301.38334 
L 336.1536 302.243862 
L 336.7488 303.775411 
L 337.344 307.289233 
L 338.5344 317.767117 
L 339.1296 321.311648 
L 339.7248 322.664252 
L 340.32 323.037678 
L 340.9152 324.111928 
L 341.5104 326.948698 
L 342.1056 331.725341 
L 343.592466 346.6 
L 343.592466 346.6 
" clip-path="url(#p7013d29e1f)" style="fill: none; stroke: #0000ff; stroke-width: 2; stroke-linecap: square"/>
   </g>
   <g id="patch_3">
    <path d="M 57.6 307.584 
L 57.6 41.472 
" style="fill: none; stroke: #000000; stroke-width: 0.8; stroke-linejoin: miter; stroke-linecap: square"/>
   </g>
   <g id="patch_4">
    <path d="M 414.72 307.584 
L 414.72 41.472 
" style="fill: none; stroke: #000000; stroke-width: 0.8; stroke-linejoin: miter; stroke-linecap: square"/>
   </g>
   <g id="patch_5">
    <path d="M 57.6 307.584 
L 414.72 307.584 
" style="fill: none; stroke: #000000; stroke-width: 0.8; stroke-linejoin: miter; stroke-linecap: square"/>
   </g>
   <g id="patch_6">
    <path d="M 57.6 41.472 
L 414.72 41.472 
" style="fill: none; stroke: #000000; stroke-width: 0.8; stroke-linejoin: miter; stroke-linecap: square"/>
   </g>
   <g id="patch_7">
    <path d="M 295.68 84.331034 
Q 295.68 114.563776 295.68 144.796518 
" style="fill: none; stroke: #000000; stroke-linecap: round"/>
    <path d="M 293.28 89.131034 
L 295.68 84.331034 
L 298.08 89.131034 
" style="fill: none; stroke: #000000; stroke-linecap: round"/>
    <path d="M 298.08 139.996518 
L 295.68 144.796518 
L 293.28 139.996518 
" style="fill: none; stroke: #000000; stroke-linecap: round"/>
   </g>
   <g id="text_16">
    <!-- -6 dB -->
    <g style="fill: #ff0000" transform="translate(279.677813 76.71669) scale(0.12 -0.12)">
     <defs>
      <path id="DejaVuSerif-2d" d="M 281 1959 
L 1881 1959 
L 1881 1472 
L 281 1472 
L 281 1959 
z
" transform="scale(0.015625)"/>
      <path id="DejaVuSerif-36" d="M 2094 219 
Q 2534 219 2771 542 
Q 3009 866 3009 1472 
Q 3009 2078 2771 2401 
Q 2534 2725 2094 2725 
Q 1647 2725 1412 2412 
Q 1178 2100 1178 1509 
Q 1178 888 1415 553 
Q 1653 219 2094 219 
z
M 1075 2569 
Q 1288 2803 1556 2918 
Q 1825 3034 2163 3034 
Q 2859 3034 3264 2615 
Q 3669 2197 3669 1472 
Q 3669 763 3233 336 
Q 2797 -91 2069 -91 
Q 1278 -91 853 498 
Q 428 1088 428 2181 
Q 428 3406 931 4078 
Q 1434 4750 2350 4750 
Q 2597 4750 2869 4703 
Q 3141 4656 3425 4563 
L 3425 3794 
L 3072 3794 
Q 3034 4109 2831 4275 
Q 2628 4441 2284 4441 
Q 1678 4441 1381 3981 
Q 1084 3522 1075 2569 
z
" transform="scale(0.015625)"/>
     </defs>
     <use xlink:href="#DejaVuSerif-2d"/>
     <use xlink:href="#DejaVuSerif-36" x="33.789062"/>
     <use xlink:href="#DejaVuSerif-20" x="97.412109"/>
     <use xlink:href="#DejaVuSerif-64" x="129.199219"/>
     <use xlink:href="#DejaVuSerif-42" x="193.212891"/>
    </g>
   </g>
   <g id="legend_1">
    <g id="patch_8">
     <path d="M 203.489688 302.584 
L 268.830312 302.584 
Q 270.830312 302.584 270.830312 300.584 
L 270.830312 272.22775 
Q 270.830312 270.22775 268.830312 270.22775 
L 203.489688 270.22775 
Q 201.489688 270.22775 201.489688 272.22775 
L 201.489688 300.584 
Q 201.489688 302.584 203.489688 302.584 
z
" style="fill: #ffffff; opacity: 0.8; stroke: #cccccc; stroke-linejoin: miter"/>
    </g>
    <g id="line2d_16">
     <path d="M 205.489688 278.326187 
L 215.489688 278.326187 
L 225.489688 278.326187 
" style="fill: none; stroke: #ff0000; stroke-width: 2; stroke-linecap: square"/>
    </g>
    <g id="text_17">
     <!-- input -->
     <g transform="translate(233.489688 281.826187) scale(0.1 -0.1)">
      <defs>
       <path id="DejaVuSerif-70" d="M 1313 1825 
L 1313 1497 
Q 1313 897 1542 583 
Q 1772 269 2209 269 
Q 2650 269 2876 622 
Q 3103 975 3103 1663 
Q 3103 2353 2876 2703 
Q 2650 3053 2209 3053 
Q 1772 3053 1542 2737 
Q 1313 2422 1313 1825 
z
M 738 2988 
L 184 2988 
L 184 3322 
L 1313 3322 
L 1313 2803 
Q 1481 3116 1742 3264 
Q 2003 3413 2388 3413 
Q 3000 3413 3387 2928 
Q 3775 2444 3775 1663 
Q 3775 881 3387 395 
Q 3000 -91 2388 -91 
Q 2003 -91 1742 57 
Q 1481 206 1313 519 
L 1313 -997 
L 1856 -997 
L 1856 -1331 
L 184 -1331 
L 184 -997 
L 738 -997 
L 738 2988 
z
" transform="scale(0.015625)"/>
      </defs>
      <use xlink:href="#DejaVuSerif-69"/>
      <use xlink:href="#DejaVuSerif-6e" x="31.982422"/>
      <use xlink:href="#DejaVuSerif-70" x="96.386719"/>
      <use xlink:href="#DejaVuSerif-75" x="160.400391"/>
      <use xlink:href="#DejaVuSerif-74" x="224.804688"/>
     </g>
    </g>
    <g id="line2d_17">
     <path d="M 205.489688 293.004312 
L 215.489688 293.004312 
L 225.489688 293.004312 
" style="fill: none; stroke: #0000ff; stroke-width: 2; stroke-linecap: square"/>
    </g>
    <g id="text_18">
     <!-- output -->
     <g transform="translate(233.489688 296.504312) scale(0.1 -0.1)">
      <use xlink:href="#DejaVuSerif-6f"/>
      <use xlink:href="#DejaVuSerif-75" x="60.205078"/>
      <use xlink:href="#DejaVuSerif-74" x="124.609375"/>
      <use xlink:href="#DejaVuSerif-70" x="164.794922"/>
      <use xlink:href="#DejaVuSerif-75" x="228.808594"/>
      <use xlink:href="#DejaVuSerif-74" x="293.212891"/>
     </g>
    </g>
   </g>
  </g>
 </g>
 <defs>
  <clipPath id="p7013d29e1f">
   <rect x="57.6" y="41.472" width="357.12" height="266.112"/>
  </clipPath>
 </defs>
</svg>
