<?xml version="1.0" encoding="utf-8" standalone="no"?>
<!DOCTYPE svg PUBLIC "-//W3C//DTD SVG 1.1//EN"
  "http://www.w3.org/Graphics/SVG/1.1/DTD/svg11.dtd">
<svg xmlns:xlink="http://www.w3.org/1999/xlink" width="460.8pt" height="345.6pt" viewBox="0 0 460.8 345.6" xmlns="http://www.w3.org/2000/svg" version="1.1">
 <metadata>
  <rdf:RDF xmlns:dc="http://purl.org/dc/elements/1.1/" xmlns:cc="http://creativecommons.org/ns#" xmlns:rdf="http://www.w3.org/1999/02/22-rdf-syntax-ns#">
   <cc:Work>
    <dc:type rdf:resource="http://purl.org/dc/dcmitype/StillImage"/>
    <dc:date>2024-03-08T12:30:35.588424</dc:date>
    <dc:format>image/svg+xml</dc:format>
    <dc:creator>
     <cc:Agent>
      <dc:title>Matplotlib v3.8.2, https://matplotlib.org/</dc:title>
     </cc:Agent>
    </dc:creator>
   </cc:Work>
  </rdf:RDF>
 </metadata>
 <defs>
  <style type="text/css">*{stroke-linejoin: round; stroke-linecap: butt}</style>
 </defs>
 <g id="figure_1">
  <g id="patch_1">
   <path d="M 0 345.6 
L 460.8 345.6 
L 460.8 0 
L 0 0 
z
" style="fill: #ffffff"/>
  </g>
  <g id="axes_1">
   <g id="patch_2">
    <path d="M 32.542187 99.147917 
L 375.659375 99.147917 
L 375.659375 25.92 
L 32.542187 25.92 
z
" style="fill: #ffffff"/>
   </g>
   <g id="matplotlib.axis_1">
    <g id="xtick_1">
     <g id="line2d_1">
      <path d="M 48.138423 99.147917 
L 48.138423 25.92 
" clip-path="url(#p046ea42557)" style="fill: none; stroke: #b0b0b0; stroke-width: 0.8; stroke-linecap: square"/>
     </g>
     <g id="line2d_2">
      <defs>
       <path id="m8f442b6f33" d="M 0 0 
L 0 3.5 
" style="stroke: #000000; stroke-width: 0.8"/>
      </defs>
      <g>
       <use xlink:href="#m8f442b6f33" x="48.138423" y="99.147917" style="stroke: #000000; stroke-width: 0.8"/>
      </g>
     </g>
    </g>
    <g id="xtick_2">
     <g id="line2d_3">
      <path d="M 98.046378 99.147917 
L 98.046378 25.92 
" clip-path="url(#p046ea42557)" style="fill: none; stroke: #b0b0b0; stroke-width: 0.8; stroke-linecap: square"/>
     </g>
     <g id="line2d_4">
      <g>
       <use xlink:href="#m8f442b6f33" x="98.046378" y="99.147917" style="stroke: #000000; stroke-width: 0.8"/>
      </g>
     </g>
    </g>
    <g id="xtick_3">
     <g id="line2d_5">
      <path d="M 147.954332 99.147917 
L 147.954332 25.92 
" clip-path="url(#p046ea42557)" style="fill: none; stroke: #b0b0b0; stroke-width: 0.8; stroke-linecap: square"/>
     </g>
     <g id="line2d_6">
      <g>
       <use xlink:href="#m8f442b6f33" x="147.954332" y="99.147917" style="stroke: #000000; stroke-width: 0.8"/>
      </g>
     </g>
    </g>
    <g id="xtick_4">
     <g id="line2d_7">
      <path d="M 197.862287 99.147917 
L 197.862287 25.92 
" clip-path="url(#p046ea42557)" style="fill: none; stroke: #b0b0b0; stroke-width: 0.8; stroke-linecap: square"/>
     </g>
     <g id="line2d_8">
      <g>
       <use xlink:href="#m8f442b6f33" x="197.862287" y="99.147917" style="stroke: #000000; stroke-width: 0.8"/>
      </g>
     </g>
    </g>
    <g id="xtick_5">
     <g id="line2d_9">
      <path d="M 247.770241 99.147917 
L 247.770241 25.92 
" clip-path="url(#p046ea42557)" style="fill: none; stroke: #b0b0b0; stroke-width: 0.8; stroke-linecap: square"/>
     </g>
     <g id="line2d_10">
      <g>
       <use xlink:href="#m8f442b6f33" x="247.770241" y="99.147917" style="stroke: #000000; stroke-width: 0.8"/>
      </g>
     </g>
    </g>
    <g id="xtick_6">
     <g id="line2d_11">
      <path d="M 297.678196 99.147917 
L 297.678196 25.92 
" clip-path="url(#p046ea42557)" style="fill: none; stroke: #b0b0b0; stroke-width: 0.8; stroke-linecap: square"/>
     </g>
     <g id="line2d_12">
      <g>
       <use xlink:href="#m8f442b6f33" x="297.678196" y="99.147917" style="stroke: #000000; stroke-width: 0.8"/>
      </g>
     </g>
    </g>
    <g id="xtick_7">
     <g id="line2d_13">
      <path d="M 347.586151 99.147917 
L 347.586151 25.92 
" clip-path="url(#p046ea42557)" style="fill: none; stroke: #b0b0b0; stroke-width: 0.8; stroke-linecap: square"/>
     </g>
     <g id="line2d_14">
      <g>
       <use xlink:href="#m8f442b6f33" x="347.586151" y="99.147917" style="stroke: #000000; stroke-width: 0.8"/>
      </g>
     </g>
    </g>
   </g>
   <g id="matplotlib.axis_2">
    <g id="ytick_1">
     <g id="line2d_15">
      <path d="M 32.542187 95.819416 
L 375.659375 95.819416 
" clip-path="url(#p046ea42557)" style="fill: none; stroke: #b0b0b0; stroke-width: 0.8; stroke-linecap: square"/>
     </g>
     <g id="line2d_16">
      <defs>
       <path id="m1fa6f111c0" d="M 0 0 
L -3.5 0 
" style="stroke: #000000; stroke-width: 0.8"/>
      </defs>
      <g>
       <use xlink:href="#m1fa6f111c0" x="32.542187" y="95.819416" style="stroke: #000000; stroke-width: 0.8"/>
      </g>
     </g>
     <g id="text_1">
      <!-- −1 -->
      <g transform="translate(10.8 99.618635) scale(0.1 -0.1)">
       <defs>
        <path id="DejaVuSerif-2212" d="M 678 2259 
L 4684 2259 
L 4684 1753 
L 678 1753 
L 678 2259 
z
" transform="scale(0.015625)"/>
        <path id="DejaVuSerif-31" d="M 909 0 
L 909 331 
L 1722 331 
L 1722 4213 
L 781 3603 
L 781 4013 
L 1919 4750 
L 2350 4750 
L 2350 331 
L 3163 331 
L 3163 0 
L 909 0 
z
" transform="scale(0.015625)"/>
       </defs>
       <use xlink:href="#DejaVuSerif-2212"/>
       <use xlink:href="#DejaVuSerif-31" x="83.789062"/>
      </g>
     </g>
    </g>
    <g id="ytick_2">
     <g id="line2d_17">
      <path d="M 32.542187 62.533979 
L 375.659375 62.533979 
" clip-path="url(#p046ea42557)" style="fill: none; stroke: #b0b0b0; stroke-width: 0.8; stroke-linecap: square"/>
     </g>
     <g id="line2d_18">
      <g>
       <use xlink:href="#m1fa6f111c0" x="32.542187" y="62.533979" style="stroke: #000000; stroke-width: 0.8"/>
      </g>
     </g>
     <g id="text_2">
      <!-- 0 -->
      <g transform="translate(19.179687 66.333198) scale(0.1 -0.1)">
       <defs>
        <path id="DejaVuSerif-30" d="M 2034 219 
Q 2513 219 2750 744 
Q 2988 1269 2988 2328 
Q 2988 3391 2750 3916 
Q 2513 4441 2034 4441 
Q 1556 4441 1318 3916 
Q 1081 3391 1081 2328 
Q 1081 1269 1318 744 
Q 1556 219 2034 219 
z
M 2034 -91 
Q 1275 -91 848 546 
Q 422 1184 422 2328 
Q 422 3475 848 4112 
Q 1275 4750 2034 4750 
Q 2797 4750 3222 4112 
Q 3647 3475 3647 2328 
Q 3647 1184 3222 546 
Q 2797 -91 2034 -91 
z
" transform="scale(0.015625)"/>
       </defs>
       <use xlink:href="#DejaVuSerif-30"/>
      </g>
     </g>
    </g>
    <g id="ytick_3">
     <g id="line2d_19">
      <path d="M 32.542187 29.248542 
L 375.659375 29.248542 
" clip-path="url(#p046ea42557)" style="fill: none; stroke: #b0b0b0; stroke-width: 0.8; stroke-linecap: square"/>
     </g>
     <g id="line2d_20">
      <g>
       <use xlink:href="#m1fa6f111c0" x="32.542187" y="29.248542" style="stroke: #000000; stroke-width: 0.8"/>
      </g>
     </g>
     <g id="text_3">
      <!-- 1 -->
      <g transform="translate(19.179687 33.04776) scale(0.1 -0.1)">
       <use xlink:href="#DejaVuSerif-31"/>
      </g>
     </g>
    </g>
   </g>
   <g id="line2d_21">
    <path d="M 48.138423 29.248542 
L 50.324082 29.377494 
L 52.509741 29.763351 
L 54.695399 30.403124 
L 56.881058 31.291854 
L 59.066717 32.422657 
L 61.252375 33.786771 
L 63.750271 35.617805 
L 66.248167 37.721182 
L 69.058299 40.386416 
L 72.180669 43.678743 
L 75.615275 47.64229 
L 79.674356 52.687208 
L 85.294621 60.076379 
L 95.286203 73.276586 
L 99.345284 78.262115 
L 102.77989 82.157899 
L 105.90226 85.375832 
L 108.712392 87.964694 
L 111.210288 89.993511 
L 113.708183 91.744487 
L 115.893842 93.034675 
L 118.079501 94.088536 
L 120.265159 94.897903 
L 122.450818 95.456507 
L 124.636477 95.760018 
L 126.822135 95.806086 
L 129.007794 95.594352 
L 131.193453 95.126458 
L 133.379111 94.406029 
L 135.56477 93.438647 
L 137.750429 92.231807 
L 140.248324 90.571427 
L 142.74622 88.627359 
L 145.556353 86.125784 
L 148.366485 83.322164 
L 151.488855 79.896557 
L 155.235698 75.428745 
L 159.607015 69.853188 
L 167.412939 59.450524 
L 173.657678 51.297357 
L 177.716759 46.34655 
L 181.151365 42.489766 
L 184.273735 39.31428 
L 187.083867 36.768747 
L 189.581763 34.782058 
L 192.079659 33.076169 
L 194.265317 31.827501 
L 196.450976 30.816755 
L 198.636635 30.051762 
L 200.822293 29.53845 
L 203.007952 29.280795 
L 205.193611 29.280795 
L 207.379269 29.53845 
L 209.564928 30.051762 
L 211.750587 30.816755 
L 213.936245 31.827501 
L 216.121904 33.076169 
L 218.6198 34.782058 
L 221.117695 36.768747 
L 223.927828 39.31428 
L 226.73796 42.157094 
L 229.86033 45.620054 
L 233.607173 50.123288 
L 238.290728 56.136587 
L 254.214812 76.955777 
L 257.961656 81.302862 
L 261.084025 84.603293 
L 263.894158 87.276882 
L 266.70429 89.633689 
L 269.202186 91.438198 
L 271.700082 92.950248 
L 273.88574 94.021282 
L 276.071399 94.848344 
L 278.257058 95.425026 
L 280.442716 95.74686 
L 282.628375 95.811352 
L 284.814034 95.618002 
L 286.999692 95.168308 
L 289.185351 94.465755 
L 291.37101 93.515786 
L 293.556668 92.325763 
L 296.054564 90.683701 
L 298.552459 88.756816 
L 301.362592 86.272998 
L 304.172725 83.48525 
L 307.295094 80.074823 
L 311.041938 75.621489 
L 315.413255 70.057265 
L 322.906942 60.076379 
L 329.463918 51.494636 
L 333.522998 46.529793 
L 336.957605 42.657294 
L 340.079974 39.464735 
L 342.890107 36.901794 
L 345.388002 34.898195 
L 347.885898 33.174219 
L 350.071557 31.908906 
L 352.257215 30.880883 
L 354.442874 30.098117 
L 356.628533 29.566672 
L 358.814191 29.290667 
L 360.063139 29.248542 
L 360.063139 29.248542 
" clip-path="url(#p046ea42557)" style="fill: none; stroke: #ff0000; stroke-width: 3; stroke-linecap: square"/>
   </g>
   <g id="line2d_22">
    <path d="M 48.138423 62.533979 
L 55.944347 72.829699 
L 60.315664 78.21597 
L 63.750271 82.115601 
L 66.87264 85.337735 
L 69.682773 87.930895 
L 72.180669 89.963897 
L 74.678564 91.719358 
L 76.864223 93.013681 
L 79.049882 94.071839 
L 81.23554 94.885633 
L 83.421199 95.448759 
L 85.606858 95.756852 
L 87.792516 95.807526 
L 89.978175 95.600387 
L 92.163834 95.137041 
L 94.349492 94.421079 
L 96.535151 93.458046 
L 98.72081 92.255407 
L 101.218705 90.5996 
L 103.716601 88.65982 
L 106.526733 86.162675 
L 109.336866 83.363013 
L 112.459236 79.941188 
L 116.206079 75.476979 
L 120.577396 69.904235 
L 128.38332 59.50264 
L 134.628059 51.346635 
L 138.68714 46.392301 
L 142.121746 42.531574 
L 145.244116 39.351808 
L 148.054248 36.801913 
L 150.552144 34.81099 
L 153.050039 33.100573 
L 155.235698 31.847739 
L 157.421357 30.832669 
L 159.607015 30.06323 
L 161.792674 29.545383 
L 163.978333 29.28314 
L 166.163991 29.278533 
L 168.34965 29.531598 
L 170.535309 30.040374 
L 172.720967 30.800919 
L 174.906626 31.80734 
L 177.092285 33.051839 
L 179.59018 34.753196 
L 182.088076 36.735644 
L 184.898209 39.276809 
L 187.708341 42.115735 
L 190.830711 45.574999 
L 194.577554 50.07474 
L 199.261108 56.085233 
L 215.185193 76.90859 
L 218.932037 81.259616 
L 222.054406 84.564087 
L 224.864539 87.241844 
L 227.674671 89.603267 
L 230.172567 91.412207 
L 232.670462 92.928953 
L 234.856121 94.004274 
L 237.04178 94.835755 
L 239.227438 95.416953 
L 241.413097 95.743365 
L 243.598756 95.812463 
L 245.784414 95.62371 
L 247.970073 95.178569 
L 250.155732 94.480489 
L 252.34139 93.53488 
L 254.527049 92.349067 
L 257.024945 90.711596 
L 259.52284 88.789018 
L 262.020736 86.600787 
L 264.830869 83.849155 
L 267.953238 80.473372 
L 271.387845 76.434783 
L 275.759162 70.921179 
L 282.316138 62.219962 
L 289.809825 52.33785 
L 294.181142 46.944394 
L 297.615749 43.037098 
L 300.738118 39.806585 
L 303.548251 37.204849 
L 306.046146 35.163491 
L 308.544042 33.399073 
L 311.041938 31.929446 
L 313.227596 30.897111 
L 315.413255 30.109906 
L 317.598914 29.573932 
L 319.784572 29.29334 
L 321.970231 29.270306 
L 324.15589 29.505007 
L 326.341548 29.995625 
L 328.527207 30.738359 
L 330.712866 31.727454 
L 332.898524 32.955246 
L 335.39642 34.638433 
L 337.894316 36.603872 
L 340.704448 39.127504 
L 343.514581 41.950808 
L 346.63695 45.395198 
L 350.383794 49.88086 
L 355.067348 55.879981 
L 360.063139 62.533979 
L 360.063139 62.533979 
" clip-path="url(#p046ea42557)" style="fill: none; stroke: #0000ff; stroke-width: 3; stroke-linecap: square"/>
   </g>
   <g id="patch_3">
    <path d="M 32.542187 99.147917 
L 32.542187 25.92 
" style="fill: none; stroke: #000000; stroke-width: 0.8; stroke-linejoin: miter; stroke-linecap: square"/>
   </g>
   <g id="patch_4">
    <path d="M 375.659375 99.147917 
L 375.659375 25.92 
" style="fill: none; stroke: #000000; stroke-width: 0.8; stroke-linejoin: miter; stroke-linecap: square"/>
   </g>
   <g id="patch_5">
    <path d="M 32.542187 99.147917 
L 375.659375 99.147917 
" style="fill: none; stroke: #000000; stroke-width: 0.8; stroke-linejoin: miter; stroke-linecap: square"/>
   </g>
   <g id="patch_6">
    <path d="M 32.542187 25.92 
L 375.659375 25.92 
" style="fill: none; stroke: #000000; stroke-width: 0.8; stroke-linejoin: miter; stroke-linecap: square"/>
   </g>
   <g id="text_4">
    <!-- Constant phase change ($\Delta f=0$) -->
    <g transform="translate(108.880781 19.92) scale(0.12 -0.12)">
     <defs>
      <path id="DejaVuSerif-43" d="M 4513 1234 
Q 4306 581 3820 245 
Q 3334 -91 2591 -91 
Q 2134 -91 1743 65 
Q 1353 222 1050 525 
Q 700 875 529 1320 
Q 359 1766 359 2328 
Q 359 3416 987 4083 
Q 1616 4750 2644 4750 
Q 3025 4750 3456 4650 
Q 3888 4550 4384 4347 
L 4384 3272 
L 4031 3272 
Q 3916 3859 3567 4137 
Q 3219 4416 2591 4416 
Q 1844 4416 1459 3886 
Q 1075 3356 1075 2328 
Q 1075 1303 1459 773 
Q 1844 244 2591 244 
Q 3113 244 3450 492 
Q 3788 741 3938 1234 
L 4513 1234 
z
" transform="scale(0.015625)"/>
      <path id="DejaVuSerif-6f" d="M 1925 219 
Q 2388 219 2623 584 
Q 2859 950 2859 1663 
Q 2859 2375 2623 2739 
Q 2388 3103 1925 3103 
Q 1463 3103 1227 2739 
Q 991 2375 991 1663 
Q 991 950 1228 584 
Q 1466 219 1925 219 
z
M 1925 -91 
Q 1200 -91 759 389 
Q 319 869 319 1663 
Q 319 2456 758 2934 
Q 1197 3413 1925 3413 
Q 2653 3413 3092 2934 
Q 3531 2456 3531 1663 
Q 3531 869 3092 389 
Q 2653 -91 1925 -91 
z
" transform="scale(0.015625)"/>
      <path id="DejaVuSerif-6e" d="M 263 0 
L 263 331 
L 781 331 
L 781 2988 
L 231 2988 
L 231 3322 
L 1356 3322 
L 1356 2731 
Q 1516 3069 1770 3241 
Q 2025 3413 2363 3413 
Q 2913 3413 3172 3097 
Q 3431 2781 3431 2113 
L 3431 331 
L 3944 331 
L 3944 0 
L 2356 0 
L 2356 331 
L 2853 331 
L 2853 1931 
Q 2853 2541 2703 2767 
Q 2553 2994 2175 2994 
Q 1775 2994 1565 2701 
Q 1356 2409 1356 1850 
L 1356 331 
L 1856 331 
L 1856 0 
L 263 0 
z
" transform="scale(0.015625)"/>
      <path id="DejaVuSerif-73" d="M 359 184 
L 359 959 
L 691 959 
Q 703 588 923 403 
Q 1144 219 1575 219 
Q 1963 219 2166 364 
Q 2369 509 2369 788 
Q 2369 1006 2220 1140 
Q 2072 1275 1594 1428 
L 1178 1569 
Q 750 1706 558 1912 
Q 366 2119 366 2438 
Q 366 2894 700 3153 
Q 1034 3413 1625 3413 
Q 1888 3413 2178 3344 
Q 2469 3275 2778 3144 
L 2778 2419 
L 2447 2419 
Q 2434 2741 2221 2922 
Q 2009 3103 1644 3103 
Q 1281 3103 1095 2975 
Q 909 2847 909 2591 
Q 909 2381 1050 2254 
Q 1191 2128 1613 1997 
L 2069 1856 
Q 2541 1709 2748 1489 
Q 2956 1269 2956 922 
Q 2956 450 2595 179 
Q 2234 -91 1600 -91 
Q 1278 -91 972 -22 
Q 666 47 359 184 
z
" transform="scale(0.015625)"/>
      <path id="DejaVuSerif-74" d="M 691 2988 
L 184 2988 
L 184 3322 
L 691 3322 
L 691 4353 
L 1269 4353 
L 1269 3322 
L 2350 3322 
L 2350 2988 
L 1269 2988 
L 1269 878 
Q 1269 456 1350 337 
Q 1431 219 1650 219 
Q 1875 219 1978 351 
Q 2081 484 2088 781 
L 2522 781 
Q 2497 328 2275 118 
Q 2053 -91 1600 -91 
Q 1103 -91 897 129 
Q 691 350 691 878 
L 691 2988 
z
" transform="scale(0.015625)"/>
      <path id="DejaVuSerif-61" d="M 2547 1044 
L 2547 1747 
L 1806 1747 
Q 1378 1747 1168 1562 
Q 959 1378 959 997 
Q 959 650 1171 447 
Q 1384 244 1747 244 
Q 2106 244 2326 466 
Q 2547 688 2547 1044 
z
M 3122 2075 
L 3122 331 
L 3634 331 
L 3634 0 
L 2547 0 
L 2547 359 
Q 2356 128 2106 18 
Q 1856 -91 1522 -91 
Q 969 -91 644 203 
Q 319 497 319 997 
Q 319 1513 691 1797 
Q 1063 2081 1741 2081 
L 2547 2081 
L 2547 2309 
Q 2547 2688 2317 2895 
Q 2088 3103 1672 3103 
Q 1328 3103 1125 2947 
Q 922 2791 872 2484 
L 575 2484 
L 575 3156 
Q 875 3284 1158 3348 
Q 1441 3413 1709 3413 
Q 2400 3413 2761 3070 
Q 3122 2728 3122 2075 
z
" transform="scale(0.015625)"/>
      <path id="DejaVuSerif-20" transform="scale(0.015625)"/>
      <path id="DejaVuSerif-70" d="M 1313 1825 
L 1313 1497 
Q 1313 897 1542 583 
Q 1772 269 2209 269 
Q 2650 269 2876 622 
Q 3103 975 3103 1663 
Q 3103 2353 2876 2703 
Q 2650 3053 2209 3053 
Q 1772 3053 1542 2737 
Q 1313 2422 1313 1825 
z
M 738 2988 
L 184 2988 
L 184 3322 
L 1313 3322 
L 1313 2803 
Q 1481 3116 1742 3264 
Q 2003 3413 2388 3413 
Q 3000 3413 3387 2928 
Q 3775 2444 3775 1663 
Q 3775 881 3387 395 
Q 3000 -91 2388 -91 
Q 2003 -91 1742 57 
Q 1481 206 1313 519 
L 1313 -997 
L 1856 -997 
L 1856 -1331 
L 184 -1331 
L 184 -997 
L 738 -997 
L 738 2988 
z
" transform="scale(0.015625)"/>
      <path id="DejaVuSerif-68" d="M 263 0 
L 263 331 
L 781 331 
L 781 4531 
L 231 4531 
L 231 4863 
L 1356 4863 
L 1356 2731 
Q 1516 3069 1770 3241 
Q 2025 3413 2363 3413 
Q 2913 3413 3172 3097 
Q 3431 2781 3431 2113 
L 3431 331 
L 3944 331 
L 3944 0 
L 2356 0 
L 2356 331 
L 2853 331 
L 2853 1931 
Q 2853 2541 2704 2764 
Q 2556 2988 2175 2988 
Q 1775 2988 1565 2697 
Q 1356 2406 1356 1850 
L 1356 331 
L 1856 331 
L 1856 0 
L 263 0 
z
" transform="scale(0.015625)"/>
      <path id="DejaVuSerif-65" d="M 3469 1600 
L 991 1600 
L 991 1575 
Q 991 903 1244 561 
Q 1497 219 1991 219 
Q 2369 219 2611 417 
Q 2853 616 2950 1006 
L 3413 1006 
Q 3275 459 2904 184 
Q 2534 -91 1931 -91 
Q 1203 -91 761 389 
Q 319 869 319 1663 
Q 319 2450 753 2931 
Q 1188 3413 1894 3413 
Q 2647 3413 3050 2948 
Q 3453 2484 3469 1600 
z
M 2791 1931 
Q 2772 2513 2545 2808 
Q 2319 3103 1894 3103 
Q 1497 3103 1269 2806 
Q 1041 2509 991 1931 
L 2791 1931 
z
" transform="scale(0.015625)"/>
      <path id="DejaVuSerif-63" d="M 3291 997 
Q 3169 466 2822 187 
Q 2475 -91 1925 -91 
Q 1200 -91 759 389 
Q 319 869 319 1663 
Q 319 2459 759 2936 
Q 1200 3413 1925 3413 
Q 2241 3413 2553 3339 
Q 2866 3266 3181 3116 
L 3181 2266 
L 2847 2266 
Q 2781 2703 2561 2903 
Q 2341 3103 1931 3103 
Q 1466 3103 1228 2742 
Q 991 2381 991 1663 
Q 991 944 1227 581 
Q 1463 219 1931 219 
Q 2303 219 2525 412 
Q 2747 606 2828 997 
L 3291 997 
z
" transform="scale(0.015625)"/>
      <path id="DejaVuSerif-67" d="M 3359 2988 
L 3359 72 
Q 3359 -644 2965 -1033 
Q 2572 -1422 1844 -1422 
Q 1516 -1422 1216 -1362 
Q 916 -1303 641 -1184 
L 641 -488 
L 941 -488 
Q 997 -813 1206 -963 
Q 1416 -1113 1806 -1113 
Q 2313 -1113 2548 -827 
Q 2784 -541 2784 72 
L 2784 519 
Q 2616 206 2355 57 
Q 2094 -91 1709 -91 
Q 1097 -91 708 395 
Q 319 881 319 1663 
Q 319 2444 706 2928 
Q 1094 3413 1709 3413 
Q 2094 3413 2355 3264 
Q 2616 3116 2784 2803 
L 2784 3322 
L 3909 3322 
L 3909 2988 
L 3359 2988 
z
M 2784 1825 
Q 2784 2422 2554 2737 
Q 2325 3053 1888 3053 
Q 1444 3053 1217 2703 
Q 991 2353 991 1663 
Q 991 975 1217 622 
Q 1444 269 1888 269 
Q 2325 269 2554 583 
Q 2784 897 2784 1497 
L 2784 1825 
z
" transform="scale(0.015625)"/>
      <path id="DejaVuSerif-28" d="M 2041 -997 
Q 1281 -656 893 83 
Q 506 822 506 1931 
Q 506 3044 893 3783 
Q 1281 4522 2041 4863 
L 2041 4556 
Q 1559 4225 1350 3623 
Q 1141 3022 1141 1931 
Q 1141 844 1350 242 
Q 1559 -359 2041 -691 
L 2041 -997 
z
" transform="scale(0.015625)"/>
      <path id="DejaVuSans-394" d="M 2188 4044 
L 906 525 
L 3472 525 
L 2188 4044 
z
M 50 0 
L 1831 4666 
L 2547 4666 
L 4325 0 
L 50 0 
z
" transform="scale(0.015625)"/>
      <path id="DejaVuSans-Oblique-66" d="M 3059 4863 
L 2969 4384 
L 2419 4384 
Q 2106 4384 1964 4261 
Q 1822 4138 1753 3809 
L 1691 3500 
L 2638 3500 
L 2553 3053 
L 1606 3053 
L 1013 0 
L 434 0 
L 1031 3053 
L 481 3053 
L 563 3500 
L 1113 3500 
L 1159 3744 
Q 1278 4363 1576 4613 
Q 1875 4863 2516 4863 
L 3059 4863 
z
" transform="scale(0.015625)"/>
      <path id="DejaVuSans-3d" d="M 678 2906 
L 4684 2906 
L 4684 2381 
L 678 2381 
L 678 2906 
z
M 678 1631 
L 4684 1631 
L 4684 1100 
L 678 1100 
L 678 1631 
z
" transform="scale(0.015625)"/>
      <path id="DejaVuSans-30" d="M 2034 4250 
Q 1547 4250 1301 3770 
Q 1056 3291 1056 2328 
Q 1056 1369 1301 889 
Q 1547 409 2034 409 
Q 2525 409 2770 889 
Q 3016 1369 3016 2328 
Q 3016 3291 2770 3770 
Q 2525 4250 2034 4250 
z
M 2034 4750 
Q 2819 4750 3233 4129 
Q 3647 3509 3647 2328 
Q 3647 1150 3233 529 
Q 2819 -91 2034 -91 
Q 1250 -91 836 529 
Q 422 1150 422 2328 
Q 422 3509 836 4129 
Q 1250 4750 2034 4750 
z
" transform="scale(0.015625)"/>
      <path id="DejaVuSerif-29" d="M 453 -997 
L 453 -691 
Q 934 -359 1145 242 
Q 1356 844 1356 1931 
Q 1356 3022 1145 3623 
Q 934 4225 453 4556 
L 453 4863 
Q 1216 4522 1603 3783 
Q 1991 3044 1991 1931 
Q 1991 822 1603 83 
Q 1216 -656 453 -997 
z
" transform="scale(0.015625)"/>
     </defs>
     <use xlink:href="#DejaVuSerif-43" transform="translate(0 0.015625)"/>
     <use xlink:href="#DejaVuSerif-6f" transform="translate(76.513672 0.015625)"/>
     <use xlink:href="#DejaVuSerif-6e" transform="translate(136.71875 0.015625)"/>
     <use xlink:href="#DejaVuSerif-73" transform="translate(201.123047 0.015625)"/>
     <use xlink:href="#DejaVuSerif-74" transform="translate(252.441406 0.015625)"/>
     <use xlink:href="#DejaVuSerif-61" transform="translate(292.626953 0.015625)"/>
     <use xlink:href="#DejaVuSerif-6e" transform="translate(352.246094 0.015625)"/>
     <use xlink:href="#DejaVuSerif-74" transform="translate(416.650391 0.015625)"/>
     <use xlink:href="#DejaVuSerif-20" transform="translate(456.835938 0.015625)"/>
     <use xlink:href="#DejaVuSerif-70" transform="translate(488.623047 0.015625)"/>
     <use xlink:href="#DejaVuSerif-68" transform="translate(552.636719 0.015625)"/>
     <use xlink:href="#DejaVuSerif-61" transform="translate(617.041016 0.015625)"/>
     <use xlink:href="#DejaVuSerif-73" transform="translate(676.660156 0.015625)"/>
     <use xlink:href="#DejaVuSerif-65" transform="translate(727.978516 0.015625)"/>
     <use xlink:href="#DejaVuSerif-20" transform="translate(787.158203 0.015625)"/>
     <use xlink:href="#DejaVuSerif-63" transform="translate(818.945312 0.015625)"/>
     <use xlink:href="#DejaVuSerif-68" transform="translate(874.951172 0.015625)"/>
     <use xlink:href="#DejaVuSerif-61" transform="translate(939.355469 0.015625)"/>
     <use xlink:href="#DejaVuSerif-6e" transform="translate(998.974609 0.015625)"/>
     <use xlink:href="#DejaVuSerif-67" transform="translate(1063.378906 0.015625)"/>
     <use xlink:href="#DejaVuSerif-65" transform="translate(1127.392578 0.015625)"/>
     <use xlink:href="#DejaVuSerif-20" transform="translate(1186.572266 0.015625)"/>
     <use xlink:href="#DejaVuSerif-28" transform="translate(1218.359375 0.015625)"/>
     <use xlink:href="#DejaVuSans-394" transform="translate(1257.373047 0.015625)"/>
     <use xlink:href="#DejaVuSans-Oblique-66" transform="translate(1325.78125 0.015625)"/>
     <use xlink:href="#DejaVuSans-3d" transform="translate(1380.46875 0.015625)"/>
     <use xlink:href="#DejaVuSans-30" transform="translate(1483.740234 0.015625)"/>
     <use xlink:href="#DejaVuSerif-29" transform="translate(1547.363281 0.015625)"/>
    </g>
   </g>
  </g>
  <g id="axes_2">
   <g id="patch_7">
    <path d="M 32.542187 201.795833 
L 375.659375 201.795833 
L 375.659375 128.567917 
L 32.542187 128.567917 
z
" style="fill: #ffffff"/>
   </g>
   <g id="matplotlib.axis_3">
    <g id="xtick_8">
     <g id="line2d_23">
      <path d="M 48.138423 201.795833 
L 48.138423 128.567917 
" clip-path="url(#pb949308c74)" style="fill: none; stroke: #b0b0b0; stroke-width: 0.8; stroke-linecap: square"/>
     </g>
     <g id="line2d_24">
      <g>
       <use xlink:href="#m8f442b6f33" x="48.138423" y="201.795833" style="stroke: #000000; stroke-width: 0.8"/>
      </g>
     </g>
    </g>
    <g id="xtick_9">
     <g id="line2d_25">
      <path d="M 98.046378 201.795833 
L 98.046378 128.567917 
" clip-path="url(#pb949308c74)" style="fill: none; stroke: #b0b0b0; stroke-width: 0.8; stroke-linecap: square"/>
     </g>
     <g id="line2d_26">
      <g>
       <use xlink:href="#m8f442b6f33" x="98.046378" y="201.795833" style="stroke: #000000; stroke-width: 0.8"/>
      </g>
     </g>
    </g>
    <g id="xtick_10">
     <g id="line2d_27">
      <path d="M 147.954332 201.795833 
L 147.954332 128.567917 
" clip-path="url(#pb949308c74)" style="fill: none; stroke: #b0b0b0; stroke-width: 0.8; stroke-linecap: square"/>
     </g>
     <g id="line2d_28">
      <g>
       <use xlink:href="#m8f442b6f33" x="147.954332" y="201.795833" style="stroke: #000000; stroke-width: 0.8"/>
      </g>
     </g>
    </g>
    <g id="xtick_11">
     <g id="line2d_29">
      <path d="M 197.862287 201.795833 
L 197.862287 128.567917 
" clip-path="url(#pb949308c74)" style="fill: none; stroke: #b0b0b0; stroke-width: 0.8; stroke-linecap: square"/>
     </g>
     <g id="line2d_30">
      <g>
       <use xlink:href="#m8f442b6f33" x="197.862287" y="201.795833" style="stroke: #000000; stroke-width: 0.8"/>
      </g>
     </g>
    </g>
    <g id="xtick_12">
     <g id="line2d_31">
      <path d="M 247.770241 201.795833 
L 247.770241 128.567917 
" clip-path="url(#pb949308c74)" style="fill: none; stroke: #b0b0b0; stroke-width: 0.8; stroke-linecap: square"/>
     </g>
     <g id="line2d_32">
      <g>
       <use xlink:href="#m8f442b6f33" x="247.770241" y="201.795833" style="stroke: #000000; stroke-width: 0.8"/>
      </g>
     </g>
    </g>
    <g id="xtick_13">
     <g id="line2d_33">
      <path d="M 297.678196 201.795833 
L 297.678196 128.567917 
" clip-path="url(#pb949308c74)" style="fill: none; stroke: #b0b0b0; stroke-width: 0.8; stroke-linecap: square"/>
     </g>
     <g id="line2d_34">
      <g>
       <use xlink:href="#m8f442b6f33" x="297.678196" y="201.795833" style="stroke: #000000; stroke-width: 0.8"/>
      </g>
     </g>
    </g>
    <g id="xtick_14">
     <g id="line2d_35">
      <path d="M 347.586151 201.795833 
L 347.586151 128.567917 
" clip-path="url(#pb949308c74)" style="fill: none; stroke: #b0b0b0; stroke-width: 0.8; stroke-linecap: square"/>
     </g>
     <g id="line2d_36">
      <g>
       <use xlink:href="#m8f442b6f33" x="347.586151" y="201.795833" style="stroke: #000000; stroke-width: 0.8"/>
      </g>
     </g>
    </g>
   </g>
   <g id="matplotlib.axis_4">
    <g id="ytick_4">
     <g id="line2d_37">
      <path d="M 32.542187 198.467403 
L 375.659375 198.467403 
" clip-path="url(#pb949308c74)" style="fill: none; stroke: #b0b0b0; stroke-width: 0.8; stroke-linecap: square"/>
     </g>
     <g id="line2d_38">
      <g>
       <use xlink:href="#m1fa6f111c0" x="32.542187" y="198.467403" style="stroke: #000000; stroke-width: 0.8"/>
      </g>
     </g>
     <g id="text_5">
      <!-- −1 -->
      <g transform="translate(10.8 202.266622) scale(0.1 -0.1)">
       <use xlink:href="#DejaVuSerif-2212"/>
       <use xlink:href="#DejaVuSerif-31" x="83.789062"/>
      </g>
     </g>
    </g>
    <g id="ytick_5">
     <g id="line2d_39">
      <path d="M 32.542187 165.181931 
L 375.659375 165.181931 
" clip-path="url(#pb949308c74)" style="fill: none; stroke: #b0b0b0; stroke-width: 0.8; stroke-linecap: square"/>
     </g>
     <g id="line2d_40">
      <g>
       <use xlink:href="#m1fa6f111c0" x="32.542187" y="165.181931" style="stroke: #000000; stroke-width: 0.8"/>
      </g>
     </g>
     <g id="text_6">
      <!-- 0 -->
      <g transform="translate(19.179687 168.981149) scale(0.1 -0.1)">
       <use xlink:href="#DejaVuSerif-30"/>
      </g>
     </g>
    </g>
    <g id="ytick_6">
     <g id="line2d_41">
      <path d="M 32.542187 131.896458 
L 375.659375 131.896458 
" clip-path="url(#pb949308c74)" style="fill: none; stroke: #b0b0b0; stroke-width: 0.8; stroke-linecap: square"/>
     </g>
     <g id="line2d_42">
      <g>
       <use xlink:href="#m1fa6f111c0" x="32.542187" y="131.896458" style="stroke: #000000; stroke-width: 0.8"/>
      </g>
     </g>
     <g id="text_7">
      <!-- 1 -->
      <g transform="translate(19.179687 135.695677) scale(0.1 -0.1)">
       <use xlink:href="#DejaVuSerif-31"/>
      </g>
     </g>
    </g>
   </g>
   <g id="line2d_43">
    <path d="M 48.138423 131.896458 
L 50.324082 132.025411 
L 52.509741 132.411268 
L 54.695399 133.051041 
L 56.881058 133.939773 
L 59.066717 135.070577 
L 61.252375 136.434692 
L 63.750271 138.265728 
L 66.248167 140.369108 
L 69.058299 143.034345 
L 72.180669 146.326675 
L 75.615275 150.290227 
L 79.674356 155.335149 
L 85.294621 162.724329 
L 95.286203 175.92455 
L 99.345284 180.910084 
L 102.77989 184.805871 
L 105.90226 188.023808 
L 108.712392 190.612673 
L 111.210288 192.641491 
L 113.708183 194.39247 
L 115.893842 195.682659 
L 118.079501 196.736521 
L 120.265159 197.545889 
L 122.450818 198.104494 
L 124.636477 198.408005 
L 126.822135 198.454073 
L 129.007794 198.242339 
L 131.193453 197.774444 
L 133.379111 197.054014 
L 135.56477 196.086631 
L 137.750429 194.879791 
L 140.248324 193.219408 
L 142.74622 191.275338 
L 145.556353 188.77376 
L 148.366485 185.970138 
L 151.488855 182.544527 
L 155.235698 178.07671 
L 159.607015 172.501147 
L 167.412939 162.098473 
L 173.657678 153.945297 
L 177.716759 148.994485 
L 181.151365 145.137696 
L 184.273735 141.962207 
L 187.083867 139.416671 
L 189.581763 137.429981 
L 192.079659 135.72409 
L 194.265317 134.475421 
L 196.450976 133.464673 
L 198.636635 132.699679 
L 200.822293 132.186367 
L 203.007952 131.928712 
L 205.193611 131.928712 
L 207.379269 132.186367 
L 209.564928 132.699679 
L 211.750587 133.464673 
L 213.936245 134.475421 
L 216.121904 135.72409 
L 218.6198 137.429981 
L 221.117695 139.416671 
L 223.927828 141.962207 
L 226.73796 144.805024 
L 229.86033 148.267988 
L 233.607173 152.771227 
L 238.290728 158.784532 
L 254.214812 179.603744 
L 257.961656 183.950833 
L 261.084025 187.251268 
L 263.894158 189.92486 
L 266.70429 192.28167 
L 269.202186 194.08618 
L 271.700082 195.598232 
L 273.88574 196.669267 
L 276.071399 197.49633 
L 278.257058 198.073013 
L 280.442716 198.394847 
L 282.628375 198.459339 
L 284.814034 198.265988 
L 286.999692 197.816294 
L 289.185351 197.113741 
L 291.37101 196.163771 
L 293.556668 194.973746 
L 296.054564 193.331683 
L 298.552459 191.404795 
L 301.362592 188.920975 
L 304.172725 186.133224 
L 307.295094 182.722793 
L 311.041938 178.269454 
L 315.413255 172.705225 
L 322.906942 162.724329 
L 329.463918 154.142576 
L 333.522998 149.177728 
L 336.957605 145.305225 
L 340.079974 142.112662 
L 342.890107 139.549718 
L 345.388002 137.546117 
L 347.885898 135.82214 
L 350.071557 134.556825 
L 352.257215 133.528801 
L 354.442874 132.746034 
L 356.628533 132.214589 
L 358.814191 131.938584 
L 360.063139 131.896458 
L 360.063139 131.896458 
" clip-path="url(#pb949308c74)" style="fill: none; stroke: #ff0000; stroke-width: 3; stroke-linecap: square"/>
   </g>
   <g id="line2d_44">
    <path d="M 48.138423 131.896458 
L 49.387371 132.030677 
L 50.636319 132.432249 
L 51.885267 133.097937 
L 53.134215 134.022371 
L 54.383162 135.198098 
L 55.944347 137.006503 
L 57.505532 139.169814 
L 59.378954 142.1956 
L 61.252375 145.638134 
L 63.438034 150.097513 
L 66.248167 156.361176 
L 70.931721 167.465825 
L 75.303038 177.623569 
L 78.113171 183.568066 
L 80.298829 187.685398 
L 82.172251 190.77628 
L 83.733436 192.999677 
L 85.294621 194.872674 
L 86.855805 196.371678 
L 88.104753 197.288753 
L 89.353701 197.946897 
L 90.602649 198.340802 
L 91.851597 198.467292 
L 93.100545 198.325346 
L 94.349492 197.916109 
L 95.59844 197.242882 
L 96.847388 196.311093 
L 98.096336 195.128258 
L 99.657521 193.311399 
L 101.218705 191.140214 
L 103.092127 188.105881 
L 104.965549 184.655931 
L 107.151207 180.189508 
L 109.96134 173.919592 
L 114.957131 162.067121 
L 119.016212 152.660435 
L 121.826344 146.724048 
L 124.012003 142.615066 
L 125.885425 139.532594 
L 127.446609 137.316973 
L 129.007794 135.452347 
L 130.568979 133.962204 
L 131.817927 133.052495 
L 133.066874 132.4019 
L 134.315822 132.015664 
L 135.56477 131.896904 
L 136.813718 132.046577 
L 138.062666 132.463476 
L 139.311614 133.144238 
L 140.560561 134.083374 
L 141.809509 135.273309 
L 143.370694 137.09861 
L 144.931879 139.277656 
L 146.8053 142.320515 
L 148.678722 145.777858 
L 150.864381 150.251294 
L 153.674513 156.527421 
L 158.670305 168.382496 
L 162.729385 177.783201 
L 165.227281 183.085818 
L 167.412939 187.258194 
L 169.286361 190.404701 
L 171.159783 193.093913 
L 172.720967 194.950155 
L 174.282152 196.431428 
L 175.5311 197.333765 
L 176.780048 197.976807 
L 178.028996 198.35537 
L 179.277943 198.4664 
L 180.526891 198.309001 
L 181.775839 197.884444 
L 183.024787 197.196151 
L 184.273735 196.249674 
L 185.522683 195.052646 
L 187.083867 193.218916 
L 188.645052 191.032024 
L 190.518474 187.980659 
L 192.391896 184.515947 
L 194.577554 180.035526 
L 197.387687 173.753231 
L 202.383478 161.895632 
L 206.442558 152.500971 
L 208.940454 147.205483 
L 211.126113 143.041271 
L 212.999534 139.903034 
L 214.872956 137.22311 
L 216.434141 135.375265 
L 217.995326 133.902873 
L 219.244273 133.007914 
L 220.493221 132.372428 
L 221.742169 132.001541 
L 222.991117 131.898242 
L 224.240065 132.063365 
L 225.489013 132.495579 
L 226.73796 133.191398 
L 227.986908 134.145209 
L 229.235856 135.349322 
L 230.797041 137.191469 
L 232.358225 139.386192 
L 234.231647 142.446043 
L 236.417306 146.532532 
L 238.915201 151.759611 
L 242.037571 158.879992 
L 251.092443 179.98325 
L 253.590338 185.072736 
L 255.775997 189.005864 
L 257.649419 191.912741 
L 259.210603 193.966909 
L 260.771788 195.658493 
L 262.020736 196.73622 
L 263.269684 197.559472 
L 264.518632 198.12161 
L 265.767579 198.4181 
L 267.016527 198.446551 
L 268.265475 198.206734 
L 269.514423 197.700582 
L 270.763371 196.932179 
L 272.012318 195.90772 
L 273.573503 194.279846 
L 275.134688 192.285446 
L 276.695873 189.949643 
L 278.569295 186.737734 
L 280.754953 182.501058 
L 283.252849 177.14269 
L 286.687455 169.183674 
L 293.868905 152.341847 
L 296.366801 147.060724 
L 298.552459 142.912924 
L 300.425881 139.79129 
L 302.299303 137.129996 
L 303.860488 135.298981 
L 305.421672 133.84438 
L 306.67062 132.964195 
L 307.919568 132.343836 
L 309.168516 131.988306 
L 310.417464 131.900471 
L 311.666412 132.081041 
L 312.915359 132.528558 
L 314.164307 133.239414 
L 315.413255 134.207876 
L 316.662203 135.426134 
L 318.223388 137.285078 
L 319.784572 139.495419 
L 321.657994 142.572179 
L 323.843653 146.675487 
L 326.341548 151.917449 
L 329.463918 159.049247 
L 338.518789 180.137368 
L 341.016685 185.210611 
L 343.202344 189.125864 
L 345.075765 192.015045 
L 346.63695 194.053034 
L 348.198135 195.727355 
L 349.447083 196.790636 
L 350.696031 197.599004 
L 351.944978 198.145938 
L 353.193926 198.427028 
L 354.442874 198.440008 
L 355.691822 198.184772 
L 356.94077 197.663379 
L 358.189717 196.880033 
L 359.438665 195.841053 
L 360.063139 195.228239 
L 360.063139 195.228239 
" clip-path="url(#pb949308c74)" style="fill: none; stroke: #0000ff; stroke-width: 3; stroke-linecap: square"/>
   </g>
   <g id="patch_8">
    <path d="M 32.542187 201.795833 
L 32.542187 128.567917 
" style="fill: none; stroke: #000000; stroke-width: 0.8; stroke-linejoin: miter; stroke-linecap: square"/>
   </g>
   <g id="patch_9">
    <path d="M 375.659375 201.795833 
L 375.659375 128.567917 
" style="fill: none; stroke: #000000; stroke-width: 0.8; stroke-linejoin: miter; stroke-linecap: square"/>
   </g>
   <g id="patch_10">
    <path d="M 32.542187 201.795833 
L 375.659375 201.795833 
" style="fill: none; stroke: #000000; stroke-width: 0.8; stroke-linejoin: miter; stroke-linecap: square"/>
   </g>
   <g id="patch_11">
    <path d="M 32.542187 128.567917 
L 375.659375 128.567917 
" style="fill: none; stroke: #000000; stroke-width: 0.8; stroke-linejoin: miter; stroke-linecap: square"/>
   </g>
   <g id="text_8">
    <!-- Linear phase change  ($\Delta f \rightarrow cte.$) -->
    <g transform="translate(106.000781 122.567917) scale(0.12 -0.12)">
     <defs>
      <path id="DejaVuSerif-4c" d="M 353 0 
L 353 331 
L 947 331 
L 947 4331 
L 353 4331 
L 353 4666 
L 2175 4666 
L 2175 4331 
L 1581 4331 
L 1581 384 
L 3713 384 
L 3713 1166 
L 4097 1166 
L 4097 0 
L 353 0 
z
" transform="scale(0.015625)"/>
      <path id="DejaVuSerif-69" d="M 622 4353 
Q 622 4497 726 4603 
Q 831 4709 978 4709 
Q 1122 4709 1226 4603 
Q 1331 4497 1331 4353 
Q 1331 4206 1228 4103 
Q 1125 4000 978 4000 
Q 831 4000 726 4103 
Q 622 4206 622 4353 
z
M 1356 331 
L 1900 331 
L 1900 0 
L 231 0 
L 231 331 
L 781 331 
L 781 2988 
L 231 2988 
L 231 3322 
L 1356 3322 
L 1356 331 
z
" transform="scale(0.015625)"/>
      <path id="DejaVuSerif-72" d="M 3059 3328 
L 3059 2497 
L 2728 2497 
Q 2713 2744 2591 2866 
Q 2469 2988 2234 2988 
Q 1809 2988 1582 2694 
Q 1356 2400 1356 1850 
L 1356 331 
L 2022 331 
L 2022 0 
L 263 0 
L 263 331 
L 781 331 
L 781 2994 
L 231 2994 
L 231 3322 
L 1356 3322 
L 1356 2731 
Q 1525 3078 1790 3245 
Q 2056 3413 2438 3413 
Q 2578 3413 2733 3391 
Q 2888 3369 3059 3328 
z
" transform="scale(0.015625)"/>
      <path id="DejaVuSans-2192" d="M 5050 2147 
L 5050 1866 
L 3822 638 
L 3447 1013 
L 4175 1741 
L 366 1741 
L 366 2272 
L 4175 2272 
L 3447 3000 
L 3822 3375 
L 5050 2147 
z
" transform="scale(0.015625)"/>
      <path id="DejaVuSans-Oblique-63" d="M 3431 3366 
L 3316 2797 
Q 3109 2947 2876 3022 
Q 2644 3097 2394 3097 
Q 2119 3097 1870 3000 
Q 1622 2903 1453 2725 
Q 1184 2453 1037 2087 
Q 891 1722 891 1331 
Q 891 859 1127 628 
Q 1363 397 1844 397 
Q 2081 397 2348 469 
Q 2616 541 2906 684 
L 2797 116 
Q 2547 13 2283 -39 
Q 2019 -91 1741 -91 
Q 1044 -91 669 257 
Q 294 606 294 1253 
Q 294 1797 489 2255 
Q 684 2713 1069 3078 
Q 1331 3328 1684 3456 
Q 2038 3584 2456 3584 
Q 2700 3584 2940 3529 
Q 3181 3475 3431 3366 
z
" transform="scale(0.015625)"/>
      <path id="DejaVuSans-Oblique-74" d="M 2706 3500 
L 2619 3053 
L 1472 3053 
L 1100 1153 
Q 1081 1047 1072 975 
Q 1063 903 1063 863 
Q 1063 663 1183 572 
Q 1303 481 1569 481 
L 2150 481 
L 2053 0 
L 1503 0 
Q 991 0 739 200 
Q 488 400 488 806 
Q 488 878 497 964 
Q 506 1050 525 1153 
L 897 3053 
L 409 3053 
L 500 3500 
L 978 3500 
L 1172 4494 
L 1747 4494 
L 1556 3500 
L 2706 3500 
z
" transform="scale(0.015625)"/>
      <path id="DejaVuSans-Oblique-65" d="M 3078 2063 
Q 3088 2113 3092 2166 
Q 3097 2219 3097 2272 
Q 3097 2653 2873 2875 
Q 2650 3097 2266 3097 
Q 1838 3097 1509 2826 
Q 1181 2556 1013 2059 
L 3078 2063 
z
M 3578 1613 
L 903 1613 
Q 884 1494 878 1425 
Q 872 1356 872 1306 
Q 872 872 1139 634 
Q 1406 397 1894 397 
Q 2269 397 2603 481 
Q 2938 566 3225 728 
L 3116 159 
Q 2806 34 2476 -28 
Q 2147 -91 1806 -91 
Q 1078 -91 686 257 
Q 294 606 294 1247 
Q 294 1794 489 2264 
Q 684 2734 1063 3103 
Q 1306 3334 1642 3459 
Q 1978 3584 2356 3584 
Q 2950 3584 3301 3228 
Q 3653 2872 3653 2272 
Q 3653 2128 3634 1964 
Q 3616 1800 3578 1613 
z
" transform="scale(0.015625)"/>
      <path id="DejaVuSans-2e" d="M 684 794 
L 1344 794 
L 1344 0 
L 684 0 
L 684 794 
z
" transform="scale(0.015625)"/>
     </defs>
     <use xlink:href="#DejaVuSerif-4c" transform="translate(0 0.015625)"/>
     <use xlink:href="#DejaVuSerif-69" transform="translate(66.40625 0.015625)"/>
     <use xlink:href="#DejaVuSerif-6e" transform="translate(98.388672 0.015625)"/>
     <use xlink:href="#DejaVuSerif-65" transform="translate(162.792969 0.015625)"/>
     <use xlink:href="#DejaVuSerif-61" transform="translate(221.972656 0.015625)"/>
     <use xlink:href="#DejaVuSerif-72" transform="translate(281.591797 0.015625)"/>
     <use xlink:href="#DejaVuSerif-20" transform="translate(329.394531 0.015625)"/>
     <use xlink:href="#DejaVuSerif-70" transform="translate(361.181641 0.015625)"/>
     <use xlink:href="#DejaVuSerif-68" transform="translate(425.195312 0.015625)"/>
     <use xlink:href="#DejaVuSerif-61" transform="translate(489.599609 0.015625)"/>
     <use xlink:href="#DejaVuSerif-73" transform="translate(549.21875 0.015625)"/>
     <use xlink:href="#DejaVuSerif-65" transform="translate(600.537109 0.015625)"/>
     <use xlink:href="#DejaVuSerif-20" transform="translate(659.716797 0.015625)"/>
     <use xlink:href="#DejaVuSerif-63" transform="translate(691.503906 0.015625)"/>
     <use xlink:href="#DejaVuSerif-68" transform="translate(747.509766 0.015625)"/>
     <use xlink:href="#DejaVuSerif-61" transform="translate(811.914062 0.015625)"/>
     <use xlink:href="#DejaVuSerif-6e" transform="translate(871.533203 0.015625)"/>
     <use xlink:href="#DejaVuSerif-67" transform="translate(935.9375 0.015625)"/>
     <use xlink:href="#DejaVuSerif-65" transform="translate(999.951172 0.015625)"/>
     <use xlink:href="#DejaVuSerif-20" transform="translate(1059.130859 0.015625)"/>
     <use xlink:href="#DejaVuSerif-20" transform="translate(1090.917969 0.015625)"/>
     <use xlink:href="#DejaVuSerif-28" transform="translate(1122.705078 0.015625)"/>
     <use xlink:href="#DejaVuSans-394" transform="translate(1161.71875 0.015625)"/>
     <use xlink:href="#DejaVuSans-Oblique-66" transform="translate(1230.126953 0.015625)"/>
     <use xlink:href="#DejaVuSans-2192" transform="translate(1284.814453 0.015625)"/>
     <use xlink:href="#DejaVuSans-Oblique-63" transform="translate(1388.085938 0.015625)"/>
     <use xlink:href="#DejaVuSans-Oblique-74" transform="translate(1443.066406 0.015625)"/>
     <use xlink:href="#DejaVuSans-Oblique-65" transform="translate(1482.275391 0.015625)"/>
     <use xlink:href="#DejaVuSans-2e" transform="translate(1543.798828 0.015625)"/>
     <use xlink:href="#DejaVuSerif-29" transform="translate(1595.068359 0.015625)"/>
    </g>
   </g>
  </g>
  <g id="axes_3">
   <g id="patch_12">
    <path d="M 32.542187 304.44375 
L 375.659375 304.44375 
L 375.659375 231.215833 
L 32.542187 231.215833 
z
" style="fill: #ffffff"/>
   </g>
   <g id="matplotlib.axis_5">
    <g id="xtick_15">
     <g id="line2d_45">
      <path d="M 48.138423 304.44375 
L 48.138423 231.215833 
" clip-path="url(#p9ab3433ffd)" style="fill: none; stroke: #b0b0b0; stroke-width: 0.8; stroke-linecap: square"/>
     </g>
     <g id="line2d_46">
      <g>
       <use xlink:href="#m8f442b6f33" x="48.138423" y="304.44375" style="stroke: #000000; stroke-width: 0.8"/>
      </g>
     </g>
     <g id="text_9">
      <!-- 0 -->
      <g transform="translate(44.957173 319.042187) scale(0.1 -0.1)">
       <use xlink:href="#DejaVuSerif-30"/>
      </g>
     </g>
    </g>
    <g id="xtick_16">
     <g id="line2d_47">
      <path d="M 98.046378 304.44375 
L 98.046378 231.215833 
" clip-path="url(#p9ab3433ffd)" style="fill: none; stroke: #b0b0b0; stroke-width: 0.8; stroke-linecap: square"/>
     </g>
     <g id="line2d_48">
      <g>
       <use xlink:href="#m8f442b6f33" x="98.046378" y="304.44375" style="stroke: #000000; stroke-width: 0.8"/>
      </g>
     </g>
     <g id="text_10">
      <!-- 10 -->
      <g transform="translate(91.683878 319.042187) scale(0.1 -0.1)">
       <use xlink:href="#DejaVuSerif-31"/>
       <use xlink:href="#DejaVuSerif-30" x="63.623047"/>
      </g>
     </g>
    </g>
    <g id="xtick_17">
     <g id="line2d_49">
      <path d="M 147.954332 304.44375 
L 147.954332 231.215833 
" clip-path="url(#p9ab3433ffd)" style="fill: none; stroke: #b0b0b0; stroke-width: 0.8; stroke-linecap: square"/>
     </g>
     <g id="line2d_50">
      <g>
       <use xlink:href="#m8f442b6f33" x="147.954332" y="304.44375" style="stroke: #000000; stroke-width: 0.8"/>
      </g>
     </g>
     <g id="text_11">
      <!-- 20 -->
      <g transform="translate(141.591832 319.042187) scale(0.1 -0.1)">
       <defs>
        <path id="DejaVuSerif-32" d="M 819 3553 
L 469 3553 
L 469 4384 
Q 803 4563 1142 4656 
Q 1481 4750 1806 4750 
Q 2534 4750 2956 4397 
Q 3378 4044 3378 3438 
Q 3378 2753 2422 1800 
Q 2347 1728 2309 1691 
L 1131 513 
L 3078 513 
L 3078 1088 
L 3444 1088 
L 3444 0 
L 434 0 
L 434 341 
L 1850 1753 
Q 2319 2222 2519 2614 
Q 2719 3006 2719 3438 
Q 2719 3909 2473 4175 
Q 2228 4441 1797 4441 
Q 1350 4441 1106 4219 
Q 863 3997 819 3553 
z
" transform="scale(0.015625)"/>
       </defs>
       <use xlink:href="#DejaVuSerif-32"/>
       <use xlink:href="#DejaVuSerif-30" x="63.623047"/>
      </g>
     </g>
    </g>
    <g id="xtick_18">
     <g id="line2d_51">
      <path d="M 197.862287 304.44375 
L 197.862287 231.215833 
" clip-path="url(#p9ab3433ffd)" style="fill: none; stroke: #b0b0b0; stroke-width: 0.8; stroke-linecap: square"/>
     </g>
     <g id="line2d_52">
      <g>
       <use xlink:href="#m8f442b6f33" x="197.862287" y="304.44375" style="stroke: #000000; stroke-width: 0.8"/>
      </g>
     </g>
     <g id="text_12">
      <!-- 30 -->
      <g transform="translate(191.499787 319.042187) scale(0.1 -0.1)">
       <defs>
        <path id="DejaVuSerif-33" d="M 622 4469 
Q 988 4606 1323 4678 
Q 1659 4750 1953 4750 
Q 2638 4750 3022 4454 
Q 3406 4159 3406 3634 
Q 3406 3213 3140 2930 
Q 2875 2647 2388 2547 
Q 2963 2466 3280 2130 
Q 3597 1794 3597 1259 
Q 3597 606 3158 257 
Q 2719 -91 1894 -91 
Q 1528 -91 1179 -12 
Q 831 66 488 225 
L 488 1131 
L 838 1131 
Q 869 681 1141 450 
Q 1413 219 1906 219 
Q 2384 219 2661 495 
Q 2938 772 2938 1253 
Q 2938 1803 2653 2086 
Q 2369 2369 1819 2369 
L 1522 2369 
L 1522 2688 
L 1678 2688 
Q 2225 2688 2498 2914 
Q 2772 3141 2772 3597 
Q 2772 4006 2547 4223 
Q 2322 4441 1900 4441 
Q 1478 4441 1245 4241 
Q 1013 4041 972 3647 
L 622 3647 
L 622 4469 
z
" transform="scale(0.015625)"/>
       </defs>
       <use xlink:href="#DejaVuSerif-33"/>
       <use xlink:href="#DejaVuSerif-30" x="63.623047"/>
      </g>
     </g>
    </g>
    <g id="xtick_19">
     <g id="line2d_53">
      <path d="M 247.770241 304.44375 
L 247.770241 231.215833 
" clip-path="url(#p9ab3433ffd)" style="fill: none; stroke: #b0b0b0; stroke-width: 0.8; stroke-linecap: square"/>
     </g>
     <g id="line2d_54">
      <g>
       <use xlink:href="#m8f442b6f33" x="247.770241" y="304.44375" style="stroke: #000000; stroke-width: 0.8"/>
      </g>
     </g>
     <g id="text_13">
      <!-- 40 -->
      <g transform="translate(241.407741 319.042187) scale(0.1 -0.1)">
       <defs>
        <path id="DejaVuSerif-34" d="M 2234 1581 
L 2234 4063 
L 641 1581 
L 2234 1581 
z
M 3609 0 
L 1484 0 
L 1484 331 
L 2234 331 
L 2234 1247 
L 197 1247 
L 197 1588 
L 2241 4750 
L 2859 4750 
L 2859 1581 
L 3750 1581 
L 3750 1247 
L 2859 1247 
L 2859 331 
L 3609 331 
L 3609 0 
z
" transform="scale(0.015625)"/>
       </defs>
       <use xlink:href="#DejaVuSerif-34"/>
       <use xlink:href="#DejaVuSerif-30" x="63.623047"/>
      </g>
     </g>
    </g>
    <g id="xtick_20">
     <g id="line2d_55">
      <path d="M 297.678196 304.44375 
L 297.678196 231.215833 
" clip-path="url(#p9ab3433ffd)" style="fill: none; stroke: #b0b0b0; stroke-width: 0.8; stroke-linecap: square"/>
     </g>
     <g id="line2d_56">
      <g>
       <use xlink:href="#m8f442b6f33" x="297.678196" y="304.44375" style="stroke: #000000; stroke-width: 0.8"/>
      </g>
     </g>
     <g id="text_14">
      <!-- 50 -->
      <g transform="translate(291.315696 319.042187) scale(0.1 -0.1)">
       <defs>
        <path id="DejaVuSerif-35" d="M 3219 4666 
L 3219 4153 
L 1081 4153 
L 1081 2816 
Q 1244 2928 1461 2984 
Q 1678 3041 1947 3041 
Q 2703 3041 3140 2622 
Q 3578 2203 3578 1478 
Q 3578 738 3136 323 
Q 2694 -91 1894 -91 
Q 1572 -91 1234 -12 
Q 897 66 544 225 
L 544 1131 
L 897 1131 
Q 925 688 1179 453 
Q 1434 219 1894 219 
Q 2388 219 2653 544 
Q 2919 869 2919 1478 
Q 2919 2084 2655 2407 
Q 2391 2731 1894 2731 
Q 1613 2731 1398 2631 
Q 1184 2531 1019 2322 
L 750 2322 
L 750 4666 
L 3219 4666 
z
" transform="scale(0.015625)"/>
       </defs>
       <use xlink:href="#DejaVuSerif-35"/>
       <use xlink:href="#DejaVuSerif-30" x="63.623047"/>
      </g>
     </g>
    </g>
    <g id="xtick_21">
     <g id="line2d_57">
      <path d="M 347.586151 304.44375 
L 347.586151 231.215833 
" clip-path="url(#p9ab3433ffd)" style="fill: none; stroke: #b0b0b0; stroke-width: 0.8; stroke-linecap: square"/>
     </g>
     <g id="line2d_58">
      <g>
       <use xlink:href="#m8f442b6f33" x="347.586151" y="304.44375" style="stroke: #000000; stroke-width: 0.8"/>
      </g>
     </g>
     <g id="text_15">
      <!-- 60 -->
      <g transform="translate(341.223651 319.042187) scale(0.1 -0.1)">
       <defs>
        <path id="DejaVuSerif-36" d="M 2094 219 
Q 2534 219 2771 542 
Q 3009 866 3009 1472 
Q 3009 2078 2771 2401 
Q 2534 2725 2094 2725 
Q 1647 2725 1412 2412 
Q 1178 2100 1178 1509 
Q 1178 888 1415 553 
Q 1653 219 2094 219 
z
M 1075 2569 
Q 1288 2803 1556 2918 
Q 1825 3034 2163 3034 
Q 2859 3034 3264 2615 
Q 3669 2197 3669 1472 
Q 3669 763 3233 336 
Q 2797 -91 2069 -91 
Q 1278 -91 853 498 
Q 428 1088 428 2181 
Q 428 3406 931 4078 
Q 1434 4750 2350 4750 
Q 2597 4750 2869 4703 
Q 3141 4656 3425 4563 
L 3425 3794 
L 3072 3794 
Q 3034 4109 2831 4275 
Q 2628 4441 2284 4441 
Q 1678 4441 1381 3981 
Q 1084 3522 1075 2569 
z
" transform="scale(0.015625)"/>
       </defs>
       <use xlink:href="#DejaVuSerif-36"/>
       <use xlink:href="#DejaVuSerif-30" x="63.623047"/>
      </g>
     </g>
    </g>
    <g id="text_16">
     <!-- Tiempo [ns] -->
     <g transform="translate(173.978125 332.720312) scale(0.1 -0.1)">
      <defs>
       <path id="DejaVuSerif-54" d="M 1222 0 
L 1222 331 
L 1819 331 
L 1819 4294 
L 447 4294 
L 447 3566 
L 63 3566 
L 63 4666 
L 4206 4666 
L 4206 3566 
L 3822 3566 
L 3822 4294 
L 2450 4294 
L 2450 331 
L 3047 331 
L 3047 0 
L 1222 0 
z
" transform="scale(0.015625)"/>
       <path id="DejaVuSerif-6d" d="M 3316 2675 
Q 3481 3041 3739 3227 
Q 3997 3413 4341 3413 
Q 4863 3413 5119 3089 
Q 5375 2766 5375 2113 
L 5375 331 
L 5894 331 
L 5894 0 
L 4300 0 
L 4300 331 
L 4800 331 
L 4800 2047 
Q 4800 2556 4650 2772 
Q 4500 2988 4153 2988 
Q 3769 2988 3567 2697 
Q 3366 2406 3366 1850 
L 3366 331 
L 3866 331 
L 3866 0 
L 2291 0 
L 2291 331 
L 2791 331 
L 2791 2069 
Q 2791 2566 2641 2777 
Q 2491 2988 2144 2988 
Q 1759 2988 1557 2697 
Q 1356 2406 1356 1850 
L 1356 331 
L 1856 331 
L 1856 0 
L 263 0 
L 263 331 
L 781 331 
L 781 2994 
L 231 2994 
L 231 3322 
L 1356 3322 
L 1356 2731 
Q 1516 3063 1762 3238 
Q 2009 3413 2322 3413 
Q 2709 3413 2968 3220 
Q 3228 3028 3316 2675 
z
" transform="scale(0.015625)"/>
       <path id="DejaVuSerif-5b" d="M 550 4863 
L 2003 4863 
L 2003 4531 
L 1147 4531 
L 1147 -513 
L 2003 -513 
L 2003 -844 
L 550 -844 
L 550 4863 
z
" transform="scale(0.015625)"/>
       <path id="DejaVuSerif-5d" d="M 1947 4863 
L 1947 -844 
L 494 -844 
L 494 -513 
L 1350 -513 
L 1350 4531 
L 494 4531 
L 494 4863 
L 1947 4863 
z
" transform="scale(0.015625)"/>
      </defs>
      <use xlink:href="#DejaVuSerif-54"/>
      <use xlink:href="#DejaVuSerif-69" x="66.699219"/>
      <use xlink:href="#DejaVuSerif-65" x="98.681641"/>
      <use xlink:href="#DejaVuSerif-6d" x="157.861328"/>
      <use xlink:href="#DejaVuSerif-70" x="252.685547"/>
      <use xlink:href="#DejaVuSerif-6f" x="316.699219"/>
      <use xlink:href="#DejaVuSerif-20" x="376.904297"/>
      <use xlink:href="#DejaVuSerif-5b" x="408.691406"/>
      <use xlink:href="#DejaVuSerif-6e" x="447.705078"/>
      <use xlink:href="#DejaVuSerif-73" x="512.109375"/>
      <use xlink:href="#DejaVuSerif-5d" x="563.427734"/>
     </g>
    </g>
   </g>
   <g id="matplotlib.axis_6">
    <g id="ytick_7">
     <g id="line2d_59">
      <path d="M 32.542187 301.115364 
L 375.659375 301.115364 
" clip-path="url(#p9ab3433ffd)" style="fill: none; stroke: #b0b0b0; stroke-width: 0.8; stroke-linecap: square"/>
     </g>
     <g id="line2d_60">
      <g>
       <use xlink:href="#m1fa6f111c0" x="32.542187" y="301.115364" style="stroke: #000000; stroke-width: 0.8"/>
      </g>
     </g>
     <g id="text_17">
      <!-- −1 -->
      <g transform="translate(10.8 304.914583) scale(0.1 -0.1)">
       <use xlink:href="#DejaVuSerif-2212"/>
       <use xlink:href="#DejaVuSerif-31" x="83.789062"/>
      </g>
     </g>
    </g>
    <g id="ytick_8">
     <g id="line2d_61">
      <path d="M 32.542187 267.82987 
L 375.659375 267.82987 
" clip-path="url(#p9ab3433ffd)" style="fill: none; stroke: #b0b0b0; stroke-width: 0.8; stroke-linecap: square"/>
     </g>
     <g id="line2d_62">
      <g>
       <use xlink:href="#m1fa6f111c0" x="32.542187" y="267.82987" style="stroke: #000000; stroke-width: 0.8"/>
      </g>
     </g>
     <g id="text_18">
      <!-- 0 -->
      <g transform="translate(19.179687 271.629088) scale(0.1 -0.1)">
       <use xlink:href="#DejaVuSerif-30"/>
      </g>
     </g>
    </g>
    <g id="ytick_9">
     <g id="line2d_63">
      <path d="M 32.542187 234.544375 
L 375.659375 234.544375 
" clip-path="url(#p9ab3433ffd)" style="fill: none; stroke: #b0b0b0; stroke-width: 0.8; stroke-linecap: square"/>
     </g>
     <g id="line2d_64">
      <g>
       <use xlink:href="#m1fa6f111c0" x="32.542187" y="234.544375" style="stroke: #000000; stroke-width: 0.8"/>
      </g>
     </g>
     <g id="text_19">
      <!-- 1 -->
      <g transform="translate(19.179687 238.343594) scale(0.1 -0.1)">
       <use xlink:href="#DejaVuSerif-31"/>
      </g>
     </g>
    </g>
   </g>
   <g id="line2d_65">
    <path d="M 48.138423 234.544375 
L 50.324082 234.673327 
L 52.509741 235.059185 
L 54.695399 235.698959 
L 56.881058 236.587691 
L 59.066717 237.718496 
L 61.252375 239.082612 
L 63.750271 240.913649 
L 66.248167 243.01703 
L 69.058299 245.682269 
L 72.180669 248.974601 
L 75.615275 252.938156 
L 79.674356 257.983081 
L 85.294621 265.372266 
L 95.286203 278.572496 
L 99.345284 283.558033 
L 102.77989 287.453823 
L 105.90226 290.671762 
L 108.712392 293.260629 
L 111.210288 295.289449 
L 113.708183 297.040428 
L 115.893842 298.330618 
L 118.079501 299.384481 
L 120.265159 300.19385 
L 122.450818 300.752454 
L 124.636477 301.055966 
L 126.822135 301.102034 
L 129.007794 300.8903 
L 131.193453 300.422405 
L 133.379111 299.701975 
L 135.56477 298.734591 
L 137.750429 297.527749 
L 140.248324 295.867366 
L 142.74622 293.923294 
L 145.556353 291.421715 
L 148.366485 288.618091 
L 151.488855 285.192478 
L 155.235698 280.724658 
L 159.607015 275.149091 
L 167.412939 264.74641 
L 173.657678 256.593228 
L 177.716759 251.642413 
L 181.151365 247.785622 
L 184.273735 244.610131 
L 187.083867 242.064593 
L 189.581763 240.077901 
L 192.079659 238.372009 
L 194.265317 237.123339 
L 196.450976 236.112591 
L 198.636635 235.347597 
L 200.822293 234.834283 
L 203.007952 234.576629 
L 205.193611 234.576629 
L 207.379269 234.834283 
L 209.564928 235.347597 
L 211.750587 236.112591 
L 213.936245 237.123339 
L 216.121904 238.372009 
L 218.6198 240.077901 
L 221.117695 242.064593 
L 223.927828 244.610131 
L 226.73796 247.452949 
L 229.86033 250.915916 
L 233.607173 255.419157 
L 238.290728 261.432466 
L 254.214812 282.251692 
L 257.961656 286.598785 
L 261.084025 289.899222 
L 263.894158 292.572816 
L 266.70429 294.929627 
L 269.202186 296.734138 
L 271.700082 298.246191 
L 273.88574 299.317227 
L 276.071399 300.144291 
L 278.257058 300.720974 
L 280.442716 301.042808 
L 282.628375 301.1073 
L 284.814034 300.91395 
L 286.999692 300.464255 
L 289.185351 299.761701 
L 291.37101 298.811731 
L 293.556668 297.621705 
L 296.054564 295.97964 
L 298.552459 294.052752 
L 301.362592 291.568929 
L 304.172725 288.781177 
L 307.295094 285.370744 
L 311.041938 280.917402 
L 315.413255 275.353169 
L 322.906942 265.372266 
L 329.463918 256.790508 
L 333.522998 251.825657 
L 336.957605 247.953151 
L 340.079974 244.760586 
L 342.890107 242.19764 
L 345.388002 240.194038 
L 347.885898 238.470059 
L 350.071557 237.204744 
L 352.257215 236.176719 
L 354.442874 235.393952 
L 356.628533 234.862506 
L 358.814191 234.5865 
L 360.063139 234.544375 
L 360.063139 234.544375 
" clip-path="url(#p9ab3433ffd)" style="fill: none; stroke: #ff0000; stroke-width: 3; stroke-linecap: square"/>
   </g>
   <g id="line2d_66">
    <path d="M 48.138423 234.544375 
L 50.011845 234.640027 
L 51.885267 234.930024 
L 53.758688 235.418061 
L 55.63211 236.106607 
L 57.817769 237.164789 
L 60.003428 238.496782 
L 62.189086 240.099194 
L 64.374745 241.965698 
L 66.87264 244.41004 
L 69.370536 247.16789 
L 72.180669 250.614414 
L 75.303038 254.819616 
L 78.737645 259.818221 
L 83.421199 267.061122 
L 93.100545 282.177052 
L 96.535151 287.075875 
L 99.345284 290.715949 
L 101.843179 293.597394 
L 104.028838 295.797229 
L 106.214497 297.65874 
L 108.087918 298.959648 
L 109.96134 299.968592 
L 111.522525 300.574403 
L 113.083709 300.957871 
L 114.644894 301.112284 
L 116.206079 301.032443 
L 117.767264 300.71477 
L 119.328449 300.157398 
L 120.889633 299.360257 
L 122.450818 298.325146 
L 124.012003 297.055791 
L 125.885425 295.231529 
L 127.758846 293.091924 
L 129.944505 290.221175 
L 132.130164 286.981077 
L 134.628059 282.881209 
L 137.750429 277.273035 
L 141.809509 269.44892 
L 149.92767 253.671793 
L 152.737803 248.723679 
L 155.235698 244.762456 
L 157.421357 241.721483 
L 159.294779 239.483478 
L 160.855963 237.907317 
L 162.417148 236.614626 
L 163.978333 235.622497 
L 165.227281 235.055 
L 166.476228 234.695234 
L 167.725176 234.548013 
L 168.974124 234.616822 
L 170.223072 234.903757 
L 171.47202 235.409475 
L 172.720967 236.133146 
L 174.282152 237.34051 
L 175.843337 238.876665 
L 177.404522 240.729833 
L 179.277943 243.349899 
L 181.151365 246.369835 
L 183.337024 250.34273 
L 185.83492 255.379508 
L 188.957289 262.21932 
L 198.948872 284.620397 
L 201.446767 289.436038 
L 203.320189 292.627245 
L 205.193611 295.386507 
L 206.754795 297.314175 
L 208.31598 298.872461 
L 209.564928 299.836126 
L 210.813876 300.536538 
L 212.062824 300.965052 
L 213.311771 301.115208 
L 214.560719 300.982841 
L 215.809667 300.566172 
L 217.058615 299.865885 
L 218.307563 298.885173 
L 219.55651 297.629777 
L 221.117695 295.687128 
L 222.67888 293.350182 
L 224.552302 290.064943 
L 226.425723 286.311347 
L 228.611382 281.434589 
L 231.421515 274.578308 
L 241.10086 250.284487 
L 243.286519 245.650012 
L 245.159941 242.190177 
L 246.721125 239.734206 
L 248.28231 237.713464 
L 249.531258 236.43565 
L 250.780206 235.476522 
L 252.029154 234.849018 
L 252.965864 234.601951 
L 253.902575 234.549722 
L 254.839286 234.693997 
L 255.775997 235.035287 
L 256.712708 235.572919 
L 257.961656 236.591777 
L 259.210603 237.948463 
L 260.459551 239.631416 
L 262.020736 242.170243 
L 263.581921 245.15675 
L 265.455342 249.265578 
L 267.641001 254.6613 
L 270.451134 262.277419 
L 278.257058 283.937131 
L 280.442716 289.163195 
L 282.316138 293.051075 
L 283.877323 295.786917 
L 285.126271 297.604106 
L 286.375218 299.063685 
L 287.624166 300.144652 
L 288.560877 300.696754 
L 289.497588 301.021173 
L 290.434299 301.114177 
L 291.37101 300.973633 
L 292.30772 300.599042 
L 293.244431 299.991574 
L 294.181142 299.154077 
L 295.43009 297.687672 
L 296.679038 295.835961 
L 297.927986 293.619521 
L 299.48917 290.375546 
L 301.362592 285.869709 
L 303.548251 279.927277 
L 306.358383 271.561274 
L 312.290885 253.621722 
L 314.476544 247.773989 
L 316.349966 243.40859 
L 317.911151 240.338745 
L 319.160098 238.307904 
L 320.409046 236.689713 
L 321.345757 235.762951 
L 322.282468 235.092195 
L 323.219179 234.684393 
L 324.15589 234.544421 
L 325.0926 234.675007 
L 326.029311 235.076688 
L 326.966022 235.747766 
L 327.902733 236.6843 
L 329.151681 238.334924 
L 330.400629 240.425409 
L 331.649576 242.928116 
L 333.210761 246.583521 
L 335.084183 251.635331 
L 337.269842 258.237048 
L 340.704448 269.449789 
L 344.451292 281.507162 
L 346.63695 287.797882 
L 348.198135 291.73204 
L 349.75932 295.08257 
L 351.008268 297.282046 
L 352.257215 299.011566 
L 353.193926 299.981 
L 354.130637 300.657677 
L 355.067348 301.033735 
L 356.004059 301.104024 
L 356.94077 300.866191 
L 357.877481 300.32074 
L 358.814191 299.471063 
L 359.750902 298.323446 
L 360.063139 297.876198 
L 360.063139 297.876198 
" clip-path="url(#p9ab3433ffd)" style="fill: none; stroke: #0000ff; stroke-width: 3; stroke-linecap: square"/>
   </g>
   <g id="patch_13">
    <path d="M 32.542187 304.44375 
L 32.542187 231.215833 
" style="fill: none; stroke: #000000; stroke-width: 0.8; stroke-linejoin: miter; stroke-linecap: square"/>
   </g>
   <g id="patch_14">
    <path d="M 375.659375 304.44375 
L 375.659375 231.215833 
" style="fill: none; stroke: #000000; stroke-width: 0.8; stroke-linejoin: miter; stroke-linecap: square"/>
   </g>
   <g id="patch_15">
    <path d="M 32.542187 304.44375 
L 375.659375 304.44375 
" style="fill: none; stroke: #000000; stroke-width: 0.8; stroke-linejoin: miter; stroke-linecap: square"/>
   </g>
   <g id="patch_16">
    <path d="M 32.542187 231.215833 
L 375.659375 231.215833 
" style="fill: none; stroke: #000000; stroke-width: 0.8; stroke-linejoin: miter; stroke-linecap: square"/>
   </g>
   <g id="text_20">
    <!-- Quadratic phase change ($\Delta f \rightarrow linear$) -->
    <g transform="translate(92.800781 225.215833) scale(0.12 -0.12)">
     <defs>
      <path id="DejaVuSerif-51" d="M 2700 -91 
Q 1628 -91 993 567 
Q 359 1225 359 2328 
Q 359 2894 529 3339 
Q 700 3784 1050 4134 
Q 1356 4441 1750 4595 
Q 2144 4750 2625 4750 
Q 3641 4750 4266 4084 
Q 4891 3419 4891 2328 
Q 4891 1403 4422 773 
Q 3953 144 3128 -38 
Q 3297 -247 3539 -347 
Q 3781 -447 4122 -447 
L 4219 -447 
L 4219 -1025 
Q 3691 -1000 3314 -767 
Q 2938 -534 2700 -91 
z
M 2625 244 
Q 3391 244 3781 770 
Q 4172 1297 4172 2328 
Q 4172 3363 3781 3889 
Q 3391 4416 2625 4416 
Q 1856 4416 1465 3889 
Q 1075 3363 1075 2328 
Q 1075 1297 1465 770 
Q 1856 244 2625 244 
z
" transform="scale(0.015625)"/>
      <path id="DejaVuSerif-75" d="M 2266 3322 
L 3341 3322 
L 3341 331 
L 3884 331 
L 3884 0 
L 2766 0 
L 2766 588 
Q 2606 256 2353 82 
Q 2100 -91 1766 -91 
Q 1213 -91 952 223 
Q 691 538 691 1209 
L 691 2988 
L 172 2988 
L 172 3322 
L 1269 3322 
L 1269 1388 
Q 1269 781 1417 556 
Q 1566 331 1947 331 
Q 2347 331 2556 625 
Q 2766 919 2766 1478 
L 2766 2988 
L 2266 2988 
L 2266 3322 
z
" transform="scale(0.015625)"/>
      <path id="DejaVuSerif-64" d="M 3359 331 
L 3909 331 
L 3909 0 
L 2784 0 
L 2784 519 
Q 2616 206 2355 57 
Q 2094 -91 1709 -91 
Q 1097 -91 708 395 
Q 319 881 319 1663 
Q 319 2444 706 2928 
Q 1094 3413 1709 3413 
Q 2094 3413 2355 3264 
Q 2616 3116 2784 2803 
L 2784 4531 
L 2241 4531 
L 2241 4863 
L 3359 4863 
L 3359 331 
z
M 2784 1497 
L 2784 1825 
Q 2784 2422 2554 2737 
Q 2325 3053 1888 3053 
Q 1444 3053 1217 2703 
Q 991 2353 991 1663 
Q 991 975 1217 622 
Q 1444 269 1888 269 
Q 2325 269 2554 583 
Q 2784 897 2784 1497 
z
" transform="scale(0.015625)"/>
      <path id="DejaVuSans-Oblique-6c" d="M 1172 4863 
L 1747 4863 
L 800 0 
L 225 0 
L 1172 4863 
z
" transform="scale(0.015625)"/>
      <path id="DejaVuSans-Oblique-69" d="M 1172 4863 
L 1747 4863 
L 1606 4134 
L 1031 4134 
L 1172 4863 
z
M 909 3500 
L 1484 3500 
L 800 0 
L 225 0 
L 909 3500 
z
" transform="scale(0.015625)"/>
      <path id="DejaVuSans-Oblique-6e" d="M 3566 2113 
L 3156 0 
L 2578 0 
L 2988 2091 
Q 3016 2238 3031 2350 
Q 3047 2463 3047 2528 
Q 3047 2791 2881 2937 
Q 2716 3084 2419 3084 
Q 1956 3084 1622 2776 
Q 1288 2469 1184 1941 
L 800 0 
L 225 0 
L 903 3500 
L 1478 3500 
L 1363 2950 
Q 1603 3253 1940 3418 
Q 2278 3584 2650 3584 
Q 3113 3584 3367 3334 
Q 3622 3084 3622 2631 
Q 3622 2519 3608 2391 
Q 3594 2263 3566 2113 
z
" transform="scale(0.015625)"/>
      <path id="DejaVuSans-Oblique-61" d="M 3438 1997 
L 3047 0 
L 2472 0 
L 2578 531 
Q 2325 219 2001 64 
Q 1678 -91 1281 -91 
Q 834 -91 548 182 
Q 263 456 263 884 
Q 263 1497 752 1853 
Q 1241 2209 2100 2209 
L 2900 2209 
L 2931 2363 
Q 2938 2388 2941 2417 
Q 2944 2447 2944 2509 
Q 2944 2788 2717 2942 
Q 2491 3097 2081 3097 
Q 1800 3097 1504 3025 
Q 1209 2953 897 2809 
L 997 3341 
Q 1322 3463 1633 3523 
Q 1944 3584 2234 3584 
Q 2853 3584 3176 3315 
Q 3500 3047 3500 2534 
Q 3500 2431 3484 2292 
Q 3469 2153 3438 1997 
z
M 2816 1759 
L 2241 1759 
Q 1534 1759 1195 1570 
Q 856 1381 856 984 
Q 856 709 1029 553 
Q 1203 397 1509 397 
Q 1978 397 2328 733 
Q 2678 1069 2791 1631 
L 2816 1759 
z
" transform="scale(0.015625)"/>
      <path id="DejaVuSans-Oblique-72" d="M 2853 2969 
Q 2766 3016 2653 3041 
Q 2541 3066 2413 3066 
Q 1953 3066 1609 2717 
Q 1266 2369 1153 1784 
L 800 0 
L 225 0 
L 909 3500 
L 1484 3500 
L 1375 2956 
Q 1603 3259 1920 3421 
Q 2238 3584 2597 3584 
Q 2691 3584 2781 3573 
Q 2872 3563 2963 3538 
L 2853 2969 
z
" transform="scale(0.015625)"/>
     </defs>
     <use xlink:href="#DejaVuSerif-51" transform="translate(0 0.015625)"/>
     <use xlink:href="#DejaVuSerif-75" transform="translate(81.982422 0.015625)"/>
     <use xlink:href="#DejaVuSerif-61" transform="translate(146.386719 0.015625)"/>
     <use xlink:href="#DejaVuSerif-64" transform="translate(206.005859 0.015625)"/>
     <use xlink:href="#DejaVuSerif-72" transform="translate(270.019531 0.015625)"/>
     <use xlink:href="#DejaVuSerif-61" transform="translate(317.822266 0.015625)"/>
     <use xlink:href="#DejaVuSerif-74" transform="translate(377.441406 0.015625)"/>
     <use xlink:href="#DejaVuSerif-69" transform="translate(417.626953 0.015625)"/>
     <use xlink:href="#DejaVuSerif-63" transform="translate(449.609375 0.015625)"/>
     <use xlink:href="#DejaVuSerif-20" transform="translate(505.615234 0.015625)"/>
     <use xlink:href="#DejaVuSerif-70" transform="translate(537.402344 0.015625)"/>
     <use xlink:href="#DejaVuSerif-68" transform="translate(601.416016 0.015625)"/>
     <use xlink:href="#DejaVuSerif-61" transform="translate(665.820312 0.015625)"/>
     <use xlink:href="#DejaVuSerif-73" transform="translate(725.439453 0.015625)"/>
     <use xlink:href="#DejaVuSerif-65" transform="translate(776.757812 0.015625)"/>
     <use xlink:href="#DejaVuSerif-20" transform="translate(835.9375 0.015625)"/>
     <use xlink:href="#DejaVuSerif-63" transform="translate(867.724609 0.015625)"/>
     <use xlink:href="#DejaVuSerif-68" transform="translate(923.730469 0.015625)"/>
     <use xlink:href="#DejaVuSerif-61" transform="translate(988.134766 0.015625)"/>
     <use xlink:href="#DejaVuSerif-6e" transform="translate(1047.753906 0.015625)"/>
     <use xlink:href="#DejaVuSerif-67" transform="translate(1112.158203 0.015625)"/>
     <use xlink:href="#DejaVuSerif-65" transform="translate(1176.171875 0.015625)"/>
     <use xlink:href="#DejaVuSerif-20" transform="translate(1235.351562 0.015625)"/>
     <use xlink:href="#DejaVuSerif-28" transform="translate(1267.138672 0.015625)"/>
     <use xlink:href="#DejaVuSans-394" transform="translate(1306.152344 0.015625)"/>
     <use xlink:href="#DejaVuSans-Oblique-66" transform="translate(1374.560547 0.015625)"/>
     <use xlink:href="#DejaVuSans-2192" transform="translate(1429.248047 0.015625)"/>
     <use xlink:href="#DejaVuSans-Oblique-6c" transform="translate(1532.519531 0.015625)"/>
     <use xlink:href="#DejaVuSans-Oblique-69" transform="translate(1560.302734 0.015625)"/>
     <use xlink:href="#DejaVuSans-Oblique-6e" transform="translate(1588.085938 0.015625)"/>
     <use xlink:href="#DejaVuSans-Oblique-65" transform="translate(1651.464844 0.015625)"/>
     <use xlink:href="#DejaVuSans-Oblique-61" transform="translate(1712.988281 0.015625)"/>
     <use xlink:href="#DejaVuSans-Oblique-72" transform="translate(1774.267578 0.015625)"/>
     <use xlink:href="#DejaVuSerif-29" transform="translate(1815.380859 0.015625)"/>
    </g>
   </g>
   <g id="legend_1">
    <g id="patch_17">
     <path d="M 382.659375 268.572083 
L 448 268.572083 
Q 450 268.572083 450 266.572083 
L 450 238.215833 
Q 450 236.215833 448 236.215833 
L 382.659375 236.215833 
Q 380.659375 236.215833 380.659375 238.215833 
L 380.659375 266.572083 
Q 380.659375 268.572083 382.659375 268.572083 
z
" style="fill: #ffffff; opacity: 0.8; stroke: #cccccc; stroke-linejoin: miter"/>
    </g>
    <g id="line2d_67">
     <path d="M 384.659375 244.314271 
L 394.659375 244.314271 
L 404.659375 244.314271 
" style="fill: none; stroke: #ff0000; stroke-width: 3; stroke-linecap: square"/>
    </g>
    <g id="text_21">
     <!-- input -->
     <g transform="translate(412.659375 247.814271) scale(0.1 -0.1)">
      <use xlink:href="#DejaVuSerif-69"/>
      <use xlink:href="#DejaVuSerif-6e" x="31.982422"/>
      <use xlink:href="#DejaVuSerif-70" x="96.386719"/>
      <use xlink:href="#DejaVuSerif-75" x="160.400391"/>
      <use xlink:href="#DejaVuSerif-74" x="224.804688"/>
     </g>
    </g>
    <g id="line2d_68">
     <path d="M 384.659375 258.992396 
L 394.659375 258.992396 
L 404.659375 258.992396 
" style="fill: none; stroke: #0000ff; stroke-width: 3; stroke-linecap: square"/>
    </g>
    <g id="text_22">
     <!-- output -->
     <g transform="translate(412.659375 262.492396) scale(0.1 -0.1)">
      <use xlink:href="#DejaVuSerif-6f"/>
      <use xlink:href="#DejaVuSerif-75" x="60.205078"/>
      <use xlink:href="#DejaVuSerif-74" x="124.609375"/>
      <use xlink:href="#DejaVuSerif-70" x="164.794922"/>
      <use xlink:href="#DejaVuSerif-75" x="228.808594"/>
      <use xlink:href="#DejaVuSerif-74" x="293.212891"/>
     </g>
    </g>
   </g>
  </g>
 </g>
 <defs>
  <clipPath id="p046ea42557">
   <rect x="32.542187" y="25.92" width="343.117187" height="73.227917"/>
  </clipPath>
  <clipPath id="pb949308c74">
   <rect x="32.542187" y="128.567917" width="343.117187" height="73.227917"/>
  </clipPath>
  <clipPath id="p9ab3433ffd">
   <rect x="32.542187" y="231.215833" width="343.117187" height="73.227917"/>
  </clipPath>
 </defs>
</svg>
