<?xml version="1.0" encoding="utf-8" standalone="no"?>
<!DOCTYPE svg PUBLIC "-//W3C//DTD SVG 1.1//EN"
  "http://www.w3.org/Graphics/SVG/1.1/DTD/svg11.dtd">
<svg xmlns:xlink="http://www.w3.org/1999/xlink" width="460.8pt" height="345.6pt" viewBox="0 0 460.8 345.6" xmlns="http://www.w3.org/2000/svg" version="1.1">
 <metadata>
  <rdf:RDF xmlns:dc="http://purl.org/dc/elements/1.1/" xmlns:cc="http://creativecommons.org/ns#" xmlns:rdf="http://www.w3.org/1999/02/22-rdf-syntax-ns#">
   <cc:Work>
    <dc:type rdf:resource="http://purl.org/dc/dcmitype/StillImage"/>
    <dc:date>2024-02-04T21:51:36.229074</dc:date>
    <dc:format>image/svg+xml</dc:format>
    <dc:creator>
     <cc:Agent>
      <dc:title>Matplotlib v3.8.2, https://matplotlib.org/</dc:title>
     </cc:Agent>
    </dc:creator>
   </cc:Work>
  </rdf:RDF>
 </metadata>
 <defs>
  <style type="text/css">*{stroke-linejoin: round; stroke-linecap: butt}</style>
 </defs>
 <g id="figure_1">
  <g id="patch_1">
   <path d="M 0 345.6 
L 460.8 345.6 
L 460.8 0 
L 0 0 
z
" style="fill: #ffffff"/>
  </g>
  <g id="axes_1">
   <g id="patch_2">
    <path d="M 57.6 307.584 
L 414.72 307.584 
L 414.72 41.472 
L 57.6 41.472 
z
" style="fill: #ffffff"/>
   </g>
   <g id="matplotlib.axis_1">
    <g id="xtick_1">
     <g id="line2d_1">
      <defs>
       <path id="m4fbd51fedf" d="M 0 0 
L 0 3.5 
" style="stroke: #000000; stroke-width: 0.8"/>
      </defs>
      <g>
       <use xlink:href="#m4fbd51fedf" x="73.832727" y="307.584" style="stroke: #000000; stroke-width: 0.8"/>
      </g>
     </g>
     <g id="text_1">
      <!-- 0 -->
      <g transform="translate(70.651477 322.182437) scale(0.1 -0.1)">
       <defs>
        <path id="DejaVuSerif-30" d="M 2034 219 
Q 2513 219 2750 744 
Q 2988 1269 2988 2328 
Q 2988 3391 2750 3916 
Q 2513 4441 2034 4441 
Q 1556 4441 1318 3916 
Q 1081 3391 1081 2328 
Q 1081 1269 1318 744 
Q 1556 219 2034 219 
z
M 2034 -91 
Q 1275 -91 848 546 
Q 422 1184 422 2328 
Q 422 3475 848 4112 
Q 1275 4750 2034 4750 
Q 2797 4750 3222 4112 
Q 3647 3475 3647 2328 
Q 3647 1184 3222 546 
Q 2797 -91 2034 -91 
z
" transform="scale(0.015625)"/>
       </defs>
       <use xlink:href="#DejaVuSerif-30"/>
      </g>
     </g>
    </g>
    <g id="xtick_2">
     <g id="line2d_2">
      <g>
       <use xlink:href="#m4fbd51fedf" x="120.211948" y="307.584" style="stroke: #000000; stroke-width: 0.8"/>
      </g>
     </g>
     <g id="text_2">
      <!-- 1 -->
      <g transform="translate(117.030698 322.182437) scale(0.1 -0.1)">
       <defs>
        <path id="DejaVuSerif-31" d="M 909 0 
L 909 331 
L 1722 331 
L 1722 4213 
L 781 3603 
L 781 4013 
L 1919 4750 
L 2350 4750 
L 2350 331 
L 3163 331 
L 3163 0 
L 909 0 
z
" transform="scale(0.015625)"/>
       </defs>
       <use xlink:href="#DejaVuSerif-31"/>
      </g>
     </g>
    </g>
    <g id="xtick_3">
     <g id="line2d_3">
      <g>
       <use xlink:href="#m4fbd51fedf" x="166.591169" y="307.584" style="stroke: #000000; stroke-width: 0.8"/>
      </g>
     </g>
     <g id="text_3">
      <!-- 2 -->
      <g transform="translate(163.409919 322.182437) scale(0.1 -0.1)">
       <defs>
        <path id="DejaVuSerif-32" d="M 819 3553 
L 469 3553 
L 469 4384 
Q 803 4563 1142 4656 
Q 1481 4750 1806 4750 
Q 2534 4750 2956 4397 
Q 3378 4044 3378 3438 
Q 3378 2753 2422 1800 
Q 2347 1728 2309 1691 
L 1131 513 
L 3078 513 
L 3078 1088 
L 3444 1088 
L 3444 0 
L 434 0 
L 434 341 
L 1850 1753 
Q 2319 2222 2519 2614 
Q 2719 3006 2719 3438 
Q 2719 3909 2473 4175 
Q 2228 4441 1797 4441 
Q 1350 4441 1106 4219 
Q 863 3997 819 3553 
z
" transform="scale(0.015625)"/>
       </defs>
       <use xlink:href="#DejaVuSerif-32"/>
      </g>
     </g>
    </g>
    <g id="xtick_4">
     <g id="line2d_4">
      <g>
       <use xlink:href="#m4fbd51fedf" x="212.97039" y="307.584" style="stroke: #000000; stroke-width: 0.8"/>
      </g>
     </g>
     <g id="text_4">
      <!-- 3 -->
      <g transform="translate(209.78914 322.182437) scale(0.1 -0.1)">
       <defs>
        <path id="DejaVuSerif-33" d="M 622 4469 
Q 988 4606 1323 4678 
Q 1659 4750 1953 4750 
Q 2638 4750 3022 4454 
Q 3406 4159 3406 3634 
Q 3406 3213 3140 2930 
Q 2875 2647 2388 2547 
Q 2963 2466 3280 2130 
Q 3597 1794 3597 1259 
Q 3597 606 3158 257 
Q 2719 -91 1894 -91 
Q 1528 -91 1179 -12 
Q 831 66 488 225 
L 488 1131 
L 838 1131 
Q 869 681 1141 450 
Q 1413 219 1906 219 
Q 2384 219 2661 495 
Q 2938 772 2938 1253 
Q 2938 1803 2653 2086 
Q 2369 2369 1819 2369 
L 1522 2369 
L 1522 2688 
L 1678 2688 
Q 2225 2688 2498 2914 
Q 2772 3141 2772 3597 
Q 2772 4006 2547 4223 
Q 2322 4441 1900 4441 
Q 1478 4441 1245 4241 
Q 1013 4041 972 3647 
L 622 3647 
L 622 4469 
z
" transform="scale(0.015625)"/>
       </defs>
       <use xlink:href="#DejaVuSerif-33"/>
      </g>
     </g>
    </g>
    <g id="xtick_5">
     <g id="line2d_5">
      <g>
       <use xlink:href="#m4fbd51fedf" x="259.34961" y="307.584" style="stroke: #000000; stroke-width: 0.8"/>
      </g>
     </g>
     <g id="text_5">
      <!-- 4 -->
      <g transform="translate(256.16836 322.182437) scale(0.1 -0.1)">
       <defs>
        <path id="DejaVuSerif-34" d="M 2234 1581 
L 2234 4063 
L 641 1581 
L 2234 1581 
z
M 3609 0 
L 1484 0 
L 1484 331 
L 2234 331 
L 2234 1247 
L 197 1247 
L 197 1588 
L 2241 4750 
L 2859 4750 
L 2859 1581 
L 3750 1581 
L 3750 1247 
L 2859 1247 
L 2859 331 
L 3609 331 
L 3609 0 
z
" transform="scale(0.015625)"/>
       </defs>
       <use xlink:href="#DejaVuSerif-34"/>
      </g>
     </g>
    </g>
    <g id="xtick_6">
     <g id="line2d_6">
      <g>
       <use xlink:href="#m4fbd51fedf" x="305.728831" y="307.584" style="stroke: #000000; stroke-width: 0.8"/>
      </g>
     </g>
     <g id="text_6">
      <!-- 5 -->
      <g transform="translate(302.547581 322.182437) scale(0.1 -0.1)">
       <defs>
        <path id="DejaVuSerif-35" d="M 3219 4666 
L 3219 4153 
L 1081 4153 
L 1081 2816 
Q 1244 2928 1461 2984 
Q 1678 3041 1947 3041 
Q 2703 3041 3140 2622 
Q 3578 2203 3578 1478 
Q 3578 738 3136 323 
Q 2694 -91 1894 -91 
Q 1572 -91 1234 -12 
Q 897 66 544 225 
L 544 1131 
L 897 1131 
Q 925 688 1179 453 
Q 1434 219 1894 219 
Q 2388 219 2653 544 
Q 2919 869 2919 1478 
Q 2919 2084 2655 2407 
Q 2391 2731 1894 2731 
Q 1613 2731 1398 2631 
Q 1184 2531 1019 2322 
L 750 2322 
L 750 4666 
L 3219 4666 
z
" transform="scale(0.015625)"/>
       </defs>
       <use xlink:href="#DejaVuSerif-35"/>
      </g>
     </g>
    </g>
    <g id="xtick_7">
     <g id="line2d_7">
      <g>
       <use xlink:href="#m4fbd51fedf" x="352.108052" y="307.584" style="stroke: #000000; stroke-width: 0.8"/>
      </g>
     </g>
     <g id="text_7">
      <!-- 6 -->
      <g transform="translate(348.926802 322.182437) scale(0.1 -0.1)">
       <defs>
        <path id="DejaVuSerif-36" d="M 2094 219 
Q 2534 219 2771 542 
Q 3009 866 3009 1472 
Q 3009 2078 2771 2401 
Q 2534 2725 2094 2725 
Q 1647 2725 1412 2412 
Q 1178 2100 1178 1509 
Q 1178 888 1415 553 
Q 1653 219 2094 219 
z
M 1075 2569 
Q 1288 2803 1556 2918 
Q 1825 3034 2163 3034 
Q 2859 3034 3264 2615 
Q 3669 2197 3669 1472 
Q 3669 763 3233 336 
Q 2797 -91 2069 -91 
Q 1278 -91 853 498 
Q 428 1088 428 2181 
Q 428 3406 931 4078 
Q 1434 4750 2350 4750 
Q 2597 4750 2869 4703 
Q 3141 4656 3425 4563 
L 3425 3794 
L 3072 3794 
Q 3034 4109 2831 4275 
Q 2628 4441 2284 4441 
Q 1678 4441 1381 3981 
Q 1084 3522 1075 2569 
z
" transform="scale(0.015625)"/>
       </defs>
       <use xlink:href="#DejaVuSerif-36"/>
      </g>
     </g>
    </g>
    <g id="xtick_8">
     <g id="line2d_8">
      <g>
       <use xlink:href="#m4fbd51fedf" x="398.487273" y="307.584" style="stroke: #000000; stroke-width: 0.8"/>
      </g>
     </g>
     <g id="text_8">
      <!-- 7 -->
      <g transform="translate(395.306023 322.182437) scale(0.1 -0.1)">
       <defs>
        <path id="DejaVuSerif-37" d="M 3609 4347 
L 1784 0 
L 1319 0 
L 3059 4153 
L 903 4153 
L 903 3578 
L 538 3578 
L 538 4666 
L 3609 4666 
L 3609 4347 
z
" transform="scale(0.015625)"/>
       </defs>
       <use xlink:href="#DejaVuSerif-37"/>
      </g>
     </g>
    </g>
    <g id="text_9">
     <!-- Tiempo [ns] -->
     <g transform="translate(206.037344 335.860562) scale(0.1 -0.1)">
      <defs>
       <path id="DejaVuSerif-54" d="M 1222 0 
L 1222 331 
L 1819 331 
L 1819 4294 
L 447 4294 
L 447 3566 
L 63 3566 
L 63 4666 
L 4206 4666 
L 4206 3566 
L 3822 3566 
L 3822 4294 
L 2450 4294 
L 2450 331 
L 3047 331 
L 3047 0 
L 1222 0 
z
" transform="scale(0.015625)"/>
       <path id="DejaVuSerif-69" d="M 622 4353 
Q 622 4497 726 4603 
Q 831 4709 978 4709 
Q 1122 4709 1226 4603 
Q 1331 4497 1331 4353 
Q 1331 4206 1228 4103 
Q 1125 4000 978 4000 
Q 831 4000 726 4103 
Q 622 4206 622 4353 
z
M 1356 331 
L 1900 331 
L 1900 0 
L 231 0 
L 231 331 
L 781 331 
L 781 2988 
L 231 2988 
L 231 3322 
L 1356 3322 
L 1356 331 
z
" transform="scale(0.015625)"/>
       <path id="DejaVuSerif-65" d="M 3469 1600 
L 991 1600 
L 991 1575 
Q 991 903 1244 561 
Q 1497 219 1991 219 
Q 2369 219 2611 417 
Q 2853 616 2950 1006 
L 3413 1006 
Q 3275 459 2904 184 
Q 2534 -91 1931 -91 
Q 1203 -91 761 389 
Q 319 869 319 1663 
Q 319 2450 753 2931 
Q 1188 3413 1894 3413 
Q 2647 3413 3050 2948 
Q 3453 2484 3469 1600 
z
M 2791 1931 
Q 2772 2513 2545 2808 
Q 2319 3103 1894 3103 
Q 1497 3103 1269 2806 
Q 1041 2509 991 1931 
L 2791 1931 
z
" transform="scale(0.015625)"/>
       <path id="DejaVuSerif-6d" d="M 3316 2675 
Q 3481 3041 3739 3227 
Q 3997 3413 4341 3413 
Q 4863 3413 5119 3089 
Q 5375 2766 5375 2113 
L 5375 331 
L 5894 331 
L 5894 0 
L 4300 0 
L 4300 331 
L 4800 331 
L 4800 2047 
Q 4800 2556 4650 2772 
Q 4500 2988 4153 2988 
Q 3769 2988 3567 2697 
Q 3366 2406 3366 1850 
L 3366 331 
L 3866 331 
L 3866 0 
L 2291 0 
L 2291 331 
L 2791 331 
L 2791 2069 
Q 2791 2566 2641 2777 
Q 2491 2988 2144 2988 
Q 1759 2988 1557 2697 
Q 1356 2406 1356 1850 
L 1356 331 
L 1856 331 
L 1856 0 
L 263 0 
L 263 331 
L 781 331 
L 781 2994 
L 231 2994 
L 231 3322 
L 1356 3322 
L 1356 2731 
Q 1516 3063 1762 3238 
Q 2009 3413 2322 3413 
Q 2709 3413 2968 3220 
Q 3228 3028 3316 2675 
z
" transform="scale(0.015625)"/>
       <path id="DejaVuSerif-70" d="M 1313 1825 
L 1313 1497 
Q 1313 897 1542 583 
Q 1772 269 2209 269 
Q 2650 269 2876 622 
Q 3103 975 3103 1663 
Q 3103 2353 2876 2703 
Q 2650 3053 2209 3053 
Q 1772 3053 1542 2737 
Q 1313 2422 1313 1825 
z
M 738 2988 
L 184 2988 
L 184 3322 
L 1313 3322 
L 1313 2803 
Q 1481 3116 1742 3264 
Q 2003 3413 2388 3413 
Q 3000 3413 3387 2928 
Q 3775 2444 3775 1663 
Q 3775 881 3387 395 
Q 3000 -91 2388 -91 
Q 2003 -91 1742 57 
Q 1481 206 1313 519 
L 1313 -997 
L 1856 -997 
L 1856 -1331 
L 184 -1331 
L 184 -997 
L 738 -997 
L 738 2988 
z
" transform="scale(0.015625)"/>
       <path id="DejaVuSerif-6f" d="M 1925 219 
Q 2388 219 2623 584 
Q 2859 950 2859 1663 
Q 2859 2375 2623 2739 
Q 2388 3103 1925 3103 
Q 1463 3103 1227 2739 
Q 991 2375 991 1663 
Q 991 950 1228 584 
Q 1466 219 1925 219 
z
M 1925 -91 
Q 1200 -91 759 389 
Q 319 869 319 1663 
Q 319 2456 758 2934 
Q 1197 3413 1925 3413 
Q 2653 3413 3092 2934 
Q 3531 2456 3531 1663 
Q 3531 869 3092 389 
Q 2653 -91 1925 -91 
z
" transform="scale(0.015625)"/>
       <path id="DejaVuSerif-20" transform="scale(0.015625)"/>
       <path id="DejaVuSerif-5b" d="M 550 4863 
L 2003 4863 
L 2003 4531 
L 1147 4531 
L 1147 -513 
L 2003 -513 
L 2003 -844 
L 550 -844 
L 550 4863 
z
" transform="scale(0.015625)"/>
       <path id="DejaVuSerif-6e" d="M 263 0 
L 263 331 
L 781 331 
L 781 2988 
L 231 2988 
L 231 3322 
L 1356 3322 
L 1356 2731 
Q 1516 3069 1770 3241 
Q 2025 3413 2363 3413 
Q 2913 3413 3172 3097 
Q 3431 2781 3431 2113 
L 3431 331 
L 3944 331 
L 3944 0 
L 2356 0 
L 2356 331 
L 2853 331 
L 2853 1931 
Q 2853 2541 2703 2767 
Q 2553 2994 2175 2994 
Q 1775 2994 1565 2701 
Q 1356 2409 1356 1850 
L 1356 331 
L 1856 331 
L 1856 0 
L 263 0 
z
" transform="scale(0.015625)"/>
       <path id="DejaVuSerif-73" d="M 359 184 
L 359 959 
L 691 959 
Q 703 588 923 403 
Q 1144 219 1575 219 
Q 1963 219 2166 364 
Q 2369 509 2369 788 
Q 2369 1006 2220 1140 
Q 2072 1275 1594 1428 
L 1178 1569 
Q 750 1706 558 1912 
Q 366 2119 366 2438 
Q 366 2894 700 3153 
Q 1034 3413 1625 3413 
Q 1888 3413 2178 3344 
Q 2469 3275 2778 3144 
L 2778 2419 
L 2447 2419 
Q 2434 2741 2221 2922 
Q 2009 3103 1644 3103 
Q 1281 3103 1095 2975 
Q 909 2847 909 2591 
Q 909 2381 1050 2254 
Q 1191 2128 1613 1997 
L 2069 1856 
Q 2541 1709 2748 1489 
Q 2956 1269 2956 922 
Q 2956 450 2595 179 
Q 2234 -91 1600 -91 
Q 1278 -91 972 -22 
Q 666 47 359 184 
z
" transform="scale(0.015625)"/>
       <path id="DejaVuSerif-5d" d="M 1947 4863 
L 1947 -844 
L 494 -844 
L 494 -513 
L 1350 -513 
L 1350 4531 
L 494 4531 
L 494 4863 
L 1947 4863 
z
" transform="scale(0.015625)"/>
      </defs>
      <use xlink:href="#DejaVuSerif-54"/>
      <use xlink:href="#DejaVuSerif-69" x="66.699219"/>
      <use xlink:href="#DejaVuSerif-65" x="98.681641"/>
      <use xlink:href="#DejaVuSerif-6d" x="157.861328"/>
      <use xlink:href="#DejaVuSerif-70" x="252.685547"/>
      <use xlink:href="#DejaVuSerif-6f" x="316.699219"/>
      <use xlink:href="#DejaVuSerif-20" x="376.904297"/>
      <use xlink:href="#DejaVuSerif-5b" x="408.691406"/>
      <use xlink:href="#DejaVuSerif-6e" x="447.705078"/>
      <use xlink:href="#DejaVuSerif-73" x="512.109375"/>
      <use xlink:href="#DejaVuSerif-5d" x="563.427734"/>
     </g>
    </g>
   </g>
   <g id="matplotlib.axis_2">
    <g id="ytick_1">
     <g id="line2d_9">
      <defs>
       <path id="m30e80e512b" d="M 0 0 
L -3.5 0 
" style="stroke: #000000; stroke-width: 0.8"/>
      </defs>
      <g>
       <use xlink:href="#m30e80e512b" x="57.6" y="295.488" style="stroke: #000000; stroke-width: 0.8"/>
      </g>
     </g>
     <g id="text_10">
      <!-- 0 -->
      <g transform="translate(44.2375 299.287219) scale(0.1 -0.1)">
       <use xlink:href="#DejaVuSerif-30"/>
      </g>
     </g>
    </g>
    <g id="ytick_2">
     <g id="line2d_10">
      <g>
       <use xlink:href="#m30e80e512b" x="57.6" y="247.104" style="stroke: #000000; stroke-width: 0.8"/>
      </g>
     </g>
     <g id="text_11">
      <!-- 1 -->
      <g transform="translate(44.2375 250.903219) scale(0.1 -0.1)">
       <use xlink:href="#DejaVuSerif-31"/>
      </g>
     </g>
    </g>
    <g id="ytick_3">
     <g id="line2d_11">
      <g>
       <use xlink:href="#m30e80e512b" x="57.6" y="198.72" style="stroke: #000000; stroke-width: 0.8"/>
      </g>
     </g>
     <g id="text_12">
      <!-- 2 -->
      <g transform="translate(44.2375 202.519219) scale(0.1 -0.1)">
       <use xlink:href="#DejaVuSerif-32"/>
      </g>
     </g>
    </g>
    <g id="ytick_4">
     <g id="line2d_12">
      <g>
       <use xlink:href="#m30e80e512b" x="57.6" y="150.336" style="stroke: #000000; stroke-width: 0.8"/>
      </g>
     </g>
     <g id="text_13">
      <!-- 3 -->
      <g transform="translate(44.2375 154.135219) scale(0.1 -0.1)">
       <use xlink:href="#DejaVuSerif-33"/>
      </g>
     </g>
    </g>
    <g id="ytick_5">
     <g id="line2d_13">
      <g>
       <use xlink:href="#m30e80e512b" x="57.6" y="101.952" style="stroke: #000000; stroke-width: 0.8"/>
      </g>
     </g>
     <g id="text_14">
      <!-- 4 -->
      <g transform="translate(44.2375 105.751219) scale(0.1 -0.1)">
       <use xlink:href="#DejaVuSerif-34"/>
      </g>
     </g>
    </g>
    <g id="ytick_6">
     <g id="line2d_14">
      <g>
       <use xlink:href="#m30e80e512b" x="57.6" y="53.568" style="stroke: #000000; stroke-width: 0.8"/>
      </g>
     </g>
     <g id="text_15">
      <!-- 5 -->
      <g transform="translate(44.2375 57.367219) scale(0.1 -0.1)">
       <use xlink:href="#DejaVuSerif-35"/>
      </g>
     </g>
    </g>
    <g id="text_16">
     <!-- Amplitud [V] -->
     <g transform="translate(38.157812 206.811594) rotate(-90) scale(0.1 -0.1)">
      <defs>
       <path id="DejaVuSerif-41" d="M 1281 1691 
L 2994 1691 
L 2138 3909 
L 1281 1691 
z
M -38 0 
L -38 331 
L 372 331 
L 2034 4666 
L 2559 4666 
L 4225 331 
L 4684 331 
L 4684 0 
L 2988 0 
L 2988 331 
L 3506 331 
L 3116 1356 
L 1153 1356 
L 763 331 
L 1275 331 
L 1275 0 
L -38 0 
z
" transform="scale(0.015625)"/>
       <path id="DejaVuSerif-6c" d="M 1313 331 
L 1856 331 
L 1856 0 
L 184 0 
L 184 331 
L 738 331 
L 738 4531 
L 184 4531 
L 184 4863 
L 1313 4863 
L 1313 331 
z
" transform="scale(0.015625)"/>
       <path id="DejaVuSerif-74" d="M 691 2988 
L 184 2988 
L 184 3322 
L 691 3322 
L 691 4353 
L 1269 4353 
L 1269 3322 
L 2350 3322 
L 2350 2988 
L 1269 2988 
L 1269 878 
Q 1269 456 1350 337 
Q 1431 219 1650 219 
Q 1875 219 1978 351 
Q 2081 484 2088 781 
L 2522 781 
Q 2497 328 2275 118 
Q 2053 -91 1600 -91 
Q 1103 -91 897 129 
Q 691 350 691 878 
L 691 2988 
z
" transform="scale(0.015625)"/>
       <path id="DejaVuSerif-75" d="M 2266 3322 
L 3341 3322 
L 3341 331 
L 3884 331 
L 3884 0 
L 2766 0 
L 2766 588 
Q 2606 256 2353 82 
Q 2100 -91 1766 -91 
Q 1213 -91 952 223 
Q 691 538 691 1209 
L 691 2988 
L 172 2988 
L 172 3322 
L 1269 3322 
L 1269 1388 
Q 1269 781 1417 556 
Q 1566 331 1947 331 
Q 2347 331 2556 625 
Q 2766 919 2766 1478 
L 2766 2988 
L 2266 2988 
L 2266 3322 
z
" transform="scale(0.015625)"/>
       <path id="DejaVuSerif-64" d="M 3359 331 
L 3909 331 
L 3909 0 
L 2784 0 
L 2784 519 
Q 2616 206 2355 57 
Q 2094 -91 1709 -91 
Q 1097 -91 708 395 
Q 319 881 319 1663 
Q 319 2444 706 2928 
Q 1094 3413 1709 3413 
Q 2094 3413 2355 3264 
Q 2616 3116 2784 2803 
L 2784 4531 
L 2241 4531 
L 2241 4863 
L 3359 4863 
L 3359 331 
z
M 2784 1497 
L 2784 1825 
Q 2784 2422 2554 2737 
Q 2325 3053 1888 3053 
Q 1444 3053 1217 2703 
Q 991 2353 991 1663 
Q 991 975 1217 622 
Q 1444 269 1888 269 
Q 2325 269 2554 583 
Q 2784 897 2784 1497 
z
" transform="scale(0.015625)"/>
       <path id="DejaVuSerif-56" d="M 1119 4331 
L 2497 750 
L 3872 4331 
L 3347 4331 
L 3347 4666 
L 4716 4666 
L 4716 4331 
L 4263 4331 
L 2597 0 
L 2059 0 
L 403 4331 
L -63 4331 
L -63 4666 
L 1638 4666 
L 1638 4331 
L 1119 4331 
z
" transform="scale(0.015625)"/>
      </defs>
      <use xlink:href="#DejaVuSerif-41"/>
      <use xlink:href="#DejaVuSerif-6d" x="72.216797"/>
      <use xlink:href="#DejaVuSerif-70" x="167.041016"/>
      <use xlink:href="#DejaVuSerif-6c" x="231.054688"/>
      <use xlink:href="#DejaVuSerif-69" x="263.037109"/>
      <use xlink:href="#DejaVuSerif-74" x="295.019531"/>
      <use xlink:href="#DejaVuSerif-75" x="335.205078"/>
      <use xlink:href="#DejaVuSerif-64" x="399.609375"/>
      <use xlink:href="#DejaVuSerif-20" x="463.623047"/>
      <use xlink:href="#DejaVuSerif-5b" x="495.410156"/>
      <use xlink:href="#DejaVuSerif-56" x="534.423828"/>
      <use xlink:href="#DejaVuSerif-5d" x="606.640625"/>
     </g>
    </g>
   </g>
   <g id="line2d_15">
    <path d="M 73.832727 295.488 
L 76.757543 295.488 
L 79.682359 295.488 
L 82.607174 295.488 
L 85.53199 295.488 
L 88.456806 295.488 
L 91.381622 295.488 
L 94.306437 295.488 
L 97.231253 295.488 
L 100.156069 295.488 
L 103.080885 295.488 
L 106.0057 295.488 
L 108.930516 295.488 
L 111.855332 295.488 
L 114.780147 295.488 
L 117.704963 295.488 
L 120.629779 295.488 
L 123.554595 295.488 
L 126.47941 295.488 
L 129.404226 295.488 
L 132.329042 295.488 
L 135.253857 295.488 
L 138.178673 295.488 
L 141.103489 295.488 
L 144.028305 295.488 
L 146.95312 295.488 
L 149.877936 295.488 
L 152.802752 295.488 
L 155.727568 295.488 
L 158.652383 295.488 
L 161.577199 295.488 
L 164.502015 295.488 
L 167.42683 295.488 
L 170.351646 295.488 
L 173.276462 295.488 
L 176.201278 295.487999 
L 179.126093 295.487994 
L 182.050909 295.487967 
L 184.975725 295.487834 
L 187.900541 295.487229 
L 190.825356 295.48472 
L 193.750172 295.475233 
L 196.674988 295.442491 
L 199.599803 295.339454 
L 202.524619 295.043957 
L 205.449435 294.272329 
L 208.374251 292.439669 
L 211.299066 288.486506 
L 214.223882 280.757153 
L 217.148698 267.095894 
L 220.073514 245.355102 
L 222.998329 214.387506 
L 225.923145 175.284461 
L 228.847961 132.250909 
L 231.772776 92.373929 
L 234.697592 63.914283 
L 237.622408 53.568 
L 240.547224 63.914283 
L 243.472039 92.373929 
L 246.396855 132.250909 
L 249.321671 175.284461 
L 252.246486 214.387506 
L 255.171302 245.355102 
L 258.096118 267.095894 
L 261.020934 280.757153 
L 263.945749 288.486506 
L 266.870565 292.439669 
L 269.795381 294.272329 
L 272.720197 295.043957 
L 275.645012 295.339454 
L 278.569828 295.442491 
L 281.494644 295.475233 
L 284.419459 295.48472 
L 287.344275 295.487229 
L 290.269091 295.487834 
L 293.193907 295.487967 
L 296.118722 295.487994 
L 299.043538 295.487999 
L 301.968354 295.488 
L 304.89317 295.488 
L 307.817985 295.488 
L 310.742801 295.488 
L 313.667617 295.488 
L 316.592432 295.488 
L 319.517248 295.488 
L 322.442064 295.488 
L 325.36688 295.488 
L 328.291695 295.488 
L 331.216511 295.488 
L 334.141327 295.488 
L 337.066143 295.488 
L 339.990958 295.488 
L 342.915774 295.488 
L 345.84059 295.488 
L 348.765405 295.488 
L 351.690221 295.488 
L 354.615037 295.488 
L 357.539853 295.488 
L 360.464668 295.488 
L 363.389484 295.488 
L 366.3143 295.488 
L 369.239115 295.488 
L 372.163931 295.488 
L 375.088747 295.488 
L 378.013563 295.488 
L 380.938378 295.488 
L 383.863194 295.488 
L 386.78801 295.488 
L 389.712826 295.488 
L 392.637641 295.488 
L 395.562457 295.488 
L 398.487273 295.488 
" clip-path="url(#pb2575365be)" style="fill: none; stroke: #ff0000; stroke-width: 1.5; stroke-linecap: square"/>
    <defs>
     <path id="mff2f6c4a05" d="M 0 1.5 
C 0.397805 1.5 0.77937 1.341951 1.06066 1.06066 
C 1.341951 0.77937 1.5 0.397805 1.5 0 
C 1.5 -0.397805 1.341951 -0.77937 1.06066 -1.06066 
C 0.77937 -1.341951 0.397805 -1.5 0 -1.5 
C -0.397805 -1.5 -0.77937 -1.341951 -1.06066 -1.06066 
C -1.341951 -0.77937 -1.5 -0.397805 -1.5 0 
C -1.5 0.397805 -1.341951 0.77937 -1.06066 1.06066 
C -0.77937 1.341951 -0.397805 1.5 0 1.5 
z
" style="stroke: #ff0000"/>
    </defs>
    <g clip-path="url(#pb2575365be)">
     <use xlink:href="#mff2f6c4a05" x="73.832727" y="295.488" style="fill: #ff0000; stroke: #ff0000"/>
     <use xlink:href="#mff2f6c4a05" x="76.757543" y="295.488" style="fill: #ff0000; stroke: #ff0000"/>
     <use xlink:href="#mff2f6c4a05" x="79.682359" y="295.488" style="fill: #ff0000; stroke: #ff0000"/>
     <use xlink:href="#mff2f6c4a05" x="82.607174" y="295.488" style="fill: #ff0000; stroke: #ff0000"/>
     <use xlink:href="#mff2f6c4a05" x="85.53199" y="295.488" style="fill: #ff0000; stroke: #ff0000"/>
     <use xlink:href="#mff2f6c4a05" x="88.456806" y="295.488" style="fill: #ff0000; stroke: #ff0000"/>
     <use xlink:href="#mff2f6c4a05" x="91.381622" y="295.488" style="fill: #ff0000; stroke: #ff0000"/>
     <use xlink:href="#mff2f6c4a05" x="94.306437" y="295.488" style="fill: #ff0000; stroke: #ff0000"/>
     <use xlink:href="#mff2f6c4a05" x="97.231253" y="295.488" style="fill: #ff0000; stroke: #ff0000"/>
     <use xlink:href="#mff2f6c4a05" x="100.156069" y="295.488" style="fill: #ff0000; stroke: #ff0000"/>
     <use xlink:href="#mff2f6c4a05" x="103.080885" y="295.488" style="fill: #ff0000; stroke: #ff0000"/>
     <use xlink:href="#mff2f6c4a05" x="106.0057" y="295.488" style="fill: #ff0000; stroke: #ff0000"/>
     <use xlink:href="#mff2f6c4a05" x="108.930516" y="295.488" style="fill: #ff0000; stroke: #ff0000"/>
     <use xlink:href="#mff2f6c4a05" x="111.855332" y="295.488" style="fill: #ff0000; stroke: #ff0000"/>
     <use xlink:href="#mff2f6c4a05" x="114.780147" y="295.488" style="fill: #ff0000; stroke: #ff0000"/>
     <use xlink:href="#mff2f6c4a05" x="117.704963" y="295.488" style="fill: #ff0000; stroke: #ff0000"/>
     <use xlink:href="#mff2f6c4a05" x="120.629779" y="295.488" style="fill: #ff0000; stroke: #ff0000"/>
     <use xlink:href="#mff2f6c4a05" x="123.554595" y="295.488" style="fill: #ff0000; stroke: #ff0000"/>
     <use xlink:href="#mff2f6c4a05" x="126.47941" y="295.488" style="fill: #ff0000; stroke: #ff0000"/>
     <use xlink:href="#mff2f6c4a05" x="129.404226" y="295.488" style="fill: #ff0000; stroke: #ff0000"/>
     <use xlink:href="#mff2f6c4a05" x="132.329042" y="295.488" style="fill: #ff0000; stroke: #ff0000"/>
     <use xlink:href="#mff2f6c4a05" x="135.253857" y="295.488" style="fill: #ff0000; stroke: #ff0000"/>
     <use xlink:href="#mff2f6c4a05" x="138.178673" y="295.488" style="fill: #ff0000; stroke: #ff0000"/>
     <use xlink:href="#mff2f6c4a05" x="141.103489" y="295.488" style="fill: #ff0000; stroke: #ff0000"/>
     <use xlink:href="#mff2f6c4a05" x="144.028305" y="295.488" style="fill: #ff0000; stroke: #ff0000"/>
     <use xlink:href="#mff2f6c4a05" x="146.95312" y="295.488" style="fill: #ff0000; stroke: #ff0000"/>
     <use xlink:href="#mff2f6c4a05" x="149.877936" y="295.488" style="fill: #ff0000; stroke: #ff0000"/>
     <use xlink:href="#mff2f6c4a05" x="152.802752" y="295.488" style="fill: #ff0000; stroke: #ff0000"/>
     <use xlink:href="#mff2f6c4a05" x="155.727568" y="295.488" style="fill: #ff0000; stroke: #ff0000"/>
     <use xlink:href="#mff2f6c4a05" x="158.652383" y="295.488" style="fill: #ff0000; stroke: #ff0000"/>
     <use xlink:href="#mff2f6c4a05" x="161.577199" y="295.488" style="fill: #ff0000; stroke: #ff0000"/>
     <use xlink:href="#mff2f6c4a05" x="164.502015" y="295.488" style="fill: #ff0000; stroke: #ff0000"/>
     <use xlink:href="#mff2f6c4a05" x="167.42683" y="295.488" style="fill: #ff0000; stroke: #ff0000"/>
     <use xlink:href="#mff2f6c4a05" x="170.351646" y="295.488" style="fill: #ff0000; stroke: #ff0000"/>
     <use xlink:href="#mff2f6c4a05" x="173.276462" y="295.488" style="fill: #ff0000; stroke: #ff0000"/>
     <use xlink:href="#mff2f6c4a05" x="176.201278" y="295.487999" style="fill: #ff0000; stroke: #ff0000"/>
     <use xlink:href="#mff2f6c4a05" x="179.126093" y="295.487994" style="fill: #ff0000; stroke: #ff0000"/>
     <use xlink:href="#mff2f6c4a05" x="182.050909" y="295.487967" style="fill: #ff0000; stroke: #ff0000"/>
     <use xlink:href="#mff2f6c4a05" x="184.975725" y="295.487834" style="fill: #ff0000; stroke: #ff0000"/>
     <use xlink:href="#mff2f6c4a05" x="187.900541" y="295.487229" style="fill: #ff0000; stroke: #ff0000"/>
     <use xlink:href="#mff2f6c4a05" x="190.825356" y="295.48472" style="fill: #ff0000; stroke: #ff0000"/>
     <use xlink:href="#mff2f6c4a05" x="193.750172" y="295.475233" style="fill: #ff0000; stroke: #ff0000"/>
     <use xlink:href="#mff2f6c4a05" x="196.674988" y="295.442491" style="fill: #ff0000; stroke: #ff0000"/>
     <use xlink:href="#mff2f6c4a05" x="199.599803" y="295.339454" style="fill: #ff0000; stroke: #ff0000"/>
     <use xlink:href="#mff2f6c4a05" x="202.524619" y="295.043957" style="fill: #ff0000; stroke: #ff0000"/>
     <use xlink:href="#mff2f6c4a05" x="205.449435" y="294.272329" style="fill: #ff0000; stroke: #ff0000"/>
     <use xlink:href="#mff2f6c4a05" x="208.374251" y="292.439669" style="fill: #ff0000; stroke: #ff0000"/>
     <use xlink:href="#mff2f6c4a05" x="211.299066" y="288.486506" style="fill: #ff0000; stroke: #ff0000"/>
     <use xlink:href="#mff2f6c4a05" x="214.223882" y="280.757153" style="fill: #ff0000; stroke: #ff0000"/>
     <use xlink:href="#mff2f6c4a05" x="217.148698" y="267.095894" style="fill: #ff0000; stroke: #ff0000"/>
     <use xlink:href="#mff2f6c4a05" x="220.073514" y="245.355102" style="fill: #ff0000; stroke: #ff0000"/>
     <use xlink:href="#mff2f6c4a05" x="222.998329" y="214.387506" style="fill: #ff0000; stroke: #ff0000"/>
     <use xlink:href="#mff2f6c4a05" x="225.923145" y="175.284461" style="fill: #ff0000; stroke: #ff0000"/>
     <use xlink:href="#mff2f6c4a05" x="228.847961" y="132.250909" style="fill: #ff0000; stroke: #ff0000"/>
     <use xlink:href="#mff2f6c4a05" x="231.772776" y="92.373929" style="fill: #ff0000; stroke: #ff0000"/>
     <use xlink:href="#mff2f6c4a05" x="234.697592" y="63.914283" style="fill: #ff0000; stroke: #ff0000"/>
     <use xlink:href="#mff2f6c4a05" x="237.622408" y="53.568" style="fill: #ff0000; stroke: #ff0000"/>
     <use xlink:href="#mff2f6c4a05" x="240.547224" y="63.914283" style="fill: #ff0000; stroke: #ff0000"/>
     <use xlink:href="#mff2f6c4a05" x="243.472039" y="92.373929" style="fill: #ff0000; stroke: #ff0000"/>
     <use xlink:href="#mff2f6c4a05" x="246.396855" y="132.250909" style="fill: #ff0000; stroke: #ff0000"/>
     <use xlink:href="#mff2f6c4a05" x="249.321671" y="175.284461" style="fill: #ff0000; stroke: #ff0000"/>
     <use xlink:href="#mff2f6c4a05" x="252.246486" y="214.387506" style="fill: #ff0000; stroke: #ff0000"/>
     <use xlink:href="#mff2f6c4a05" x="255.171302" y="245.355102" style="fill: #ff0000; stroke: #ff0000"/>
     <use xlink:href="#mff2f6c4a05" x="258.096118" y="267.095894" style="fill: #ff0000; stroke: #ff0000"/>
     <use xlink:href="#mff2f6c4a05" x="261.020934" y="280.757153" style="fill: #ff0000; stroke: #ff0000"/>
     <use xlink:href="#mff2f6c4a05" x="263.945749" y="288.486506" style="fill: #ff0000; stroke: #ff0000"/>
     <use xlink:href="#mff2f6c4a05" x="266.870565" y="292.439669" style="fill: #ff0000; stroke: #ff0000"/>
     <use xlink:href="#mff2f6c4a05" x="269.795381" y="294.272329" style="fill: #ff0000; stroke: #ff0000"/>
     <use xlink:href="#mff2f6c4a05" x="272.720197" y="295.043957" style="fill: #ff0000; stroke: #ff0000"/>
     <use xlink:href="#mff2f6c4a05" x="275.645012" y="295.339454" style="fill: #ff0000; stroke: #ff0000"/>
     <use xlink:href="#mff2f6c4a05" x="278.569828" y="295.442491" style="fill: #ff0000; stroke: #ff0000"/>
     <use xlink:href="#mff2f6c4a05" x="281.494644" y="295.475233" style="fill: #ff0000; stroke: #ff0000"/>
     <use xlink:href="#mff2f6c4a05" x="284.419459" y="295.48472" style="fill: #ff0000; stroke: #ff0000"/>
     <use xlink:href="#mff2f6c4a05" x="287.344275" y="295.487229" style="fill: #ff0000; stroke: #ff0000"/>
     <use xlink:href="#mff2f6c4a05" x="290.269091" y="295.487834" style="fill: #ff0000; stroke: #ff0000"/>
     <use xlink:href="#mff2f6c4a05" x="293.193907" y="295.487967" style="fill: #ff0000; stroke: #ff0000"/>
     <use xlink:href="#mff2f6c4a05" x="296.118722" y="295.487994" style="fill: #ff0000; stroke: #ff0000"/>
     <use xlink:href="#mff2f6c4a05" x="299.043538" y="295.487999" style="fill: #ff0000; stroke: #ff0000"/>
     <use xlink:href="#mff2f6c4a05" x="301.968354" y="295.488" style="fill: #ff0000; stroke: #ff0000"/>
     <use xlink:href="#mff2f6c4a05" x="304.89317" y="295.488" style="fill: #ff0000; stroke: #ff0000"/>
     <use xlink:href="#mff2f6c4a05" x="307.817985" y="295.488" style="fill: #ff0000; stroke: #ff0000"/>
     <use xlink:href="#mff2f6c4a05" x="310.742801" y="295.488" style="fill: #ff0000; stroke: #ff0000"/>
     <use xlink:href="#mff2f6c4a05" x="313.667617" y="295.488" style="fill: #ff0000; stroke: #ff0000"/>
     <use xlink:href="#mff2f6c4a05" x="316.592432" y="295.488" style="fill: #ff0000; stroke: #ff0000"/>
     <use xlink:href="#mff2f6c4a05" x="319.517248" y="295.488" style="fill: #ff0000; stroke: #ff0000"/>
     <use xlink:href="#mff2f6c4a05" x="322.442064" y="295.488" style="fill: #ff0000; stroke: #ff0000"/>
     <use xlink:href="#mff2f6c4a05" x="325.36688" y="295.488" style="fill: #ff0000; stroke: #ff0000"/>
     <use xlink:href="#mff2f6c4a05" x="328.291695" y="295.488" style="fill: #ff0000; stroke: #ff0000"/>
     <use xlink:href="#mff2f6c4a05" x="331.216511" y="295.488" style="fill: #ff0000; stroke: #ff0000"/>
     <use xlink:href="#mff2f6c4a05" x="334.141327" y="295.488" style="fill: #ff0000; stroke: #ff0000"/>
     <use xlink:href="#mff2f6c4a05" x="337.066143" y="295.488" style="fill: #ff0000; stroke: #ff0000"/>
     <use xlink:href="#mff2f6c4a05" x="339.990958" y="295.488" style="fill: #ff0000; stroke: #ff0000"/>
     <use xlink:href="#mff2f6c4a05" x="342.915774" y="295.488" style="fill: #ff0000; stroke: #ff0000"/>
     <use xlink:href="#mff2f6c4a05" x="345.84059" y="295.488" style="fill: #ff0000; stroke: #ff0000"/>
     <use xlink:href="#mff2f6c4a05" x="348.765405" y="295.488" style="fill: #ff0000; stroke: #ff0000"/>
     <use xlink:href="#mff2f6c4a05" x="351.690221" y="295.488" style="fill: #ff0000; stroke: #ff0000"/>
     <use xlink:href="#mff2f6c4a05" x="354.615037" y="295.488" style="fill: #ff0000; stroke: #ff0000"/>
     <use xlink:href="#mff2f6c4a05" x="357.539853" y="295.488" style="fill: #ff0000; stroke: #ff0000"/>
     <use xlink:href="#mff2f6c4a05" x="360.464668" y="295.488" style="fill: #ff0000; stroke: #ff0000"/>
     <use xlink:href="#mff2f6c4a05" x="363.389484" y="295.488" style="fill: #ff0000; stroke: #ff0000"/>
     <use xlink:href="#mff2f6c4a05" x="366.3143" y="295.488" style="fill: #ff0000; stroke: #ff0000"/>
     <use xlink:href="#mff2f6c4a05" x="369.239115" y="295.488" style="fill: #ff0000; stroke: #ff0000"/>
     <use xlink:href="#mff2f6c4a05" x="372.163931" y="295.488" style="fill: #ff0000; stroke: #ff0000"/>
     <use xlink:href="#mff2f6c4a05" x="375.088747" y="295.488" style="fill: #ff0000; stroke: #ff0000"/>
     <use xlink:href="#mff2f6c4a05" x="378.013563" y="295.488" style="fill: #ff0000; stroke: #ff0000"/>
     <use xlink:href="#mff2f6c4a05" x="380.938378" y="295.488" style="fill: #ff0000; stroke: #ff0000"/>
     <use xlink:href="#mff2f6c4a05" x="383.863194" y="295.488" style="fill: #ff0000; stroke: #ff0000"/>
     <use xlink:href="#mff2f6c4a05" x="386.78801" y="295.488" style="fill: #ff0000; stroke: #ff0000"/>
     <use xlink:href="#mff2f6c4a05" x="389.712826" y="295.488" style="fill: #ff0000; stroke: #ff0000"/>
     <use xlink:href="#mff2f6c4a05" x="392.637641" y="295.488" style="fill: #ff0000; stroke: #ff0000"/>
     <use xlink:href="#mff2f6c4a05" x="395.562457" y="295.488" style="fill: #ff0000; stroke: #ff0000"/>
     <use xlink:href="#mff2f6c4a05" x="398.487273" y="295.488" style="fill: #ff0000; stroke: #ff0000"/>
    </g>
   </g>
   <g id="line2d_16">
    <path d="M 73.832727 307.584 
L 73.832727 41.472 
" clip-path="url(#pb2575365be)" style="fill: none; stroke-dasharray: 3.7,1.6; stroke-dashoffset: 0; stroke: #000000; stroke-opacity: 0.3"/>
   </g>
   <g id="line2d_17">
    <path d="M 120.629779 307.584 
L 120.629779 41.472 
" clip-path="url(#pb2575365be)" style="fill: none; stroke-dasharray: 3.7,1.6; stroke-dashoffset: 0; stroke: #000000; stroke-opacity: 0.3"/>
   </g>
   <g id="line2d_18">
    <path d="M 167.42683 307.584 
L 167.42683 41.472 
" clip-path="url(#pb2575365be)" style="fill: none; stroke-dasharray: 3.7,1.6; stroke-dashoffset: 0; stroke: #000000; stroke-opacity: 0.3"/>
   </g>
   <g id="line2d_19">
    <path d="M 214.223882 307.584 
L 214.223882 41.472 
" clip-path="url(#pb2575365be)" style="fill: none; stroke-dasharray: 3.7,1.6; stroke-dashoffset: 0; stroke: #000000; stroke-opacity: 0.3"/>
   </g>
   <g id="line2d_20">
    <path d="M 261.020934 307.584 
L 261.020934 41.472 
" clip-path="url(#pb2575365be)" style="fill: none; stroke-dasharray: 3.7,1.6; stroke-dashoffset: 0; stroke: #000000; stroke-opacity: 0.3"/>
   </g>
   <g id="line2d_21">
    <path d="M 307.817985 307.584 
L 307.817985 41.472 
" clip-path="url(#pb2575365be)" style="fill: none; stroke-dasharray: 3.7,1.6; stroke-dashoffset: 0; stroke: #000000; stroke-opacity: 0.3"/>
   </g>
   <g id="line2d_22">
    <path d="M 354.615037 307.584 
L 354.615037 41.472 
" clip-path="url(#pb2575365be)" style="fill: none; stroke-dasharray: 3.7,1.6; stroke-dashoffset: 0; stroke: #000000; stroke-opacity: 0.3"/>
   </g>
   <g id="patch_3">
    <path d="M 57.6 307.584 
L 57.6 41.472 
" style="fill: none; stroke: #000000; stroke-width: 0.8; stroke-linejoin: miter; stroke-linecap: square"/>
   </g>
   <g id="patch_4">
    <path d="M 414.72 307.584 
L 414.72 41.472 
" style="fill: none; stroke: #000000; stroke-width: 0.8; stroke-linejoin: miter; stroke-linecap: square"/>
   </g>
   <g id="patch_5">
    <path d="M 57.6 307.584 
L 414.72 307.584 
" style="fill: none; stroke: #000000; stroke-width: 0.8; stroke-linejoin: miter; stroke-linecap: square"/>
   </g>
   <g id="patch_6">
    <path d="M 57.6 41.472 
L 414.72 41.472 
" style="fill: none; stroke: #000000; stroke-width: 0.8; stroke-linejoin: miter; stroke-linecap: square"/>
   </g>
  </g>
 </g>
 <defs>
  <clipPath id="pb2575365be">
   <rect x="57.6" y="41.472" width="357.12" height="266.112"/>
  </clipPath>
 </defs>
</svg>
