<?xml version="1.0" encoding="utf-8" standalone="no"?>
<!DOCTYPE svg PUBLIC "-//W3C//DTD SVG 1.1//EN"
  "http://www.w3.org/Graphics/SVG/1.1/DTD/svg11.dtd">
<svg xmlns:xlink="http://www.w3.org/1999/xlink" width="460.8pt" height="345.6pt" viewBox="0 0 460.8 345.6" xmlns="http://www.w3.org/2000/svg" version="1.1">
 <metadata>
  <rdf:RDF xmlns:dc="http://purl.org/dc/elements/1.1/" xmlns:cc="http://creativecommons.org/ns#" xmlns:rdf="http://www.w3.org/1999/02/22-rdf-syntax-ns#">
   <cc:Work>
    <dc:type rdf:resource="http://purl.org/dc/dcmitype/StillImage"/>
    <dc:date>2024-02-21T12:48:03.476560</dc:date>
    <dc:format>image/svg+xml</dc:format>
    <dc:creator>
     <cc:Agent>
      <dc:title>Matplotlib v3.8.2, https://matplotlib.org/</dc:title>
     </cc:Agent>
    </dc:creator>
   </cc:Work>
  </rdf:RDF>
 </metadata>
 <defs>
  <style type="text/css">*{stroke-linejoin: round; stroke-linecap: butt}</style>
 </defs>
 <g id="figure_1">
  <g id="patch_1">
   <path d="M 0 345.6 
L 460.8 345.6 
L 460.8 0 
L 0 0 
z
" style="fill: #ffffff"/>
  </g>
  <g id="axes_1">
   <g id="patch_2">
    <path d="M 57.6 307.584 
L 414.72 307.584 
L 414.72 41.472 
L 57.6 41.472 
z
" style="fill: #ffffff"/>
   </g>
   <g id="matplotlib.axis_1">
    <g id="xtick_1">
     <g id="line2d_1">
      <path d="M 57.6 307.584 
L 57.6 41.472 
" clip-path="url(#pdc314d063b)" style="fill: none; stroke: #b0b0b0; stroke-opacity: 0.3; stroke-width: 0.8; stroke-linecap: square"/>
     </g>
     <g id="line2d_2">
      <defs>
       <path id="m50252e7868" d="M 0 0 
L 0 3.5 
" style="stroke: #000000; stroke-width: 0.8"/>
      </defs>
      <g>
       <use xlink:href="#m50252e7868" x="57.6" y="307.584" style="stroke: #000000; stroke-width: 0.8"/>
      </g>
     </g>
     <g id="text_1">
      <!-- −20 -->
      <g transform="translate(47.047656 322.182437) scale(0.1 -0.1)">
       <defs>
        <path id="DejaVuSerif-2212" d="M 678 2259 
L 4684 2259 
L 4684 1753 
L 678 1753 
L 678 2259 
z
" transform="scale(0.015625)"/>
        <path id="DejaVuSerif-32" d="M 819 3553 
L 469 3553 
L 469 4384 
Q 803 4563 1142 4656 
Q 1481 4750 1806 4750 
Q 2534 4750 2956 4397 
Q 3378 4044 3378 3438 
Q 3378 2753 2422 1800 
Q 2347 1728 2309 1691 
L 1131 513 
L 3078 513 
L 3078 1088 
L 3444 1088 
L 3444 0 
L 434 0 
L 434 341 
L 1850 1753 
Q 2319 2222 2519 2614 
Q 2719 3006 2719 3438 
Q 2719 3909 2473 4175 
Q 2228 4441 1797 4441 
Q 1350 4441 1106 4219 
Q 863 3997 819 3553 
z
" transform="scale(0.015625)"/>
        <path id="DejaVuSerif-30" d="M 2034 219 
Q 2513 219 2750 744 
Q 2988 1269 2988 2328 
Q 2988 3391 2750 3916 
Q 2513 4441 2034 4441 
Q 1556 4441 1318 3916 
Q 1081 3391 1081 2328 
Q 1081 1269 1318 744 
Q 1556 219 2034 219 
z
M 2034 -91 
Q 1275 -91 848 546 
Q 422 1184 422 2328 
Q 422 3475 848 4112 
Q 1275 4750 2034 4750 
Q 2797 4750 3222 4112 
Q 3647 3475 3647 2328 
Q 3647 1184 3222 546 
Q 2797 -91 2034 -91 
z
" transform="scale(0.015625)"/>
       </defs>
       <use xlink:href="#DejaVuSerif-2212"/>
       <use xlink:href="#DejaVuSerif-32" x="83.789062"/>
       <use xlink:href="#DejaVuSerif-30" x="147.412109"/>
      </g>
     </g>
    </g>
    <g id="xtick_2">
     <g id="line2d_3">
      <path d="M 102.24 307.584 
L 102.24 41.472 
" clip-path="url(#pdc314d063b)" style="fill: none; stroke: #b0b0b0; stroke-opacity: 0.3; stroke-width: 0.8; stroke-linecap: square"/>
     </g>
     <g id="line2d_4">
      <g>
       <use xlink:href="#m50252e7868" x="102.24" y="307.584" style="stroke: #000000; stroke-width: 0.8"/>
      </g>
     </g>
     <g id="text_2">
      <!-- −15 -->
      <g transform="translate(91.687656 322.182437) scale(0.1 -0.1)">
       <defs>
        <path id="DejaVuSerif-31" d="M 909 0 
L 909 331 
L 1722 331 
L 1722 4213 
L 781 3603 
L 781 4013 
L 1919 4750 
L 2350 4750 
L 2350 331 
L 3163 331 
L 3163 0 
L 909 0 
z
" transform="scale(0.015625)"/>
        <path id="DejaVuSerif-35" d="M 3219 4666 
L 3219 4153 
L 1081 4153 
L 1081 2816 
Q 1244 2928 1461 2984 
Q 1678 3041 1947 3041 
Q 2703 3041 3140 2622 
Q 3578 2203 3578 1478 
Q 3578 738 3136 323 
Q 2694 -91 1894 -91 
Q 1572 -91 1234 -12 
Q 897 66 544 225 
L 544 1131 
L 897 1131 
Q 925 688 1179 453 
Q 1434 219 1894 219 
Q 2388 219 2653 544 
Q 2919 869 2919 1478 
Q 2919 2084 2655 2407 
Q 2391 2731 1894 2731 
Q 1613 2731 1398 2631 
Q 1184 2531 1019 2322 
L 750 2322 
L 750 4666 
L 3219 4666 
z
" transform="scale(0.015625)"/>
       </defs>
       <use xlink:href="#DejaVuSerif-2212"/>
       <use xlink:href="#DejaVuSerif-31" x="83.789062"/>
       <use xlink:href="#DejaVuSerif-35" x="147.412109"/>
      </g>
     </g>
    </g>
    <g id="xtick_3">
     <g id="line2d_5">
      <path d="M 146.88 307.584 
L 146.88 41.472 
" clip-path="url(#pdc314d063b)" style="fill: none; stroke: #b0b0b0; stroke-opacity: 0.3; stroke-width: 0.8; stroke-linecap: square"/>
     </g>
     <g id="line2d_6">
      <g>
       <use xlink:href="#m50252e7868" x="146.88" y="307.584" style="stroke: #000000; stroke-width: 0.8"/>
      </g>
     </g>
     <g id="text_3">
      <!-- −10 -->
      <g transform="translate(136.327656 322.182437) scale(0.1 -0.1)">
       <use xlink:href="#DejaVuSerif-2212"/>
       <use xlink:href="#DejaVuSerif-31" x="83.789062"/>
       <use xlink:href="#DejaVuSerif-30" x="147.412109"/>
      </g>
     </g>
    </g>
    <g id="xtick_4">
     <g id="line2d_7">
      <path d="M 191.52 307.584 
L 191.52 41.472 
" clip-path="url(#pdc314d063b)" style="fill: none; stroke: #b0b0b0; stroke-opacity: 0.3; stroke-width: 0.8; stroke-linecap: square"/>
     </g>
     <g id="line2d_8">
      <g>
       <use xlink:href="#m50252e7868" x="191.52" y="307.584" style="stroke: #000000; stroke-width: 0.8"/>
      </g>
     </g>
     <g id="text_4">
      <!-- −5 -->
      <g transform="translate(184.148906 322.182437) scale(0.1 -0.1)">
       <use xlink:href="#DejaVuSerif-2212"/>
       <use xlink:href="#DejaVuSerif-35" x="83.789062"/>
      </g>
     </g>
    </g>
    <g id="xtick_5">
     <g id="line2d_9">
      <path d="M 236.16 307.584 
L 236.16 41.472 
" clip-path="url(#pdc314d063b)" style="fill: none; stroke: #b0b0b0; stroke-opacity: 0.3; stroke-width: 0.8; stroke-linecap: square"/>
     </g>
     <g id="line2d_10">
      <g>
       <use xlink:href="#m50252e7868" x="236.16" y="307.584" style="stroke: #000000; stroke-width: 0.8"/>
      </g>
     </g>
     <g id="text_5">
      <!-- 0 -->
      <g transform="translate(232.97875 322.182437) scale(0.1 -0.1)">
       <use xlink:href="#DejaVuSerif-30"/>
      </g>
     </g>
    </g>
    <g id="xtick_6">
     <g id="line2d_11">
      <path d="M 280.8 307.584 
L 280.8 41.472 
" clip-path="url(#pdc314d063b)" style="fill: none; stroke: #b0b0b0; stroke-opacity: 0.3; stroke-width: 0.8; stroke-linecap: square"/>
     </g>
     <g id="line2d_12">
      <g>
       <use xlink:href="#m50252e7868" x="280.8" y="307.584" style="stroke: #000000; stroke-width: 0.8"/>
      </g>
     </g>
     <g id="text_6">
      <!-- 5 -->
      <g transform="translate(277.61875 322.182437) scale(0.1 -0.1)">
       <use xlink:href="#DejaVuSerif-35"/>
      </g>
     </g>
    </g>
    <g id="xtick_7">
     <g id="line2d_13">
      <path d="M 325.44 307.584 
L 325.44 41.472 
" clip-path="url(#pdc314d063b)" style="fill: none; stroke: #b0b0b0; stroke-opacity: 0.3; stroke-width: 0.8; stroke-linecap: square"/>
     </g>
     <g id="line2d_14">
      <g>
       <use xlink:href="#m50252e7868" x="325.44" y="307.584" style="stroke: #000000; stroke-width: 0.8"/>
      </g>
     </g>
     <g id="text_7">
      <!-- 10 -->
      <g transform="translate(319.0775 322.182437) scale(0.1 -0.1)">
       <use xlink:href="#DejaVuSerif-31"/>
       <use xlink:href="#DejaVuSerif-30" x="63.623047"/>
      </g>
     </g>
    </g>
    <g id="xtick_8">
     <g id="line2d_15">
      <path d="M 370.08 307.584 
L 370.08 41.472 
" clip-path="url(#pdc314d063b)" style="fill: none; stroke: #b0b0b0; stroke-opacity: 0.3; stroke-width: 0.8; stroke-linecap: square"/>
     </g>
     <g id="line2d_16">
      <g>
       <use xlink:href="#m50252e7868" x="370.08" y="307.584" style="stroke: #000000; stroke-width: 0.8"/>
      </g>
     </g>
     <g id="text_8">
      <!-- 15 -->
      <g transform="translate(363.7175 322.182437) scale(0.1 -0.1)">
       <use xlink:href="#DejaVuSerif-31"/>
       <use xlink:href="#DejaVuSerif-35" x="63.623047"/>
      </g>
     </g>
    </g>
    <g id="xtick_9">
     <g id="line2d_17">
      <path d="M 414.72 307.584 
L 414.72 41.472 
" clip-path="url(#pdc314d063b)" style="fill: none; stroke: #b0b0b0; stroke-opacity: 0.3; stroke-width: 0.8; stroke-linecap: square"/>
     </g>
     <g id="line2d_18">
      <g>
       <use xlink:href="#m50252e7868" x="414.72" y="307.584" style="stroke: #000000; stroke-width: 0.8"/>
      </g>
     </g>
     <g id="text_9">
      <!-- 20 -->
      <g transform="translate(408.3575 322.182437) scale(0.1 -0.1)">
       <use xlink:href="#DejaVuSerif-32"/>
       <use xlink:href="#DejaVuSerif-30" x="63.623047"/>
      </g>
     </g>
    </g>
    <g id="text_10">
     <!-- Frequency (Hz) -->
     <g transform="translate(196.630313 335.860562) scale(0.1 -0.1)">
      <defs>
       <path id="DejaVuSerif-46" d="M 353 0 
L 353 331 
L 947 331 
L 947 4331 
L 353 4331 
L 353 4666 
L 4172 4666 
L 4172 3628 
L 3788 3628 
L 3788 4281 
L 1581 4281 
L 1581 2719 
L 3175 2719 
L 3175 3303 
L 3559 3303 
L 3559 1753 
L 3175 1753 
L 3175 2338 
L 1581 2338 
L 1581 331 
L 2328 331 
L 2328 0 
L 353 0 
z
" transform="scale(0.015625)"/>
       <path id="DejaVuSerif-72" d="M 3059 3328 
L 3059 2497 
L 2728 2497 
Q 2713 2744 2591 2866 
Q 2469 2988 2234 2988 
Q 1809 2988 1582 2694 
Q 1356 2400 1356 1850 
L 1356 331 
L 2022 331 
L 2022 0 
L 263 0 
L 263 331 
L 781 331 
L 781 2994 
L 231 2994 
L 231 3322 
L 1356 3322 
L 1356 2731 
Q 1525 3078 1790 3245 
Q 2056 3413 2438 3413 
Q 2578 3413 2733 3391 
Q 2888 3369 3059 3328 
z
" transform="scale(0.015625)"/>
       <path id="DejaVuSerif-65" d="M 3469 1600 
L 991 1600 
L 991 1575 
Q 991 903 1244 561 
Q 1497 219 1991 219 
Q 2369 219 2611 417 
Q 2853 616 2950 1006 
L 3413 1006 
Q 3275 459 2904 184 
Q 2534 -91 1931 -91 
Q 1203 -91 761 389 
Q 319 869 319 1663 
Q 319 2450 753 2931 
Q 1188 3413 1894 3413 
Q 2647 3413 3050 2948 
Q 3453 2484 3469 1600 
z
M 2791 1931 
Q 2772 2513 2545 2808 
Q 2319 3103 1894 3103 
Q 1497 3103 1269 2806 
Q 1041 2509 991 1931 
L 2791 1931 
z
" transform="scale(0.015625)"/>
       <path id="DejaVuSerif-71" d="M 3359 2988 
L 3359 -997 
L 3909 -997 
L 3909 -1331 
L 2241 -1331 
L 2241 -997 
L 2784 -997 
L 2784 519 
Q 2616 206 2355 57 
Q 2094 -91 1709 -91 
Q 1097 -91 708 395 
Q 319 881 319 1663 
Q 319 2444 706 2928 
Q 1094 3413 1709 3413 
Q 2094 3413 2355 3264 
Q 2616 3116 2784 2803 
L 2784 3322 
L 3909 3322 
L 3909 2988 
L 3359 2988 
z
M 2784 1825 
Q 2784 2422 2554 2737 
Q 2325 3053 1888 3053 
Q 1444 3053 1217 2703 
Q 991 2353 991 1663 
Q 991 975 1217 622 
Q 1444 269 1888 269 
Q 2325 269 2554 583 
Q 2784 897 2784 1497 
L 2784 1825 
z
" transform="scale(0.015625)"/>
       <path id="DejaVuSerif-75" d="M 2266 3322 
L 3341 3322 
L 3341 331 
L 3884 331 
L 3884 0 
L 2766 0 
L 2766 588 
Q 2606 256 2353 82 
Q 2100 -91 1766 -91 
Q 1213 -91 952 223 
Q 691 538 691 1209 
L 691 2988 
L 172 2988 
L 172 3322 
L 1269 3322 
L 1269 1388 
Q 1269 781 1417 556 
Q 1566 331 1947 331 
Q 2347 331 2556 625 
Q 2766 919 2766 1478 
L 2766 2988 
L 2266 2988 
L 2266 3322 
z
" transform="scale(0.015625)"/>
       <path id="DejaVuSerif-6e" d="M 263 0 
L 263 331 
L 781 331 
L 781 2988 
L 231 2988 
L 231 3322 
L 1356 3322 
L 1356 2731 
Q 1516 3069 1770 3241 
Q 2025 3413 2363 3413 
Q 2913 3413 3172 3097 
Q 3431 2781 3431 2113 
L 3431 331 
L 3944 331 
L 3944 0 
L 2356 0 
L 2356 331 
L 2853 331 
L 2853 1931 
Q 2853 2541 2703 2767 
Q 2553 2994 2175 2994 
Q 1775 2994 1565 2701 
Q 1356 2409 1356 1850 
L 1356 331 
L 1856 331 
L 1856 0 
L 263 0 
z
" transform="scale(0.015625)"/>
       <path id="DejaVuSerif-63" d="M 3291 997 
Q 3169 466 2822 187 
Q 2475 -91 1925 -91 
Q 1200 -91 759 389 
Q 319 869 319 1663 
Q 319 2459 759 2936 
Q 1200 3413 1925 3413 
Q 2241 3413 2553 3339 
Q 2866 3266 3181 3116 
L 3181 2266 
L 2847 2266 
Q 2781 2703 2561 2903 
Q 2341 3103 1931 3103 
Q 1466 3103 1228 2742 
Q 991 2381 991 1663 
Q 991 944 1227 581 
Q 1463 219 1931 219 
Q 2303 219 2525 412 
Q 2747 606 2828 997 
L 3291 997 
z
" transform="scale(0.015625)"/>
       <path id="DejaVuSerif-79" d="M 1381 -609 
L 1600 -56 
L 359 2988 
L -19 2988 
L -19 3322 
L 1509 3322 
L 1509 2988 
L 978 2988 
L 1913 703 
L 2847 2988 
L 2350 2988 
L 2350 3322 
L 3597 3322 
L 3597 2988 
L 3225 2988 
L 1703 -750 
Q 1547 -1138 1356 -1280 
Q 1166 -1422 819 -1422 
Q 672 -1422 517 -1397 
Q 363 -1372 206 -1325 
L 206 -691 
L 500 -691 
Q 519 -903 608 -995 
Q 697 -1088 884 -1088 
Q 1056 -1088 1161 -992 
Q 1266 -897 1381 -609 
z
" transform="scale(0.015625)"/>
       <path id="DejaVuSerif-20" transform="scale(0.015625)"/>
       <path id="DejaVuSerif-28" d="M 2041 -997 
Q 1281 -656 893 83 
Q 506 822 506 1931 
Q 506 3044 893 3783 
Q 1281 4522 2041 4863 
L 2041 4556 
Q 1559 4225 1350 3623 
Q 1141 3022 1141 1931 
Q 1141 844 1350 242 
Q 1559 -359 2041 -691 
L 2041 -997 
z
" transform="scale(0.015625)"/>
       <path id="DejaVuSerif-48" d="M 353 0 
L 353 331 
L 947 331 
L 947 4331 
L 353 4331 
L 353 4666 
L 2175 4666 
L 2175 4331 
L 1581 4331 
L 1581 2719 
L 4000 2719 
L 4000 4331 
L 3406 4331 
L 3406 4666 
L 5228 4666 
L 5228 4331 
L 4634 4331 
L 4634 331 
L 5228 331 
L 5228 0 
L 3406 0 
L 3406 331 
L 4000 331 
L 4000 2338 
L 1581 2338 
L 1581 331 
L 2175 331 
L 2175 0 
L 353 0 
z
" transform="scale(0.015625)"/>
       <path id="DejaVuSerif-7a" d="M 256 0 
L 256 269 
L 2338 2988 
L 691 2988 
L 691 2413 
L 359 2413 
L 359 3322 
L 3078 3322 
L 3078 3053 
L 997 331 
L 2803 331 
L 2803 934 
L 3138 934 
L 3138 0 
L 256 0 
z
" transform="scale(0.015625)"/>
       <path id="DejaVuSerif-29" d="M 453 -997 
L 453 -691 
Q 934 -359 1145 242 
Q 1356 844 1356 1931 
Q 1356 3022 1145 3623 
Q 934 4225 453 4556 
L 453 4863 
Q 1216 4522 1603 3783 
Q 1991 3044 1991 1931 
Q 1991 822 1603 83 
Q 1216 -656 453 -997 
z
" transform="scale(0.015625)"/>
      </defs>
      <use xlink:href="#DejaVuSerif-46"/>
      <use xlink:href="#DejaVuSerif-72" x="69.384766"/>
      <use xlink:href="#DejaVuSerif-65" x="117.1875"/>
      <use xlink:href="#DejaVuSerif-71" x="176.367188"/>
      <use xlink:href="#DejaVuSerif-75" x="240.380859"/>
      <use xlink:href="#DejaVuSerif-65" x="304.785156"/>
      <use xlink:href="#DejaVuSerif-6e" x="363.964844"/>
      <use xlink:href="#DejaVuSerif-63" x="428.369141"/>
      <use xlink:href="#DejaVuSerif-79" x="484.375"/>
      <use xlink:href="#DejaVuSerif-20" x="540.869141"/>
      <use xlink:href="#DejaVuSerif-28" x="572.65625"/>
      <use xlink:href="#DejaVuSerif-48" x="611.669922"/>
      <use xlink:href="#DejaVuSerif-7a" x="698.876953"/>
      <use xlink:href="#DejaVuSerif-29" x="751.5625"/>
     </g>
    </g>
   </g>
   <g id="matplotlib.axis_2">
    <g id="ytick_1">
     <g id="line2d_19">
      <path d="M 57.6 307.584 
L 414.72 307.584 
" clip-path="url(#pdc314d063b)" style="fill: none; stroke: #b0b0b0; stroke-opacity: 0.3; stroke-width: 0.8; stroke-linecap: square"/>
     </g>
     <g id="line2d_20">
      <defs>
       <path id="m74f8219ea3" d="M 0 0 
L -3.5 0 
" style="stroke: #000000; stroke-width: 0.8"/>
      </defs>
      <g>
       <use xlink:href="#m74f8219ea3" x="57.6" y="307.584" style="stroke: #000000; stroke-width: 0.8"/>
      </g>
     </g>
     <g id="text_11">
      <!-- −100 -->
      <g transform="translate(23.132812 311.383219) scale(0.1 -0.1)">
       <use xlink:href="#DejaVuSerif-2212"/>
       <use xlink:href="#DejaVuSerif-31" x="83.789062"/>
       <use xlink:href="#DejaVuSerif-30" x="147.412109"/>
       <use xlink:href="#DejaVuSerif-30" x="211.035156"/>
      </g>
     </g>
    </g>
    <g id="ytick_2">
     <g id="line2d_21">
      <path d="M 57.6 257.177552 
L 414.72 257.177552 
" clip-path="url(#pdc314d063b)" style="fill: none; stroke: #b0b0b0; stroke-opacity: 0.3; stroke-width: 0.8; stroke-linecap: square"/>
     </g>
     <g id="line2d_22">
      <g>
       <use xlink:href="#m74f8219ea3" x="57.6" y="257.177552" style="stroke: #000000; stroke-width: 0.8"/>
      </g>
     </g>
     <g id="text_12">
      <!-- −80 -->
      <g transform="translate(29.495313 260.976771) scale(0.1 -0.1)">
       <defs>
        <path id="DejaVuSerif-38" d="M 2981 1275 
Q 2981 1775 2732 2051 
Q 2484 2328 2034 2328 
Q 1584 2328 1336 2051 
Q 1088 1775 1088 1275 
Q 1088 772 1336 495 
Q 1584 219 2034 219 
Q 2484 219 2732 495 
Q 2981 772 2981 1275 
z
M 2853 3541 
Q 2853 3966 2637 4203 
Q 2422 4441 2034 4441 
Q 1650 4441 1433 4203 
Q 1216 3966 1216 3541 
Q 1216 3113 1433 2875 
Q 1650 2638 2034 2638 
Q 2422 2638 2637 2875 
Q 2853 3113 2853 3541 
z
M 2516 2484 
Q 3047 2413 3344 2092 
Q 3641 1772 3641 1275 
Q 3641 619 3225 264 
Q 2809 -91 2034 -91 
Q 1263 -91 845 264 
Q 428 619 428 1275 
Q 428 1772 725 2092 
Q 1022 2413 1556 2484 
Q 1084 2569 832 2842 
Q 581 3116 581 3541 
Q 581 4103 968 4426 
Q 1356 4750 2034 4750 
Q 2713 4750 3100 4426 
Q 3488 4103 3488 3541 
Q 3488 3116 3236 2842 
Q 2984 2569 2516 2484 
z
" transform="scale(0.015625)"/>
       </defs>
       <use xlink:href="#DejaVuSerif-2212"/>
       <use xlink:href="#DejaVuSerif-38" x="83.789062"/>
       <use xlink:href="#DejaVuSerif-30" x="147.412109"/>
      </g>
     </g>
    </g>
    <g id="ytick_3">
     <g id="line2d_23">
      <path d="M 57.6 206.771105 
L 414.72 206.771105 
" clip-path="url(#pdc314d063b)" style="fill: none; stroke: #b0b0b0; stroke-opacity: 0.3; stroke-width: 0.8; stroke-linecap: square"/>
     </g>
     <g id="line2d_24">
      <g>
       <use xlink:href="#m74f8219ea3" x="57.6" y="206.771105" style="stroke: #000000; stroke-width: 0.8"/>
      </g>
     </g>
     <g id="text_13">
      <!-- −60 -->
      <g transform="translate(29.495313 210.570323) scale(0.1 -0.1)">
       <defs>
        <path id="DejaVuSerif-36" d="M 2094 219 
Q 2534 219 2771 542 
Q 3009 866 3009 1472 
Q 3009 2078 2771 2401 
Q 2534 2725 2094 2725 
Q 1647 2725 1412 2412 
Q 1178 2100 1178 1509 
Q 1178 888 1415 553 
Q 1653 219 2094 219 
z
M 1075 2569 
Q 1288 2803 1556 2918 
Q 1825 3034 2163 3034 
Q 2859 3034 3264 2615 
Q 3669 2197 3669 1472 
Q 3669 763 3233 336 
Q 2797 -91 2069 -91 
Q 1278 -91 853 498 
Q 428 1088 428 2181 
Q 428 3406 931 4078 
Q 1434 4750 2350 4750 
Q 2597 4750 2869 4703 
Q 3141 4656 3425 4563 
L 3425 3794 
L 3072 3794 
Q 3034 4109 2831 4275 
Q 2628 4441 2284 4441 
Q 1678 4441 1381 3981 
Q 1084 3522 1075 2569 
z
" transform="scale(0.015625)"/>
       </defs>
       <use xlink:href="#DejaVuSerif-2212"/>
       <use xlink:href="#DejaVuSerif-36" x="83.789062"/>
       <use xlink:href="#DejaVuSerif-30" x="147.412109"/>
      </g>
     </g>
    </g>
    <g id="ytick_4">
     <g id="line2d_25">
      <path d="M 57.6 156.364657 
L 414.72 156.364657 
" clip-path="url(#pdc314d063b)" style="fill: none; stroke: #b0b0b0; stroke-opacity: 0.3; stroke-width: 0.8; stroke-linecap: square"/>
     </g>
     <g id="line2d_26">
      <g>
       <use xlink:href="#m74f8219ea3" x="57.6" y="156.364657" style="stroke: #000000; stroke-width: 0.8"/>
      </g>
     </g>
     <g id="text_14">
      <!-- −40 -->
      <g transform="translate(29.495313 160.163876) scale(0.1 -0.1)">
       <defs>
        <path id="DejaVuSerif-34" d="M 2234 1581 
L 2234 4063 
L 641 1581 
L 2234 1581 
z
M 3609 0 
L 1484 0 
L 1484 331 
L 2234 331 
L 2234 1247 
L 197 1247 
L 197 1588 
L 2241 4750 
L 2859 4750 
L 2859 1581 
L 3750 1581 
L 3750 1247 
L 2859 1247 
L 2859 331 
L 3609 331 
L 3609 0 
z
" transform="scale(0.015625)"/>
       </defs>
       <use xlink:href="#DejaVuSerif-2212"/>
       <use xlink:href="#DejaVuSerif-34" x="83.789062"/>
       <use xlink:href="#DejaVuSerif-30" x="147.412109"/>
      </g>
     </g>
    </g>
    <g id="ytick_5">
     <g id="line2d_27">
      <path d="M 57.6 105.958209 
L 414.72 105.958209 
" clip-path="url(#pdc314d063b)" style="fill: none; stroke: #b0b0b0; stroke-opacity: 0.3; stroke-width: 0.8; stroke-linecap: square"/>
     </g>
     <g id="line2d_28">
      <g>
       <use xlink:href="#m74f8219ea3" x="57.6" y="105.958209" style="stroke: #000000; stroke-width: 0.8"/>
      </g>
     </g>
     <g id="text_15">
      <!-- −20 -->
      <g transform="translate(29.495313 109.757428) scale(0.1 -0.1)">
       <use xlink:href="#DejaVuSerif-2212"/>
       <use xlink:href="#DejaVuSerif-32" x="83.789062"/>
       <use xlink:href="#DejaVuSerif-30" x="147.412109"/>
      </g>
     </g>
    </g>
    <g id="ytick_6">
     <g id="line2d_29">
      <path d="M 57.6 55.551762 
L 414.72 55.551762 
" clip-path="url(#pdc314d063b)" style="fill: none; stroke: #b0b0b0; stroke-opacity: 0.3; stroke-width: 0.8; stroke-linecap: square"/>
     </g>
     <g id="line2d_30">
      <g>
       <use xlink:href="#m74f8219ea3" x="57.6" y="55.551762" style="stroke: #000000; stroke-width: 0.8"/>
      </g>
     </g>
     <g id="text_16">
      <!-- 0 -->
      <g transform="translate(44.2375 59.35098) scale(0.1 -0.1)">
       <use xlink:href="#DejaVuSerif-30"/>
      </g>
     </g>
    </g>
    <g id="text_17">
     <!-- Magnitude (dB) -->
     <g transform="translate(16.910937 214.404562) rotate(-90) scale(0.1 -0.1)">
      <defs>
       <path id="DejaVuSerif-4d" d="M 353 0 
L 353 331 
L 947 331 
L 947 4331 
L 319 4331 
L 319 4666 
L 1678 4666 
L 3316 1344 
L 4953 4666 
L 6228 4666 
L 6228 4331 
L 5606 4331 
L 5606 331 
L 6203 331 
L 6203 0 
L 4378 0 
L 4378 331 
L 4972 331 
L 4972 3938 
L 3372 684 
L 2931 684 
L 1331 3938 
L 1331 331 
L 1925 331 
L 1925 0 
L 353 0 
z
" transform="scale(0.015625)"/>
       <path id="DejaVuSerif-61" d="M 2547 1044 
L 2547 1747 
L 1806 1747 
Q 1378 1747 1168 1562 
Q 959 1378 959 997 
Q 959 650 1171 447 
Q 1384 244 1747 244 
Q 2106 244 2326 466 
Q 2547 688 2547 1044 
z
M 3122 2075 
L 3122 331 
L 3634 331 
L 3634 0 
L 2547 0 
L 2547 359 
Q 2356 128 2106 18 
Q 1856 -91 1522 -91 
Q 969 -91 644 203 
Q 319 497 319 997 
Q 319 1513 691 1797 
Q 1063 2081 1741 2081 
L 2547 2081 
L 2547 2309 
Q 2547 2688 2317 2895 
Q 2088 3103 1672 3103 
Q 1328 3103 1125 2947 
Q 922 2791 872 2484 
L 575 2484 
L 575 3156 
Q 875 3284 1158 3348 
Q 1441 3413 1709 3413 
Q 2400 3413 2761 3070 
Q 3122 2728 3122 2075 
z
" transform="scale(0.015625)"/>
       <path id="DejaVuSerif-67" d="M 3359 2988 
L 3359 72 
Q 3359 -644 2965 -1033 
Q 2572 -1422 1844 -1422 
Q 1516 -1422 1216 -1362 
Q 916 -1303 641 -1184 
L 641 -488 
L 941 -488 
Q 997 -813 1206 -963 
Q 1416 -1113 1806 -1113 
Q 2313 -1113 2548 -827 
Q 2784 -541 2784 72 
L 2784 519 
Q 2616 206 2355 57 
Q 2094 -91 1709 -91 
Q 1097 -91 708 395 
Q 319 881 319 1663 
Q 319 2444 706 2928 
Q 1094 3413 1709 3413 
Q 2094 3413 2355 3264 
Q 2616 3116 2784 2803 
L 2784 3322 
L 3909 3322 
L 3909 2988 
L 3359 2988 
z
M 2784 1825 
Q 2784 2422 2554 2737 
Q 2325 3053 1888 3053 
Q 1444 3053 1217 2703 
Q 991 2353 991 1663 
Q 991 975 1217 622 
Q 1444 269 1888 269 
Q 2325 269 2554 583 
Q 2784 897 2784 1497 
L 2784 1825 
z
" transform="scale(0.015625)"/>
       <path id="DejaVuSerif-69" d="M 622 4353 
Q 622 4497 726 4603 
Q 831 4709 978 4709 
Q 1122 4709 1226 4603 
Q 1331 4497 1331 4353 
Q 1331 4206 1228 4103 
Q 1125 4000 978 4000 
Q 831 4000 726 4103 
Q 622 4206 622 4353 
z
M 1356 331 
L 1900 331 
L 1900 0 
L 231 0 
L 231 331 
L 781 331 
L 781 2988 
L 231 2988 
L 231 3322 
L 1356 3322 
L 1356 331 
z
" transform="scale(0.015625)"/>
       <path id="DejaVuSerif-74" d="M 691 2988 
L 184 2988 
L 184 3322 
L 691 3322 
L 691 4353 
L 1269 4353 
L 1269 3322 
L 2350 3322 
L 2350 2988 
L 1269 2988 
L 1269 878 
Q 1269 456 1350 337 
Q 1431 219 1650 219 
Q 1875 219 1978 351 
Q 2081 484 2088 781 
L 2522 781 
Q 2497 328 2275 118 
Q 2053 -91 1600 -91 
Q 1103 -91 897 129 
Q 691 350 691 878 
L 691 2988 
z
" transform="scale(0.015625)"/>
       <path id="DejaVuSerif-64" d="M 3359 331 
L 3909 331 
L 3909 0 
L 2784 0 
L 2784 519 
Q 2616 206 2355 57 
Q 2094 -91 1709 -91 
Q 1097 -91 708 395 
Q 319 881 319 1663 
Q 319 2444 706 2928 
Q 1094 3413 1709 3413 
Q 2094 3413 2355 3264 
Q 2616 3116 2784 2803 
L 2784 4531 
L 2241 4531 
L 2241 4863 
L 3359 4863 
L 3359 331 
z
M 2784 1497 
L 2784 1825 
Q 2784 2422 2554 2737 
Q 2325 3053 1888 3053 
Q 1444 3053 1217 2703 
Q 991 2353 991 1663 
Q 991 975 1217 622 
Q 1444 269 1888 269 
Q 2325 269 2554 583 
Q 2784 897 2784 1497 
z
" transform="scale(0.015625)"/>
       <path id="DejaVuSerif-42" d="M 1581 331 
L 2516 331 
Q 3078 331 3337 575 
Q 3597 819 3597 1350 
Q 3597 1878 3339 2120 
Q 3081 2363 2516 2363 
L 1581 2363 
L 1581 331 
z
M 1581 2694 
L 2375 2694 
Q 2888 2694 3123 2891 
Q 3359 3088 3359 3513 
Q 3359 3941 3123 4136 
Q 2888 4331 2375 4331 
L 1581 4331 
L 1581 2694 
z
M 353 0 
L 353 331 
L 947 331 
L 947 4331 
L 353 4331 
L 353 4666 
L 2656 4666 
Q 3363 4666 3720 4377 
Q 4078 4088 4078 3513 
Q 4078 3097 3829 2850 
Q 3581 2603 3103 2547 
Q 3697 2472 4005 2167 
Q 4313 1863 4313 1350 
Q 4313 656 3875 328 
Q 3438 0 2509 0 
L 353 0 
z
" transform="scale(0.015625)"/>
      </defs>
      <use xlink:href="#DejaVuSerif-4d"/>
      <use xlink:href="#DejaVuSerif-61" x="102.392578"/>
      <use xlink:href="#DejaVuSerif-67" x="162.011719"/>
      <use xlink:href="#DejaVuSerif-6e" x="226.025391"/>
      <use xlink:href="#DejaVuSerif-69" x="290.429688"/>
      <use xlink:href="#DejaVuSerif-74" x="322.412109"/>
      <use xlink:href="#DejaVuSerif-75" x="362.597656"/>
      <use xlink:href="#DejaVuSerif-64" x="427.001953"/>
      <use xlink:href="#DejaVuSerif-65" x="491.015625"/>
      <use xlink:href="#DejaVuSerif-20" x="550.195312"/>
      <use xlink:href="#DejaVuSerif-28" x="581.982422"/>
      <use xlink:href="#DejaVuSerif-64" x="620.996094"/>
      <use xlink:href="#DejaVuSerif-42" x="685.009766"/>
      <use xlink:href="#DejaVuSerif-29" x="758.496094"/>
     </g>
    </g>
   </g>
   <g id="line2d_31">
    <path d="M 57.425625 80.337309 
L 57.861562 81.126013 
L 58.2975 82.28371 
L 58.951406 84.84879 
L 59.605312 88.728652 
L 60.259219 94.615622 
L 60.695156 100.395668 
L 61.131094 108.973869 
L 61.567031 124.302956 
L 61.785 140.315429 
L 62.002969 193.814119 
L 62.220937 136.760725 
L 62.656875 113.913734 
L 63.092812 103.213774 
L 63.746719 93.719982 
L 64.400625 87.79561 
L 65.054531 83.837888 
L 65.708437 81.179971 
L 66.362344 79.485171 
L 66.798281 78.797307 
L 67.234219 78.426904 
L 67.670156 78.359886 
L 68.106094 78.595481 
L 68.542031 79.146264 
L 68.977969 80.039662 
L 69.413906 81.321358 
L 70.067812 84.135317 
L 70.721719 88.405834 
L 71.157656 92.453149 
L 71.593594 98.019353 
L 72.029531 106.225009 
L 72.465469 120.532935 
L 72.683437 134.568611 
L 72.901406 186.647672 
L 73.119375 138.959105 
L 73.555312 113.403035 
L 73.99125 102.169252 
L 74.645156 92.391868 
L 75.299062 86.362245 
L 75.952969 82.366031 
L 76.606875 79.699344 
L 77.260781 78.008411 
L 77.696719 77.325646 
L 78.132656 76.960749 
L 78.568594 76.899193 
L 79.004531 77.14053 
L 79.440469 77.698504 
L 79.876406 78.602741 
L 80.312344 79.902515 
L 80.96625 82.770431 
L 81.620156 87.161304 
L 82.056094 91.365458 
L 82.492031 97.220042 
L 82.927969 106.037642 
L 83.363906 122.260144 
L 83.799844 166.813565 
L 84.017812 130.080507 
L 84.45375 109.064875 
L 84.889687 98.815008 
L 85.543594 89.658569 
L 86.1975 83.97337 
L 86.851406 80.221912 
L 87.505312 77.749253 
L 88.159219 76.221158 
L 88.595156 75.635603 
L 89.031094 75.362657 
L 89.467031 75.391506 
L 89.902969 75.7263 
L 90.338906 76.386819 
L 90.774844 77.410986 
L 91.210781 78.859995 
L 91.864687 82.048928 
L 92.518594 86.989396 
L 92.954531 91.827004 
L 93.390469 98.804657 
L 93.826406 110.119994 
L 94.044375 119.599246 
L 94.262344 137.120205 
L 94.480312 168.53116 
L 94.698281 128.542322 
L 95.134219 107.107406 
L 95.570156 96.781678 
L 96.224062 87.627467 
L 96.877969 81.996141 
L 97.531875 78.318737 
L 98.185781 75.924948 
L 98.839687 74.472595 
L 99.275625 73.934428 
L 99.711563 73.70692 
L 100.1475 73.78094 
L 100.583437 74.163632 
L 101.019375 74.879517 
L 101.455312 75.97378 
L 101.89125 77.518778 
L 102.545156 80.941945 
L 102.981094 84.252961 
L 103.417031 88.810023 
L 103.852969 95.370703 
L 104.288906 105.841411 
L 104.506875 114.310192 
L 104.724844 128.710503 
L 104.942813 191.217123 
L 105.160781 131.268329 
L 105.596719 106.409024 
L 106.032656 95.38011 
L 106.686562 85.872258 
L 107.340469 80.138498 
L 107.994375 76.451722 
L 108.648281 74.08583 
L 109.302188 72.67316 
L 109.738125 72.162121 
L 110.174062 71.961014 
L 110.61 72.061509 
L 111.045937 72.473346 
L 111.481875 73.225906 
L 111.917812 74.372454 
L 112.35375 75.998438 
L 112.789687 78.237138 
L 113.225625 81.300851 
L 113.661562 85.550333 
L 114.0975 91.678327 
L 114.533438 101.347093 
L 114.751406 108.947516 
L 114.969375 121.094071 
L 115.187344 151.829126 
L 115.84125 105.616647 
L 116.277187 93.75299 
L 116.713125 86.546464 
L 117.367031 79.690547 
L 118.020937 75.427797 
L 118.674844 72.726963 
L 119.32875 71.092755 
L 119.764688 70.463544 
L 120.200625 70.153568 
L 120.636562 70.146283 
L 121.0725 70.445615 
L 121.508437 71.076993 
L 121.944375 72.091442 
L 122.380313 73.57403 
L 122.81625 75.659934 
L 123.252187 78.566181 
L 123.688125 82.661623 
L 124.124062 88.650745 
L 124.56 98.211885 
L 124.777969 105.7783 
L 124.995937 117.917831 
L 125.213906 148.821527 
L 125.867812 102.342979 
L 126.30375 90.563749 
L 126.739687 83.473112 
L 127.393594 76.832413 
L 128.0475 72.80085 
L 128.701406 70.319241 
L 129.355312 68.879875 
L 129.79125 68.36723 
L 130.227187 68.166898 
L 130.663125 68.268534 
L 131.099063 68.685855 
L 131.535 69.459513 
L 131.970937 70.664617 
L 132.406875 72.425632 
L 132.842812 74.945418 
L 133.27875 78.566761 
L 133.714687 83.925771 
L 134.150625 92.449294 
L 134.368594 99.026831 
L 134.586562 108.991859 
L 135.0225 144.446803 
L 135.240469 113.768389 
L 135.676406 93.932576 
L 136.112344 84.280812 
L 136.548281 78.269301 
L 137.202188 72.657795 
L 137.856094 69.345771 
L 138.51 67.407571 
L 138.945937 66.647937 
L 139.381875 66.22925 
L 139.817813 66.118394 
L 140.25375 66.311811 
L 140.689687 66.836062 
L 141.125625 67.754119 
L 141.561562 69.179808 
L 141.9975 71.306751 
L 142.433437 74.468398 
L 142.869375 79.281018 
L 143.305312 87.0832 
L 143.74125 102.09735 
L 143.959219 118.616916 
L 144.177188 159.276039 
L 144.395156 112.52794 
L 144.831094 90.635933 
L 145.267031 80.681166 
L 145.702969 74.724873 
L 146.138906 70.847123 
L 146.792812 67.259754 
L 147.446719 65.263551 
L 147.882656 64.505792 
L 148.318594 64.097385 
L 148.754531 63.997705 
L 149.190469 64.204203 
L 149.626406 64.753934 
L 150.062344 65.735084 
L 150.498281 67.314217 
L 150.934219 69.794457 
L 151.370156 73.748514 
L 151.806094 80.391736 
L 152.242031 93.187792 
L 152.46 106.127175 
L 152.677969 146.772297 
L 153.113906 96.475019 
L 153.549844 81.077596 
L 153.985781 73.340505 
L 154.421719 68.778377 
L 154.857656 65.929425 
L 155.293594 64.108514 
L 155.729531 62.95001 
L 156.165469 62.251286 
L 156.601406 61.904275 
L 157.037344 61.864072 
L 157.473281 62.138545 
L 157.909219 62.795432 
L 158.345156 63.993126 
L 158.781094 66.058039 
L 159.217031 69.678049 
L 159.652969 76.476327 
L 159.870937 82.326906 
L 160.088906 91.791201 
L 160.524844 124.427598 
L 160.742812 95.237823 
L 161.17875 76.684404 
L 161.614688 68.764103 
L 162.050625 64.630441 
L 162.486562 62.31231 
L 162.9225 60.97047 
L 163.358437 60.207284 
L 163.794375 59.832396 
L 164.230312 59.769575 
L 164.66625 60.026911 
L 165.102187 60.713193 
L 165.538125 62.127055 
L 165.974063 65.046909 
L 166.192031 67.660951 
L 166.41 71.790647 
L 166.627969 78.820383 
L 166.845937 92.960419 
L 167.063906 160.038561 
L 167.281875 90.440772 
L 167.717812 69.698521 
L 168.15375 62.949795 
L 168.589687 60.119522 
L 169.025625 58.790856 
L 169.461562 58.148964 
L 169.8975 57.896193 
L 170.333438 57.953238 
L 170.769375 58.413935 
L 170.987344 58.91056 
L 171.205312 59.747925 
L 171.423281 61.232364 
L 171.64125 64.116318 
L 171.859219 70.59997 
L 172.077187 90.428808 
L 172.295156 91.260694 
L 172.513125 69.253348 
L 172.731094 62.29465 
L 172.949062 59.398766 
L 173.385 57.278611 
L 173.820937 56.617862 
L 174.256875 56.42491 
L 174.692813 56.575475 
L 174.910781 56.936973 
L 175.12875 58.07169 
L 175.564687 69.203999 
L 175.782656 57.052486 
L 176.000625 55.959874 
L 176.436562 55.625477 
L 177.526406 55.55685 
L 192.130313 55.551762 
L 295.883438 55.624502 
L 296.101406 55.70757 
L 296.319375 55.95162 
L 296.537344 57.007915 
L 296.755313 68.433186 
L 296.973281 65.17364 
L 297.19125 58.111584 
L 297.409219 56.947802 
L 297.627187 56.579352 
L 298.063125 56.424428 
L 298.499062 56.61429 
L 298.717031 56.855435 
L 298.935 57.268228 
L 299.152969 57.994517 
L 299.370938 59.362349 
L 299.588906 62.214734 
L 299.806875 69.047811 
L 300.024844 90.438312 
L 300.242813 91.188463 
L 300.460781 70.789063 
L 300.67875 64.193006 
L 301.114688 59.767995 
L 301.550625 58.420759 
L 301.986562 57.955046 
L 302.4225 57.894962 
L 302.858438 58.144664 
L 303.294375 58.781887 
L 303.730312 60.101383 
L 304.16625 62.910124 
L 304.384219 65.486172 
L 304.602188 69.598329 
L 304.820156 76.566138 
L 305.038125 90.058799 
L 305.256094 152.09682 
L 305.474063 93.371803 
L 305.91 71.88851 
L 306.345937 65.085601 
L 306.781875 62.144851 
L 307.217813 60.721737 
L 307.65375 60.030491 
L 308.089687 59.769843 
L 308.525625 59.829806 
L 308.961563 60.201494 
L 309.3975 60.960275 
L 309.833438 62.295117 
L 310.269375 64.600931 
L 310.705312 68.710812 
L 311.14125 76.578107 
L 311.359219 83.46005 
L 311.577188 94.939559 
L 311.795156 123.293554 
L 312.013125 112.30493 
L 312.231094 92.026689 
L 312.667031 76.564331 
L 313.102969 69.722005 
L 313.538906 66.082143 
L 313.974844 64.006763 
L 314.410781 62.802884 
L 314.846719 62.141883 
L 315.282656 61.864256 
L 315.718594 61.901605 
L 316.154531 62.245562 
L 316.590469 62.940511 
L 317.026406 64.093815 
L 317.462344 65.906966 
L 317.898281 68.743546 
L 318.334219 73.284384 
L 318.770156 80.979279 
L 319.206094 96.251662 
L 319.424062 113.331789 
L 319.642031 149.155294 
L 319.86 106.469512 
L 320.295938 85.693695 
L 320.731875 76.669527 
L 321.167813 71.569285 
L 321.60375 68.436378 
L 322.039688 66.448593 
L 322.475625 65.190401 
L 322.911563 64.43601 
L 323.3475 64.062123 
L 323.783437 64.007861 
L 324.219375 64.256349 
L 324.655313 64.828472 
L 325.09125 65.785592 
L 325.527188 67.241645 
L 325.963125 69.389109 
L 326.399063 72.552067 
L 326.835 77.308248 
L 327.270938 84.848917 
L 327.706875 98.611703 
L 327.924844 112.165876 
L 328.142812 156.395809 
L 328.360781 119.092003 
L 328.796719 93.246725 
L 329.232656 82.737746 
L 329.668594 76.653942 
L 330.104531 72.756787 
L 330.758438 69.194476 
L 331.194375 67.763331 
L 331.630313 66.841183 
L 332.06625 66.313616 
L 332.502187 66.117267 
L 332.938125 66.225269 
L 333.374063 66.640908 
L 333.81 67.397009 
L 334.245938 68.560622 
L 334.681875 70.24441 
L 335.117813 72.629199 
L 335.55375 76.01007 
L 335.989688 80.904525 
L 336.425625 88.371594 
L 336.861562 101.390821 
L 337.079531 113.458071 
L 337.2975 143.216115 
L 338.169375 92.551454 
L 338.605313 83.985527 
L 339.04125 78.605481 
L 339.695156 73.595158 
L 340.349063 70.676389 
L 341.002969 69.029777 
L 341.438906 68.437969 
L 341.874844 68.178822 
L 342.310781 68.225512 
L 342.746719 68.576249 
L 343.182656 69.253246 
L 343.618594 70.305299 
L 344.054531 71.814714 
L 344.490469 73.91105 
L 344.926406 76.798173 
L 345.362344 80.812753 
L 345.798281 86.573171 
L 346.234219 95.467061 
L 346.670156 112.219564 
L 347.106094 150.146528 
L 347.324063 118.226592 
L 347.76 98.327779 
L 348.195938 88.717371 
L 348.849844 80.468553 
L 349.50375 75.680638 
L 350.157656 72.778855 
L 350.811563 71.082455 
L 351.2475 70.447785 
L 351.683438 70.145493 
L 352.119375 70.149932 
L 352.555313 70.456982 
L 352.99125 71.082992 
L 353.427188 72.066435 
L 353.863125 73.472768 
L 354.517031 76.613008 
L 354.952969 79.65455 
L 355.388906 83.816804 
L 355.824844 89.70677 
L 356.260781 98.70131 
L 356.696719 115.528071 
L 357.132656 153.138543 
L 357.350625 121.402206 
L 357.786563 101.463516 
L 358.2225 91.745864 
L 358.876406 83.282472 
L 359.530313 78.258995 
L 360.184219 75.131237 
L 360.838125 73.23223 
L 361.274063 72.476286 
L 361.71 72.061427 
L 362.145938 71.958072 
L 362.581875 72.156305 
L 363.017812 72.664289 
L 363.45375 73.508891 
L 363.889688 74.738711 
L 364.543594 77.484103 
L 365.1975 81.733007 
L 365.633438 85.824172 
L 366.069375 91.521888 
L 366.505313 100.034219 
L 366.94125 115.213258 
L 367.159219 130.830272 
L 367.377187 199.329975 
L 367.595156 129.097406 
L 368.031094 105.969176 
L 368.467031 95.443095 
L 369.120938 86.380969 
L 369.774844 80.965616 
L 370.42875 77.532843 
L 371.082656 75.383008 
L 371.736562 74.165958 
L 372.1725 73.780284 
L 372.608437 73.703412 
L 373.044375 73.928039 
L 373.480313 74.463146 
L 373.91625 75.334753 
L 374.352188 76.588806 
L 375.006094 79.353686 
L 375.66 83.571348 
L 376.095937 87.580251 
L 376.531875 93.092762 
L 376.967813 101.180752 
L 377.40375 115.056064 
L 377.621719 128.195712 
L 377.839687 166.476979 
L 378.275625 119.822442 
L 378.711563 103.75779 
L 379.1475 95.026582 
L 379.801406 87.024573 
L 380.455312 82.070332 
L 381.109219 78.872693 
L 381.763125 76.856728 
L 382.199062 76.017034 
L 382.635 75.519855 
L 383.070938 75.336618 
L 383.506875 75.4554 
L 383.942813 75.879375 
L 384.37875 76.626953 
L 384.814687 77.733685 
L 385.468594 80.199471 
L 386.1225 83.941208 
L 386.776406 89.610836 
L 387.212344 95.134377 
L 387.648281 103.19023 
L 388.084219 116.90519 
L 388.302188 129.744121 
L 388.520156 165.083641 
L 388.956094 122.488257 
L 389.392031 106.139563 
L 389.827969 97.282357 
L 390.481875 89.137862 
L 391.135781 84.054574 
L 391.789688 80.73625 
L 392.443594 78.609563 
L 393.0975 77.380312 
L 393.533437 76.98034 
L 393.969375 76.888407 
L 394.405313 77.097841 
L 394.84125 77.615917 
L 395.277188 78.464491 
L 395.931094 80.447606 
L 396.585 83.498712 
L 397.238906 88.055242 
L 397.892812 95.030319 
L 398.32875 102.084331 
L 398.764688 113.258713 
L 398.982656 122.382517 
L 399.200625 138.500608 
L 399.418594 191.1222 
L 399.636563 134.940502 
L 400.0725 112.283526 
L 400.508438 101.746192 
L 401.162344 92.493366 
L 401.81625 86.805933 
L 402.470156 83.076695 
L 403.124062 80.636518 
L 403.777969 79.149267 
L 404.213906 78.595427 
L 404.649844 78.356944 
L 405.085781 78.421115 
L 405.521719 78.788589 
L 405.957656 79.473312 
L 406.393594 80.503927 
L 407.0475 82.806756 
L 407.701406 86.270523 
L 408.355313 91.41656 
L 408.79125 96.295537 
L 409.227188 103.131533 
L 409.663125 113.777521 
L 409.881094 122.238609 
L 410.099063 136.377807 
L 410.317031 189.168271 
L 410.535 140.762491 
L 410.970937 115.388524 
L 411.406875 104.279852 
L 412.060781 94.657195 
L 412.714688 88.754081 
L 413.368594 84.864386 
L 414.0225 82.29242 
L 414.676406 80.691677 
L 414.894375 80.339086 
L 414.894375 80.339086 
" clip-path="url(#pdc314d063b)" style="fill: none; stroke: #1f77b4; stroke-width: 2; stroke-linecap: square"/>
   </g>
   <g id="line2d_32">
    <path d="M 57.425625 152.428142 
L 58.079531 155.100976 
L 58.733437 159.045547 
L 59.387344 164.867416 
L 59.823281 170.439093 
L 60.259219 178.48219 
L 60.695156 192.101472 
L 60.913125 204.834787 
L 61.131094 239.674095 
L 61.567031 197.440733 
L 62.002969 180.766996 
L 62.438906 171.545653 
L 63.092812 162.771142 
L 63.746719 156.991751 
L 64.400625 152.956564 
L 65.054531 150.131931 
L 65.708437 148.251533 
L 66.144375 147.450542 
L 66.580312 146.98424 
L 67.01625 146.842058 
L 67.452187 147.023292 
L 67.888125 147.537022 
L 68.324062 148.403236 
L 68.977969 150.441741 
L 69.631875 153.554325 
L 70.285781 158.131022 
L 70.939687 165.012143 
L 71.375625 171.869504 
L 71.811562 182.572493 
L 72.029531 191.144311 
L 72.2475 205.696386 
L 72.465469 271.87269 
L 72.683437 207.730092 
L 73.119375 182.925786 
L 73.555312 171.692588 
L 74.209219 161.671059 
L 74.863125 155.266602 
L 75.517031 150.836634 
L 76.170937 147.726385 
L 76.824844 145.618999 
L 77.47875 144.349866 
L 77.914687 143.927349 
L 78.350625 143.831592 
L 78.786563 144.063577 
L 79.2225 144.634391 
L 79.658437 145.566635 
L 80.312344 147.729389 
L 80.96625 151.016332 
L 81.620156 155.864038 
L 82.274062 163.240369 
L 82.71 170.759262 
L 83.145937 183.051933 
L 83.363906 193.741725 
L 83.581875 215.924408 
L 83.799844 221.669753 
L 84.017812 195.47183 
L 84.45375 176.360337 
L 84.889687 166.428385 
L 85.543594 157.187743 
L 86.1975 151.168429 
L 86.851406 146.983276 
L 87.505312 144.055677 
L 88.159219 142.101871 
L 88.595156 141.264253 
L 89.031094 140.769747 
L 89.467031 140.607269 
L 89.902969 140.776113 
L 90.338906 141.285858 
L 90.774844 142.157587 
L 91.210781 143.42677 
L 91.864687 146.20448 
L 92.518594 150.340362 
L 93.1725 156.528882 
L 93.608437 162.567208 
L 94.044375 171.561714 
L 94.480312 188.084198 
L 94.91625 228.645887 
L 95.134219 194.65052 
L 95.570156 173.924185 
L 96.006094 163.57345 
L 96.66 154.069506 
L 97.313906 147.918906 
L 97.967812 143.654379 
L 98.621719 140.674948 
L 99.275625 138.687304 
L 99.711563 137.835029 
L 100.1475 137.331583 
L 100.583437 137.165826 
L 101.019375 137.337355 
L 101.455312 137.856451 
L 101.89125 138.745413 
L 102.327187 140.041671 
L 102.981094 142.885896 
L 103.635 147.139603 
L 104.288906 153.553311 
L 104.724844 159.883643 
L 105.160781 169.501796 
L 105.37875 176.849011 
L 105.596719 188.231896 
L 105.814687 213.912597 
L 106.032656 209.001892 
L 106.250625 186.403215 
L 106.686562 168.295383 
L 107.1225 158.632185 
L 107.776406 149.559398 
L 108.430312 143.630053 
L 109.084219 139.513608 
L 109.738125 136.652832 
L 110.392031 134.774068 
L 110.827969 133.994897 
L 111.263906 133.568314 
L 111.699844 133.486004 
L 112.135781 133.750757 
L 112.571719 134.376824 
L 113.007656 135.391839 
L 113.661562 137.748858 
L 114.315469 141.36166 
L 114.969375 146.785976 
L 115.405312 151.992425 
L 115.84125 159.44637 
L 116.277187 171.669745 
L 116.495156 182.309877 
L 116.713125 204.351585 
L 116.931094 210.524263 
L 117.149062 184.127821 
L 117.585 164.941779 
L 118.020937 154.975677 
L 118.674844 145.708831 
L 119.32875 139.685956 
L 119.982656 135.519774 
L 120.636562 132.636188 
L 121.290469 130.755845 
L 121.726406 129.986809 
L 122.162344 129.5798 
L 122.598281 129.527587 
L 123.034219 129.834746 
L 123.470156 130.518266 
L 123.906094 131.609946 
L 124.342031 133.161339 
L 124.995937 136.538822 
L 125.649844 141.651471 
L 126.085781 146.548428 
L 126.521719 153.483494 
L 126.957656 164.508457 
L 127.175625 173.552669 
L 127.393594 189.622093 
L 127.611562 240.727908 
L 127.829531 185.583947 
L 128.265469 162.687736 
L 128.701406 151.819266 
L 129.355312 142.000881 
L 130.009219 135.712272 
L 130.663125 131.393268 
L 131.317031 128.418226 
L 131.970937 126.488345 
L 132.406875 125.705735 
L 132.842812 125.300064 
L 133.27875 125.26476 
L 133.714687 125.606162 
L 134.150625 126.344406 
L 134.586562 127.516416 
L 135.0225 129.182033 
L 135.676406 132.827278 
L 136.330312 138.421894 
L 136.76625 143.897764 
L 137.202188 151.929423 
L 137.638125 165.796583 
L 137.856094 179.121773 
L 138.074062 220.712028 
L 138.51 169.193914 
L 138.945937 152.969333 
L 139.381875 143.864808 
L 140.035781 135.173799 
L 140.689687 129.482563 
L 141.343594 125.579388 
L 141.9975 122.951849 
L 142.651406 121.354063 
L 143.087344 120.801603 
L 143.523281 120.643885 
L 143.959219 120.8845 
L 144.395156 121.542355 
L 144.831094 122.654607 
L 145.267031 124.283084 
L 145.920938 127.926252 
L 146.574844 133.621928 
L 147.010781 139.281386 
L 147.446719 147.733549 
L 147.882656 162.925328 
L 148.100625 178.867932 
L 148.318594 232.133147 
L 148.536563 175.119295 
L 148.9725 152.091615 
L 149.408437 141.189814 
L 150.062344 131.379707 
L 150.71625 125.157112 
L 151.370156 120.96559 
L 152.024062 118.190037 
L 152.677969 116.549037 
L 153.113906 116.021767 
L 153.549844 115.935256 
L 153.985781 116.300037 
L 154.421719 117.14731 
L 154.857656 118.534687 
L 155.293594 120.558361 
L 155.729531 123.378041 
L 156.165469 127.271591 
L 156.601406 132.772093 
L 157.037344 141.099603 
L 157.473281 156.268257 
L 157.69125 172.422463 
L 157.909219 219.640264 
L 158.127187 167.53647 
L 158.563125 144.672056 
L 158.999062 133.711954 
L 159.652969 123.769924 
L 160.306875 117.407504 
L 160.960781 113.072688 
L 161.614688 110.141963 
L 162.268594 108.316489 
L 162.704531 107.635799 
L 163.140469 107.35593 
L 163.576406 107.466768 
L 164.012344 107.968062 
L 164.448281 108.867969 
L 165.102187 111.000552 
L 165.756094 114.139383 
L 166.41 118.355445 
L 167.281875 125.557674 
L 168.371719 134.503556 
L 168.589687 135.449782 
L 168.807656 135.807255 
L 169.025625 135.471992 
L 169.243594 134.402233 
L 169.679531 130.256881 
L 170.333438 120.879642 
L 172.077187 94.749459 
L 173.167031 82.094502 
L 174.038906 74.222625 
L 174.910781 68.252747 
L 175.782656 63.984779 
L 176.436562 61.706982 
L 177.090469 60.042776 
L 177.744375 58.840916 
L 178.61625 57.744138 
L 179.488125 57.029904 
L 180.577969 56.464585 
L 181.885781 56.063322 
L 183.629531 55.778467 
L 186.245156 55.608427 
L 191.476406 55.554184 
L 274.740469 55.551846 
L 287.164688 55.655216 
L 289.562344 55.894684 
L 291.088125 56.234863 
L 292.177969 56.655728 
L 293.049844 57.178401 
L 293.921719 57.970811 
L 294.575625 58.834621 
L 295.229531 60.034154 
L 295.883438 61.695246 
L 296.537344 63.969032 
L 297.19125 67.016459 
L 297.845156 70.982847 
L 298.717031 77.878442 
L 299.588906 86.731065 
L 300.67875 100.641156 
L 303.076406 134.330853 
L 303.294375 135.409833 
L 303.512344 135.755996 
L 303.730312 135.409933 
L 304.16625 133.086766 
L 305.038125 125.559382 
L 306.127969 116.834568 
L 306.999844 111.935638 
L 307.65375 109.47443 
L 308.307656 107.968039 
L 308.743594 107.464983 
L 309.179531 107.352298 
L 309.615469 107.630211 
L 310.051406 108.308791 
L 310.487344 109.410231 
L 311.14125 111.944614 
L 311.795156 115.758529 
L 312.449062 121.33255 
L 313.102969 129.773657 
L 313.538906 138.439209 
L 313.974844 153.156501 
L 314.192813 167.304609 
L 314.410781 217.299551 
L 314.62875 172.703148 
L 315.064687 147.359874 
L 315.500625 136.497213 
L 316.154531 127.297042 
L 316.808438 121.870393 
L 317.462344 118.543584 
L 317.898281 117.152915 
L 318.334219 116.302785 
L 318.770156 115.935404 
L 319.206094 116.019442 
L 319.642031 116.544257 
L 320.077969 117.518077 
L 320.513906 118.96943 
L 321.167813 122.16971 
L 321.821719 126.937076 
L 322.475625 134.08573 
L 322.911563 141.142944 
L 323.3475 152.013823 
L 323.565469 160.596812 
L 323.783437 174.899589 
L 324.001406 229.366639 
L 324.219375 179.123738 
L 324.655313 154.024158 
L 325.09125 143.072173 
L 325.745156 133.646391 
L 326.399063 127.941313 
L 327.052969 124.292221 
L 327.706875 122.043276 
L 328.142812 121.161752 
L 328.57875 120.713666 
L 329.014688 120.671438 
L 329.450625 121.023938 
L 329.886563 121.774828 
L 330.3225 122.943132 
L 330.976406 125.566655 
L 331.630313 129.464596 
L 332.284219 135.147982 
L 332.720156 140.463012 
L 333.156094 147.871112 
L 333.592031 159.51662 
L 333.81 169.064796 
L 334.027969 186.349614 
L 334.245938 222.083628 
L 334.463906 179.317782 
L 334.899844 157.773107 
L 335.335781 147.521575 
L 335.989688 138.444932 
L 336.643594 132.841572 
L 337.2975 129.190763 
L 337.951406 126.877709 
L 338.387344 125.92613 
L 338.823281 125.387662 
L 339.259219 125.234222 
L 339.695156 125.452727 
L 340.131094 126.043224 
L 340.567031 127.018906 
L 341.220937 129.271661 
L 341.874844 132.646307 
L 342.52875 137.520218 
L 343.182656 144.716207 
L 343.618594 151.772957 
L 344.054531 162.611578 
L 344.2725 171.156557 
L 344.490469 185.371145 
L 344.708438 238.255038 
L 344.926406 189.872504 
L 345.362344 164.583779 
L 345.798281 153.525928 
L 346.452188 143.931688 
L 347.106094 138.027382 
L 347.76 134.142107 
L 348.413906 131.614872 
L 349.067813 130.129473 
L 349.50375 129.63512 
L 349.939687 129.507071 
L 350.375625 129.734654 
L 350.811563 130.319114 
L 351.2475 131.273784 
L 351.901406 133.46442 
L 352.555313 136.730484 
L 353.209219 141.422852 
L 353.863125 148.290403 
L 354.299062 154.932346 
L 354.735 164.873389 
L 354.952969 172.391489 
L 355.170938 183.966248 
L 355.388906 209.996349 
L 355.606875 204.751227 
L 355.824844 182.451894 
L 356.260781 164.709331 
L 356.696719 155.382283 
L 357.350625 146.806825 
L 358.004531 141.374614 
L 358.658437 137.756707 
L 359.312344 135.395889 
L 359.96625 134.01817 
L 360.402188 133.573425 
L 360.838125 133.48143 
L 361.274063 133.733742 
L 361.71 134.333021 
L 362.145938 135.293386 
L 362.799844 137.475746 
L 363.45375 140.711111 
L 364.107656 145.342139 
L 364.761563 152.093318 
L 365.1975 158.589783 
L 365.633438 168.229486 
L 366.069375 186.255156 
L 366.287344 208.594374 
L 366.505313 214.424127 
L 366.723281 188.385444 
L 367.159219 169.563274 
L 367.595156 159.920307 
L 368.249063 151.1182 
L 368.902969 145.544264 
L 369.556875 141.811507 
L 370.210781 139.343598 
L 370.864688 137.857391 
L 371.300625 137.33644 
L 371.736562 137.163139 
L 372.1725 137.327151 
L 372.608437 137.828822 
L 373.044375 138.679237 
L 373.698281 140.66377 
L 374.352188 143.639383 
L 375.006094 147.898706 
L 375.66 154.041109 
L 376.095937 159.823504 
L 376.531875 168.06198 
L 376.967813 181.8078 
L 377.185781 194.470367 
L 377.40375 227.820685 
L 377.839687 188.21071 
L 378.275625 171.61752 
L 378.711563 162.601288 
L 379.365469 154.186151 
L 380.019375 148.791409 
L 380.673281 145.15589 
L 381.327188 142.743116 
L 381.981094 141.286373 
L 382.417031 140.774819 
L 382.852969 140.604243 
L 383.288906 140.765012 
L 383.724844 141.257781 
L 384.160781 142.093576 
L 384.814687 144.044337 
L 385.468594 146.968205 
L 386.1225 151.148297 
L 386.776406 157.159702 
L 387.212344 162.792859 
L 387.648281 170.755917 
L 388.084219 183.783616 
L 388.302188 195.312292 
L 388.520156 221.154732 
L 388.738125 216.320708 
L 388.956094 193.881279 
L 389.392031 176.053568 
L 389.827969 166.661672 
L 390.481875 157.985225 
L 391.135781 152.439316 
L 391.789688 148.691742 
L 392.443594 146.182699 
L 393.0975 144.634872 
L 393.533437 144.062261 
L 393.969375 143.828565 
L 394.405313 143.922641 
L 394.84125 144.343458 
L 395.277188 145.099968 
L 395.931094 146.911725 
L 396.585 149.658583 
L 397.238906 153.594031 
L 397.892812 159.223454 
L 398.32875 164.43505 
L 398.764688 171.644639 
L 399.200625 182.846692 
L 399.418594 191.860161 
L 399.636563 207.491961 
L 399.854531 276.556129 
L 400.0725 205.906382 
L 400.508438 182.641032 
L 400.944375 171.908305 
L 401.598281 162.394832 
L 402.252187 156.418291 
L 402.906094 152.386551 
L 403.56 149.659306 
L 404.213906 147.925082 
L 404.649844 147.236561 
L 405.085781 146.889145 
L 405.521719 146.868468 
L 405.957656 147.170355 
L 406.393594 147.800307 
L 406.829531 148.774187 
L 407.483438 150.946052 
L 408.137344 154.131758 
L 408.79125 158.6629 
L 409.445156 165.229661 
L 409.881094 171.50397 
L 410.317031 180.704034 
L 410.752969 197.309198 
L 411.188906 240.56357 
L 411.406875 205.008863 
L 411.842813 184.256005 
L 412.27875 174.079819 
L 412.932656 164.887719 
L 413.586563 159.057734 
L 414.240469 155.108042 
L 414.894375 152.431478 
L 414.894375 152.431478 
" clip-path="url(#pdc314d063b)" style="fill: none; stroke: #ff7f0e; stroke-width: 2; stroke-linecap: square"/>
   </g>
   <g id="line2d_33">
    <path d="M 57.425625 262.392176 
L 57.861562 246.277794 
L 58.2975 237.194388 
L 58.951406 228.462113 
L 59.605312 222.657629 
L 60.259219 218.56727 
L 60.913125 215.669028 
L 61.567031 213.700843 
L 62.220937 212.524987 
L 62.656875 212.146764 
L 63.092812 212.084453 
L 63.52875 212.341172 
L 63.964687 212.929699 
L 64.400625 213.874061 
L 65.054531 216.047423 
L 65.708437 219.340476 
L 66.362344 224.19808 
L 66.798281 228.747431 
L 67.234219 235.021646 
L 67.670156 244.509828 
L 67.888125 251.714275 
L 68.106094 262.766798 
L 68.324062 286.745784 
L 68.542031 286.526565 
L 68.76 262.463932 
L 69.195938 243.887694 
L 69.631875 234.061947 
L 70.285781 224.834614 
L 70.939687 218.768458 
L 71.593594 214.506563 
L 72.2475 211.480724 
L 72.901406 209.409229 
L 73.555312 208.144315 
L 73.99125 207.711593 
L 74.427187 207.597131 
L 74.863125 207.802918 
L 75.299062 208.340626 
L 75.735 209.233063 
L 76.388906 211.322994 
L 77.042812 214.518425 
L 77.696719 219.247091 
L 78.350625 226.450326 
L 78.786563 233.77884 
L 79.2225 245.668917 
L 79.440469 255.834712 
L 79.876406 290.405062 
L 80.094375 260.265695 
L 80.530312 240.199851 
L 80.96625 229.969526 
L 81.620156 220.478979 
L 82.274062 214.274117 
L 82.927969 209.921251 
L 83.581875 206.828343 
L 84.235781 204.703939 
L 84.889687 203.395658 
L 85.325625 202.938116 
L 85.761562 202.801649 
L 86.1975 202.988059 
L 86.633437 203.508986 
L 87.069375 204.387373 
L 87.505312 205.660572 
L 88.159219 208.444368 
L 88.813125 212.597302 
L 89.467031 218.840889 
L 89.902969 224.975125 
L 90.338906 234.211602 
L 90.556875 241.164647 
L 90.774844 251.664283 
L 90.992812 273.124846 
L 91.210781 281.413251 
L 91.42875 254.123537 
L 91.864687 234.676154 
L 92.300625 224.597069 
L 92.954531 215.191665 
L 93.608437 209.023632 
L 94.262344 204.691774 
L 94.91625 201.614561 
L 95.570156 199.505442 
L 96.224062 198.215189 
L 96.66 197.772566 
L 97.095937 197.654387 
L 97.531875 197.86356 
L 97.967812 198.413167 
L 98.40375 199.328131 
L 98.839687 200.648683 
L 99.493594 203.534065 
L 100.1475 207.852801 
L 100.801406 214.402985 
L 101.237344 220.934312 
L 101.673281 231.03729 
L 101.89125 238.965466 
L 102.109219 251.836953 
L 102.327187 288.427817 
L 102.763125 243.553336 
L 103.199062 226.935548 
L 103.635 217.660552 
L 104.288906 208.766802 
L 104.942813 202.856388 
L 105.596719 198.688986 
L 106.250625 195.735208 
L 106.904531 193.731566 
L 107.558437 192.541916 
L 107.994375 192.16845 
L 108.430312 192.124246 
L 108.86625 192.415206 
L 109.302188 193.058082 
L 109.738125 194.082696 
L 110.392031 196.44536 
L 111.045937 200.061673 
L 111.699844 205.504777 
L 112.135781 210.753645 
L 112.571719 218.321172 
L 113.007656 230.914008 
L 113.225625 242.159261 
L 113.443594 267.285658 
L 113.661562 263.681945 
L 113.879531 240.64228 
L 114.315469 222.318311 
L 114.751406 212.523732 
L 115.405312 203.277513 
L 116.059219 197.177867 
L 116.713125 192.886779 
L 117.367031 189.843858 
L 118.020937 187.773024 
L 118.674844 186.53247 
L 119.110781 186.132872 
L 119.546719 186.068544 
L 119.982656 186.345602 
L 120.418594 186.981419 
L 120.854531 188.00696 
L 121.290469 189.471401 
L 121.944375 192.668057 
L 122.598281 197.503596 
L 123.034219 202.112993 
L 123.470156 208.574919 
L 123.906094 218.592593 
L 124.124062 226.454934 
L 124.342031 239.191431 
L 124.56 274.693895 
L 124.995937 231.286261 
L 125.431875 214.542315 
L 125.867812 205.212846 
L 126.521719 196.273582 
L 127.175625 190.342455 
L 127.829531 186.175975 
L 128.483437 183.246623 
L 129.137344 181.295489 
L 129.573281 180.471113 
L 130.009219 180.005125 
L 130.445156 179.892448 
L 130.881094 180.13987 
L 131.317031 180.76698 
L 131.752969 181.809008 
L 132.188906 183.322528 
L 132.842812 186.684264 
L 133.496719 191.886285 
L 133.932656 196.97899 
L 134.368594 204.390195 
L 134.804531 216.814646 
L 135.0225 227.950884 
L 135.240469 252.802925 
L 135.458438 249.690704 
L 135.676406 226.412237 
L 136.112344 207.900213 
L 136.548281 197.955371 
L 137.202188 188.49555 
L 137.856094 182.182954 
L 138.51 177.672398 
L 139.163906 174.396814 
L 139.817813 172.071688 
L 140.471719 170.543354 
L 140.907656 169.924915 
L 141.343594 169.611774 
L 141.779531 169.599853 
L 142.215469 169.892216 
L 142.651406 170.499195 
L 143.087344 171.439256 
L 143.74125 173.539385 
L 144.395156 176.612169 
L 145.049062 180.93292 
L 145.702969 187.022082 
L 146.356875 196.030967 
L 146.792812 205.127432 
L 147.22875 220.320049 
L 147.446719 234.679947 
L 147.664687 283.468632 
L 147.882656 241.184785 
L 148.318594 216.538026 
L 148.754531 206.730646 
L 149.190469 201.421078 
L 149.626406 198.64925 
L 149.844375 198.01151 
L 150.062344 197.844356 
L 150.280312 198.163988 
L 150.498281 199.019593 
L 150.71625 200.505471 
L 151.152187 206.172377 
L 151.370156 211.262378 
L 151.588125 219.523967 
L 152.024062 260.148463 
L 152.242031 222.865999 
L 152.677969 199.294148 
L 153.331875 181.515669 
L 153.985781 169.888224 
L 154.857656 158.480783 
L 155.729531 149.656015 
L 156.819375 140.838041 
L 157.909219 133.667924 
L 159.217031 126.562735 
L 160.524844 120.599939 
L 162.268594 113.777437 
L 169.243594 87.918163 
L 173.167031 72.280255 
L 174.692813 67.262038 
L 175.782656 64.325529 
L 176.8725 61.968494 
L 177.962344 60.157317 
L 179.052188 58.814429 
L 180.142031 57.844427 
L 181.231875 57.155493 
L 182.539687 56.592808 
L 184.065469 56.17848 
L 186.027187 55.875673 
L 188.860781 55.673573 
L 193.874062 55.571786 
L 212.401406 55.551827 
L 283.023281 55.656113 
L 286.510781 55.900097 
L 288.690469 56.275661 
L 290.21625 56.752931 
L 291.524063 57.400302 
L 292.613906 58.190466 
L 293.70375 59.296699 
L 294.575625 60.473154 
L 295.4475 61.960895 
L 296.537344 64.315729 
L 297.627187 67.249931 
L 298.935 71.491341 
L 300.67875 78.082272 
L 306.781875 102.185732 
L 311.577188 119.668842 
L 312.885 125.479185 
L 314.192813 132.359897 
L 315.282656 139.263099 
L 316.3725 147.69192 
L 317.244375 156.040512 
L 318.11625 166.647047 
L 318.770156 177.130852 
L 319.424062 192.081957 
L 319.86 208.375633 
L 320.077969 222.430896 
L 320.295938 258.007025 
L 320.731875 219.829212 
L 321.167813 206.312989 
L 321.60375 200.596362 
L 322.039688 198.231222 
L 322.257656 197.904017 
L 322.475625 198.065326 
L 322.693594 198.698524 
L 323.129531 201.464286 
L 323.565469 206.771539 
L 324.001406 216.58298 
L 324.219375 225.215381 
L 324.437344 241.274115 
L 324.655313 283.004868 
L 324.873281 234.64362 
L 325.309219 211.506059 
L 325.745156 200.128226 
L 326.399063 189.611458 
L 327.052969 182.730916 
L 327.706875 177.896352 
L 328.360781 174.445421 
L 329.014688 172.041709 
L 329.668594 170.497091 
L 330.104531 169.889269 
L 330.540469 169.596031 
L 330.976406 169.607031 
L 331.412344 169.919195 
L 331.848281 170.536579 
L 332.284219 171.470952 
L 332.938125 173.515727 
L 333.592031 176.448608 
L 334.245938 180.499974 
L 334.899844 186.113503 
L 335.55375 194.267407 
L 335.989688 202.32433 
L 336.425625 215.212321 
L 336.643594 226.288744 
L 336.861562 249.343462 
L 337.079531 253.198768 
L 337.2975 228.073311 
L 337.733438 209.6863 
L 338.169375 200.326636 
L 338.823281 191.902733 
L 339.477188 186.694314 
L 340.131094 183.328501 
L 340.785 181.236164 
L 341.220937 180.405487 
L 341.656875 179.970038 
L 342.092813 179.902847 
L 342.52875 180.190897 
L 342.964688 180.833299 
L 343.400625 181.841173 
L 344.054531 184.096767 
L 344.708438 187.397727 
L 345.362344 192.069041 
L 346.01625 198.795284 
L 346.452188 205.183232 
L 346.888125 214.49726 
L 347.324063 231.191719 
L 347.76 275.365747 
L 347.977969 239.319151 
L 348.413906 218.63916 
L 348.849844 208.601935 
L 349.50375 199.646348 
L 350.157656 194.072536 
L 350.811563 190.395853 
L 351.465469 188.009513 
L 352.119375 186.617387 
L 352.555313 186.162545 
L 352.99125 186.05633 
L 353.427188 186.28714 
L 353.863125 186.854072 
L 354.299062 187.766818 
L 354.952969 189.835436 
L 355.606875 192.875656 
L 356.260781 197.163105 
L 356.914688 203.257108 
L 357.350625 208.911592 
L 357.786563 216.824547 
L 358.2225 229.555919 
L 358.440469 240.533885 
L 358.658437 263.379142 
L 358.876406 267.639147 
L 359.094375 242.267618 
L 359.530313 223.692401 
L 359.96625 214.175507 
L 360.620156 205.519058 
L 361.274063 200.070234 
L 361.927969 196.450259 
L 362.581875 194.084896 
L 363.235781 192.691135 
L 363.671719 192.225739 
L 364.107656 192.102492 
L 364.543594 192.3102 
L 364.979531 192.847994 
L 365.415469 193.725223 
L 366.069375 195.726713 
L 366.723281 198.677883 
L 367.377187 202.841792 
L 368.031094 208.746853 
L 368.467031 214.198212 
L 368.902969 221.756201 
L 369.338906 233.641889 
L 369.556875 243.459433 
L 369.774844 261.631392 
L 369.992813 289.136742 
L 370.210781 251.964718 
L 370.646719 231.083152 
L 371.082656 220.960641 
L 371.736562 211.9023 
L 372.390469 206.226804 
L 373.044375 202.441575 
L 373.698281 199.936572 
L 374.352188 198.413097 
L 374.788125 197.862189 
L 375.224063 197.651783 
L 375.66 197.768759 
L 376.095937 198.210173 
L 376.531875 198.982897 
L 377.185781 200.805034 
L 377.839687 203.533884 
L 378.493594 207.399451 
L 379.1475 212.854474 
L 379.801406 220.912466 
L 380.237344 229.004872 
L 380.673281 242.239766 
L 380.89125 254.006493 
L 381.109219 281.018367 
L 381.327188 273.39181 
L 381.545156 251.760875 
L 381.981094 234.251751 
L 382.417031 224.998919 
L 383.070938 216.465976 
L 383.724844 211.035925 
L 384.37875 207.390262 
L 385.032656 204.973161 
L 385.686563 203.508433 
L 386.1225 202.986237 
L 386.558438 202.798621 
L 386.994375 202.933907 
L 387.430313 203.390257 
L 387.86625 204.175458 
L 388.520156 206.013497 
L 389.174062 208.7575 
L 389.827969 212.64155 
L 390.481875 218.126235 
L 391.135781 226.246246 
L 391.571719 234.43405 
L 392.007656 247.938421 
L 392.225625 260.143358 
L 392.443594 289.936603 
L 393.315469 238.900739 
L 393.751406 229.777126 
L 394.405313 221.311784 
L 395.059219 215.900672 
L 395.713125 212.253843 
L 396.367031 209.824432 
L 397.020938 208.339776 
L 397.456875 207.800816 
L 397.892812 207.593838 
L 398.32875 207.707134 
L 398.764688 208.138681 
L 399.200625 208.8959 
L 399.854531 210.684612 
L 400.508438 213.36705 
L 401.162344 217.169808 
L 401.81625 222.536224 
L 402.470156 230.451352 
L 402.906094 238.368968 
L 403.342031 251.189752 
L 403.56 262.354599 
L 403.777969 286.208543 
L 403.995938 287.061788 
L 404.213906 262.868318 
L 404.649844 244.550246 
L 405.085781 235.045151 
L 405.739688 226.319023 
L 406.393594 220.760801 
L 407.0475 217.008529 
L 407.701406 214.492109 
L 408.355313 212.92869 
L 408.79125 212.338914 
L 409.227188 212.081012 
L 409.663125 212.142168 
L 410.099063 212.519231 
L 410.535 213.218333 
L 411.188906 214.909376 
L 411.842813 217.473915 
L 412.496719 221.12314 
L 413.150625 226.26655 
L 413.804531 233.795233 
L 414.240469 241.209154 
L 414.676406 252.813956 
L 414.894375 262.302278 
L 414.894375 262.302278 
" clip-path="url(#pdc314d063b)" style="fill: none; stroke: #2ca02c; stroke-width: 2; stroke-linecap: square"/>
   </g>
   <g id="line2d_34">
    <path d="M 57.425625 291.810411 
L 57.643594 268.977646 
L 58.079531 250.869403 
L 58.515469 241.26033 
L 59.169375 232.272589 
L 59.823281 226.413232 
L 60.477187 222.344134 
L 61.131094 219.502707 
L 61.785 217.609168 
L 62.438906 216.516157 
L 62.874844 216.194441 
L 63.310781 216.187695 
L 63.746719 216.49732 
L 64.182656 217.134119 
L 64.618594 218.119618 
L 65.2725 220.333366 
L 65.926406 223.622663 
L 66.580312 228.388891 
L 67.234219 235.500528 
L 67.670156 242.577801 
L 68.106094 253.685028 
L 68.324062 262.704363 
L 68.542031 278.530287 
L 68.76 337.146993 
L 68.977969 275.736792 
L 69.413906 252.619969 
L 69.849844 241.77728 
L 70.50375 232.03137 
L 71.157656 225.795807 
L 71.811562 221.491642 
L 72.465469 218.482192 
L 73.119375 216.456954 
L 73.773281 215.253141 
L 74.209219 214.864537 
L 74.645156 214.794149 
L 75.081094 215.041684 
L 75.517031 215.6163 
L 75.952969 216.537725 
L 76.606875 218.646778 
L 77.260781 221.810337 
L 77.914687 226.406131 
L 78.568594 233.240609 
L 79.004531 239.977477 
L 79.440469 250.332804 
L 79.658437 258.446639 
L 79.876406 271.676299 
L 80.094375 311.22337 
L 80.530312 262.592983 
L 80.96625 246.349928 
L 81.402187 237.293694 
L 82.056094 228.663764 
L 82.71 222.986664 
L 83.363906 219.034489 
L 84.017812 216.28052 
L 84.671719 214.460627 
L 85.107656 213.694421 
L 85.543594 213.258093 
L 85.979531 213.14042 
L 86.415469 213.339694 
L 86.851406 213.863512 
L 87.287344 214.729685 
L 87.94125 216.741604 
L 88.595156 219.777481 
L 89.249062 224.184622 
L 89.902969 230.690221 
L 90.338906 237.010892 
L 90.774844 246.462166 
L 90.992812 253.553849 
L 91.210781 264.265479 
L 91.42875 286.38882 
L 91.646719 292.554454 
L 91.864687 266.250839 
L 92.300625 247.187775 
L 92.736562 237.330658 
L 93.390469 228.209114 
L 94.044375 222.310357 
L 94.698281 218.246086 
L 95.352187 215.440135 
L 96.006094 213.609867 
L 96.442031 212.856508 
L 96.877969 212.448617 
L 97.313906 212.376105 
L 97.749844 212.639626 
L 98.185781 213.250675 
L 98.621719 214.233114 
L 99.275625 216.49568 
L 99.929531 219.928429 
L 100.583437 225.01119 
L 101.019375 229.803998 
L 101.455312 236.490698 
L 101.89125 246.862717 
L 102.109219 255.066869 
L 102.327187 268.627852 
L 102.545156 312.963634 
L 102.763125 275.114137 
L 103.199062 248.539407 
L 103.635 236.928827 
L 104.288906 226.627487 
L 104.942813 220.020289 
L 105.596719 215.397559 
L 106.250625 212.079482 
L 106.904531 209.732406 
L 107.558437 208.174836 
L 107.994375 207.522762 
L 108.430312 207.158303 
L 108.86625 207.071747 
L 109.302188 207.25986 
L 109.738125 207.725504 
L 110.174062 208.477832 
L 110.827969 210.181697 
L 111.481875 212.663459 
L 112.135781 216.087901 
L 112.789687 220.748074 
L 113.443594 227.213103 
L 114.0975 236.804407 
L 114.533438 246.752798 
L 114.969375 264.785769 
L 115.405312 297.663796 
L 115.623281 269.52211 
L 116.059219 250.745494 
L 116.495156 241.644158 
L 116.931094 236.021418 
L 117.367031 232.313918 
L 117.802969 229.906746 
L 118.238906 228.519752 
L 118.456875 228.167434 
L 118.674844 228.034603 
L 118.892812 228.122762 
L 119.110781 228.439468 
L 119.546719 229.82439 
L 119.982656 232.422594 
L 120.418594 236.744859 
L 120.854531 244.029244 
L 121.0725 249.778584 
L 121.290469 258.514834 
L 121.508437 275.1661 
L 121.726406 307.487966 
L 121.944375 265.663235 
L 122.380313 242.603911 
L 122.81625 230.690015 
L 123.470156 219.060093 
L 124.342031 208.546282 
L 125.213906 200.908608 
L 126.085781 194.987016 
L 127.175625 189.201473 
L 128.265469 184.700216 
L 129.355312 181.147945 
L 130.445156 178.312539 
L 131.752969 175.596453 
L 133.27875 173.011375 
L 136.330312 168.03766 
L 137.638125 165.387583 
L 138.945937 162.227808 
L 140.471719 157.916065 
L 142.651406 150.940126 
L 148.318594 132.386624 
L 151.152187 124.029181 
L 155.075625 113.24073 
L 166.845937 81.80056 
L 169.461562 75.524912 
L 171.64125 70.840342 
L 173.602969 67.163485 
L 175.346719 64.38535 
L 176.8725 62.35322 
L 178.398281 60.687915 
L 179.924062 59.363903 
L 181.449844 58.340403 
L 182.975625 57.568422 
L 184.719375 56.930048 
L 186.681094 56.442665 
L 189.07875 56.07167 
L 192.348281 55.801397 
L 197.361562 55.634451 
L 207.824062 55.561443 
L 266.675625 55.566505 
L 277.792031 55.705466 
L 282.151406 55.958366 
L 284.985 56.32063 
L 287.164688 56.80244 
L 289.126406 57.474218 
L 290.652188 58.213827 
L 292.177969 59.197558 
L 293.70375 60.474965 
L 295.229531 62.088482 
L 296.755313 64.066222 
L 298.281094 66.416997 
L 300.024844 69.544971 
L 301.986562 73.572992 
L 304.16625 78.575725 
L 306.999844 85.688647 
L 311.359219 97.338643 
L 322.475625 127.787646 
L 325.309219 136.463969 
L 328.57875 147.265027 
L 331.848281 157.894434 
L 333.592031 162.769354 
L 334.899844 165.842441 
L 336.207656 168.415749 
L 337.951406 171.297977 
L 340.349063 175.180469 
L 341.656875 177.797361 
L 342.746719 180.51203 
L 343.836563 183.903319 
L 344.926406 188.190566 
L 345.798281 192.466764 
L 346.670156 197.748183 
L 347.542031 204.430525 
L 348.413906 213.278976 
L 349.067813 222.370225 
L 349.50375 230.610324 
L 349.939687 242.477323 
L 350.157656 251.350151 
L 350.375625 265.331759 
L 350.593594 305.431457 
L 351.029531 258.725171 
L 351.465469 244.126969 
L 351.901406 236.807593 
L 352.337344 232.468351 
L 352.773281 229.860192 
L 353.209219 228.468804 
L 353.427188 228.149677 
L 353.645156 228.059491 
L 353.863125 228.19062 
L 354.081094 228.541509 
L 354.517031 229.926343 
L 354.952969 232.3322 
L 355.388906 236.039313 
L 355.824844 241.663088 
L 356.260781 250.768811 
L 356.47875 258.000345 
L 356.696719 269.566798 
L 356.914688 297.810271 
L 357.132656 285.883891 
L 357.568594 254.021404 
L 358.004531 241.229335 
L 358.658437 229.950327 
L 359.312344 222.657491 
L 359.96625 217.480558 
L 360.620156 213.685692 
L 361.274063 210.912281 
L 361.927969 208.961844 
L 362.581875 207.72048 
L 363.017812 207.254385 
L 363.45375 207.065779 
L 363.889688 207.151794 
L 364.325625 207.515653 
L 364.761563 208.167056 
L 365.415469 209.723441 
L 366.069375 212.069014 
L 366.723281 215.385065 
L 367.377187 220.004817 
L 368.031094 226.606991 
L 368.467031 232.852253 
L 368.902969 241.917606 
L 369.338906 257.950284 
L 369.556875 274.952864 
L 369.774844 313.861863 
L 369.992813 268.740012 
L 370.42875 246.900578 
L 370.864688 236.511806 
L 371.518594 227.238704 
L 372.1725 221.410554 
L 372.826406 217.496395 
L 373.480313 214.876502 
L 374.134219 213.250273 
L 374.570156 212.638249 
L 375.006094 212.373815 
L 375.442031 212.445447 
L 375.877969 212.852461 
L 376.313906 213.604917 
L 376.749844 214.724938 
L 377.40375 217.181229 
L 378.057656 220.779561 
L 378.711563 225.968394 
L 379.365469 233.753128 
L 379.801406 241.647396 
L 380.237344 254.629882 
L 380.455312 266.17699 
L 380.673281 292.317141 
L 380.89125 286.563311 
L 381.109219 264.326303 
L 381.545156 246.48655 
L 381.981094 237.024807 
L 382.635 228.22043 
L 383.288906 222.533929 
L 383.942813 218.63644 
L 384.596719 215.968173 
L 385.250625 214.250496 
L 385.686563 213.557607 
L 386.1225 213.196823 
L 386.558438 213.155607 
L 386.994375 213.431034 
L 387.430313 214.029453 
L 387.86625 214.967251 
L 388.520156 217.076944 
L 389.174062 220.1903 
L 389.827969 224.636017 
L 390.481875 231.095196 
L 390.917813 237.271777 
L 391.35375 246.317933 
L 391.789688 262.529203 
L 392.007656 280.133472 
L 392.225625 311.778667 
L 392.443594 271.762984 
L 392.879531 250.362309 
L 393.315469 239.993636 
L 393.969375 230.637045 
L 394.623281 224.683127 
L 395.277188 220.62228 
L 395.931094 217.838663 
L 396.585 216.030321 
L 397.020938 215.284647 
L 397.456875 214.874524 
L 397.892812 214.785704 
L 398.32875 215.013797 
L 398.764688 215.56374 
L 399.200625 216.4504 
L 399.854531 218.474184 
L 400.508438 221.481826 
L 401.162344 225.783493 
L 401.81625 232.015059 
L 402.252187 237.930332 
L 402.688125 246.471439 
L 403.124062 261.177532 
L 403.342031 275.633043 
L 403.56 335.590395 
L 403.777969 278.639413 
L 404.213906 253.716555 
L 404.649844 242.594402 
L 405.30375 232.785099 
L 405.957656 226.60148 
L 406.611562 222.389085 
L 407.265469 219.488516 
L 407.919375 217.579603 
L 408.355313 216.771048 
L 408.79125 216.299007 
L 409.227188 216.147536 
L 409.663125 216.310599 
L 410.099063 216.791344 
L 410.535 217.602478 
L 411.188906 219.494613 
L 411.842813 222.334313 
L 412.496719 226.401067 
L 413.150625 232.256772 
L 413.586563 237.743321 
L 414.0225 245.480944 
L 414.458438 258.027334 
L 414.676406 268.904674 
L 414.894375 291.61179 
L 414.894375 291.61179 
" clip-path="url(#pdc314d063b)" style="fill: none; stroke: #d62728; stroke-width: 2; stroke-linecap: square"/>
   </g>
   <g id="patch_3">
    <path d="M 57.6 307.584 
L 57.6 41.472 
" style="fill: none; stroke: #000000; stroke-width: 0.8; stroke-linejoin: miter; stroke-linecap: square"/>
   </g>
   <g id="patch_4">
    <path d="M 414.72 307.584 
L 414.72 41.472 
" style="fill: none; stroke: #000000; stroke-width: 0.8; stroke-linejoin: miter; stroke-linecap: square"/>
   </g>
   <g id="patch_5">
    <path d="M 57.6 307.584 
L 414.72 307.584 
" style="fill: none; stroke: #000000; stroke-width: 0.8; stroke-linejoin: miter; stroke-linecap: square"/>
   </g>
   <g id="patch_6">
    <path d="M 57.6 41.472 
L 414.72 41.472 
" style="fill: none; stroke: #000000; stroke-width: 0.8; stroke-linejoin: miter; stroke-linecap: square"/>
   </g>
   <g id="legend_1">
    <g id="patch_7">
     <path d="M 196.3975 302.584 
L 275.9225 302.584 
Q 277.9225 302.584 277.9225 300.584 
L 277.9225 242.729312 
Q 277.9225 240.729312 275.9225 240.729312 
L 196.3975 240.729312 
Q 194.3975 240.729312 194.3975 242.729312 
L 194.3975 300.584 
Q 194.3975 302.584 196.3975 302.584 
z
" style="fill: #ffffff; opacity: 0.8; stroke: #cccccc; stroke-linejoin: miter"/>
    </g>
    <g id="line2d_35">
     <path d="M 198.3975 248.82775 
L 208.3975 248.82775 
L 218.3975 248.82775 
" style="fill: none; stroke: #1f77b4; stroke-width: 2; stroke-linecap: square"/>
    </g>
    <g id="text_18">
     <!-- uniform -->
     <g transform="translate(226.3975 252.32775) scale(0.1 -0.1)">
      <defs>
       <path id="DejaVuSerif-66" d="M 2753 4078 
L 2450 4078 
Q 2447 4313 2317 4434 
Q 2188 4556 1941 4556 
Q 1619 4556 1487 4379 
Q 1356 4203 1356 3750 
L 1356 3322 
L 2284 3322 
L 2284 2988 
L 1356 2988 
L 1356 331 
L 2094 331 
L 2094 0 
L 231 0 
L 231 331 
L 781 331 
L 781 2988 
L 231 2988 
L 231 3322 
L 781 3322 
L 781 3738 
Q 781 4294 1070 4578 
Q 1359 4863 1919 4863 
Q 2128 4863 2337 4825 
Q 2547 4788 2753 4709 
L 2753 4078 
z
" transform="scale(0.015625)"/>
       <path id="DejaVuSerif-6f" d="M 1925 219 
Q 2388 219 2623 584 
Q 2859 950 2859 1663 
Q 2859 2375 2623 2739 
Q 2388 3103 1925 3103 
Q 1463 3103 1227 2739 
Q 991 2375 991 1663 
Q 991 950 1228 584 
Q 1466 219 1925 219 
z
M 1925 -91 
Q 1200 -91 759 389 
Q 319 869 319 1663 
Q 319 2456 758 2934 
Q 1197 3413 1925 3413 
Q 2653 3413 3092 2934 
Q 3531 2456 3531 1663 
Q 3531 869 3092 389 
Q 2653 -91 1925 -91 
z
" transform="scale(0.015625)"/>
       <path id="DejaVuSerif-6d" d="M 3316 2675 
Q 3481 3041 3739 3227 
Q 3997 3413 4341 3413 
Q 4863 3413 5119 3089 
Q 5375 2766 5375 2113 
L 5375 331 
L 5894 331 
L 5894 0 
L 4300 0 
L 4300 331 
L 4800 331 
L 4800 2047 
Q 4800 2556 4650 2772 
Q 4500 2988 4153 2988 
Q 3769 2988 3567 2697 
Q 3366 2406 3366 1850 
L 3366 331 
L 3866 331 
L 3866 0 
L 2291 0 
L 2291 331 
L 2791 331 
L 2791 2069 
Q 2791 2566 2641 2777 
Q 2491 2988 2144 2988 
Q 1759 2988 1557 2697 
Q 1356 2406 1356 1850 
L 1356 331 
L 1856 331 
L 1856 0 
L 263 0 
L 263 331 
L 781 331 
L 781 2994 
L 231 2994 
L 231 3322 
L 1356 3322 
L 1356 2731 
Q 1516 3063 1762 3238 
Q 2009 3413 2322 3413 
Q 2709 3413 2968 3220 
Q 3228 3028 3316 2675 
z
" transform="scale(0.015625)"/>
      </defs>
      <use xlink:href="#DejaVuSerif-75"/>
      <use xlink:href="#DejaVuSerif-6e" x="64.404297"/>
      <use xlink:href="#DejaVuSerif-69" x="128.808594"/>
      <use xlink:href="#DejaVuSerif-66" x="160.791016"/>
      <use xlink:href="#DejaVuSerif-6f" x="197.802734"/>
      <use xlink:href="#DejaVuSerif-72" x="258.007812"/>
      <use xlink:href="#DejaVuSerif-6d" x="305.810547"/>
     </g>
    </g>
    <g id="line2d_36">
     <path d="M 198.3975 263.505875 
L 208.3975 263.505875 
L 218.3975 263.505875 
" style="fill: none; stroke: #ff7f0e; stroke-width: 2; stroke-linecap: square"/>
    </g>
    <g id="text_19">
     <!-- parabolic -->
     <g transform="translate(226.3975 267.005875) scale(0.1 -0.1)">
      <defs>
       <path id="DejaVuSerif-70" d="M 1313 1825 
L 1313 1497 
Q 1313 897 1542 583 
Q 1772 269 2209 269 
Q 2650 269 2876 622 
Q 3103 975 3103 1663 
Q 3103 2353 2876 2703 
Q 2650 3053 2209 3053 
Q 1772 3053 1542 2737 
Q 1313 2422 1313 1825 
z
M 738 2988 
L 184 2988 
L 184 3322 
L 1313 3322 
L 1313 2803 
Q 1481 3116 1742 3264 
Q 2003 3413 2388 3413 
Q 3000 3413 3387 2928 
Q 3775 2444 3775 1663 
Q 3775 881 3387 395 
Q 3000 -91 2388 -91 
Q 2003 -91 1742 57 
Q 1481 206 1313 519 
L 1313 -997 
L 1856 -997 
L 1856 -1331 
L 184 -1331 
L 184 -997 
L 738 -997 
L 738 2988 
z
" transform="scale(0.015625)"/>
       <path id="DejaVuSerif-62" d="M 738 331 
L 738 4531 
L 184 4531 
L 184 4863 
L 1313 4863 
L 1313 2803 
Q 1481 3116 1742 3264 
Q 2003 3413 2388 3413 
Q 3000 3413 3387 2928 
Q 3775 2444 3775 1663 
Q 3775 881 3387 395 
Q 3000 -91 2388 -91 
Q 2003 -91 1742 57 
Q 1481 206 1313 519 
L 1313 0 
L 184 0 
L 184 331 
L 738 331 
z
M 1313 1497 
Q 1313 897 1542 583 
Q 1772 269 2209 269 
Q 2650 269 2876 622 
Q 3103 975 3103 1663 
Q 3103 2353 2876 2703 
Q 2650 3053 2209 3053 
Q 1772 3053 1542 2737 
Q 1313 2422 1313 1825 
L 1313 1497 
z
" transform="scale(0.015625)"/>
       <path id="DejaVuSerif-6c" d="M 1313 331 
L 1856 331 
L 1856 0 
L 184 0 
L 184 331 
L 738 331 
L 738 4531 
L 184 4531 
L 184 4863 
L 1313 4863 
L 1313 331 
z
" transform="scale(0.015625)"/>
      </defs>
      <use xlink:href="#DejaVuSerif-70"/>
      <use xlink:href="#DejaVuSerif-61" x="64.013672"/>
      <use xlink:href="#DejaVuSerif-72" x="123.632812"/>
      <use xlink:href="#DejaVuSerif-61" x="171.435547"/>
      <use xlink:href="#DejaVuSerif-62" x="231.054688"/>
      <use xlink:href="#DejaVuSerif-6f" x="295.068359"/>
      <use xlink:href="#DejaVuSerif-6c" x="355.273438"/>
      <use xlink:href="#DejaVuSerif-69" x="387.255859"/>
      <use xlink:href="#DejaVuSerif-63" x="419.238281"/>
     </g>
    </g>
    <g id="line2d_37">
     <path d="M 198.3975 278.184 
L 208.3975 278.184 
L 218.3975 278.184 
" style="fill: none; stroke: #2ca02c; stroke-width: 2; stroke-linecap: square"/>
    </g>
    <g id="text_20">
     <!-- rcos -->
     <g transform="translate(226.3975 281.684) scale(0.1 -0.1)">
      <defs>
       <path id="DejaVuSerif-73" d="M 359 184 
L 359 959 
L 691 959 
Q 703 588 923 403 
Q 1144 219 1575 219 
Q 1963 219 2166 364 
Q 2369 509 2369 788 
Q 2369 1006 2220 1140 
Q 2072 1275 1594 1428 
L 1178 1569 
Q 750 1706 558 1912 
Q 366 2119 366 2438 
Q 366 2894 700 3153 
Q 1034 3413 1625 3413 
Q 1888 3413 2178 3344 
Q 2469 3275 2778 3144 
L 2778 2419 
L 2447 2419 
Q 2434 2741 2221 2922 
Q 2009 3103 1644 3103 
Q 1281 3103 1095 2975 
Q 909 2847 909 2591 
Q 909 2381 1050 2254 
Q 1191 2128 1613 1997 
L 2069 1856 
Q 2541 1709 2748 1489 
Q 2956 1269 2956 922 
Q 2956 450 2595 179 
Q 2234 -91 1600 -91 
Q 1278 -91 972 -22 
Q 666 47 359 184 
z
" transform="scale(0.015625)"/>
      </defs>
      <use xlink:href="#DejaVuSerif-72"/>
      <use xlink:href="#DejaVuSerif-63" x="47.802734"/>
      <use xlink:href="#DejaVuSerif-6f" x="103.808594"/>
      <use xlink:href="#DejaVuSerif-73" x="164.013672"/>
     </g>
    </g>
    <g id="line2d_38">
     <path d="M 198.3975 292.862125 
L 208.3975 292.862125 
L 218.3975 292.862125 
" style="fill: none; stroke: #d62728; stroke-width: 2; stroke-linecap: square"/>
    </g>
    <g id="text_21">
     <!-- gaussian -->
     <g transform="translate(226.3975 296.362125) scale(0.1 -0.1)">
      <use xlink:href="#DejaVuSerif-67"/>
      <use xlink:href="#DejaVuSerif-61" x="64.013672"/>
      <use xlink:href="#DejaVuSerif-75" x="123.632812"/>
      <use xlink:href="#DejaVuSerif-73" x="188.037109"/>
      <use xlink:href="#DejaVuSerif-73" x="239.355469"/>
      <use xlink:href="#DejaVuSerif-69" x="290.673828"/>
      <use xlink:href="#DejaVuSerif-61" x="322.65625"/>
      <use xlink:href="#DejaVuSerif-6e" x="382.275391"/>
     </g>
    </g>
   </g>
  </g>
 </g>
 <defs>
  <clipPath id="pdc314d063b">
   <rect x="57.6" y="41.472" width="357.12" height="266.112"/>
  </clipPath>
 </defs>
</svg>
