<?xml version="1.0" encoding="utf-8" standalone="no"?>
<!DOCTYPE svg PUBLIC "-//W3C//DTD SVG 1.1//EN"
  "http://www.w3.org/Graphics/SVG/1.1/DTD/svg11.dtd">
<svg xmlns:xlink="http://www.w3.org/1999/xlink" width="460.8pt" height="345.6pt" viewBox="0 0 460.8 345.6" xmlns="http://www.w3.org/2000/svg" version="1.1">
 <metadata>
  <rdf:RDF xmlns:dc="http://purl.org/dc/elements/1.1/" xmlns:cc="http://creativecommons.org/ns#" xmlns:rdf="http://www.w3.org/1999/02/22-rdf-syntax-ns#">
   <cc:Work>
    <dc:type rdf:resource="http://purl.org/dc/dcmitype/StillImage"/>
    <dc:date>2024-11-21T18:15:49.796323</dc:date>
    <dc:format>image/svg+xml</dc:format>
    <dc:creator>
     <cc:Agent>
      <dc:title>Matplotlib v3.8.3, https://matplotlib.org/</dc:title>
     </cc:Agent>
    </dc:creator>
   </cc:Work>
  </rdf:RDF>
 </metadata>
 <defs>
  <style type="text/css">*{stroke-linejoin: round; stroke-linecap: butt}</style>
 </defs>
 <g id="figure_1">
  <g id="patch_1">
   <path d="M 0 345.6 
L 460.8 345.6 
L 460.8 0 
L 0 0 
z
" style="fill: #ffffff"/>
  </g>
  <g id="axes_1">
   <g id="patch_2">
    <path d="M 57.17 135.88 
L 440.505 135.88 
L 440.505 26.16 
L 57.17 26.16 
z
" style="fill: #ffffff"/>
   </g>
   <g id="matplotlib.axis_1">
    <g id="xtick_1">
     <g id="line2d_1">
      <path d="M 57.17 135.88 
L 57.17 26.16 
" clip-path="url(#p3de52ecf93)" style="fill: none; stroke: #b0b0b0; stroke-opacity: 0.3; stroke-width: 0.8; stroke-linecap: square"/>
     </g>
     <g id="line2d_2">
      <defs>
       <path id="mb0b7f484c5" d="M 0 0 
L 0 3.5 
" style="stroke: #000000; stroke-width: 0.8"/>
      </defs>
      <g>
       <use xlink:href="#mb0b7f484c5" x="57.17" y="135.88" style="stroke: #000000; stroke-width: 0.8"/>
      </g>
     </g>
     <g id="text_1">
      <!-- 0 -->
      <g transform="translate(53.98875 150.478437) scale(0.1 -0.1)">
       <defs>
        <path id="DejaVuSerif-30" d="M 2034 219 
Q 2513 219 2750 744 
Q 2988 1269 2988 2328 
Q 2988 3391 2750 3916 
Q 2513 4441 2034 4441 
Q 1556 4441 1318 3916 
Q 1081 3391 1081 2328 
Q 1081 1269 1318 744 
Q 1556 219 2034 219 
z
M 2034 -91 
Q 1275 -91 848 546 
Q 422 1184 422 2328 
Q 422 3475 848 4112 
Q 1275 4750 2034 4750 
Q 2797 4750 3222 4112 
Q 3647 3475 3647 2328 
Q 3647 1184 3222 546 
Q 2797 -91 2034 -91 
z
" transform="scale(0.015625)"/>
       </defs>
       <use xlink:href="#DejaVuSerif-30"/>
      </g>
     </g>
    </g>
    <g id="xtick_2">
     <g id="line2d_3">
      <path d="M 133.837 135.88 
L 133.837 26.16 
" clip-path="url(#p3de52ecf93)" style="fill: none; stroke: #b0b0b0; stroke-opacity: 0.3; stroke-width: 0.8; stroke-linecap: square"/>
     </g>
     <g id="line2d_4">
      <g>
       <use xlink:href="#mb0b7f484c5" x="133.837" y="135.88" style="stroke: #000000; stroke-width: 0.8"/>
      </g>
     </g>
     <g id="text_2">
      <!-- 20 -->
      <g transform="translate(127.4745 150.478437) scale(0.1 -0.1)">
       <defs>
        <path id="DejaVuSerif-32" d="M 819 3553 
L 469 3553 
L 469 4384 
Q 803 4563 1142 4656 
Q 1481 4750 1806 4750 
Q 2534 4750 2956 4397 
Q 3378 4044 3378 3438 
Q 3378 2753 2422 1800 
Q 2347 1728 2309 1691 
L 1131 513 
L 3078 513 
L 3078 1088 
L 3444 1088 
L 3444 0 
L 434 0 
L 434 341 
L 1850 1753 
Q 2319 2222 2519 2614 
Q 2719 3006 2719 3438 
Q 2719 3909 2473 4175 
Q 2228 4441 1797 4441 
Q 1350 4441 1106 4219 
Q 863 3997 819 3553 
z
" transform="scale(0.015625)"/>
       </defs>
       <use xlink:href="#DejaVuSerif-32"/>
       <use xlink:href="#DejaVuSerif-30" x="63.623047"/>
      </g>
     </g>
    </g>
    <g id="xtick_3">
     <g id="line2d_5">
      <path d="M 210.504 135.88 
L 210.504 26.16 
" clip-path="url(#p3de52ecf93)" style="fill: none; stroke: #b0b0b0; stroke-opacity: 0.3; stroke-width: 0.8; stroke-linecap: square"/>
     </g>
     <g id="line2d_6">
      <g>
       <use xlink:href="#mb0b7f484c5" x="210.504" y="135.88" style="stroke: #000000; stroke-width: 0.8"/>
      </g>
     </g>
     <g id="text_3">
      <!-- 40 -->
      <g transform="translate(204.1415 150.478437) scale(0.1 -0.1)">
       <defs>
        <path id="DejaVuSerif-34" d="M 2234 1581 
L 2234 4063 
L 641 1581 
L 2234 1581 
z
M 3609 0 
L 1484 0 
L 1484 331 
L 2234 331 
L 2234 1247 
L 197 1247 
L 197 1588 
L 2241 4750 
L 2859 4750 
L 2859 1581 
L 3750 1581 
L 3750 1247 
L 2859 1247 
L 2859 331 
L 3609 331 
L 3609 0 
z
" transform="scale(0.015625)"/>
       </defs>
       <use xlink:href="#DejaVuSerif-34"/>
       <use xlink:href="#DejaVuSerif-30" x="63.623047"/>
      </g>
     </g>
    </g>
    <g id="xtick_4">
     <g id="line2d_7">
      <path d="M 287.171 135.88 
L 287.171 26.16 
" clip-path="url(#p3de52ecf93)" style="fill: none; stroke: #b0b0b0; stroke-opacity: 0.3; stroke-width: 0.8; stroke-linecap: square"/>
     </g>
     <g id="line2d_8">
      <g>
       <use xlink:href="#mb0b7f484c5" x="287.171" y="135.88" style="stroke: #000000; stroke-width: 0.8"/>
      </g>
     </g>
     <g id="text_4">
      <!-- 60 -->
      <g transform="translate(280.8085 150.478437) scale(0.1 -0.1)">
       <defs>
        <path id="DejaVuSerif-36" d="M 2094 219 
Q 2534 219 2771 542 
Q 3009 866 3009 1472 
Q 3009 2078 2771 2401 
Q 2534 2725 2094 2725 
Q 1647 2725 1412 2412 
Q 1178 2100 1178 1509 
Q 1178 888 1415 553 
Q 1653 219 2094 219 
z
M 1075 2569 
Q 1288 2803 1556 2918 
Q 1825 3034 2163 3034 
Q 2859 3034 3264 2615 
Q 3669 2197 3669 1472 
Q 3669 763 3233 336 
Q 2797 -91 2069 -91 
Q 1278 -91 853 498 
Q 428 1088 428 2181 
Q 428 3406 931 4078 
Q 1434 4750 2350 4750 
Q 2597 4750 2869 4703 
Q 3141 4656 3425 4563 
L 3425 3794 
L 3072 3794 
Q 3034 4109 2831 4275 
Q 2628 4441 2284 4441 
Q 1678 4441 1381 3981 
Q 1084 3522 1075 2569 
z
" transform="scale(0.015625)"/>
       </defs>
       <use xlink:href="#DejaVuSerif-36"/>
       <use xlink:href="#DejaVuSerif-30" x="63.623047"/>
      </g>
     </g>
    </g>
    <g id="xtick_5">
     <g id="line2d_9">
      <path d="M 363.838 135.88 
L 363.838 26.16 
" clip-path="url(#p3de52ecf93)" style="fill: none; stroke: #b0b0b0; stroke-opacity: 0.3; stroke-width: 0.8; stroke-linecap: square"/>
     </g>
     <g id="line2d_10">
      <g>
       <use xlink:href="#mb0b7f484c5" x="363.838" y="135.88" style="stroke: #000000; stroke-width: 0.8"/>
      </g>
     </g>
     <g id="text_5">
      <!-- 80 -->
      <g transform="translate(357.4755 150.478437) scale(0.1 -0.1)">
       <defs>
        <path id="DejaVuSerif-38" d="M 2981 1275 
Q 2981 1775 2732 2051 
Q 2484 2328 2034 2328 
Q 1584 2328 1336 2051 
Q 1088 1775 1088 1275 
Q 1088 772 1336 495 
Q 1584 219 2034 219 
Q 2484 219 2732 495 
Q 2981 772 2981 1275 
z
M 2853 3541 
Q 2853 3966 2637 4203 
Q 2422 4441 2034 4441 
Q 1650 4441 1433 4203 
Q 1216 3966 1216 3541 
Q 1216 3113 1433 2875 
Q 1650 2638 2034 2638 
Q 2422 2638 2637 2875 
Q 2853 3113 2853 3541 
z
M 2516 2484 
Q 3047 2413 3344 2092 
Q 3641 1772 3641 1275 
Q 3641 619 3225 264 
Q 2809 -91 2034 -91 
Q 1263 -91 845 264 
Q 428 619 428 1275 
Q 428 1772 725 2092 
Q 1022 2413 1556 2484 
Q 1084 2569 832 2842 
Q 581 3116 581 3541 
Q 581 4103 968 4426 
Q 1356 4750 2034 4750 
Q 2713 4750 3100 4426 
Q 3488 4103 3488 3541 
Q 3488 3116 3236 2842 
Q 2984 2569 2516 2484 
z
" transform="scale(0.015625)"/>
       </defs>
       <use xlink:href="#DejaVuSerif-38"/>
       <use xlink:href="#DejaVuSerif-30" x="63.623047"/>
      </g>
     </g>
    </g>
    <g id="xtick_6">
     <g id="line2d_11">
      <path d="M 440.505 135.88 
L 440.505 26.16 
" clip-path="url(#p3de52ecf93)" style="fill: none; stroke: #b0b0b0; stroke-opacity: 0.3; stroke-width: 0.8; stroke-linecap: square"/>
     </g>
     <g id="line2d_12">
      <g>
       <use xlink:href="#mb0b7f484c5" x="440.505" y="135.88" style="stroke: #000000; stroke-width: 0.8"/>
      </g>
     </g>
     <g id="text_6">
      <!-- 100 -->
      <g transform="translate(430.96125 150.478437) scale(0.1 -0.1)">
       <defs>
        <path id="DejaVuSerif-31" d="M 909 0 
L 909 331 
L 1722 331 
L 1722 4213 
L 781 3603 
L 781 4013 
L 1919 4750 
L 2350 4750 
L 2350 331 
L 3163 331 
L 3163 0 
L 909 0 
z
" transform="scale(0.015625)"/>
       </defs>
       <use xlink:href="#DejaVuSerif-31"/>
       <use xlink:href="#DejaVuSerif-30" x="63.623047"/>
       <use xlink:href="#DejaVuSerif-30" x="127.246094"/>
      </g>
     </g>
    </g>
    <g id="text_7">
     <!-- Time [ns] -->
     <g transform="translate(224.925781 164.156562) scale(0.1 -0.1)">
      <defs>
       <path id="DejaVuSerif-54" d="M 1222 0 
L 1222 331 
L 1819 331 
L 1819 4294 
L 447 4294 
L 447 3566 
L 63 3566 
L 63 4666 
L 4206 4666 
L 4206 3566 
L 3822 3566 
L 3822 4294 
L 2450 4294 
L 2450 331 
L 3047 331 
L 3047 0 
L 1222 0 
z
" transform="scale(0.015625)"/>
       <path id="DejaVuSerif-69" d="M 622 4353 
Q 622 4497 726 4603 
Q 831 4709 978 4709 
Q 1122 4709 1226 4603 
Q 1331 4497 1331 4353 
Q 1331 4206 1228 4103 
Q 1125 4000 978 4000 
Q 831 4000 726 4103 
Q 622 4206 622 4353 
z
M 1356 331 
L 1900 331 
L 1900 0 
L 231 0 
L 231 331 
L 781 331 
L 781 2988 
L 231 2988 
L 231 3322 
L 1356 3322 
L 1356 331 
z
" transform="scale(0.015625)"/>
       <path id="DejaVuSerif-6d" d="M 3316 2675 
Q 3481 3041 3739 3227 
Q 3997 3413 4341 3413 
Q 4863 3413 5119 3089 
Q 5375 2766 5375 2113 
L 5375 331 
L 5894 331 
L 5894 0 
L 4300 0 
L 4300 331 
L 4800 331 
L 4800 2047 
Q 4800 2556 4650 2772 
Q 4500 2988 4153 2988 
Q 3769 2988 3567 2697 
Q 3366 2406 3366 1850 
L 3366 331 
L 3866 331 
L 3866 0 
L 2291 0 
L 2291 331 
L 2791 331 
L 2791 2069 
Q 2791 2566 2641 2777 
Q 2491 2988 2144 2988 
Q 1759 2988 1557 2697 
Q 1356 2406 1356 1850 
L 1356 331 
L 1856 331 
L 1856 0 
L 263 0 
L 263 331 
L 781 331 
L 781 2994 
L 231 2994 
L 231 3322 
L 1356 3322 
L 1356 2731 
Q 1516 3063 1762 3238 
Q 2009 3413 2322 3413 
Q 2709 3413 2968 3220 
Q 3228 3028 3316 2675 
z
" transform="scale(0.015625)"/>
       <path id="DejaVuSerif-65" d="M 3469 1600 
L 991 1600 
L 991 1575 
Q 991 903 1244 561 
Q 1497 219 1991 219 
Q 2369 219 2611 417 
Q 2853 616 2950 1006 
L 3413 1006 
Q 3275 459 2904 184 
Q 2534 -91 1931 -91 
Q 1203 -91 761 389 
Q 319 869 319 1663 
Q 319 2450 753 2931 
Q 1188 3413 1894 3413 
Q 2647 3413 3050 2948 
Q 3453 2484 3469 1600 
z
M 2791 1931 
Q 2772 2513 2545 2808 
Q 2319 3103 1894 3103 
Q 1497 3103 1269 2806 
Q 1041 2509 991 1931 
L 2791 1931 
z
" transform="scale(0.015625)"/>
       <path id="DejaVuSerif-20" transform="scale(0.015625)"/>
       <path id="DejaVuSerif-5b" d="M 550 4863 
L 2003 4863 
L 2003 4531 
L 1147 4531 
L 1147 -513 
L 2003 -513 
L 2003 -844 
L 550 -844 
L 550 4863 
z
" transform="scale(0.015625)"/>
       <path id="DejaVuSerif-6e" d="M 263 0 
L 263 331 
L 781 331 
L 781 2988 
L 231 2988 
L 231 3322 
L 1356 3322 
L 1356 2731 
Q 1516 3069 1770 3241 
Q 2025 3413 2363 3413 
Q 2913 3413 3172 3097 
Q 3431 2781 3431 2113 
L 3431 331 
L 3944 331 
L 3944 0 
L 2356 0 
L 2356 331 
L 2853 331 
L 2853 1931 
Q 2853 2541 2703 2767 
Q 2553 2994 2175 2994 
Q 1775 2994 1565 2701 
Q 1356 2409 1356 1850 
L 1356 331 
L 1856 331 
L 1856 0 
L 263 0 
z
" transform="scale(0.015625)"/>
       <path id="DejaVuSerif-73" d="M 359 184 
L 359 959 
L 691 959 
Q 703 588 923 403 
Q 1144 219 1575 219 
Q 1963 219 2166 364 
Q 2369 509 2369 788 
Q 2369 1006 2220 1140 
Q 2072 1275 1594 1428 
L 1178 1569 
Q 750 1706 558 1912 
Q 366 2119 366 2438 
Q 366 2894 700 3153 
Q 1034 3413 1625 3413 
Q 1888 3413 2178 3344 
Q 2469 3275 2778 3144 
L 2778 2419 
L 2447 2419 
Q 2434 2741 2221 2922 
Q 2009 3103 1644 3103 
Q 1281 3103 1095 2975 
Q 909 2847 909 2591 
Q 909 2381 1050 2254 
Q 1191 2128 1613 1997 
L 2069 1856 
Q 2541 1709 2748 1489 
Q 2956 1269 2956 922 
Q 2956 450 2595 179 
Q 2234 -91 1600 -91 
Q 1278 -91 972 -22 
Q 666 47 359 184 
z
" transform="scale(0.015625)"/>
       <path id="DejaVuSerif-5d" d="M 1947 4863 
L 1947 -844 
L 494 -844 
L 494 -513 
L 1350 -513 
L 1350 4531 
L 494 4531 
L 494 4863 
L 1947 4863 
z
" transform="scale(0.015625)"/>
      </defs>
      <use xlink:href="#DejaVuSerif-54"/>
      <use xlink:href="#DejaVuSerif-69" x="66.699219"/>
      <use xlink:href="#DejaVuSerif-6d" x="98.681641"/>
      <use xlink:href="#DejaVuSerif-65" x="193.505859"/>
      <use xlink:href="#DejaVuSerif-20" x="252.685547"/>
      <use xlink:href="#DejaVuSerif-5b" x="284.472656"/>
      <use xlink:href="#DejaVuSerif-6e" x="323.486328"/>
      <use xlink:href="#DejaVuSerif-73" x="387.890625"/>
      <use xlink:href="#DejaVuSerif-5d" x="439.208984"/>
     </g>
    </g>
   </g>
   <g id="matplotlib.axis_2">
    <g id="ytick_1">
     <g id="line2d_13">
      <path d="M 57.17 135.88 
L 440.505 135.88 
" clip-path="url(#p3de52ecf93)" style="fill: none; stroke: #b0b0b0; stroke-opacity: 0.3; stroke-width: 0.8; stroke-linecap: square"/>
     </g>
     <g id="line2d_14">
      <defs>
       <path id="m91a205cfff" d="M 0 0 
L -3.5 0 
" style="stroke: #000000; stroke-width: 0.8"/>
      </defs>
      <g>
       <use xlink:href="#m91a205cfff" x="57.17" y="135.88" style="stroke: #000000; stroke-width: 0.8"/>
      </g>
     </g>
     <g id="text_8">
      <!-- 0 -->
      <g transform="translate(43.8075 139.679219) scale(0.1 -0.1)">
       <use xlink:href="#DejaVuSerif-30"/>
      </g>
     </g>
    </g>
    <g id="ytick_2">
     <g id="line2d_15">
      <path d="M 57.17 108.45 
L 440.505 108.45 
" clip-path="url(#p3de52ecf93)" style="fill: none; stroke: #b0b0b0; stroke-opacity: 0.3; stroke-width: 0.8; stroke-linecap: square"/>
     </g>
     <g id="line2d_16">
      <g>
       <use xlink:href="#m91a205cfff" x="57.17" y="108.45" style="stroke: #000000; stroke-width: 0.8"/>
      </g>
     </g>
     <g id="text_9">
      <!-- 500 -->
      <g transform="translate(31.0825 112.249219) scale(0.1 -0.1)">
       <defs>
        <path id="DejaVuSerif-35" d="M 3219 4666 
L 3219 4153 
L 1081 4153 
L 1081 2816 
Q 1244 2928 1461 2984 
Q 1678 3041 1947 3041 
Q 2703 3041 3140 2622 
Q 3578 2203 3578 1478 
Q 3578 738 3136 323 
Q 2694 -91 1894 -91 
Q 1572 -91 1234 -12 
Q 897 66 544 225 
L 544 1131 
L 897 1131 
Q 925 688 1179 453 
Q 1434 219 1894 219 
Q 2388 219 2653 544 
Q 2919 869 2919 1478 
Q 2919 2084 2655 2407 
Q 2391 2731 1894 2731 
Q 1613 2731 1398 2631 
Q 1184 2531 1019 2322 
L 750 2322 
L 750 4666 
L 3219 4666 
z
" transform="scale(0.015625)"/>
       </defs>
       <use xlink:href="#DejaVuSerif-35"/>
       <use xlink:href="#DejaVuSerif-30" x="63.623047"/>
       <use xlink:href="#DejaVuSerif-30" x="127.246094"/>
      </g>
     </g>
    </g>
    <g id="ytick_3">
     <g id="line2d_17">
      <path d="M 57.17 81.02 
L 440.505 81.02 
" clip-path="url(#p3de52ecf93)" style="fill: none; stroke: #b0b0b0; stroke-opacity: 0.3; stroke-width: 0.8; stroke-linecap: square"/>
     </g>
     <g id="line2d_18">
      <g>
       <use xlink:href="#m91a205cfff" x="57.17" y="81.02" style="stroke: #000000; stroke-width: 0.8"/>
      </g>
     </g>
     <g id="text_10">
      <!-- 1000 -->
      <g transform="translate(24.72 84.819219) scale(0.1 -0.1)">
       <use xlink:href="#DejaVuSerif-31"/>
       <use xlink:href="#DejaVuSerif-30" x="63.623047"/>
       <use xlink:href="#DejaVuSerif-30" x="127.246094"/>
       <use xlink:href="#DejaVuSerif-30" x="190.869141"/>
      </g>
     </g>
    </g>
    <g id="ytick_4">
     <g id="line2d_19">
      <path d="M 57.17 53.59 
L 440.505 53.59 
" clip-path="url(#p3de52ecf93)" style="fill: none; stroke: #b0b0b0; stroke-opacity: 0.3; stroke-width: 0.8; stroke-linecap: square"/>
     </g>
     <g id="line2d_20">
      <g>
       <use xlink:href="#m91a205cfff" x="57.17" y="53.59" style="stroke: #000000; stroke-width: 0.8"/>
      </g>
     </g>
     <g id="text_11">
      <!-- 1500 -->
      <g transform="translate(24.72 57.389219) scale(0.1 -0.1)">
       <use xlink:href="#DejaVuSerif-31"/>
       <use xlink:href="#DejaVuSerif-35" x="63.623047"/>
       <use xlink:href="#DejaVuSerif-30" x="127.246094"/>
       <use xlink:href="#DejaVuSerif-30" x="190.869141"/>
      </g>
     </g>
    </g>
    <g id="ytick_5">
     <g id="line2d_21">
      <path d="M 57.17 26.16 
L 440.505 26.16 
" clip-path="url(#p3de52ecf93)" style="fill: none; stroke: #b0b0b0; stroke-opacity: 0.3; stroke-width: 0.8; stroke-linecap: square"/>
     </g>
     <g id="line2d_22">
      <g>
       <use xlink:href="#m91a205cfff" x="57.17" y="26.16" style="stroke: #000000; stroke-width: 0.8"/>
      </g>
     </g>
     <g id="text_12">
      <!-- 2000 -->
      <g transform="translate(24.72 29.959219) scale(0.1 -0.1)">
       <use xlink:href="#DejaVuSerif-32"/>
       <use xlink:href="#DejaVuSerif-30" x="63.623047"/>
       <use xlink:href="#DejaVuSerif-30" x="127.246094"/>
       <use xlink:href="#DejaVuSerif-30" x="190.869141"/>
      </g>
     </g>
    </g>
    <g id="text_13">
     <!-- Power [mW] -->
     <g transform="translate(18.640312 112.194219) rotate(-90) scale(0.1 -0.1)">
      <defs>
       <path id="DejaVuSerif-50" d="M 1581 2375 
L 2406 2375 
Q 2872 2375 3115 2626 
Q 3359 2878 3359 3353 
Q 3359 3831 3115 4081 
Q 2872 4331 2406 4331 
L 1581 4331 
L 1581 2375 
z
M 353 0 
L 353 331 
L 947 331 
L 947 4331 
L 353 4331 
L 353 4666 
L 2559 4666 
Q 3259 4666 3668 4311 
Q 4078 3956 4078 3353 
Q 4078 2753 3668 2397 
Q 3259 2041 2559 2041 
L 1581 2041 
L 1581 331 
L 2303 331 
L 2303 0 
L 353 0 
z
" transform="scale(0.015625)"/>
       <path id="DejaVuSerif-6f" d="M 1925 219 
Q 2388 219 2623 584 
Q 2859 950 2859 1663 
Q 2859 2375 2623 2739 
Q 2388 3103 1925 3103 
Q 1463 3103 1227 2739 
Q 991 2375 991 1663 
Q 991 950 1228 584 
Q 1466 219 1925 219 
z
M 1925 -91 
Q 1200 -91 759 389 
Q 319 869 319 1663 
Q 319 2456 758 2934 
Q 1197 3413 1925 3413 
Q 2653 3413 3092 2934 
Q 3531 2456 3531 1663 
Q 3531 869 3092 389 
Q 2653 -91 1925 -91 
z
" transform="scale(0.015625)"/>
       <path id="DejaVuSerif-77" d="M 3072 3322 
L 3922 728 
L 4672 2988 
L 4191 2988 
L 4191 3322 
L 5394 3322 
L 5394 2988 
L 5025 2988 
L 4038 0 
L 3559 0 
L 2741 2484 
L 1919 0 
L 1459 0 
L 475 2988 
L 103 2988 
L 103 3322 
L 1606 3322 
L 1606 2988 
L 1069 2988 
L 1813 728 
L 2669 3322 
L 3072 3322 
z
" transform="scale(0.015625)"/>
       <path id="DejaVuSerif-72" d="M 3059 3328 
L 3059 2497 
L 2728 2497 
Q 2713 2744 2591 2866 
Q 2469 2988 2234 2988 
Q 1809 2988 1582 2694 
Q 1356 2400 1356 1850 
L 1356 331 
L 2022 331 
L 2022 0 
L 263 0 
L 263 331 
L 781 331 
L 781 2994 
L 231 2994 
L 231 3322 
L 1356 3322 
L 1356 2731 
Q 1525 3078 1790 3245 
Q 2056 3413 2438 3413 
Q 2578 3413 2733 3391 
Q 2888 3369 3059 3328 
z
" transform="scale(0.015625)"/>
       <path id="DejaVuSerif-57" d="M 4878 0 
L 4366 0 
L 3297 3794 
L 2228 0 
L 1716 0 
L 494 4331 
L 31 4331 
L 31 4666 
L 1734 4666 
L 1734 4331 
L 1153 4331 
L 2125 884 
L 3188 4666 
L 3694 4666 
L 4775 844 
L 5753 4331 
L 5216 4331 
L 5216 4666 
L 6559 4666 
L 6559 4331 
L 6100 4331 
L 4878 0 
z
" transform="scale(0.015625)"/>
      </defs>
      <use xlink:href="#DejaVuSerif-50"/>
      <use xlink:href="#DejaVuSerif-6f" x="63.285156"/>
      <use xlink:href="#DejaVuSerif-77" x="123.490234"/>
      <use xlink:href="#DejaVuSerif-65" x="209.085938"/>
      <use xlink:href="#DejaVuSerif-72" x="268.265625"/>
      <use xlink:href="#DejaVuSerif-20" x="316.068359"/>
      <use xlink:href="#DejaVuSerif-5b" x="347.855469"/>
      <use xlink:href="#DejaVuSerif-6d" x="386.869141"/>
      <use xlink:href="#DejaVuSerif-57" x="481.693359"/>
      <use xlink:href="#DejaVuSerif-5d" x="584.476562"/>
     </g>
    </g>
   </g>
   <g id="line2d_23">
    <path d="M 57.17 81.947414 
L 57.409734 80.625515 
L 58.128937 81.681485 
L 58.368671 81.206699 
L 58.608405 79.939239 
L 58.848139 81.189998 
L 59.087874 81.216622 
L 59.327608 80.640206 
L 59.567342 80.910761 
L 59.807076 82.829927 
L 60.046811 81.362251 
L 60.286545 81.590062 
L 60.526279 80.952876 
L 60.766013 81.549483 
L 61.005747 81.769106 
L 61.245482 81.138439 
L 61.485216 82.08896 
L 61.72495 80.181671 
L 61.964684 80.937552 
L 62.204418 82.630387 
L 62.444153 81.000561 
L 62.683887 81.144588 
L 63.163355 80.507601 
L 63.403089 82.814152 
L 63.642824 80.746669 
L 63.882558 81.854108 
L 64.122292 81.65369 
L 64.362026 80.84244 
L 64.60176 81.381654 
L 64.841495 80.83035 
L 65.081229 82.464055 
L 65.320963 79.467715 
L 65.800432 81.942303 
L 66.2799 80.708698 
L 66.519634 81.358639 
L 66.759368 80.497114 
L 66.999103 81.591823 
L 67.238837 81.689446 
L 67.478571 80.81374 
L 67.718305 82.169685 
L 67.958039 80.52811 
L 68.437508 82.422725 
L 68.677242 80.046523 
L 68.916976 81.568815 
L 69.15671 79.694475 
L 69.396445 81.983699 
L 69.875913 80.088982 
L 70.115647 81.228178 
L 70.355381 80.200748 
L 70.595116 82.048573 
L 70.83485 80.347143 
L 71.074584 80.991757 
L 71.314318 80.395333 
L 71.554053 80.227141 
L 71.793787 80.447917 
L 72.033521 80.860163 
L 72.273255 81.569702 
L 72.752724 79.813644 
L 72.992458 81.494462 
L 73.232192 81.347698 
L 73.471926 80.287487 
L 73.71166 80.979145 
L 73.951395 79.772105 
L 74.191129 80.980471 
L 74.430863 80.834495 
L 74.910331 80.879294 
L 75.150066 80.61145 
L 75.3898 81.218825 
L 75.629534 81.445157 
L 75.869268 82.592289 
L 76.109003 80.475959 
L 76.348737 81.082122 
L 76.828205 79.895918 
L 77.067939 80.860251 
L 77.307674 80.306681 
L 77.547408 80.177351 
L 78.026876 80.445417 
L 78.506345 81.576772 
L 78.746079 80.158365 
L 78.985813 81.16944 
L 79.225547 81.481955 
L 79.465281 80.109924 
L 79.705016 81.453671 
L 79.94475 80.946584 
L 80.184484 80.832573 
L 80.424218 80.138475 
L 80.903687 81.469033 
L 81.143421 80.215971 
L 81.383155 81.507284 
L 81.622889 82.165728 
L 81.862624 80.844803 
L 82.102358 80.393367 
L 82.342092 82.223436 
L 82.82156 80.120098 
L 83.061295 81.395352 
L 83.301029 81.670252 
L 83.540763 81.137102 
L 83.780497 81.054348 
L 84.020231 80.137504 
L 84.259966 81.946294 
L 84.4997 82.011274 
L 84.739434 81.021751 
L 85.218902 81.296423 
L 85.458637 80.545335 
L 85.698371 81.419167 
L 85.938105 82.896465 
L 86.177839 81.536092 
L 86.417573 81.749381 
L 86.657308 81.269575 
L 86.897042 79.977284 
L 87.136776 80.097896 
L 87.37651 79.97688 
L 87.616245 80.900595 
L 87.855979 80.739053 
L 88.095713 80.157211 
L 88.335447 81.633135 
L 88.575181 81.352733 
L 88.814916 79.96231 
L 89.05465 80.912867 
L 89.294384 81.406741 
L 89.534118 81.293614 
L 89.773852 79.798659 
L 90.013587 82.272814 
L 90.253321 79.270424 
L 90.493055 80.740384 
L 90.732789 81.157133 
L 90.972523 80.64012 
L 91.212258 81.022703 
L 91.93146 80.395913 
L 92.410929 81.888019 
L 92.650663 81.284101 
L 92.890397 81.18101 
L 93.130131 81.432259 
L 93.369866 81.864614 
L 93.6096 81.881054 
L 93.849334 80.007722 
L 94.089068 82.28491 
L 94.328802 81.396368 
L 94.568537 81.171459 
L 94.808271 81.329407 
L 95.048005 79.760926 
L 95.287739 81.217633 
L 95.527473 80.198128 
L 95.767208 80.558747 
L 96.246676 82.003705 
L 96.48641 81.114995 
L 96.965879 81.839874 
L 97.445347 81.191519 
L 97.685081 81.153211 
L 97.924816 81.575707 
L 98.16455 80.305163 
L 98.404284 80.261625 
L 98.644018 82.208577 
L 98.883752 80.358452 
L 99.123487 82.432119 
L 99.363221 80.019832 
L 99.602955 79.930063 
L 100.082423 80.899425 
L 100.322158 82.070306 
L 100.561892 80.885754 
L 100.801626 81.3662 
L 101.04136 82.56037 
L 101.520829 81.380643 
L 101.760563 80.408238 
L 102.000297 81.32348 
L 102.240031 80.249977 
L 102.479765 80.020415 
L 102.959234 82.015685 
L 103.198968 82.042265 
L 103.438702 79.853942 
L 103.678437 80.228337 
L 103.918171 81.176817 
L 104.157905 80.810363 
L 104.397639 81.908397 
L 104.637373 81.48055 
L 104.877108 80.056088 
L 105.356576 81.457166 
L 105.59631 79.739399 
L 105.836044 80.054988 
L 106.075779 80.998501 
L 106.315513 80.841149 
L 106.555247 80.419907 
L 107.034715 81.394985 
L 107.27445 80.007292 
L 107.753918 81.457942 
L 107.993652 80.539282 
L 108.233386 81.92466 
L 108.473121 80.520659 
L 108.712855 82.29411 
L 108.952589 81.106295 
L 109.192323 80.63467 
L 109.671792 81.126803 
L 109.911526 82.04347 
L 110.15126 80.610031 
L 110.390994 81.825594 
L 110.630729 81.679707 
L 110.870463 80.535632 
L 111.110197 81.610376 
L 111.349931 80.474931 
L 111.589665 81.494318 
L 111.8294 80.914453 
L 112.069134 80.771979 
L 112.308868 81.369489 
L 112.548602 80.855561 
L 112.788336 80.747495 
L 113.028071 81.040993 
L 113.267805 80.968449 
L 113.747273 81.943761 
L 113.987008 81.266008 
L 114.226742 81.92194 
L 114.466476 81.378434 
L 114.70621 80.373946 
L 115.185679 81.747589 
L 115.425413 80.476278 
L 115.904881 79.997565 
L 116.144615 80.566565 
L 116.38435 82.307957 
L 116.624084 80.85117 
L 116.863818 81.994843 
L 117.103552 80.261099 
L 117.343286 81.910669 
L 117.583021 80.877332 
L 117.822755 81.511137 
L 118.302223 81.790984 
L 118.541957 80.888655 
L 118.781692 81.608584 
L 119.021426 81.937517 
L 119.26116 81.791552 
L 119.500894 81.234425 
L 119.740629 79.313808 
L 119.980363 80.499456 
L 120.220097 80.168193 
L 120.699565 80.277973 
L 120.9393 81.349297 
L 121.179034 80.109937 
L 121.658502 81.539752 
L 121.898236 81.41018 
L 122.137971 80.634374 
L 122.377705 81.691252 
L 122.617439 82.024149 
L 122.857173 80.971944 
L 123.096907 81.126087 
L 123.336642 80.010692 
L 123.576376 80.360185 
L 123.81611 82.020024 
L 124.055844 80.96137 
L 124.295578 80.700536 
L 124.535313 81.135551 
L 124.775047 80.484821 
L 125.014781 81.063227 
L 125.254515 79.578501 
L 125.49425 82.571471 
L 125.733984 81.66517 
L 125.973718 81.251658 
L 126.213452 81.513408 
L 126.453186 80.823489 
L 126.692921 81.366938 
L 126.932655 81.273322 
L 127.172389 80.476987 
L 127.412123 81.922359 
L 127.651857 80.565212 
L 127.891592 81.691306 
L 128.131326 80.401056 
L 128.37106 81.671203 
L 128.610794 81.487298 
L 128.850528 81.557298 
L 129.090263 80.750308 
L 129.329997 81.84443 
L 129.809465 80.807549 
L 130.049199 81.874239 
L 130.288934 81.897451 
L 130.528668 80.893383 
L 131.008136 82.354198 
L 131.247871 80.821422 
L 131.487605 81.033838 
L 131.727339 81.012646 
L 131.967073 82.277921 
L 132.206807 81.262395 
L 132.446542 81.194305 
L 132.686276 80.24752 
L 133.165744 81.457786 
L 133.645213 79.993501 
L 133.884947 81.449021 
L 134.124681 80.956758 
L 134.364415 81.096854 
L 134.604149 81.620592 
L 134.843884 80.831167 
L 135.083618 81.437371 
L 135.323352 80.984199 
L 135.563086 82.275614 
L 135.802821 81.862943 
L 136.042555 82.224063 
L 136.282289 80.467806 
L 136.761757 81.546828 
L 137.001492 80.591766 
L 137.241226 80.912403 
L 137.48096 80.769577 
L 137.720694 80.987983 
L 138.200163 81.849749 
L 138.439897 80.449482 
L 138.919365 83.293677 
L 139.159099 80.633956 
L 139.398834 81.386319 
L 139.638568 81.304688 
L 139.878302 81.668868 
L 140.118036 81.109286 
L 140.35777 79.641448 
L 140.597505 81.046097 
L 141.076973 81.339528 
L 141.316707 80.495409 
L 141.556442 80.441723 
L 141.796176 80.642132 
L 142.03591 83.357166 
L 142.275644 80.986683 
L 142.755113 80.921567 
L 142.994847 81.160651 
L 143.234581 82.19103 
L 143.474315 81.742611 
L 143.714049 82.177347 
L 143.953784 81.124133 
L 144.193518 80.948933 
L 144.433252 80.979501 
L 144.91272 79.655115 
L 145.152455 80.955916 
L 145.392189 79.815455 
L 145.631923 80.716956 
L 145.871657 80.119637 
L 146.111391 81.647641 
L 146.351126 80.059536 
L 146.59086 81.600414 
L 146.830594 80.331904 
L 147.070328 80.524472 
L 147.310063 81.349699 
L 147.549797 80.621706 
L 147.789531 80.748941 
L 148.029265 81.136056 
L 148.268999 81.886552 
L 148.508734 79.48687 
L 148.748468 81.37945 
L 148.988202 82.1909 
L 149.227936 79.435034 
L 149.707405 80.83341 
L 149.947139 80.80317 
L 150.186873 81.791975 
L 150.426607 81.652933 
L 150.666341 82.099877 
L 150.906076 80.56157 
L 151.14581 81.933054 
L 151.385544 80.968471 
L 151.625278 81.007211 
L 151.865013 79.806217 
L 152.104747 81.85671 
L 152.344481 81.426111 
L 152.584215 80.596495 
L 152.823949 81.748643 
L 153.063684 81.365334 
L 153.303418 81.936493 
L 153.543152 81.87915 
L 154.02262 81.024286 
L 154.262355 81.603323 
L 154.502089 80.462879 
L 154.741823 81.63101 
L 154.981557 80.096984 
L 155.70076 81.463349 
L 155.940494 80.705565 
L 156.180228 82.386849 
L 156.419962 81.420292 
L 156.659697 81.010032 
L 156.899431 81.952855 
L 157.139165 81.166549 
L 157.378899 81.125215 
L 157.618634 80.766195 
L 157.858368 80.027992 
L 158.098102 80.652143 
L 158.337836 79.484343 
L 158.57757 82.394328 
L 158.817305 80.886777 
L 159.296773 80.821634 
L 159.536507 80.297125 
L 159.776241 81.965255 
L 160.015976 79.650433 
L 160.25571 80.151787 
L 160.495444 81.639757 
L 160.974912 79.862169 
L 161.214647 80.919812 
L 161.454381 80.470855 
L 161.694115 81.010304 
L 161.933849 82.03284 
L 162.173583 81.245437 
L 162.653052 81.332922 
L 162.892786 80.185261 
L 163.13252 80.381581 
L 163.372255 80.127373 
L 163.611989 82.423811 
L 163.851723 80.431675 
L 164.091457 81.060259 
L 164.331191 79.814164 
L 164.570926 81.213676 
L 164.81066 80.708772 
L 165.050394 80.641301 
L 165.290128 79.58929 
L 165.529862 82.679286 
L 165.769597 82.095608 
L 166.009331 81.142512 
L 166.249065 81.616791 
L 166.488799 81.486815 
L 166.728533 80.642549 
L 166.968268 80.720999 
L 167.208002 81.442539 
L 167.447736 80.35672 
L 167.68747 80.167885 
L 167.927205 80.779841 
L 168.166939 80.581411 
L 168.406673 79.509541 
L 168.646407 81.901219 
L 168.886141 81.320446 
L 169.125876 81.060767 
L 169.36561 81.083093 
L 169.845078 79.181929 
L 170.324547 80.452724 
L 170.564281 81.692179 
L 170.804015 81.383331 
L 171.043749 81.948819 
L 171.283483 81.888353 
L 171.523218 81.420723 
L 171.762952 81.690941 
L 172.002686 81.763843 
L 172.24242 82.071044 
L 172.482154 80.889144 
L 172.961623 80.684445 
L 173.201357 80.453141 
L 173.441091 81.805881 
L 173.92056 80.814123 
L 174.160294 81.409364 
L 174.400028 80.845118 
L 174.639762 80.858078 
L 174.879497 80.315391 
L 175.119231 80.638142 
L 175.358965 81.172979 
L 175.598699 80.002719 
L 175.838433 80.974053 
L 176.078168 81.137056 
L 176.317902 80.288356 
L 176.557636 80.763664 
L 176.79737 79.469198 
L 177.037104 81.945662 
L 177.276839 80.88926 
L 177.516573 81.999267 
L 177.756307 82.01838 
L 178.235775 80.408092 
L 178.715244 81.908244 
L 178.954978 81.556648 
L 179.194712 82.18171 
L 179.434447 80.21961 
L 179.674181 80.854311 
L 179.913915 81.156246 
L 180.153649 80.609749 
L 180.393383 80.455277 
L 180.633118 80.487315 
L 180.872852 79.628436 
L 181.112586 79.489767 
L 181.35232 81.05051 
L 181.592054 81.804129 
L 181.831789 81.669099 
L 182.071523 80.974703 
L 182.550991 80.463815 
L 182.790725 80.544649 
L 183.03046 83.025263 
L 183.270194 80.990982 
L 183.509928 81.062153 
L 183.749662 80.607818 
L 183.989396 81.290504 
L 184.229131 80.601576 
L 184.468865 81.96408 
L 184.708599 81.697227 
L 184.948333 81.181827 
L 185.188068 82.29192 
L 185.427802 80.163894 
L 185.90727 81.196911 
L 186.147004 80.809508 
L 186.386739 81.136494 
L 186.626473 81.687584 
L 186.866207 81.504635 
L 187.105941 80.231945 
L 187.345675 80.772812 
L 187.58541 79.213081 
L 188.304612 81.503398 
L 188.544346 80.765106 
L 189.263549 81.574623 
L 189.503283 81.559093 
L 189.743018 81.833926 
L 189.982752 79.980527 
L 190.222486 81.80178 
L 190.46222 80.586306 
L 190.701954 81.756165 
L 190.941689 81.370712 
L 191.181423 81.626256 
L 191.421157 81.435433 
L 191.660891 81.393962 
L 191.900625 80.348683 
L 192.14036 81.748768 
L 192.380094 80.123714 
L 192.619828 80.900815 
L 192.859562 79.743896 
L 193.099296 80.208413 
L 193.339031 80.054781 
L 193.578765 81.081323 
L 193.818499 81.051605 
L 194.058233 80.673305 
L 194.297967 80.517657 
L 194.537702 81.961463 
L 194.777436 80.584643 
L 195.01717 80.827481 
L 195.256904 82.596833 
L 195.496639 81.806342 
L 195.736373 80.496398 
L 195.976107 82.091766 
L 196.455575 80.213057 
L 196.69531 81.941832 
L 196.935044 81.209174 
L 197.174778 82.366569 
L 197.414512 80.698304 
L 197.654246 81.27484 
L 197.893981 82.848425 
L 198.133715 80.799383 
L 198.373449 80.762807 
L 198.613183 81.735682 
L 198.852917 81.428235 
L 199.092652 81.306519 
L 199.332386 80.673705 
L 199.57212 81.239538 
L 199.811854 81.094637 
L 200.051588 81.742338 
L 200.291323 81.233956 
L 200.531057 81.69089 
L 200.770791 81.479493 
L 201.010525 79.702079 
L 201.25026 80.722378 
L 201.489994 80.978937 
L 201.729728 80.386946 
L 201.969462 80.688298 
L 202.448931 82.134286 
L 202.688665 80.107811 
L 202.928399 81.286492 
L 203.168133 80.84643 
L 203.407867 81.473206 
L 203.647602 81.649257 
L 204.12707 81.120604 
L 204.606538 80.7876 
L 204.846273 80.961949 
L 205.325741 82.348364 
L 205.565475 80.272205 
L 205.80521 81.382332 
L 206.044944 80.018072 
L 206.284678 81.343585 
L 206.524412 80.215016 
L 206.764146 80.857515 
L 207.003881 80.505819 
L 207.243615 81.55798 
L 207.483349 81.286409 
L 207.723083 80.844177 
L 207.962817 81.569235 
L 208.202552 80.233315 
L 208.442286 81.998347 
L 208.68202 81.422358 
L 208.921754 82.116387 
L 209.161488 80.839262 
L 209.401223 80.367232 
L 209.880691 81.272869 
L 210.120425 80.301227 
L 210.360159 81.765787 
L 210.599894 81.574462 
L 210.839628 79.852555 
L 211.079362 80.702976 
L 211.319096 80.402983 
L 211.558831 80.491484 
L 212.038299 81.855444 
L 212.278033 82.104103 
L 212.757502 80.017288 
L 212.997236 82.169897 
L 213.23697 81.953191 
L 213.476704 80.844606 
L 213.716438 81.391889 
L 213.956173 81.424933 
L 214.195907 82.082731 
L 214.435641 81.226169 
L 214.675375 79.460819 
L 214.915109 81.278633 
L 215.154844 81.111599 
L 215.394578 81.965729 
L 215.634312 81.282928 
L 215.874046 81.237312 
L 216.11378 81.731622 
L 216.353515 80.987223 
L 216.593249 80.857358 
L 216.832983 81.648014 
L 217.072717 81.67327 
L 217.312452 81.538316 
L 217.552186 81.579844 
L 218.271388 80.320377 
L 218.511123 81.650645 
L 219.230325 81.81788 
L 219.470059 80.483151 
L 219.709794 81.722622 
L 219.949528 81.759571 
L 220.189262 80.432278 
L 220.428996 81.023126 
L 220.66873 81.197884 
L 220.908465 81.078256 
L 221.148199 80.351073 
L 221.387933 81.044613 
L 221.627667 79.36803 
L 221.867402 80.43124 
L 222.107136 80.900595 
L 222.34687 79.851421 
L 222.586604 80.639664 
L 222.826338 82.023665 
L 223.066073 81.058292 
L 223.305807 81.609715 
L 223.545541 80.539163 
L 223.785275 82.404913 
L 224.025009 81.442387 
L 224.264744 81.587502 
L 224.504478 80.435379 
L 224.744212 80.54497 
L 224.983946 81.402632 
L 225.22368 79.912298 
L 225.463415 80.857091 
L 225.703149 79.581605 
L 225.942883 81.186274 
L 226.182617 81.603098 
L 226.662086 80.767862 
L 226.90182 80.992085 
L 227.141554 81.962571 
L 227.381288 79.804069 
L 227.621023 81.508582 
L 227.860757 80.670512 
L 228.100491 80.735526 
L 228.340225 80.636216 
L 228.579959 80.671543 
L 228.819694 80.433488 
L 229.059428 80.402954 
L 229.538896 81.682775 
L 229.77863 80.639925 
L 230.018365 80.419625 
L 230.258099 79.426269 
L 230.737567 81.808758 
L 230.977301 82.13752 
L 231.217036 79.943431 
L 231.45677 80.627244 
L 231.696504 82.490913 
L 231.936238 81.322501 
L 232.175972 81.414599 
L 232.415707 80.293771 
L 232.655441 81.443455 
L 232.895175 81.61169 
L 233.374644 81.717433 
L 233.614378 80.901334 
L 234.093846 80.127008 
L 234.33358 81.461044 
L 234.573315 79.893337 
L 234.813049 81.205496 
L 235.052783 81.762625 
L 235.292517 80.689867 
L 235.532251 80.579497 
L 235.771986 80.844797 
L 236.01172 80.30881 
L 236.251454 81.873614 
L 236.491188 81.283196 
L 236.730922 81.286777 
L 236.970657 80.807017 
L 237.210391 81.719831 
L 237.450125 81.504509 
L 237.689859 80.611032 
L 237.929593 81.046383 
L 238.169328 80.623834 
L 238.409062 81.292443 
L 238.648796 80.702847 
L 239.128265 81.957075 
L 239.367999 80.045952 
L 239.607733 81.568918 
L 239.847467 81.327092 
L 240.087201 80.687561 
L 240.326936 81.829802 
L 240.56667 80.631816 
L 241.046138 80.955145 
L 241.285872 79.77786 
L 241.525607 81.567397 
L 241.765341 81.541377 
L 242.005075 82.52804 
L 242.244809 79.913732 
L 242.484543 80.884926 
L 242.724278 81.221356 
L 242.964012 79.96742 
L 243.203746 80.033802 
L 243.44348 81.13181 
L 243.683215 81.311985 
L 243.922949 80.912412 
L 244.162683 81.337241 
L 244.402417 80.304291 
L 244.642151 81.143096 
L 244.881886 82.494332 
L 245.12162 80.740116 
L 245.361354 80.469972 
L 245.601088 81.707017 
L 245.840822 81.081678 
L 246.080557 82.168111 
L 246.320291 81.229945 
L 246.560025 83.004067 
L 246.799759 80.275457 
L 247.039493 82.037566 
L 247.518962 80.618663 
L 247.758696 80.69643 
L 247.99843 82.466545 
L 248.238164 80.65198 
L 248.477899 80.976486 
L 248.717633 79.991977 
L 248.957367 81.245704 
L 249.197101 81.245217 
L 249.436836 80.152755 
L 249.67657 79.914869 
L 249.916304 80.964314 
L 250.156038 80.916227 
L 250.395772 79.497001 
L 250.635507 81.778581 
L 250.875241 80.754359 
L 251.114975 80.969723 
L 251.354709 80.586674 
L 251.834178 80.547786 
L 252.073912 81.877807 
L 252.313646 81.235812 
L 252.793114 80.783503 
L 253.032849 81.765668 
L 253.272583 80.98287 
L 253.512317 81.53238 
L 253.752051 80.908907 
L 253.991785 80.601703 
L 254.23152 82.234182 
L 254.471254 81.435707 
L 254.710988 81.415636 
L 254.950722 79.579756 
L 255.430191 82.030535 
L 255.669925 80.627781 
L 255.909659 80.757735 
L 256.149393 80.749146 
L 256.389128 81.035822 
L 256.868596 80.809944 
L 257.10833 81.591801 
L 257.348064 80.342696 
L 257.587799 80.870969 
L 257.827533 82.032423 
L 258.067267 80.515529 
L 258.307001 81.622433 
L 258.78647 80.765753 
L 259.026204 81.378609 
L 259.265938 80.838553 
L 259.505672 80.645276 
L 259.745407 79.911364 
L 259.985141 82.246126 
L 260.224875 81.545071 
L 260.464609 81.243454 
L 260.704343 79.682408 
L 260.944078 80.765309 
L 261.183812 80.512728 
L 261.423546 82.233228 
L 261.66328 79.94703 
L 261.903014 79.602281 
L 262.142749 81.363338 
L 262.382483 81.581495 
L 262.622217 80.262908 
L 262.861951 81.428658 
L 263.101685 81.349319 
L 263.34142 82.221619 
L 263.581154 81.590771 
L 263.820888 81.52934 
L 264.060622 80.792667 
L 264.300356 81.469692 
L 264.540091 80.180417 
L 264.779825 81.389486 
L 265.019559 81.655332 
L 265.259293 80.829052 
L 265.499028 81.444573 
L 265.738762 81.401534 
L 265.978496 80.024476 
L 266.21823 80.813031 
L 266.457964 82.776396 
L 266.697699 81.110299 
L 266.937433 81.516365 
L 267.177167 80.758649 
L 267.416901 80.398906 
L 267.656635 80.909053 
L 267.89637 80.919146 
L 268.136104 80.645038 
L 268.375838 80.637251 
L 268.615572 81.439845 
L 268.855306 81.268861 
L 269.095041 81.324883 
L 269.334775 82.185706 
L 270.053977 80.499922 
L 270.293712 81.207025 
L 270.533446 80.623231 
L 270.77318 80.673069 
L 271.012914 82.101511 
L 271.252649 80.687726 
L 271.492383 82.59593 
L 271.732117 79.911405 
L 271.971851 81.636997 
L 272.211585 79.594315 
L 272.45132 80.563242 
L 272.691054 80.603263 
L 272.930788 81.485399 
L 273.410256 80.651976 
L 273.649991 80.906073 
L 273.889725 79.785136 
L 274.129459 81.085514 
L 274.369193 80.525956 
L 274.608927 80.407313 
L 274.848662 79.025259 
L 275.088396 81.126974 
L 275.567864 81.126498 
L 275.807598 81.519614 
L 276.047333 81.668693 
L 276.766535 79.769551 
L 277.00627 81.48347 
L 277.246004 80.845552 
L 277.485738 81.902968 
L 277.725472 79.436456 
L 277.965206 80.261348 
L 278.204941 82.175188 
L 278.444675 80.738759 
L 278.684409 81.658557 
L 278.924143 81.716636 
L 279.163877 80.209697 
L 279.403612 81.894269 
L 279.643346 81.544009 
L 279.88308 80.700953 
L 280.122814 81.048274 
L 280.362548 80.595247 
L 280.602283 81.343764 
L 280.842017 80.06518 
L 281.081751 80.523514 
L 281.56122 80.441563 
L 281.800954 81.098143 
L 282.040688 80.99843 
L 282.280422 80.258531 
L 282.520156 80.570573 
L 282.759891 81.882322 
L 282.999625 80.488904 
L 283.239359 82.002334 
L 283.479093 80.993055 
L 283.718827 81.725117 
L 283.958562 81.660388 
L 284.198296 80.518094 
L 284.43803 82.28555 
L 284.917498 81.449297 
L 285.157233 81.873293 
L 285.396967 81.008721 
L 285.636701 81.654183 
L 285.876435 80.834598 
L 286.116169 81.268225 
L 286.355904 81.115291 
L 286.595638 80.692642 
L 286.835372 81.183149 
L 287.075106 81.34443 
L 287.314841 81.370593 
L 287.554575 81.835728 
L 287.794309 80.817995 
L 288.034043 81.204167 
L 288.273777 82.06463 
L 288.513512 79.511411 
L 288.753246 82.065294 
L 288.99298 82.143149 
L 289.232714 81.167297 
L 289.472448 81.792185 
L 289.712183 80.722415 
L 289.951917 80.471828 
L 290.191651 80.757934 
L 290.431385 81.69146 
L 290.671119 81.374003 
L 290.910854 80.546916 
L 291.150588 80.455393 
L 291.390322 79.804574 
L 291.630056 81.228893 
L 291.86979 79.566942 
L 292.109525 81.311419 
L 292.349259 80.657019 
L 292.588993 80.701713 
L 292.828727 81.835322 
L 293.068462 81.041968 
L 293.308196 79.772642 
L 293.54793 81.499647 
L 293.787664 81.274347 
L 294.027398 80.669223 
L 294.267133 81.229532 
L 294.506867 81.220524 
L 294.746601 80.027248 
L 294.986335 79.729723 
L 295.226069 80.846577 
L 295.705538 80.164073 
L 295.945272 80.550379 
L 296.185006 80.038506 
L 296.42474 80.110596 
L 296.664475 81.700012 
L 296.904209 81.067026 
L 297.143943 81.386898 
L 297.383677 80.128207 
L 297.623412 82.236105 
L 298.10288 81.240502 
L 298.342614 81.555105 
L 298.582348 80.385625 
L 298.822083 81.509097 
L 299.061817 81.298591 
L 299.301551 80.190465 
L 299.541285 80.704671 
L 299.781019 80.721438 
L 300.020754 80.018768 
L 300.260488 81.472081 
L 300.739956 81.184338 
L 300.97969 80.702972 
L 301.219425 81.925287 
L 301.459159 80.473319 
L 301.938627 81.414227 
L 302.178361 81.19153 
L 302.418096 82.02444 
L 302.65783 81.052394 
L 302.897564 81.070871 
L 303.137298 80.429291 
L 303.377033 80.585121 
L 303.616767 81.604256 
L 303.856501 81.612646 
L 304.096235 82.237461 
L 304.335969 80.56254 
L 304.575704 79.709668 
L 305.055172 81.781376 
L 305.294906 81.768224 
L 305.53464 80.364402 
L 305.774375 80.663647 
L 306.014109 80.606339 
L 306.253843 82.289564 
L 306.493577 82.579632 
L 306.733311 81.764303 
L 306.973046 81.844452 
L 307.21278 79.334104 
L 307.452514 81.374653 
L 307.692248 81.632597 
L 307.931982 81.686605 
L 308.171717 80.1318 
L 308.411451 81.463415 
L 308.651185 80.860513 
L 308.890919 80.94705 
L 309.130654 81.301874 
L 309.370388 81.2084 
L 309.610122 81.34864 
L 309.849856 80.906814 
L 310.08959 81.13721 
L 310.329325 80.38609 
L 310.569059 81.524093 
L 310.808793 79.954926 
L 311.048527 81.844749 
L 311.288261 81.579245 
L 311.527996 80.220588 
L 312.007464 82.013159 
L 312.247198 80.431562 
L 312.486932 80.412837 
L 312.726667 80.235108 
L 313.445869 82.123355 
L 313.685604 79.969809 
L 313.925338 81.603258 
L 314.165072 80.19184 
L 314.404806 81.418927 
L 314.64454 81.511858 
L 315.124009 81.046136 
L 315.363743 81.337175 
L 315.603477 80.916067 
L 315.843211 81.258251 
L 316.082946 80.337236 
L 316.32268 80.02712 
L 316.562414 80.995045 
L 316.802148 80.422098 
L 317.041882 81.689186 
L 317.281617 80.308515 
L 317.521351 81.762025 
L 317.761085 81.837559 
L 318.000819 80.869608 
L 318.240553 81.97024 
L 318.480288 81.491679 
L 318.720022 82.605739 
L 318.959756 81.49913 
L 319.19949 81.204306 
L 319.439225 82.162992 
L 319.678959 81.013134 
L 319.918693 80.665092 
L 320.158427 80.86933 
L 320.398161 80.87067 
L 320.637896 79.541419 
L 320.87763 80.992324 
L 321.357098 80.906771 
L 321.596832 82.596828 
L 321.836567 81.759272 
L 322.076301 81.344837 
L 322.316035 81.440878 
L 322.555769 80.748158 
L 322.795503 81.877139 
L 323.035238 81.123023 
L 323.274972 82.032611 
L 323.75444 81.054966 
L 323.994174 80.145657 
L 324.473643 83.030197 
L 324.713377 81.095901 
L 324.953111 81.472087 
L 325.192846 80.970973 
L 325.43258 80.047644 
L 325.672314 82.362054 
L 325.912048 82.07622 
L 326.151782 80.51171 
L 326.391517 80.332204 
L 326.870985 82.143546 
L 327.110719 79.893095 
L 327.350453 80.887117 
L 327.590188 81.284328 
L 327.829922 80.94332 
L 328.069656 80.874501 
L 328.30939 81.312474 
L 328.549124 80.848768 
L 329.028593 79.571708 
L 329.268327 81.588803 
L 329.508061 80.002692 
L 329.747795 81.131711 
L 329.98753 80.936293 
L 330.227264 79.932178 
L 330.466998 80.323894 
L 330.706732 80.188739 
L 330.946467 80.61342 
L 331.186201 80.600285 
L 331.425935 81.934167 
L 331.905403 80.39092 
L 332.145138 80.062365 
L 332.384872 82.502898 
L 332.624606 80.339689 
L 332.86434 79.622659 
L 333.104074 79.482107 
L 333.583543 82.019822 
L 333.823277 81.952698 
L 334.063011 80.897983 
L 334.302745 81.342552 
L 334.54248 81.430645 
L 334.782214 80.546823 
L 335.021948 81.346423 
L 335.261682 79.674115 
L 335.501417 80.220383 
L 335.741151 81.855653 
L 335.980885 81.1521 
L 336.220619 81.055613 
L 336.460353 81.246923 
L 336.700088 82.166705 
L 337.179556 80.8941 
L 337.41929 81.011646 
L 337.659024 79.894353 
L 337.898759 81.759361 
L 338.138493 81.472584 
L 338.378227 81.380473 
L 338.617961 80.081239 
L 338.857695 82.063412 
L 339.337164 80.702737 
L 340.056366 81.573188 
L 340.296101 79.921158 
L 340.535835 80.823322 
L 340.775569 80.599118 
L 341.255038 81.705419 
L 341.734506 80.616202 
L 341.97424 81.164029 
L 342.213974 81.202277 
L 342.453709 79.986161 
L 342.933177 81.815855 
L 343.172911 79.319224 
L 343.65238 81.856898 
L 343.892114 79.84251 
L 344.371582 81.463405 
L 344.611316 80.225498 
L 344.851051 81.699402 
L 345.090785 81.890695 
L 345.330519 80.580269 
L 345.570253 80.495016 
L 345.809987 80.209217 
L 346.049722 80.943679 
L 346.289456 81.098663 
L 346.52919 80.973988 
L 346.768924 81.345386 
L 347.008659 80.255931 
L 347.488127 81.97657 
L 347.727861 80.220584 
L 347.967595 81.586944 
L 348.20733 81.037436 
L 348.447064 82.022052 
L 348.686798 80.918864 
L 349.406001 80.267877 
L 349.645735 81.580596 
L 349.885469 81.728536 
L 350.125203 80.801613 
L 350.364937 81.087765 
L 350.604672 81.630498 
L 350.844406 79.854018 
L 351.08414 81.166948 
L 351.323874 81.585184 
L 351.563609 80.503106 
L 352.043077 80.845192 
L 352.282811 80.150436 
L 352.522545 80.146357 
L 352.76228 81.301609 
L 353.002014 81.067966 
L 353.241748 80.203742 
L 353.481482 80.248269 
L 353.721216 80.631056 
L 353.960951 80.658859 
L 354.200685 80.535788 
L 354.440419 81.935654 
L 354.680153 80.249593 
L 354.919887 80.186296 
L 355.159622 81.341963 
L 355.399356 80.220125 
L 355.63909 80.81884 
L 355.878824 80.711498 
L 356.118558 82.292502 
L 356.358293 79.725772 
L 356.598027 81.879704 
L 356.837761 81.209152 
L 357.077495 79.910583 
L 357.31723 81.217328 
L 357.556964 80.952452 
L 357.796698 82.192217 
L 358.036432 80.157781 
L 358.276166 81.544907 
L 358.515901 80.553417 
L 358.755635 82.636675 
L 358.995369 81.04626 
L 359.235103 81.805751 
L 359.474837 81.477292 
L 359.714572 80.701655 
L 359.954306 80.615606 
L 360.19404 80.241257 
L 360.913243 81.866504 
L 361.152977 81.336291 
L 361.392711 80.319569 
L 361.632445 80.262195 
L 362.111914 81.933255 
L 362.351648 80.876858 
L 362.591382 82.679991 
L 362.831116 81.027473 
L 363.070851 82.206373 
L 363.310585 81.601326 
L 363.550319 81.457004 
L 363.790053 80.384574 
L 364.029787 81.495397 
L 364.269522 81.142989 
L 364.509256 80.997837 
L 364.74899 81.907798 
L 364.988724 80.111043 
L 365.228458 81.817772 
L 365.707927 79.828916 
L 365.947661 80.486005 
L 366.187395 81.551324 
L 366.427129 80.908618 
L 366.666864 81.604477 
L 366.906598 81.809759 
L 367.146332 80.105304 
L 367.386066 81.54863 
L 367.625801 80.524681 
L 367.865535 82.570185 
L 368.345003 80.386336 
L 368.584737 81.313855 
L 368.824472 80.930159 
L 369.064206 81.16598 
L 369.30394 81.751061 
L 369.543674 80.676632 
L 369.783408 80.378532 
L 370.023143 79.7472 
L 370.982079 81.92252 
L 371.221814 80.957758 
L 371.461548 81.816191 
L 371.941016 79.990279 
L 372.18075 81.49636 
L 372.420485 80.107555 
L 372.660219 80.603077 
L 372.899953 79.554742 
L 373.139687 81.867781 
L 373.379422 81.214932 
L 373.619156 79.243273 
L 373.85889 80.435395 
L 374.098624 81.033612 
L 374.338358 81.185167 
L 374.578093 80.342543 
L 374.817827 81.618576 
L 375.057561 81.902453 
L 375.297295 81.101431 
L 375.537029 81.758083 
L 375.776764 80.09869 
L 376.016498 81.360399 
L 376.495966 80.500444 
L 376.7357 80.52854 
L 376.975435 80.170246 
L 377.215169 81.438628 
L 377.454903 80.908984 
L 377.934371 81.283361 
L 378.174106 81.878635 
L 378.41384 81.388489 
L 378.653574 80.604272 
L 378.893308 81.843281 
L 379.133043 80.727281 
L 379.372777 81.541919 
L 379.852245 80.353362 
L 380.091979 81.526948 
L 380.331714 81.607084 
L 380.571448 80.813133 
L 380.811182 82.047335 
L 381.050916 80.418276 
L 381.530385 81.737024 
L 381.770119 80.027892 
L 382.009853 81.879456 
L 382.489321 80.904434 
L 382.729056 81.05218 
L 382.96879 80.49385 
L 383.208524 81.61506 
L 383.448258 80.036239 
L 383.687992 81.442283 
L 383.927727 81.953974 
L 384.167461 80.287074 
L 384.407195 81.37782 
L 384.646929 81.892152 
L 384.886664 80.033322 
L 385.126398 80.250694 
L 385.366132 81.499311 
L 385.605866 81.099028 
L 385.8456 81.076475 
L 386.085335 79.914546 
L 386.325069 81.828701 
L 386.564803 81.581012 
L 386.804537 79.299121 
L 387.284006 81.276551 
L 387.52374 81.262543 
L 387.763474 80.81575 
L 388.003208 81.030392 
L 388.242942 80.846395 
L 388.482677 79.087321 
L 388.722411 81.08304 
L 388.962145 81.273411 
L 389.201879 81.304417 
L 389.441614 81.591263 
L 389.681348 81.354369 
L 389.921082 79.79357 
L 390.160816 81.409766 
L 390.40055 80.73688 
L 390.640285 81.481423 
L 391.119753 80.871872 
L 391.359487 80.938908 
L 391.599221 81.340844 
L 391.838956 80.6974 
L 392.318424 80.85362 
L 392.797892 81.711271 
L 393.037627 80.874645 
L 393.277361 81.034 
L 393.517095 80.942263 
L 393.756829 81.718276 
L 393.996563 80.358818 
L 394.236298 81.536136 
L 394.476032 80.957758 
L 394.9555 82.050508 
L 395.195235 82.069959 
L 395.434969 81.45058 
L 395.674703 79.718019 
L 395.914437 79.844222 
L 396.154171 81.224634 
L 396.393906 81.328231 
L 396.63364 80.930322 
L 396.873374 81.73738 
L 397.113108 80.906728 
L 397.352842 80.658494 
L 397.592577 81.293163 
L 397.832311 80.305205 
L 398.072045 80.38862 
L 398.311779 81.185439 
L 398.551513 81.185583 
L 398.791248 81.772119 
L 399.030982 80.868377 
L 399.270716 81.24147 
L 399.51045 80.802676 
L 399.750184 81.769102 
L 400.229653 80.468024 
L 400.469387 80.589107 
L 400.709121 81.128688 
L 400.948856 81.130003 
L 401.18859 80.474988 
L 401.428324 81.365676 
L 401.668058 80.965598 
L 401.907792 81.148124 
L 402.147527 80.467489 
L 402.387261 81.865111 
L 402.626995 80.324777 
L 402.866729 81.752456 
L 403.106463 81.424204 
L 403.346198 81.503648 
L 403.585932 81.434914 
L 403.825666 80.749098 
L 404.0654 80.687276 
L 404.305134 81.002765 
L 404.544869 80.623191 
L 404.784603 81.806238 
L 405.024337 81.045879 
L 405.264071 81.386498 
L 405.503806 80.297045 
L 405.74354 81.939468 
L 405.983274 81.276998 
L 406.223008 81.066873 
L 406.462742 81.254825 
L 406.702477 82.096201 
L 406.942211 80.787772 
L 407.661413 81.113394 
L 408.140882 80.3888 
L 408.380616 81.152679 
L 408.62035 79.446824 
L 408.860084 81.682898 
L 409.099819 79.083409 
L 409.339553 80.939304 
L 409.579287 80.531425 
L 409.819021 81.104651 
L 410.058755 80.522201 
L 410.29849 81.338522 
L 410.538224 80.644367 
L 410.777958 81.864006 
L 411.017692 80.750821 
L 411.497161 81.395506 
L 411.736895 82.767847 
L 411.976629 82.093644 
L 412.216363 80.384625 
L 412.456098 81.734492 
L 412.695832 80.651632 
L 412.935566 80.711735 
L 413.1753 79.917041 
L 413.415034 81.938394 
L 413.654769 81.328513 
L 413.894503 81.06579 
L 414.373971 81.250794 
L 414.613705 80.140882 
L 414.85344 80.81119 
L 415.093174 81.072591 
L 415.332908 79.599289 
L 415.572642 80.506364 
L 415.812376 80.342827 
L 416.052111 81.653065 
L 416.291845 80.757677 
L 416.771313 80.358458 
L 417.011048 81.211383 
L 417.490516 80.35586 
L 417.73025 80.583677 
L 417.969984 82.386862 
L 418.209719 80.679969 
L 418.449453 79.980085 
L 418.928921 80.321602 
L 419.168655 81.534077 
L 419.40839 81.264265 
L 419.648124 81.520948 
L 419.887858 82.036238 
L 420.127592 81.362815 
L 420.607061 82.517089 
L 420.846795 80.203881 
L 421.086529 81.966671 
L 421.326263 81.947941 
L 421.565997 79.861972 
L 421.805732 81.732638 
L 422.045466 79.758906 
L 422.2852 81.182534 
L 422.524934 80.079146 
L 422.764669 80.521252 
L 423.004403 80.423304 
L 423.244137 80.701329 
L 423.483871 80.186055 
L 423.723605 79.977197 
L 423.96334 81.128095 
L 424.203074 81.409547 
L 424.442808 80.554971 
L 424.682542 80.95788 
L 424.922276 81.95241 
L 425.162011 82.187241 
L 425.401745 81.219166 
L 425.641479 81.59347 
L 425.881213 80.111556 
L 426.120947 81.704009 
L 426.360682 80.653326 
L 426.600416 81.912328 
L 426.84015 80.241204 
L 427.079884 82.06148 
L 427.559353 79.847591 
L 427.799087 80.237795 
L 428.038821 79.732117 
L 428.278555 80.624931 
L 428.51829 80.47829 
L 428.758024 80.675349 
L 428.997758 81.270049 
L 429.237492 80.111533 
L 429.477226 81.936287 
L 429.716961 82.143387 
L 429.956695 81.575876 
L 430.196429 80.182448 
L 430.436163 81.666455 
L 430.915632 79.804011 
L 431.155366 80.417163 
L 431.3951 81.58325 
L 431.634834 80.199448 
L 431.874568 81.546828 
L 432.114303 81.310634 
L 432.354037 79.804147 
L 432.593771 81.158159 
L 432.833505 81.110274 
L 433.07324 80.124956 
L 433.552708 82.177749 
L 433.792442 81.708075 
L 434.032176 80.279436 
L 434.271911 81.923605 
L 434.511645 80.821459 
L 434.751379 80.909116 
L 434.991113 80.656863 
L 435.230847 81.236072 
L 435.470582 80.097986 
L 435.710316 80.602664 
L 435.95005 79.952778 
L 436.189784 80.589802 
L 436.429518 80.484814 
L 436.669253 82.009734 
L 437.148721 79.72631 
L 437.388455 80.355114 
L 437.628189 80.617204 
L 437.867924 81.164917 
L 438.107658 80.819115 
L 438.347392 81.641571 
L 438.587126 80.586939 
L 438.826861 81.482052 
L 439.066595 81.2512 
L 439.306329 79.842644 
L 439.546063 82.123722 
L 439.785797 81.198232 
L 440.265266 80.948223 
L 440.505 81.165487 
L 440.505 81.165487 
" clip-path="url(#p3de52ecf93)" style="fill: none; stroke: #0000ff; stroke-width: 1.5; stroke-linecap: square"/>
   </g>
   <g id="patch_3">
    <path d="M 57.17 135.88 
L 57.17 26.16 
" style="fill: none; stroke: #000000; stroke-width: 0.8; stroke-linejoin: miter; stroke-linecap: square"/>
   </g>
   <g id="patch_4">
    <path d="M 440.505 135.88 
L 440.505 26.16 
" style="fill: none; stroke: #000000; stroke-width: 0.8; stroke-linejoin: miter; stroke-linecap: square"/>
   </g>
   <g id="patch_5">
    <path d="M 57.17 135.88 
L 440.505 135.88 
" style="fill: none; stroke: #000000; stroke-width: 0.8; stroke-linejoin: miter; stroke-linecap: square"/>
   </g>
   <g id="patch_6">
    <path d="M 57.17 26.16 
L 440.505 26.16 
" style="fill: none; stroke: #000000; stroke-width: 0.8; stroke-linejoin: miter; stroke-linecap: square"/>
   </g>
   <g id="text_14">
    <!-- Time Domain -->
    <g transform="translate(208.295312 20.16) scale(0.12 -0.12)">
     <defs>
      <path id="DejaVuSerif-44" d="M 1581 331 
L 2163 331 
Q 3072 331 3558 850 
Q 4044 1369 4044 2338 
Q 4044 3306 3559 3818 
Q 3075 4331 2163 4331 
L 1581 4331 
L 1581 331 
z
M 353 0 
L 353 331 
L 947 331 
L 947 4331 
L 353 4331 
L 353 4666 
L 2209 4666 
Q 3416 4666 4089 4050 
Q 4763 3434 4763 2338 
Q 4763 1238 4088 619 
Q 3413 0 2209 0 
L 353 0 
z
" transform="scale(0.015625)"/>
      <path id="DejaVuSerif-61" d="M 2547 1044 
L 2547 1747 
L 1806 1747 
Q 1378 1747 1168 1562 
Q 959 1378 959 997 
Q 959 650 1171 447 
Q 1384 244 1747 244 
Q 2106 244 2326 466 
Q 2547 688 2547 1044 
z
M 3122 2075 
L 3122 331 
L 3634 331 
L 3634 0 
L 2547 0 
L 2547 359 
Q 2356 128 2106 18 
Q 1856 -91 1522 -91 
Q 969 -91 644 203 
Q 319 497 319 997 
Q 319 1513 691 1797 
Q 1063 2081 1741 2081 
L 2547 2081 
L 2547 2309 
Q 2547 2688 2317 2895 
Q 2088 3103 1672 3103 
Q 1328 3103 1125 2947 
Q 922 2791 872 2484 
L 575 2484 
L 575 3156 
Q 875 3284 1158 3348 
Q 1441 3413 1709 3413 
Q 2400 3413 2761 3070 
Q 3122 2728 3122 2075 
z
" transform="scale(0.015625)"/>
     </defs>
     <use xlink:href="#DejaVuSerif-54"/>
     <use xlink:href="#DejaVuSerif-69" x="66.699219"/>
     <use xlink:href="#DejaVuSerif-6d" x="98.681641"/>
     <use xlink:href="#DejaVuSerif-65" x="193.505859"/>
     <use xlink:href="#DejaVuSerif-20" x="252.685547"/>
     <use xlink:href="#DejaVuSerif-44" x="284.472656"/>
     <use xlink:href="#DejaVuSerif-6f" x="364.648438"/>
     <use xlink:href="#DejaVuSerif-6d" x="424.853516"/>
     <use xlink:href="#DejaVuSerif-61" x="519.677734"/>
     <use xlink:href="#DejaVuSerif-69" x="579.296875"/>
     <use xlink:href="#DejaVuSerif-6e" x="611.279297"/>
    </g>
   </g>
  </g>
  <g id="axes_2">
   <g id="patch_7">
    <path d="M 57.17 303.64 
L 440.505 303.64 
L 440.505 193.92 
L 57.17 193.92 
z
" style="fill: #ffffff"/>
   </g>
   <g id="matplotlib.axis_3">
    <g id="xtick_7">
     <g id="line2d_24">
      <path d="M 84.551071 303.64 
L 84.551071 193.92 
" clip-path="url(#p7f1f03810f)" style="fill: none; stroke: #000000; stroke-opacity: 0.3; stroke-width: 0.8; stroke-linecap: square"/>
     </g>
     <g id="line2d_25">
      <g>
       <use xlink:href="#mb0b7f484c5" x="84.551071" y="303.64" style="stroke: #000000; stroke-width: 0.8"/>
      </g>
     </g>
     <g id="text_15">
      <!-- 3 -->
      <g transform="translate(77.179978 318.238437) scale(0.1 -0.1)">
       <defs>
        <path id="DejaVuSans-2212" d="M 678 2272 
L 4684 2272 
L 4684 1741 
L 678 1741 
L 678 2272 
z
" transform="scale(0.015625)"/>
        <path id="DejaVuSans-33" d="M 2597 2516 
Q 3050 2419 3304 2112 
Q 3559 1806 3559 1356 
Q 3559 666 3084 287 
Q 2609 -91 1734 -91 
Q 1441 -91 1130 -33 
Q 819 25 488 141 
L 488 750 
Q 750 597 1062 519 
Q 1375 441 1716 441 
Q 2309 441 2620 675 
Q 2931 909 2931 1356 
Q 2931 1769 2642 2001 
Q 2353 2234 1838 2234 
L 1294 2234 
L 1294 2753 
L 1863 2753 
Q 2328 2753 2575 2939 
Q 2822 3125 2822 3475 
Q 2822 3834 2567 4026 
Q 2313 4219 1838 4219 
Q 1578 4219 1281 4162 
Q 984 4106 628 3988 
L 628 4550 
Q 988 4650 1302 4700 
Q 1616 4750 1894 4750 
Q 2613 4750 3031 4423 
Q 3450 4097 3450 3541 
Q 3450 3153 3228 2886 
Q 3006 2619 2597 2516 
z
" transform="scale(0.015625)"/>
       </defs>
       <use xlink:href="#DejaVuSans-2212"/>
       <use xlink:href="#DejaVuSans-33" x="83.789062"/>
      </g>
     </g>
    </g>
    <g id="xtick_8">
     <g id="line2d_26">
      <path d="M 139.313214 303.64 
L 139.313214 193.92 
" clip-path="url(#p7f1f03810f)" style="fill: none; stroke: #000000; stroke-opacity: 0.3; stroke-width: 0.8; stroke-linecap: square"/>
     </g>
     <g id="line2d_27">
      <g>
       <use xlink:href="#mb0b7f484c5" x="139.313214" y="303.64" style="stroke: #000000; stroke-width: 0.8"/>
      </g>
     </g>
     <g id="text_16">
      <!-- 2 -->
      <g transform="translate(131.942121 318.238437) scale(0.1 -0.1)">
       <defs>
        <path id="DejaVuSans-32" d="M 1228 531 
L 3431 531 
L 3431 0 
L 469 0 
L 469 531 
Q 828 903 1448 1529 
Q 2069 2156 2228 2338 
Q 2531 2678 2651 2914 
Q 2772 3150 2772 3378 
Q 2772 3750 2511 3984 
Q 2250 4219 1831 4219 
Q 1534 4219 1204 4116 
Q 875 4013 500 3803 
L 500 4441 
Q 881 4594 1212 4672 
Q 1544 4750 1819 4750 
Q 2544 4750 2975 4387 
Q 3406 4025 3406 3419 
Q 3406 3131 3298 2873 
Q 3191 2616 2906 2266 
Q 2828 2175 2409 1742 
Q 1991 1309 1228 531 
z
" transform="scale(0.015625)"/>
       </defs>
       <use xlink:href="#DejaVuSans-2212"/>
       <use xlink:href="#DejaVuSans-32" x="83.789062"/>
      </g>
     </g>
    </g>
    <g id="xtick_9">
     <g id="line2d_28">
      <path d="M 194.075357 303.64 
L 194.075357 193.92 
" clip-path="url(#p7f1f03810f)" style="fill: none; stroke: #000000; stroke-opacity: 0.3; stroke-width: 0.8; stroke-linecap: square"/>
     </g>
     <g id="line2d_29">
      <g>
       <use xlink:href="#mb0b7f484c5" x="194.075357" y="303.64" style="stroke: #000000; stroke-width: 0.8"/>
      </g>
     </g>
     <g id="text_17">
      <!-- 1 -->
      <g transform="translate(186.704263 318.238437) scale(0.1 -0.1)">
       <defs>
        <path id="DejaVuSans-31" d="M 794 531 
L 1825 531 
L 1825 4091 
L 703 3866 
L 703 4441 
L 1819 4666 
L 2450 4666 
L 2450 531 
L 3481 531 
L 3481 0 
L 794 0 
L 794 531 
z
" transform="scale(0.015625)"/>
       </defs>
       <use xlink:href="#DejaVuSans-2212"/>
       <use xlink:href="#DejaVuSans-31" x="83.789062"/>
      </g>
     </g>
    </g>
    <g id="xtick_10">
     <g id="line2d_30">
      <path d="M 248.8375 303.64 
L 248.8375 193.92 
" clip-path="url(#p7f1f03810f)" style="fill: none; stroke: #000000; stroke-opacity: 0.3; stroke-width: 0.8; stroke-linecap: square"/>
     </g>
     <g id="line2d_31">
      <g>
       <use xlink:href="#mb0b7f484c5" x="248.8375" y="303.64" style="stroke: #000000; stroke-width: 0.8"/>
      </g>
     </g>
     <g id="text_18">
      <!-- 0 -->
      <g transform="translate(245.65625 318.238437) scale(0.1 -0.1)">
       <defs>
        <path id="DejaVuSans-30" d="M 2034 4250 
Q 1547 4250 1301 3770 
Q 1056 3291 1056 2328 
Q 1056 1369 1301 889 
Q 1547 409 2034 409 
Q 2525 409 2770 889 
Q 3016 1369 3016 2328 
Q 3016 3291 2770 3770 
Q 2525 4250 2034 4250 
z
M 2034 4750 
Q 2819 4750 3233 4129 
Q 3647 3509 3647 2328 
Q 3647 1150 3233 529 
Q 2819 -91 2034 -91 
Q 1250 -91 836 529 
Q 422 1150 422 2328 
Q 422 3509 836 4129 
Q 1250 4750 2034 4750 
z
" transform="scale(0.015625)"/>
       </defs>
       <use xlink:href="#DejaVuSans-30"/>
      </g>
     </g>
    </g>
    <g id="xtick_11">
     <g id="line2d_32">
      <path d="M 303.599643 303.64 
L 303.599643 193.92 
" clip-path="url(#p7f1f03810f)" style="fill: none; stroke: #000000; stroke-opacity: 0.3; stroke-width: 0.8; stroke-linecap: square"/>
     </g>
     <g id="line2d_33">
      <g>
       <use xlink:href="#mb0b7f484c5" x="303.599643" y="303.64" style="stroke: #000000; stroke-width: 0.8"/>
      </g>
     </g>
     <g id="text_19">
      <!-- 1 -->
      <g transform="translate(300.418393 318.238437) scale(0.1 -0.1)">
       <use xlink:href="#DejaVuSans-31"/>
      </g>
     </g>
    </g>
    <g id="xtick_12">
     <g id="line2d_34">
      <path d="M 358.361786 303.64 
L 358.361786 193.92 
" clip-path="url(#p7f1f03810f)" style="fill: none; stroke: #000000; stroke-opacity: 0.3; stroke-width: 0.8; stroke-linecap: square"/>
     </g>
     <g id="line2d_35">
      <g>
       <use xlink:href="#mb0b7f484c5" x="358.361786" y="303.64" style="stroke: #000000; stroke-width: 0.8"/>
      </g>
     </g>
     <g id="text_20">
      <!-- 2 -->
      <g transform="translate(355.180536 318.238437) scale(0.1 -0.1)">
       <use xlink:href="#DejaVuSans-32"/>
      </g>
     </g>
    </g>
    <g id="xtick_13">
     <g id="line2d_36">
      <path d="M 413.123929 303.64 
L 413.123929 193.92 
" clip-path="url(#p7f1f03810f)" style="fill: none; stroke: #000000; stroke-opacity: 0.3; stroke-width: 0.8; stroke-linecap: square"/>
     </g>
     <g id="line2d_37">
      <g>
       <use xlink:href="#mb0b7f484c5" x="413.123929" y="303.64" style="stroke: #000000; stroke-width: 0.8"/>
      </g>
     </g>
     <g id="text_21">
      <!-- 3 -->
      <g transform="translate(409.942679 318.238437) scale(0.1 -0.1)">
       <use xlink:href="#DejaVuSans-33"/>
      </g>
     </g>
    </g>
    <g id="text_22">
     <!-- Frequency [GHz] -->
     <g transform="translate(207.258594 331.916562) scale(0.1 -0.1)">
      <defs>
       <path id="DejaVuSans-46" d="M 628 4666 
L 3309 4666 
L 3309 4134 
L 1259 4134 
L 1259 2759 
L 3109 2759 
L 3109 2228 
L 1259 2228 
L 1259 0 
L 628 0 
L 628 4666 
z
" transform="scale(0.015625)"/>
       <path id="DejaVuSans-72" d="M 2631 2963 
Q 2534 3019 2420 3045 
Q 2306 3072 2169 3072 
Q 1681 3072 1420 2755 
Q 1159 2438 1159 1844 
L 1159 0 
L 581 0 
L 581 3500 
L 1159 3500 
L 1159 2956 
Q 1341 3275 1631 3429 
Q 1922 3584 2338 3584 
Q 2397 3584 2469 3576 
Q 2541 3569 2628 3553 
L 2631 2963 
z
" transform="scale(0.015625)"/>
       <path id="DejaVuSans-65" d="M 3597 1894 
L 3597 1613 
L 953 1613 
Q 991 1019 1311 708 
Q 1631 397 2203 397 
Q 2534 397 2845 478 
Q 3156 559 3463 722 
L 3463 178 
Q 3153 47 2828 -22 
Q 2503 -91 2169 -91 
Q 1331 -91 842 396 
Q 353 884 353 1716 
Q 353 2575 817 3079 
Q 1281 3584 2069 3584 
Q 2775 3584 3186 3129 
Q 3597 2675 3597 1894 
z
M 3022 2063 
Q 3016 2534 2758 2815 
Q 2500 3097 2075 3097 
Q 1594 3097 1305 2825 
Q 1016 2553 972 2059 
L 3022 2063 
z
" transform="scale(0.015625)"/>
       <path id="DejaVuSans-71" d="M 947 1747 
Q 947 1113 1208 752 
Q 1469 391 1925 391 
Q 2381 391 2643 752 
Q 2906 1113 2906 1747 
Q 2906 2381 2643 2742 
Q 2381 3103 1925 3103 
Q 1469 3103 1208 2742 
Q 947 2381 947 1747 
z
M 2906 525 
Q 2725 213 2448 61 
Q 2172 -91 1784 -91 
Q 1150 -91 751 415 
Q 353 922 353 1747 
Q 353 2572 751 3078 
Q 1150 3584 1784 3584 
Q 2172 3584 2448 3432 
Q 2725 3281 2906 2969 
L 2906 3500 
L 3481 3500 
L 3481 -1331 
L 2906 -1331 
L 2906 525 
z
" transform="scale(0.015625)"/>
       <path id="DejaVuSans-75" d="M 544 1381 
L 544 3500 
L 1119 3500 
L 1119 1403 
Q 1119 906 1312 657 
Q 1506 409 1894 409 
Q 2359 409 2629 706 
Q 2900 1003 2900 1516 
L 2900 3500 
L 3475 3500 
L 3475 0 
L 2900 0 
L 2900 538 
Q 2691 219 2414 64 
Q 2138 -91 1772 -91 
Q 1169 -91 856 284 
Q 544 659 544 1381 
z
M 1991 3584 
L 1991 3584 
z
" transform="scale(0.015625)"/>
       <path id="DejaVuSans-6e" d="M 3513 2113 
L 3513 0 
L 2938 0 
L 2938 2094 
Q 2938 2591 2744 2837 
Q 2550 3084 2163 3084 
Q 1697 3084 1428 2787 
Q 1159 2491 1159 1978 
L 1159 0 
L 581 0 
L 581 3500 
L 1159 3500 
L 1159 2956 
Q 1366 3272 1645 3428 
Q 1925 3584 2291 3584 
Q 2894 3584 3203 3211 
Q 3513 2838 3513 2113 
z
" transform="scale(0.015625)"/>
       <path id="DejaVuSans-63" d="M 3122 3366 
L 3122 2828 
Q 2878 2963 2633 3030 
Q 2388 3097 2138 3097 
Q 1578 3097 1268 2742 
Q 959 2388 959 1747 
Q 959 1106 1268 751 
Q 1578 397 2138 397 
Q 2388 397 2633 464 
Q 2878 531 3122 666 
L 3122 134 
Q 2881 22 2623 -34 
Q 2366 -91 2075 -91 
Q 1284 -91 818 406 
Q 353 903 353 1747 
Q 353 2603 823 3093 
Q 1294 3584 2113 3584 
Q 2378 3584 2631 3529 
Q 2884 3475 3122 3366 
z
" transform="scale(0.015625)"/>
       <path id="DejaVuSans-79" d="M 2059 -325 
Q 1816 -950 1584 -1140 
Q 1353 -1331 966 -1331 
L 506 -1331 
L 506 -850 
L 844 -850 
Q 1081 -850 1212 -737 
Q 1344 -625 1503 -206 
L 1606 56 
L 191 3500 
L 800 3500 
L 1894 763 
L 2988 3500 
L 3597 3500 
L 2059 -325 
z
" transform="scale(0.015625)"/>
       <path id="DejaVuSans-20" transform="scale(0.015625)"/>
       <path id="DejaVuSans-5b" d="M 550 4863 
L 1875 4863 
L 1875 4416 
L 1125 4416 
L 1125 -397 
L 1875 -397 
L 1875 -844 
L 550 -844 
L 550 4863 
z
" transform="scale(0.015625)"/>
       <path id="DejaVuSans-47" d="M 3809 666 
L 3809 1919 
L 2778 1919 
L 2778 2438 
L 4434 2438 
L 4434 434 
Q 4069 175 3628 42 
Q 3188 -91 2688 -91 
Q 1594 -91 976 548 
Q 359 1188 359 2328 
Q 359 3472 976 4111 
Q 1594 4750 2688 4750 
Q 3144 4750 3555 4637 
Q 3966 4525 4313 4306 
L 4313 3634 
Q 3963 3931 3569 4081 
Q 3175 4231 2741 4231 
Q 1884 4231 1454 3753 
Q 1025 3275 1025 2328 
Q 1025 1384 1454 906 
Q 1884 428 2741 428 
Q 3075 428 3337 486 
Q 3600 544 3809 666 
z
" transform="scale(0.015625)"/>
       <path id="DejaVuSans-48" d="M 628 4666 
L 1259 4666 
L 1259 2753 
L 3553 2753 
L 3553 4666 
L 4184 4666 
L 4184 0 
L 3553 0 
L 3553 2222 
L 1259 2222 
L 1259 0 
L 628 0 
L 628 4666 
z
" transform="scale(0.015625)"/>
       <path id="DejaVuSans-7a" d="M 353 3500 
L 3084 3500 
L 3084 2975 
L 922 459 
L 3084 459 
L 3084 0 
L 275 0 
L 275 525 
L 2438 3041 
L 353 3041 
L 353 3500 
z
" transform="scale(0.015625)"/>
       <path id="DejaVuSans-5d" d="M 1947 4863 
L 1947 -844 
L 622 -844 
L 622 -397 
L 1369 -397 
L 1369 4416 
L 622 4416 
L 622 4863 
L 1947 4863 
z
" transform="scale(0.015625)"/>
      </defs>
      <use xlink:href="#DejaVuSans-46"/>
      <use xlink:href="#DejaVuSans-72" x="50.269531"/>
      <use xlink:href="#DejaVuSans-65" x="89.132812"/>
      <use xlink:href="#DejaVuSans-71" x="150.65625"/>
      <use xlink:href="#DejaVuSans-75" x="214.132812"/>
      <use xlink:href="#DejaVuSans-65" x="277.511719"/>
      <use xlink:href="#DejaVuSans-6e" x="339.035156"/>
      <use xlink:href="#DejaVuSans-63" x="402.414062"/>
      <use xlink:href="#DejaVuSans-79" x="457.394531"/>
      <use xlink:href="#DejaVuSans-20" x="516.574219"/>
      <use xlink:href="#DejaVuSans-5b" x="548.361328"/>
      <use xlink:href="#DejaVuSans-47" x="587.375"/>
      <use xlink:href="#DejaVuSans-48" x="664.865234"/>
      <use xlink:href="#DejaVuSans-7a" x="740.060547"/>
      <use xlink:href="#DejaVuSans-5d" x="792.550781"/>
     </g>
    </g>
   </g>
   <g id="matplotlib.axis_4">
    <g id="ytick_6">
     <g id="line2d_38">
      <path d="M 57.17 286.315789 
L 440.505 286.315789 
" clip-path="url(#p7f1f03810f)" style="fill: none; stroke: #000000; stroke-opacity: 0.3; stroke-width: 0.8; stroke-linecap: square"/>
     </g>
     <g id="line2d_39">
      <g>
       <use xlink:href="#m91a205cfff" x="57.17" y="286.315789" style="stroke: #000000; stroke-width: 0.8"/>
      </g>
     </g>
     <g id="text_23">
      <!-- 40 -->
      <g transform="translate(29.065313 290.115008) scale(0.1 -0.1)">
       <defs>
        <path id="DejaVuSans-34" d="M 2419 4116 
L 825 1625 
L 2419 1625 
L 2419 4116 
z
M 2253 4666 
L 3047 4666 
L 3047 1625 
L 3713 1625 
L 3713 1100 
L 3047 1100 
L 3047 0 
L 2419 0 
L 2419 1100 
L 313 1100 
L 313 1709 
L 2253 4666 
z
" transform="scale(0.015625)"/>
       </defs>
       <use xlink:href="#DejaVuSans-2212"/>
       <use xlink:href="#DejaVuSans-34" x="83.789062"/>
       <use xlink:href="#DejaVuSans-30" x="147.412109"/>
      </g>
     </g>
    </g>
    <g id="ytick_7">
     <g id="line2d_40">
      <path d="M 57.17 263.216842 
L 440.505 263.216842 
" clip-path="url(#p7f1f03810f)" style="fill: none; stroke: #000000; stroke-opacity: 0.3; stroke-width: 0.8; stroke-linecap: square"/>
     </g>
     <g id="line2d_41">
      <g>
       <use xlink:href="#m91a205cfff" x="57.17" y="263.216842" style="stroke: #000000; stroke-width: 0.8"/>
      </g>
     </g>
     <g id="text_24">
      <!-- 20 -->
      <g transform="translate(29.065313 267.016061) scale(0.1 -0.1)">
       <use xlink:href="#DejaVuSans-2212"/>
       <use xlink:href="#DejaVuSans-32" x="83.789062"/>
       <use xlink:href="#DejaVuSans-30" x="147.412109"/>
      </g>
     </g>
    </g>
    <g id="ytick_8">
     <g id="line2d_42">
      <path d="M 57.17 240.117895 
L 440.505 240.117895 
" clip-path="url(#p7f1f03810f)" style="fill: none; stroke: #000000; stroke-opacity: 0.3; stroke-width: 0.8; stroke-linecap: square"/>
     </g>
     <g id="line2d_43">
      <g>
       <use xlink:href="#m91a205cfff" x="57.17" y="240.117895" style="stroke: #000000; stroke-width: 0.8"/>
      </g>
     </g>
     <g id="text_25">
      <!-- 0 -->
      <g transform="translate(43.8075 243.917113) scale(0.1 -0.1)">
       <use xlink:href="#DejaVuSans-30"/>
      </g>
     </g>
    </g>
    <g id="ytick_9">
     <g id="line2d_44">
      <path d="M 57.17 217.018947 
L 440.505 217.018947 
" clip-path="url(#p7f1f03810f)" style="fill: none; stroke: #000000; stroke-opacity: 0.3; stroke-width: 0.8; stroke-linecap: square"/>
     </g>
     <g id="line2d_45">
      <g>
       <use xlink:href="#m91a205cfff" x="57.17" y="217.018947" style="stroke: #000000; stroke-width: 0.8"/>
      </g>
     </g>
     <g id="text_26">
      <!-- 20 -->
      <g transform="translate(37.445 220.818166) scale(0.1 -0.1)">
       <use xlink:href="#DejaVuSans-32"/>
       <use xlink:href="#DejaVuSans-30" x="63.623047"/>
      </g>
     </g>
    </g>
    <g id="ytick_10">
     <g id="line2d_46">
      <path d="M 57.17 193.92 
L 440.505 193.92 
" clip-path="url(#p7f1f03810f)" style="fill: none; stroke: #000000; stroke-opacity: 0.3; stroke-width: 0.8; stroke-linecap: square"/>
     </g>
     <g id="line2d_47">
      <g>
       <use xlink:href="#m91a205cfff" x="57.17" y="193.92" style="stroke: #000000; stroke-width: 0.8"/>
      </g>
     </g>
     <g id="text_27">
      <!-- 40 -->
      <g transform="translate(37.445 197.719219) scale(0.1 -0.1)">
       <use xlink:href="#DejaVuSans-34"/>
       <use xlink:href="#DejaVuSans-30" x="63.623047"/>
      </g>
     </g>
    </g>
    <g id="text_28">
     <!-- Power [dBm] -->
     <g transform="translate(22.985625 280.859687) rotate(-90) scale(0.1 -0.1)">
      <defs>
       <path id="DejaVuSans-50" d="M 1259 4147 
L 1259 2394 
L 2053 2394 
Q 2494 2394 2734 2622 
Q 2975 2850 2975 3272 
Q 2975 3691 2734 3919 
Q 2494 4147 2053 4147 
L 1259 4147 
z
M 628 4666 
L 2053 4666 
Q 2838 4666 3239 4311 
Q 3641 3956 3641 3272 
Q 3641 2581 3239 2228 
Q 2838 1875 2053 1875 
L 1259 1875 
L 1259 0 
L 628 0 
L 628 4666 
z
" transform="scale(0.015625)"/>
       <path id="DejaVuSans-6f" d="M 1959 3097 
Q 1497 3097 1228 2736 
Q 959 2375 959 1747 
Q 959 1119 1226 758 
Q 1494 397 1959 397 
Q 2419 397 2687 759 
Q 2956 1122 2956 1747 
Q 2956 2369 2687 2733 
Q 2419 3097 1959 3097 
z
M 1959 3584 
Q 2709 3584 3137 3096 
Q 3566 2609 3566 1747 
Q 3566 888 3137 398 
Q 2709 -91 1959 -91 
Q 1206 -91 779 398 
Q 353 888 353 1747 
Q 353 2609 779 3096 
Q 1206 3584 1959 3584 
z
" transform="scale(0.015625)"/>
       <path id="DejaVuSans-77" d="M 269 3500 
L 844 3500 
L 1563 769 
L 2278 3500 
L 2956 3500 
L 3675 769 
L 4391 3500 
L 4966 3500 
L 4050 0 
L 3372 0 
L 2619 2869 
L 1863 0 
L 1184 0 
L 269 3500 
z
" transform="scale(0.015625)"/>
       <path id="DejaVuSans-64" d="M 2906 2969 
L 2906 4863 
L 3481 4863 
L 3481 0 
L 2906 0 
L 2906 525 
Q 2725 213 2448 61 
Q 2172 -91 1784 -91 
Q 1150 -91 751 415 
Q 353 922 353 1747 
Q 353 2572 751 3078 
Q 1150 3584 1784 3584 
Q 2172 3584 2448 3432 
Q 2725 3281 2906 2969 
z
M 947 1747 
Q 947 1113 1208 752 
Q 1469 391 1925 391 
Q 2381 391 2643 752 
Q 2906 1113 2906 1747 
Q 2906 2381 2643 2742 
Q 2381 3103 1925 3103 
Q 1469 3103 1208 2742 
Q 947 2381 947 1747 
z
" transform="scale(0.015625)"/>
       <path id="DejaVuSans-42" d="M 1259 2228 
L 1259 519 
L 2272 519 
Q 2781 519 3026 730 
Q 3272 941 3272 1375 
Q 3272 1813 3026 2020 
Q 2781 2228 2272 2228 
L 1259 2228 
z
M 1259 4147 
L 1259 2741 
L 2194 2741 
Q 2656 2741 2882 2914 
Q 3109 3088 3109 3444 
Q 3109 3797 2882 3972 
Q 2656 4147 2194 4147 
L 1259 4147 
z
M 628 4666 
L 2241 4666 
Q 2963 4666 3353 4366 
Q 3744 4066 3744 3513 
Q 3744 3084 3544 2831 
Q 3344 2578 2956 2516 
Q 3422 2416 3680 2098 
Q 3938 1781 3938 1306 
Q 3938 681 3513 340 
Q 3088 0 2303 0 
L 628 0 
L 628 4666 
z
" transform="scale(0.015625)"/>
       <path id="DejaVuSans-6d" d="M 3328 2828 
Q 3544 3216 3844 3400 
Q 4144 3584 4550 3584 
Q 5097 3584 5394 3201 
Q 5691 2819 5691 2113 
L 5691 0 
L 5113 0 
L 5113 2094 
Q 5113 2597 4934 2840 
Q 4756 3084 4391 3084 
Q 3944 3084 3684 2787 
Q 3425 2491 3425 1978 
L 3425 0 
L 2847 0 
L 2847 2094 
Q 2847 2600 2669 2842 
Q 2491 3084 2119 3084 
Q 1678 3084 1418 2786 
Q 1159 2488 1159 1978 
L 1159 0 
L 581 0 
L 581 3500 
L 1159 3500 
L 1159 2956 
Q 1356 3278 1631 3431 
Q 1906 3584 2284 3584 
Q 2666 3584 2933 3390 
Q 3200 3197 3328 2828 
z
" transform="scale(0.015625)"/>
      </defs>
      <use xlink:href="#DejaVuSans-50"/>
      <use xlink:href="#DejaVuSans-6f" x="56.677734"/>
      <use xlink:href="#DejaVuSans-77" x="117.859375"/>
      <use xlink:href="#DejaVuSans-65" x="199.646484"/>
      <use xlink:href="#DejaVuSans-72" x="261.169922"/>
      <use xlink:href="#DejaVuSans-20" x="302.283203"/>
      <use xlink:href="#DejaVuSans-5b" x="334.070312"/>
      <use xlink:href="#DejaVuSans-64" x="373.083984"/>
      <use xlink:href="#DejaVuSans-42" x="436.560547"/>
      <use xlink:href="#DejaVuSans-6d" x="505.164062"/>
      <use xlink:href="#DejaVuSans-5d" x="602.576172"/>
     </g>
    </g>
   </g>
   <g id="line2d_48">
    <path d="M 56.622379 271.322245 
L 57.17 275.434546 
L 57.717621 274.488255 
L 58.265243 305.532389 
L 58.812864 264.344556 
L 59.360486 283.657739 
L 60.455729 264.779781 
L 61.00335 284.96531 
L 61.550971 287.321417 
L 62.098593 266.980944 
L 62.646214 269.032927 
L 63.193836 273.355993 
L 63.741457 268.961172 
L 64.289079 269.626318 
L 64.8367 265.828827 
L 65.384321 281.954795 
L 65.931943 294.164744 
L 66.479564 264.395386 
L 67.027186 265.936812 
L 67.574807 278.530008 
L 68.122429 269.87192 
L 68.67005 268.308181 
L 69.217671 272.725306 
L 69.765293 267.109641 
L 70.312914 282.794109 
L 70.860536 286.681514 
L 71.408157 278.319253 
L 71.955779 264.49391 
L 72.5034 274.068207 
L 73.051021 265.876729 
L 73.598643 271.432868 
L 74.146264 264.472784 
L 74.693886 277.62667 
L 75.241507 267.466744 
L 75.789129 268.924555 
L 76.33675 263.17163 
L 76.884371 267.554839 
L 77.431993 270.834439 
L 77.979614 275.589595 
L 78.527236 272.715839 
L 79.074857 278.65137 
L 79.622479 272.04465 
L 80.1701 271.422232 
L 80.717721 272.49006 
L 81.265343 275.62722 
L 81.812964 276.299689 
L 82.360586 274.728014 
L 82.908207 274.11828 
L 83.455829 267.162807 
L 84.00345 271.967659 
L 84.551071 274.284368 
L 85.098693 267.22463 
L 85.646314 280.286386 
L 86.193936 266.714492 
L 86.741557 266.939974 
L 87.289179 268.553692 
L 87.8368 264.025749 
L 88.384421 267.791532 
L 88.932043 262.855805 
L 90.027286 268.62043 
L 90.574907 268.894799 
L 91.122529 266.96744 
L 91.67015 263.501478 
L 92.217771 273.327058 
L 93.313014 269.243706 
L 93.860636 264.060202 
L 94.408257 271.024441 
L 94.955879 271.072976 
L 95.5035 275.549984 
L 96.051121 269.746534 
L 96.598743 270.225188 
L 97.146364 270.891165 
L 97.693986 276.985525 
L 98.241607 271.841272 
L 99.33685 265.790397 
L 99.884471 272.136822 
L 100.432093 262.083514 
L 100.979714 289.837889 
L 101.527336 270.488027 
L 102.074957 285.054089 
L 102.622579 267.286343 
L 103.1702 267.004026 
L 103.717821 271.536078 
L 104.813064 263.593059 
L 105.360686 260.762669 
L 105.908307 266.357108 
L 106.455929 267.069896 
L 107.00355 269.821772 
L 107.551171 264.935514 
L 108.098793 272.854373 
L 108.646414 266.419882 
L 109.194036 271.104532 
L 109.741657 261.436409 
L 110.289279 271.048318 
L 110.8369 267.687317 
L 111.384521 293.018907 
L 111.932143 265.616997 
L 112.479764 276.476852 
L 113.027386 268.251929 
L 113.575007 271.872639 
L 114.67025 269.591906 
L 115.217871 267.384112 
L 115.765493 263.269053 
L 116.313114 263.544531 
L 116.860736 289.704706 
L 117.408357 264.754214 
L 117.955979 267.397143 
L 118.5036 270.727896 
L 119.051221 267.802412 
L 119.598843 262.729387 
L 120.146464 270.106585 
L 120.694086 263.455912 
L 121.241707 277.837467 
L 121.789329 272.625502 
L 122.33695 265.422962 
L 122.884571 264.79497 
L 123.432193 268.876635 
L 123.979814 270.946301 
L 124.527436 265.755526 
L 125.075057 262.804788 
L 125.622679 262.389549 
L 126.1703 266.338643 
L 126.717921 264.102083 
L 127.265543 277.645505 
L 127.813164 274.701763 
L 128.360786 265.154819 
L 128.908407 277.230295 
L 129.456029 285.718162 
L 130.00365 264.352117 
L 130.551271 271.229006 
L 131.098893 266.242546 
L 131.646514 268.88509 
L 132.194136 264.310846 
L 132.741757 278.807269 
L 133.289379 268.094184 
L 134.384621 263.634405 
L 134.932243 278.658359 
L 135.479864 261.60344 
L 136.027486 263.390234 
L 136.575107 278.041973 
L 137.122729 265.045194 
L 137.67035 260.582294 
L 138.217971 267.755583 
L 138.765593 267.962363 
L 139.313214 267.992376 
L 139.860836 259.130134 
L 140.408457 258.37677 
L 140.956079 280.373494 
L 141.5037 267.235347 
L 142.051321 260.940389 
L 142.598943 269.797326 
L 143.146564 269.469636 
L 143.694186 273.937222 
L 144.241807 267.195205 
L 144.789429 271.54536 
L 145.33705 278.629207 
L 145.884671 268.122731 
L 146.432293 274.016915 
L 146.979914 259.339485 
L 147.527536 268.22772 
L 148.075157 263.194877 
L 148.622779 263.014446 
L 149.1704 264.736247 
L 149.718021 262.312901 
L 150.265643 262.899298 
L 150.813264 266.122891 
L 151.360886 272.95771 
L 151.908507 265.821976 
L 152.456129 273.452146 
L 153.00375 279.498838 
L 153.551371 269.010624 
L 154.646614 262.229256 
L 155.194236 281.0896 
L 155.741857 266.655244 
L 156.289479 286.194523 
L 156.8371 264.314207 
L 157.384721 263.568319 
L 157.932343 269.000051 
L 158.479964 268.317754 
L 159.027586 265.391919 
L 159.575207 275.338872 
L 160.122829 273.286264 
L 160.67045 262.340904 
L 161.218071 257.106115 
L 161.765693 270.022202 
L 162.313314 276.855244 
L 162.860936 261.111124 
L 163.408557 259.832076 
L 163.956179 262.30873 
L 164.5038 267.707171 
L 165.051421 262.786551 
L 165.599043 271.196368 
L 166.146664 262.880492 
L 166.694286 264.475413 
L 167.241907 262.381558 
L 167.789529 261.748639 
L 168.33715 264.811625 
L 168.884771 261.098272 
L 169.432393 258.753189 
L 169.980014 257.48311 
L 170.527636 265.870813 
L 171.075257 265.18454 
L 171.622879 289.128051 
L 172.1705 270.178486 
L 172.718121 269.281103 
L 173.265743 262.30093 
L 173.813364 260.937197 
L 174.360986 268.892881 
L 174.908607 267.434781 
L 175.456229 259.24263 
L 176.00385 273.806951 
L 176.551471 272.784526 
L 177.646714 256.337679 
L 178.194336 267.772537 
L 178.741957 263.617608 
L 179.289579 257.854432 
L 180.384821 273.663516 
L 180.932443 259.399542 
L 181.480064 261.380533 
L 182.027686 256.323677 
L 183.122929 263.116973 
L 183.67055 266.572968 
L 184.218171 273.048705 
L 184.765793 272.159923 
L 185.313414 254.353686 
L 185.861036 277.312487 
L 186.408657 262.975283 
L 187.5039 258.321908 
L 188.051521 257.884228 
L 188.599143 257.754755 
L 189.146764 261.957313 
L 189.694386 254.538271 
L 190.242007 257.784126 
L 190.789629 260.1577 
L 191.33725 255.628232 
L 192.432493 256.507508 
L 192.980114 269.389902 
L 193.527736 261.497713 
L 194.075357 268.842399 
L 194.622979 254.931419 
L 195.1706 265.184451 
L 196.265843 258.051625 
L 196.813464 260.321435 
L 197.361086 258.778337 
L 197.908707 259.504842 
L 198.456329 252.15579 
L 199.00395 257.261554 
L 199.551571 259.265596 
L 200.646814 266.853718 
L 201.194436 264.647141 
L 201.742057 265.564893 
L 202.289679 259.587191 
L 202.8373 258.510563 
L 203.384921 255.252275 
L 203.932543 250.354194 
L 204.480164 257.927887 
L 205.027786 262.745159 
L 205.575407 261.077939 
L 206.123029 270.785211 
L 206.67065 275.55425 
L 207.218271 256.356637 
L 207.765893 257.755321 
L 208.313514 263.99923 
L 208.861136 257.530103 
L 209.408757 260.652378 
L 209.956379 249.900988 
L 210.504 253.919197 
L 211.051621 263.138613 
L 211.599243 253.120719 
L 212.146864 251.223496 
L 212.694486 251.268322 
L 213.242107 250.938833 
L 213.789729 252.751434 
L 214.33735 267.001559 
L 215.432593 260.336912 
L 215.980214 253.113252 
L 216.527836 251.692521 
L 217.075457 279.337693 
L 217.623079 250.301475 
L 218.1707 250.014231 
L 218.718321 250.100535 
L 219.265943 259.789267 
L 219.813564 250.169968 
L 220.361186 257.401588 
L 220.908807 258.486734 
L 221.456429 249.721289 
L 222.00405 248.247401 
L 222.551671 259.177094 
L 223.099293 248.611399 
L 223.646914 266.924454 
L 224.194536 257.339875 
L 224.742157 245.063318 
L 225.289779 248.637268 
L 225.8374 261.497248 
L 226.385021 249.876939 
L 226.932643 250.7412 
L 227.480264 258.638686 
L 228.027886 255.371123 
L 228.575507 260.245881 
L 229.123129 261.111614 
L 229.67075 253.591977 
L 230.218371 260.150283 
L 230.765993 250.698513 
L 231.313614 258.419366 
L 231.861236 248.726226 
L 232.408857 248.933731 
L 232.956479 241.3301 
L 233.5041 244.01261 
L 234.051721 247.581635 
L 234.599343 238.603275 
L 235.146964 253.581008 
L 235.694586 242.509218 
L 236.242207 245.448944 
L 236.789829 246.01148 
L 237.33745 239.68196 
L 237.885071 251.200012 
L 238.432693 238.373131 
L 238.980314 242.934908 
L 239.527936 239.679675 
L 240.075557 242.800211 
L 240.623179 244.874338 
L 241.1708 235.715415 
L 241.718421 240.988695 
L 242.266043 237.739151 
L 242.813664 237.163051 
L 243.361286 237.114043 
L 243.908907 236.231128 
L 244.456529 234.475632 
L 245.00415 233.262829 
L 245.551771 239.947773 
L 246.099393 229.529585 
L 246.647014 227.042514 
L 247.194636 233.98347 
L 247.742257 236.217858 
L 248.289879 214.552541 
L 248.8375 209.695119 
L 249.385121 217.034304 
L 249.932743 216.836656 
L 250.480364 217.888878 
L 251.575607 230.623058 
L 252.123229 232.163747 
L 252.67085 238.490482 
L 253.218471 238.016444 
L 253.766093 236.868167 
L 254.313714 242.649616 
L 254.861336 237.99145 
L 255.408957 251.227536 
L 255.956579 241.542588 
L 256.5042 240.518038 
L 257.051821 242.60668 
L 257.599443 239.840746 
L 258.147064 245.902585 
L 258.694686 240.284132 
L 259.242307 248.693108 
L 259.789929 247.415602 
L 260.33755 249.411714 
L 260.885171 246.173797 
L 261.432793 247.680461 
L 261.980414 242.018839 
L 262.528036 243.798547 
L 263.075657 250.992714 
L 263.623279 244.487542 
L 264.1709 250.849825 
L 264.718521 255.245873 
L 265.266143 242.851717 
L 265.813764 253.118959 
L 266.361386 249.876997 
L 266.909007 252.934109 
L 267.456629 246.979421 
L 268.00425 250.226375 
L 268.551871 252.214174 
L 269.099493 246.7995 
L 269.647114 248.830567 
L 270.194736 245.100568 
L 270.742357 250.164672 
L 271.289979 259.443097 
L 271.8376 248.985126 
L 272.385221 245.77478 
L 272.932843 255.610979 
L 273.480464 256.302759 
L 274.028086 251.992031 
L 274.575707 252.284927 
L 275.123329 247.374226 
L 275.67095 253.9431 
L 276.218571 263.062734 
L 276.766193 250.198009 
L 277.313814 251.42376 
L 277.861436 261.390452 
L 278.409057 250.036858 
L 278.956679 258.626737 
L 279.5043 262.847151 
L 280.051921 258.7318 
L 280.599543 262.126095 
L 281.147164 253.75574 
L 281.694786 251.40214 
L 282.242407 252.678145 
L 282.790029 255.544115 
L 283.33765 255.128999 
L 283.885271 259.59918 
L 284.432893 254.628703 
L 284.980514 254.041892 
L 285.528136 252.390687 
L 286.075757 255.40917 
L 286.623379 267.640975 
L 287.171 251.374872 
L 287.718621 252.41379 
L 288.266243 268.490286 
L 289.361486 253.548383 
L 289.909107 251.243818 
L 290.456729 255.92321 
L 291.00435 263.374546 
L 291.551971 256.792325 
L 292.099593 264.577491 
L 292.647214 251.664557 
L 293.194836 253.703709 
L 294.290079 264.84247 
L 294.8377 263.088067 
L 295.385321 258.72963 
L 295.932943 275.448513 
L 296.480564 258.004394 
L 297.028186 259.214176 
L 297.575807 255.602774 
L 298.123429 253.089889 
L 298.67105 256.732316 
L 299.218671 254.122524 
L 300.313914 264.695939 
L 300.861536 261.18531 
L 301.409157 260.466736 
L 301.956779 258.062534 
L 302.5044 254.385935 
L 303.052021 257.985818 
L 303.599643 257.355745 
L 304.147264 262.601685 
L 304.694886 269.788102 
L 305.242507 271.738165 
L 306.33775 257.973949 
L 306.885371 258.850728 
L 307.432993 261.961448 
L 307.980614 255.1891 
L 308.528236 256.161876 
L 309.075857 263.269926 
L 309.623479 258.067455 
L 310.1711 264.720195 
L 310.718721 268.264897 
L 311.266343 269.245184 
L 311.813964 256.819575 
L 312.361586 268.329936 
L 312.909207 256.775109 
L 313.456829 274.661104 
L 314.00445 279.312199 
L 314.552071 259.158712 
L 315.099693 253.650106 
L 315.647314 259.758382 
L 316.194936 258.603133 
L 316.742557 269.656043 
L 317.290179 260.472774 
L 317.8378 259.965896 
L 318.385421 260.067807 
L 318.933043 257.268538 
L 319.480664 263.428247 
L 320.028286 266.209002 
L 320.575907 276.220782 
L 321.123529 259.435135 
L 321.67115 263.870142 
L 322.218771 276.705922 
L 322.766393 259.887338 
L 323.314014 260.638817 
L 323.861636 269.495868 
L 324.409257 273.441616 
L 324.956879 266.220568 
L 325.5045 272.466821 
L 326.052121 257.765718 
L 326.599743 265.226779 
L 327.147364 258.90171 
L 327.694986 257.482242 
L 328.242607 260.299184 
L 328.790229 270.996678 
L 329.33785 260.88133 
L 329.885471 273.258515 
L 330.433093 263.492772 
L 330.980714 258.024023 
L 331.528336 258.662065 
L 332.075957 261.658774 
L 332.623579 274.768996 
L 333.1712 267.811401 
L 333.718821 271.776617 
L 334.266443 262.073208 
L 334.814064 270.850429 
L 335.909307 263.163423 
L 336.456929 267.461375 
L 337.00455 258.573925 
L 337.552171 274.295354 
L 338.099793 266.095834 
L 338.647414 269.918301 
L 339.195036 258.199686 
L 339.742657 264.333559 
L 340.290279 268.412537 
L 340.8379 260.885401 
L 341.385521 266.770231 
L 341.933143 265.374249 
L 342.480764 259.367408 
L 343.028386 261.678651 
L 343.576007 262.902565 
L 344.123629 266.598948 
L 344.67125 268.865877 
L 345.218871 266.196597 
L 345.766493 265.604597 
L 346.314114 262.713399 
L 346.861736 267.170469 
L 347.409357 270.712761 
L 347.956979 273.381716 
L 348.5046 272.205458 
L 349.052221 262.159549 
L 349.599843 270.658142 
L 350.147464 260.108559 
L 350.695086 278.642224 
L 351.242707 264.853365 
L 351.790329 276.05532 
L 352.33795 268.254527 
L 352.885571 262.182198 
L 353.433193 266.835459 
L 353.980814 262.25069 
L 354.528436 263.363486 
L 355.076057 259.070784 
L 355.623679 285.768599 
L 356.1713 265.843216 
L 356.718921 262.445407 
L 357.266543 281.013514 
L 357.814164 276.993614 
L 358.361786 261.794403 
L 358.909407 261.971545 
L 360.00465 271.560834 
L 360.552271 272.923622 
L 361.099893 266.607635 
L 361.647514 288.518594 
L 362.195136 286.414691 
L 362.742757 263.483768 
L 363.290379 269.038762 
L 363.838 271.223779 
L 364.385621 268.646289 
L 364.933243 262.885364 
L 365.480864 268.721571 
L 366.028486 270.415124 
L 366.576107 269.518196 
L 367.123729 258.198171 
L 367.67135 258.723848 
L 368.218971 267.362968 
L 368.766593 265.207574 
L 369.314214 276.084043 
L 369.861836 264.193466 
L 370.409457 268.338216 
L 370.957079 276.428328 
L 371.5047 263.702593 
L 372.052321 262.759579 
L 372.599943 280.541677 
L 373.147564 262.627711 
L 373.695186 271.85088 
L 374.242807 271.443845 
L 374.790429 271.735884 
L 375.33805 267.968201 
L 375.885671 270.619875 
L 376.433293 267.967201 
L 376.980914 280.120771 
L 377.528536 264.30158 
L 378.076157 278.341969 
L 378.623779 266.767342 
L 379.1714 267.547263 
L 379.719021 267.31236 
L 380.266643 268.022483 
L 380.814264 263.038124 
L 381.361886 272.283431 
L 381.909507 272.675431 
L 382.457129 272.404844 
L 383.00475 265.385594 
L 383.552371 278.831128 
L 384.099993 270.338122 
L 384.647614 283.715877 
L 385.195236 262.018105 
L 385.742857 271.032512 
L 386.290479 271.538304 
L 386.8381 281.072816 
L 387.385721 264.286888 
L 387.933343 276.604603 
L 388.480964 271.68028 
L 389.576207 266.672523 
L 390.123829 268.130346 
L 390.67145 281.186979 
L 391.219071 273.374867 
L 391.766693 268.330852 
L 392.314314 273.111254 
L 392.861936 267.072813 
L 393.409557 276.17665 
L 393.957179 272.57538 
L 394.5048 268.075954 
L 395.052421 269.346682 
L 395.600043 264.423485 
L 396.147664 278.172773 
L 396.695286 266.231638 
L 397.242907 260.980484 
L 397.790529 269.285786 
L 398.885771 260.42795 
L 399.433393 265.608729 
L 399.981014 304.664938 
L 400.528636 291.945478 
L 401.076257 270.17743 
L 401.623879 267.943567 
L 402.1715 264.884023 
L 402.719121 278.092808 
L 403.266743 263.974392 
L 403.814364 263.029687 
L 404.361986 266.351343 
L 404.909607 266.888377 
L 405.457229 267.943413 
L 406.00485 266.077636 
L 406.552471 263.160963 
L 407.100093 269.135275 
L 407.647714 266.237363 
L 408.195336 268.602935 
L 408.742957 261.898528 
L 409.290579 267.843844 
L 409.8382 271.589106 
L 410.385821 280.106509 
L 410.933443 283.177305 
L 411.481064 265.846588 
L 412.028686 285.11665 
L 412.576307 275.444877 
L 413.123929 268.04648 
L 413.67155 272.003486 
L 414.219171 267.463297 
L 414.766793 266.702275 
L 415.314414 269.689963 
L 415.862036 280.796607 
L 416.409657 273.279016 
L 416.957279 270.767297 
L 417.5049 273.257022 
L 418.052521 265.252524 
L 418.600143 271.891986 
L 419.147764 276.729665 
L 419.695386 275.131179 
L 420.790629 264.122857 
L 421.33825 279.636979 
L 421.885871 269.587719 
L 422.433493 283.654853 
L 422.981114 273.002518 
L 423.528736 269.415145 
L 424.076357 273.755086 
L 424.623979 263.979939 
L 425.1716 274.433562 
L 425.719221 274.589346 
L 426.266843 277.540629 
L 426.814464 266.049107 
L 427.362086 274.062227 
L 428.457329 264.691382 
L 429.00495 271.816293 
L 429.552571 270.667577 
L 430.100193 265.586468 
L 430.647814 269.914427 
L 431.195436 275.268278 
L 431.743057 276.681544 
L 432.290679 273.838991 
L 432.8383 276.858257 
L 433.385921 267.831421 
L 433.933543 276.800361 
L 434.481164 271.06766 
L 435.028786 276.785265 
L 435.576407 266.802195 
L 436.124029 269.212611 
L 436.67165 271.066476 
L 437.219271 266.488831 
L 437.766893 275.326195 
L 438.314514 258.545945 
L 438.862136 272.321026 
L 439.409757 273.669491 
L 439.957379 272.882448 
L 440.505 271.865419 
L 441.052621 271.341049 
L 441.052621 271.341049 
" clip-path="url(#p7f1f03810f)" style="fill: none; stroke: #ff0000; stroke-width: 1.5; stroke-linecap: square"/>
   </g>
   <g id="patch_8">
    <path d="M 57.17 303.64 
L 57.17 193.92 
" style="fill: none; stroke: #000000; stroke-width: 0.8; stroke-linejoin: miter; stroke-linecap: square"/>
   </g>
   <g id="patch_9">
    <path d="M 440.505 303.64 
L 440.505 193.92 
" style="fill: none; stroke: #000000; stroke-width: 0.8; stroke-linejoin: miter; stroke-linecap: square"/>
   </g>
   <g id="patch_10">
    <path d="M 57.17 303.64 
L 440.505 303.64 
" style="fill: none; stroke: #000000; stroke-width: 0.8; stroke-linejoin: miter; stroke-linecap: square"/>
   </g>
   <g id="patch_11">
    <path d="M 57.17 193.92 
L 440.505 193.92 
" style="fill: none; stroke: #000000; stroke-width: 0.8; stroke-linejoin: miter; stroke-linecap: square"/>
   </g>
   <g id="text_29">
    <!-- Frequency domain -->
    <g transform="translate(193.464062 187.92) scale(0.12 -0.12)">
     <defs>
      <path id="DejaVuSans-61" d="M 2194 1759 
Q 1497 1759 1228 1600 
Q 959 1441 959 1056 
Q 959 750 1161 570 
Q 1363 391 1709 391 
Q 2188 391 2477 730 
Q 2766 1069 2766 1631 
L 2766 1759 
L 2194 1759 
z
M 3341 1997 
L 3341 0 
L 2766 0 
L 2766 531 
Q 2569 213 2275 61 
Q 1981 -91 1556 -91 
Q 1019 -91 701 211 
Q 384 513 384 1019 
Q 384 1609 779 1909 
Q 1175 2209 1959 2209 
L 2766 2209 
L 2766 2266 
Q 2766 2663 2505 2880 
Q 2244 3097 1772 3097 
Q 1472 3097 1187 3025 
Q 903 2953 641 2809 
L 641 3341 
Q 956 3463 1253 3523 
Q 1550 3584 1831 3584 
Q 2591 3584 2966 3190 
Q 3341 2797 3341 1997 
z
" transform="scale(0.015625)"/>
      <path id="DejaVuSans-69" d="M 603 3500 
L 1178 3500 
L 1178 0 
L 603 0 
L 603 3500 
z
M 603 4863 
L 1178 4863 
L 1178 4134 
L 603 4134 
L 603 4863 
z
" transform="scale(0.015625)"/>
     </defs>
     <use xlink:href="#DejaVuSans-46"/>
     <use xlink:href="#DejaVuSans-72" x="50.269531"/>
     <use xlink:href="#DejaVuSans-65" x="89.132812"/>
     <use xlink:href="#DejaVuSans-71" x="150.65625"/>
     <use xlink:href="#DejaVuSans-75" x="214.132812"/>
     <use xlink:href="#DejaVuSans-65" x="277.511719"/>
     <use xlink:href="#DejaVuSans-6e" x="339.035156"/>
     <use xlink:href="#DejaVuSans-63" x="402.414062"/>
     <use xlink:href="#DejaVuSans-79" x="457.394531"/>
     <use xlink:href="#DejaVuSans-20" x="516.574219"/>
     <use xlink:href="#DejaVuSans-64" x="548.361328"/>
     <use xlink:href="#DejaVuSans-6f" x="611.837891"/>
     <use xlink:href="#DejaVuSans-6d" x="673.019531"/>
     <use xlink:href="#DejaVuSans-61" x="770.431641"/>
     <use xlink:href="#DejaVuSans-69" x="831.710938"/>
     <use xlink:href="#DejaVuSans-6e" x="859.494141"/>
    </g>
   </g>
  </g>
 </g>
 <defs>
  <clipPath id="p3de52ecf93">
   <rect x="57.17" y="26.16" width="383.335" height="109.72"/>
  </clipPath>
  <clipPath id="p7f1f03810f">
   <rect x="57.17" y="193.92" width="383.335" height="109.72"/>
  </clipPath>
 </defs>
</svg>
