<?xml version="1.0" encoding="utf-8" standalone="no"?>
<!DOCTYPE svg PUBLIC "-//W3C//DTD SVG 1.1//EN"
  "http://www.w3.org/Graphics/SVG/1.1/DTD/svg11.dtd">
<svg xmlns:xlink="http://www.w3.org/1999/xlink" width="460.8pt" height="345.6pt" viewBox="0 0 460.8 345.6" xmlns="http://www.w3.org/2000/svg" version="1.1">
 <metadata>
  <rdf:RDF xmlns:dc="http://purl.org/dc/elements/1.1/" xmlns:cc="http://creativecommons.org/ns#" xmlns:rdf="http://www.w3.org/1999/02/22-rdf-syntax-ns#">
   <cc:Work>
    <dc:type rdf:resource="http://purl.org/dc/dcmitype/StillImage"/>
    <dc:date>2024-04-03T14:07:48.715594</dc:date>
    <dc:format>image/svg+xml</dc:format>
    <dc:creator>
     <cc:Agent>
      <dc:title>Matplotlib v3.8.3, https://matplotlib.org/</dc:title>
     </cc:Agent>
    </dc:creator>
   </cc:Work>
  </rdf:RDF>
 </metadata>
 <defs>
  <style type="text/css">*{stroke-linejoin: round; stroke-linecap: butt}</style>
 </defs>
 <g id="figure_1">
  <g id="patch_1">
   <path d="M 0 345.6 
L 460.8 345.6 
L 460.8 0 
L 0 0 
z
" style="fill: #ffffff"/>
  </g>
  <g id="axes_1">
   <g id="patch_2">
    <path d="M 52.725 99.147917 
L 335.253125 99.147917 
L 335.253125 10.8 
L 52.725 10.8 
z
" style="fill: #ffffff"/>
   </g>
   <g id="matplotlib.axis_1">
    <g id="xtick_1">
     <g id="line2d_1">
      <defs>
       <path id="mc2b160ba44" d="M 0 0 
L 0 3.5 
" style="stroke: #000000; stroke-width: 0.8"/>
      </defs>
      <g>
       <use xlink:href="#mc2b160ba44" x="65.567187" y="99.147917" style="stroke: #000000; stroke-width: 0.8"/>
      </g>
     </g>
    </g>
    <g id="xtick_2">
     <g id="line2d_2">
      <g>
       <use xlink:href="#mc2b160ba44" x="116.935937" y="99.147917" style="stroke: #000000; stroke-width: 0.8"/>
      </g>
     </g>
    </g>
    <g id="xtick_3">
     <g id="line2d_3">
      <g>
       <use xlink:href="#mc2b160ba44" x="168.304687" y="99.147917" style="stroke: #000000; stroke-width: 0.8"/>
      </g>
     </g>
    </g>
    <g id="xtick_4">
     <g id="line2d_4">
      <g>
       <use xlink:href="#mc2b160ba44" x="219.673437" y="99.147917" style="stroke: #000000; stroke-width: 0.8"/>
      </g>
     </g>
    </g>
    <g id="xtick_5">
     <g id="line2d_5">
      <g>
       <use xlink:href="#mc2b160ba44" x="271.042187" y="99.147917" style="stroke: #000000; stroke-width: 0.8"/>
      </g>
     </g>
    </g>
    <g id="xtick_6">
     <g id="line2d_6">
      <g>
       <use xlink:href="#mc2b160ba44" x="322.410937" y="99.147917" style="stroke: #000000; stroke-width: 0.8"/>
      </g>
     </g>
    </g>
   </g>
   <g id="matplotlib.axis_2">
    <g id="ytick_1">
     <g id="line2d_7">
      <defs>
       <path id="maa633ff232" d="M 0 0 
L -3.5 0 
" style="stroke: #000000; stroke-width: 0.8"/>
      </defs>
      <g>
       <use xlink:href="#maa633ff232" x="52.725" y="73.599794" style="stroke: #000000; stroke-width: 0.8"/>
      </g>
     </g>
     <g id="text_1">
      <!-- −10 -->
      <g transform="translate(24.620313 77.399013) scale(0.1 -0.1)">
       <defs>
        <path id="DejaVuSerif-2212" d="M 678 2259 
L 4684 2259 
L 4684 1753 
L 678 1753 
L 678 2259 
z
" transform="scale(0.015625)"/>
        <path id="DejaVuSerif-31" d="M 909 0 
L 909 331 
L 1722 331 
L 1722 4213 
L 781 3603 
L 781 4013 
L 1919 4750 
L 2350 4750 
L 2350 331 
L 3163 331 
L 3163 0 
L 909 0 
z
" transform="scale(0.015625)"/>
        <path id="DejaVuSerif-30" d="M 2034 219 
Q 2513 219 2750 744 
Q 2988 1269 2988 2328 
Q 2988 3391 2750 3916 
Q 2513 4441 2034 4441 
Q 1556 4441 1318 3916 
Q 1081 3391 1081 2328 
Q 1081 1269 1318 744 
Q 1556 219 2034 219 
z
M 2034 -91 
Q 1275 -91 848 546 
Q 422 1184 422 2328 
Q 422 3475 848 4112 
Q 1275 4750 2034 4750 
Q 2797 4750 3222 4112 
Q 3647 3475 3647 2328 
Q 3647 1184 3222 546 
Q 2797 -91 2034 -91 
z
" transform="scale(0.015625)"/>
       </defs>
       <use xlink:href="#DejaVuSerif-2212"/>
       <use xlink:href="#DejaVuSerif-31" x="83.789062"/>
       <use xlink:href="#DejaVuSerif-30" x="147.412109"/>
      </g>
     </g>
    </g>
    <g id="ytick_2">
     <g id="line2d_8">
      <g>
       <use xlink:href="#maa633ff232" x="52.725" y="47.780881" style="stroke: #000000; stroke-width: 0.8"/>
      </g>
     </g>
     <g id="text_2">
      <!-- 0 -->
      <g transform="translate(39.3625 51.5801) scale(0.1 -0.1)">
       <use xlink:href="#DejaVuSerif-30"/>
      </g>
     </g>
    </g>
    <g id="ytick_3">
     <g id="line2d_9">
      <g>
       <use xlink:href="#maa633ff232" x="52.725" y="21.961969" style="stroke: #000000; stroke-width: 0.8"/>
      </g>
     </g>
     <g id="text_3">
      <!-- 10 -->
      <g transform="translate(33 25.761187) scale(0.1 -0.1)">
       <use xlink:href="#DejaVuSerif-31"/>
       <use xlink:href="#DejaVuSerif-30" x="63.623047"/>
      </g>
     </g>
    </g>
    <g id="text_4">
     <!-- Potencia [dBm] -->
     <g transform="translate(18.540625 93.82474) rotate(-90) scale(0.1 -0.1)">
      <defs>
       <path id="DejaVuSerif-50" d="M 1581 2375 
L 2406 2375 
Q 2872 2375 3115 2626 
Q 3359 2878 3359 3353 
Q 3359 3831 3115 4081 
Q 2872 4331 2406 4331 
L 1581 4331 
L 1581 2375 
z
M 353 0 
L 353 331 
L 947 331 
L 947 4331 
L 353 4331 
L 353 4666 
L 2559 4666 
Q 3259 4666 3668 4311 
Q 4078 3956 4078 3353 
Q 4078 2753 3668 2397 
Q 3259 2041 2559 2041 
L 1581 2041 
L 1581 331 
L 2303 331 
L 2303 0 
L 353 0 
z
" transform="scale(0.015625)"/>
       <path id="DejaVuSerif-6f" d="M 1925 219 
Q 2388 219 2623 584 
Q 2859 950 2859 1663 
Q 2859 2375 2623 2739 
Q 2388 3103 1925 3103 
Q 1463 3103 1227 2739 
Q 991 2375 991 1663 
Q 991 950 1228 584 
Q 1466 219 1925 219 
z
M 1925 -91 
Q 1200 -91 759 389 
Q 319 869 319 1663 
Q 319 2456 758 2934 
Q 1197 3413 1925 3413 
Q 2653 3413 3092 2934 
Q 3531 2456 3531 1663 
Q 3531 869 3092 389 
Q 2653 -91 1925 -91 
z
" transform="scale(0.015625)"/>
       <path id="DejaVuSerif-74" d="M 691 2988 
L 184 2988 
L 184 3322 
L 691 3322 
L 691 4353 
L 1269 4353 
L 1269 3322 
L 2350 3322 
L 2350 2988 
L 1269 2988 
L 1269 878 
Q 1269 456 1350 337 
Q 1431 219 1650 219 
Q 1875 219 1978 351 
Q 2081 484 2088 781 
L 2522 781 
Q 2497 328 2275 118 
Q 2053 -91 1600 -91 
Q 1103 -91 897 129 
Q 691 350 691 878 
L 691 2988 
z
" transform="scale(0.015625)"/>
       <path id="DejaVuSerif-65" d="M 3469 1600 
L 991 1600 
L 991 1575 
Q 991 903 1244 561 
Q 1497 219 1991 219 
Q 2369 219 2611 417 
Q 2853 616 2950 1006 
L 3413 1006 
Q 3275 459 2904 184 
Q 2534 -91 1931 -91 
Q 1203 -91 761 389 
Q 319 869 319 1663 
Q 319 2450 753 2931 
Q 1188 3413 1894 3413 
Q 2647 3413 3050 2948 
Q 3453 2484 3469 1600 
z
M 2791 1931 
Q 2772 2513 2545 2808 
Q 2319 3103 1894 3103 
Q 1497 3103 1269 2806 
Q 1041 2509 991 1931 
L 2791 1931 
z
" transform="scale(0.015625)"/>
       <path id="DejaVuSerif-6e" d="M 263 0 
L 263 331 
L 781 331 
L 781 2988 
L 231 2988 
L 231 3322 
L 1356 3322 
L 1356 2731 
Q 1516 3069 1770 3241 
Q 2025 3413 2363 3413 
Q 2913 3413 3172 3097 
Q 3431 2781 3431 2113 
L 3431 331 
L 3944 331 
L 3944 0 
L 2356 0 
L 2356 331 
L 2853 331 
L 2853 1931 
Q 2853 2541 2703 2767 
Q 2553 2994 2175 2994 
Q 1775 2994 1565 2701 
Q 1356 2409 1356 1850 
L 1356 331 
L 1856 331 
L 1856 0 
L 263 0 
z
" transform="scale(0.015625)"/>
       <path id="DejaVuSerif-63" d="M 3291 997 
Q 3169 466 2822 187 
Q 2475 -91 1925 -91 
Q 1200 -91 759 389 
Q 319 869 319 1663 
Q 319 2459 759 2936 
Q 1200 3413 1925 3413 
Q 2241 3413 2553 3339 
Q 2866 3266 3181 3116 
L 3181 2266 
L 2847 2266 
Q 2781 2703 2561 2903 
Q 2341 3103 1931 3103 
Q 1466 3103 1228 2742 
Q 991 2381 991 1663 
Q 991 944 1227 581 
Q 1463 219 1931 219 
Q 2303 219 2525 412 
Q 2747 606 2828 997 
L 3291 997 
z
" transform="scale(0.015625)"/>
       <path id="DejaVuSerif-69" d="M 622 4353 
Q 622 4497 726 4603 
Q 831 4709 978 4709 
Q 1122 4709 1226 4603 
Q 1331 4497 1331 4353 
Q 1331 4206 1228 4103 
Q 1125 4000 978 4000 
Q 831 4000 726 4103 
Q 622 4206 622 4353 
z
M 1356 331 
L 1900 331 
L 1900 0 
L 231 0 
L 231 331 
L 781 331 
L 781 2988 
L 231 2988 
L 231 3322 
L 1356 3322 
L 1356 331 
z
" transform="scale(0.015625)"/>
       <path id="DejaVuSerif-61" d="M 2547 1044 
L 2547 1747 
L 1806 1747 
Q 1378 1747 1168 1562 
Q 959 1378 959 997 
Q 959 650 1171 447 
Q 1384 244 1747 244 
Q 2106 244 2326 466 
Q 2547 688 2547 1044 
z
M 3122 2075 
L 3122 331 
L 3634 331 
L 3634 0 
L 2547 0 
L 2547 359 
Q 2356 128 2106 18 
Q 1856 -91 1522 -91 
Q 969 -91 644 203 
Q 319 497 319 997 
Q 319 1513 691 1797 
Q 1063 2081 1741 2081 
L 2547 2081 
L 2547 2309 
Q 2547 2688 2317 2895 
Q 2088 3103 1672 3103 
Q 1328 3103 1125 2947 
Q 922 2791 872 2484 
L 575 2484 
L 575 3156 
Q 875 3284 1158 3348 
Q 1441 3413 1709 3413 
Q 2400 3413 2761 3070 
Q 3122 2728 3122 2075 
z
" transform="scale(0.015625)"/>
       <path id="DejaVuSerif-20" transform="scale(0.015625)"/>
       <path id="DejaVuSerif-5b" d="M 550 4863 
L 2003 4863 
L 2003 4531 
L 1147 4531 
L 1147 -513 
L 2003 -513 
L 2003 -844 
L 550 -844 
L 550 4863 
z
" transform="scale(0.015625)"/>
       <path id="DejaVuSerif-64" d="M 3359 331 
L 3909 331 
L 3909 0 
L 2784 0 
L 2784 519 
Q 2616 206 2355 57 
Q 2094 -91 1709 -91 
Q 1097 -91 708 395 
Q 319 881 319 1663 
Q 319 2444 706 2928 
Q 1094 3413 1709 3413 
Q 2094 3413 2355 3264 
Q 2616 3116 2784 2803 
L 2784 4531 
L 2241 4531 
L 2241 4863 
L 3359 4863 
L 3359 331 
z
M 2784 1497 
L 2784 1825 
Q 2784 2422 2554 2737 
Q 2325 3053 1888 3053 
Q 1444 3053 1217 2703 
Q 991 2353 991 1663 
Q 991 975 1217 622 
Q 1444 269 1888 269 
Q 2325 269 2554 583 
Q 2784 897 2784 1497 
z
" transform="scale(0.015625)"/>
       <path id="DejaVuSerif-42" d="M 1581 331 
L 2516 331 
Q 3078 331 3337 575 
Q 3597 819 3597 1350 
Q 3597 1878 3339 2120 
Q 3081 2363 2516 2363 
L 1581 2363 
L 1581 331 
z
M 1581 2694 
L 2375 2694 
Q 2888 2694 3123 2891 
Q 3359 3088 3359 3513 
Q 3359 3941 3123 4136 
Q 2888 4331 2375 4331 
L 1581 4331 
L 1581 2694 
z
M 353 0 
L 353 331 
L 947 331 
L 947 4331 
L 353 4331 
L 353 4666 
L 2656 4666 
Q 3363 4666 3720 4377 
Q 4078 4088 4078 3513 
Q 4078 3097 3829 2850 
Q 3581 2603 3103 2547 
Q 3697 2472 4005 2167 
Q 4313 1863 4313 1350 
Q 4313 656 3875 328 
Q 3438 0 2509 0 
L 353 0 
z
" transform="scale(0.015625)"/>
       <path id="DejaVuSerif-6d" d="M 3316 2675 
Q 3481 3041 3739 3227 
Q 3997 3413 4341 3413 
Q 4863 3413 5119 3089 
Q 5375 2766 5375 2113 
L 5375 331 
L 5894 331 
L 5894 0 
L 4300 0 
L 4300 331 
L 4800 331 
L 4800 2047 
Q 4800 2556 4650 2772 
Q 4500 2988 4153 2988 
Q 3769 2988 3567 2697 
Q 3366 2406 3366 1850 
L 3366 331 
L 3866 331 
L 3866 0 
L 2291 0 
L 2291 331 
L 2791 331 
L 2791 2069 
Q 2791 2566 2641 2777 
Q 2491 2988 2144 2988 
Q 1759 2988 1557 2697 
Q 1356 2406 1356 1850 
L 1356 331 
L 1856 331 
L 1856 0 
L 263 0 
L 263 331 
L 781 331 
L 781 2994 
L 231 2994 
L 231 3322 
L 1356 3322 
L 1356 2731 
Q 1516 3063 1762 3238 
Q 2009 3413 2322 3413 
Q 2709 3413 2968 3220 
Q 3228 3028 3316 2675 
z
" transform="scale(0.015625)"/>
       <path id="DejaVuSerif-5d" d="M 1947 4863 
L 1947 -844 
L 494 -844 
L 494 -513 
L 1350 -513 
L 1350 4531 
L 494 4531 
L 494 4863 
L 1947 4863 
z
" transform="scale(0.015625)"/>
      </defs>
      <use xlink:href="#DejaVuSerif-50"/>
      <use xlink:href="#DejaVuSerif-6f" x="63.285156"/>
      <use xlink:href="#DejaVuSerif-74" x="123.490234"/>
      <use xlink:href="#DejaVuSerif-65" x="163.675781"/>
      <use xlink:href="#DejaVuSerif-6e" x="222.855469"/>
      <use xlink:href="#DejaVuSerif-63" x="287.259766"/>
      <use xlink:href="#DejaVuSerif-69" x="343.265625"/>
      <use xlink:href="#DejaVuSerif-61" x="375.248047"/>
      <use xlink:href="#DejaVuSerif-20" x="434.867188"/>
      <use xlink:href="#DejaVuSerif-5b" x="466.654297"/>
      <use xlink:href="#DejaVuSerif-64" x="505.667969"/>
      <use xlink:href="#DejaVuSerif-42" x="569.681641"/>
      <use xlink:href="#DejaVuSerif-6d" x="643.167969"/>
      <use xlink:href="#DejaVuSerif-5d" x="737.992188"/>
     </g>
    </g>
   </g>
   <g id="line2d_10">
    <path d="M 65.567187 22.432934 
L 65.96882 22.563326 
L 66.169636 25.648035 
L 66.370452 21.292473 
L 66.571268 21.232351 
L 66.772084 18.003905 
L 66.9729 22.465133 
L 67.173716 20.422786 
L 67.374532 23.18165 
L 67.575348 23.659842 
L 67.776164 20.964774 
L 67.97698 21.963061 
L 68.177796 19.22901 
L 68.579429 23.760833 
L 68.780245 20.216444 
L 68.981061 27.23061 
L 69.181877 19.787479 
L 69.382693 25.738855 
L 69.985141 18.289541 
L 70.386773 23.330032 
L 70.587589 19.847449 
L 70.788405 26.35559 
L 71.190037 16.898265 
L 71.390853 20.539718 
L 71.59167 20.879573 
L 71.792486 20.677309 
L 71.993302 19.799423 
L 72.194118 24.140869 
L 72.394934 21.894631 
L 72.59575 20.915179 
L 72.796566 25.138765 
L 72.997382 25.555427 
L 73.198198 20.754489 
L 73.399014 19.623787 
L 73.59983 21.740354 
L 74.001462 18.673224 
L 74.202278 22.406982 
L 74.403094 21.045204 
L 74.603911 25.22049 
L 75.005543 18.727711 
L 75.206359 20.918267 
L 75.407175 25.318647 
L 75.808807 20.063181 
L 76.009623 24.587597 
L 76.210439 22.296561 
L 76.411255 21.463827 
L 76.612071 19.91696 
L 76.812887 20.897808 
L 77.013703 19.212554 
L 77.214519 23.001377 
L 77.415335 23.733391 
L 77.616152 23.419606 
L 78.017784 20.594137 
L 78.2186 22.114992 
L 78.419416 20.535091 
L 78.620232 23.435014 
L 78.821048 23.849028 
L 79.22268 19.358097 
L 79.423496 19.593803 
L 79.624312 20.344798 
L 79.825128 23.744842 
L 80.025944 17.432484 
L 80.22676 22.391023 
L 80.628393 23.850146 
L 80.829209 21.957058 
L 81.030025 23.386914 
L 81.230841 18.479053 
L 81.431657 19.966275 
L 81.632473 19.20194 
L 81.833289 19.441434 
L 82.034105 18.184319 
L 82.435737 25.345752 
L 82.636553 25.197941 
L 82.837369 20.079733 
L 83.038185 22.877322 
L 83.239001 22.824823 
L 83.439817 25.635515 
L 83.640634 23.499627 
L 83.84145 26.004005 
L 84.042266 22.071725 
L 84.243082 23.613124 
L 84.443898 23.156116 
L 84.84553 25.631117 
L 85.046346 24.162926 
L 85.247162 24.379255 
L 85.648794 21.025369 
L 85.84961 22.610728 
L 86.050426 20.521764 
L 86.251242 28.06262 
L 86.452058 19.872644 
L 86.652875 21.400083 
L 86.853691 19.548522 
L 87.054507 24.539826 
L 87.255323 18.364437 
L 87.456139 19.746532 
L 87.656955 19.341453 
L 87.857771 23.105978 
L 88.058587 20.435308 
L 88.259403 23.129668 
L 88.460219 19.898297 
L 88.661035 21.907919 
L 88.861851 21.924409 
L 89.062667 17.87057 
L 89.263483 21.732644 
L 89.4643 21.340315 
L 89.665116 19.186673 
L 89.865932 22.319758 
L 90.066748 18.947476 
L 90.267564 23.363559 
L 90.46838 25.219394 
L 90.669196 20.197495 
L 90.870012 26.598044 
L 91.47246 19.389755 
L 91.673276 20.532498 
L 91.874092 18.369026 
L 92.074908 21.824384 
L 92.275724 20.818057 
L 92.476541 20.79946 
L 92.677357 21.133718 
L 92.878173 18.227091 
L 93.078989 23.479441 
L 93.279805 21.061992 
L 93.480621 23.336094 
L 93.681437 19.416243 
L 93.882253 21.760834 
L 94.083069 28.131278 
L 94.283885 19.422767 
L 94.484701 21.502703 
L 94.685517 21.947101 
L 94.886333 18.196738 
L 95.087149 20.063087 
L 95.287965 20.8459 
L 95.488782 20.107128 
L 95.689598 24.604168 
L 95.890414 23.02372 
L 96.09123 24.061409 
L 96.492862 20.190035 
L 96.693678 19.173712 
L 96.894494 24.31796 
L 97.296126 21.641217 
L 97.496942 17.644182 
L 97.697758 26.544275 
L 97.898574 22.329024 
L 98.09939 23.562685 
L 98.300206 23.173861 
L 98.501023 25.43487 
L 98.701839 19.439471 
L 98.902655 26.192117 
L 99.103471 27.363219 
L 99.304287 17.615562 
L 99.505103 22.034967 
L 99.705919 20.796895 
L 99.906735 17.72812 
L 100.107551 22.339807 
L 100.308367 18.122886 
L 100.509183 22.814449 
L 100.910815 19.671479 
L 101.111631 19.042839 
L 101.513264 23.865958 
L 101.71408 21.695124 
L 101.914896 24.694259 
L 102.115712 18.256197 
L 102.517344 21.638071 
L 102.71816 22.324391 
L 103.119792 19.124993 
L 103.72224 23.719859 
L 103.923056 21.833529 
L 104.123872 21.240063 
L 104.324688 27.534052 
L 104.525505 21.094942 
L 104.726321 19.544168 
L 104.927137 21.163825 
L 105.127953 26.521771 
L 105.328769 20.443333 
L 105.529585 18.419119 
L 105.730401 17.926651 
L 105.931217 22.427084 
L 106.132033 21.500087 
L 106.332849 18.286489 
L 106.533665 26.413327 
L 106.734481 19.860327 
L 106.935297 23.374462 
L 107.136113 20.060119 
L 107.336929 19.485258 
L 107.537746 23.844224 
L 107.738562 19.611085 
L 107.939378 23.744664 
L 108.140194 21.599568 
L 108.34101 21.636226 
L 108.541826 24.144674 
L 108.742642 24.562319 
L 109.144274 20.923994 
L 109.34509 26.109306 
L 109.545906 22.916389 
L 109.746722 22.942773 
L 109.947538 21.357293 
L 110.148354 21.766739 
L 110.34917 20.572696 
L 110.750803 21.746688 
L 110.951619 20.750315 
L 111.152435 20.562672 
L 111.353251 19.613828 
L 111.554067 25.857359 
L 111.754883 23.758844 
L 111.955699 28.556252 
L 112.156515 21.565468 
L 112.357331 22.958487 
L 112.558147 25.975222 
L 112.758963 19.581737 
L 112.959779 22.079616 
L 113.160595 20.87416 
L 113.562228 22.855385 
L 113.763044 20.483355 
L 113.96386 21.102525 
L 114.164676 20.252715 
L 114.566308 21.169812 
L 114.767124 23.101285 
L 115.168756 17.338524 
L 115.570388 20.258349 
L 115.771204 21.626877 
L 115.97202 23.912124 
L 116.172836 24.283408 
L 116.373653 23.785439 
L 116.574469 27.372462 
L 116.775285 20.905049 
L 116.976101 23.46342 
L 117.176917 21.451096 
L 117.377733 21.89267 
L 117.578549 24.995881 
L 117.779365 21.148872 
L 117.980181 21.536482 
L 118.180997 22.604318 
L 118.381813 20.90391 
L 118.582629 23.480959 
L 118.783445 20.888276 
L 118.984261 19.920725 
L 119.185077 24.988362 
L 119.385894 20.198207 
L 119.58671 18.46924 
L 119.988342 22.381546 
L 120.389974 19.855904 
L 120.59079 19.38556 
L 120.791606 21.949607 
L 120.992422 21.76204 
L 121.193238 22.169437 
L 121.394054 23.530535 
L 121.59487 22.214641 
L 121.795686 24.263267 
L 121.996502 19.251202 
L 122.197318 18.079715 
L 122.398135 21.590141 
L 122.598951 21.36342 
L 122.799767 23.375562 
L 123.000583 21.889425 
L 123.201399 18.493565 
L 123.402215 24.973048 
L 123.603031 25.361616 
L 123.803847 22.39412 
L 124.004663 22.340327 
L 124.205479 17.636179 
L 124.406295 20.497574 
L 124.607111 20.38877 
L 124.807927 24.496784 
L 125.008743 20.458514 
L 125.209559 18.867971 
L 125.410376 24.86169 
L 125.611192 19.801638 
L 125.812008 21.246998 
L 126.012824 21.201325 
L 126.21364 19.9267 
L 126.414456 17.776391 
L 126.615272 23.531347 
L 126.816088 22.918332 
L 127.016904 21.731091 
L 127.418536 29.662647 
L 127.619352 22.769873 
L 127.820168 20.413114 
L 128.020984 26.232376 
L 128.2218 26.478002 
L 128.422617 21.250105 
L 128.623433 21.912193 
L 128.824249 21.14766 
L 129.025065 19.684037 
L 129.225881 21.919614 
L 129.426697 17.348601 
L 129.627513 23.60038 
L 129.828329 23.695118 
L 130.229961 20.596422 
L 130.631593 21.444838 
L 130.832409 22.682096 
L 131.033225 20.551101 
L 131.234041 24.610512 
L 131.434858 20.589845 
L 131.635674 24.596401 
L 131.83649 21.607182 
L 132.037306 25.677319 
L 132.639754 20.158442 
L 132.84057 29.998302 
L 133.242202 19.696392 
L 133.643834 24.724432 
L 133.84465 23.466967 
L 134.045466 26.124178 
L 134.246282 19.663389 
L 134.447099 21.191863 
L 134.647915 24.79555 
L 134.848731 21.077444 
L 135.049547 23.739307 
L 135.250363 23.759779 
L 135.451179 22.641422 
L 135.651995 23.847005 
L 135.852811 27.648605 
L 136.254443 21.519037 
L 136.455259 23.172442 
L 136.656075 19.440581 
L 137.057707 20.965517 
L 137.258524 19.885012 
L 137.45934 21.234187 
L 137.660156 24.513278 
L 137.860972 22.643218 
L 138.061788 23.703703 
L 138.262604 21.370616 
L 138.664236 20.021309 
L 138.865052 20.766004 
L 139.065868 22.033328 
L 139.266684 19.003459 
L 139.4675 24.916727 
L 139.668316 21.067448 
L 139.869132 20.121286 
L 140.069948 21.200541 
L 140.270765 20.107145 
L 140.471581 23.548765 
L 140.672397 22.903295 
L 140.873213 20.38055 
L 141.074029 24.596256 
L 141.274845 20.109845 
L 141.475661 24.608307 
L 141.676477 21.00541 
L 141.877293 20.72773 
L 142.078109 24.459668 
L 142.479741 19.791164 
L 142.881373 23.098871 
L 143.082189 22.132713 
L 143.283006 22.046455 
L 143.483822 25.761283 
L 143.684638 22.488646 
L 143.885454 27.614767 
L 144.08627 22.621833 
L 144.287086 22.503139 
L 144.487902 22.58327 
L 144.688718 23.693993 
L 144.889534 20.470271 
L 145.09035 23.844637 
L 145.291166 19.282062 
L 145.491982 22.10324 
L 145.692798 22.191011 
L 145.893614 20.232269 
L 146.295247 21.751044 
L 146.496063 22.060809 
L 146.696879 18.300781 
L 146.897695 22.183856 
L 147.098511 20.36298 
L 147.299327 21.625678 
L 147.500143 24.318821 
L 147.700959 21.607413 
L 147.901775 21.918271 
L 148.102591 21.342857 
L 148.303407 22.851812 
L 148.504223 21.761166 
L 148.705039 19.087033 
L 149.106671 20.776926 
L 149.307488 25.014224 
L 149.508304 22.984439 
L 149.70912 19.007479 
L 149.909936 17.243755 
L 150.110752 22.176581 
L 150.311568 22.756152 
L 150.512384 26.063967 
L 150.7132 18.315242 
L 150.914016 23.651096 
L 151.114832 22.158148 
L 151.315648 24.439374 
L 151.71728 21.38379 
L 151.918096 20.858293 
L 152.118912 23.69665 
L 152.319729 21.641602 
L 152.721361 23.181501 
L 152.922177 26.044808 
L 153.122993 25.080117 
L 153.323809 17.92525 
L 153.524625 21.457003 
L 153.725441 19.653965 
L 153.926257 21.559345 
L 154.127073 21.815614 
L 154.327889 21.840827 
L 154.528705 24.338127 
L 154.729521 20.579144 
L 154.930337 24.894073 
L 155.131153 19.208808 
L 155.33197 18.774328 
L 155.532786 22.768359 
L 155.733602 18.706705 
L 155.934418 23.273111 
L 156.135234 23.413788 
L 156.33605 22.199806 
L 156.536866 18.94462 
L 156.737682 24.174824 
L 156.938498 23.803967 
L 157.139314 19.332163 
L 157.34013 21.532721 
L 157.540946 22.284236 
L 157.741762 26.331983 
L 157.942578 20.928479 
L 158.143394 22.422191 
L 158.344211 20.531268 
L 158.545027 26.6521 
L 158.745843 23.442785 
L 158.946659 24.246306 
L 159.147475 26.177449 
L 159.348291 22.932959 
L 159.549107 25.164327 
L 159.749923 20.517378 
L 159.950739 23.676876 
L 160.151555 29.106084 
L 160.352371 20.061713 
L 160.553187 21.375014 
L 160.754003 23.425247 
L 160.954819 20.519934 
L 161.155636 25.281727 
L 161.356452 19.216099 
L 161.758084 25.688358 
L 161.9589 26.199293 
L 162.159716 21.162516 
L 162.360532 24.932732 
L 162.561348 22.960751 
L 162.762164 18.880387 
L 162.96298 19.97504 
L 163.163796 24.106146 
L 163.364612 19.654295 
L 163.766244 23.021873 
L 163.96706 19.685907 
L 164.167877 19.769953 
L 164.368693 22.634216 
L 164.770325 18.768534 
L 164.971141 21.143204 
L 165.171957 17.544752 
L 165.372773 24.977989 
L 165.573589 23.73563 
L 165.774405 25.754951 
L 165.975221 20.931356 
L 166.176037 23.833663 
L 166.376853 18.147493 
L 166.577669 22.324606 
L 166.778485 21.2205 
L 166.979301 24.85818 
L 167.180118 21.411084 
L 167.380934 21.507178 
L 167.58175 18.430931 
L 167.782566 24.001681 
L 167.983382 22.001719 
L 168.184198 21.36133 
L 168.385014 24.342776 
L 168.58583 18.36463 
L 168.786646 22.661476 
L 168.987462 22.811323 
L 169.188278 21.603536 
L 169.389094 23.710792 
L 169.58991 24.280088 
L 169.790726 25.833052 
L 169.991542 20.770657 
L 170.192359 24.029818 
L 170.393175 24.463013 
L 170.593991 23.914641 
L 170.794807 25.080839 
L 170.995623 20.786423 
L 171.196439 21.863349 
L 171.397255 22.230123 
L 171.598071 21.170486 
L 171.798887 22.339817 
L 171.999703 17.383155 
L 172.200519 23.553407 
L 172.401335 20.447312 
L 172.602151 22.491685 
L 172.802967 20.594744 
L 173.003783 22.627998 
L 173.2046 22.896839 
L 173.405416 18.696333 
L 173.606232 18.051474 
L 173.807048 26.060235 
L 174.007864 21.398395 
L 174.20868 24.300328 
L 174.409496 24.410989 
L 174.610312 21.865456 
L 175.011944 25.475177 
L 175.21276 20.052786 
L 175.413576 22.372191 
L 175.614392 21.538123 
L 175.815208 19.541229 
L 176.016024 20.038239 
L 176.216841 19.977494 
L 176.417657 24.130997 
L 176.618473 23.105919 
L 176.819289 26.589517 
L 177.020105 24.509223 
L 177.220921 23.780173 
L 177.421737 24.406062 
L 177.622553 22.724485 
L 177.823369 22.263833 
L 178.024185 18.792698 
L 178.225001 22.474937 
L 178.425817 19.257202 
L 178.626633 23.043215 
L 179.028265 20.351931 
L 179.229082 22.913735 
L 179.429898 20.226203 
L 179.630714 21.967919 
L 179.83153 18.558864 
L 180.032346 25.177126 
L 180.433978 20.981865 
L 180.634794 23.663249 
L 180.83561 23.881431 
L 181.036426 25.353291 
L 181.237242 18.955203 
L 181.438058 19.321176 
L 181.638874 22.019422 
L 181.83969 21.242875 
L 182.241323 22.143621 
L 182.442139 21.167223 
L 182.642955 20.878154 
L 182.843771 23.961874 
L 183.044587 25.269245 
L 183.245403 20.910815 
L 183.446219 24.966013 
L 183.647035 20.853772 
L 183.847851 26.986663 
L 184.048667 22.625383 
L 184.249483 23.13702 
L 184.450299 21.495751 
L 184.651115 22.951565 
L 185.052748 21.624395 
L 185.253564 22.581126 
L 185.45438 22.568603 
L 185.655196 24.164494 
L 185.856012 21.741376 
L 186.056828 25.068461 
L 186.257644 20.733692 
L 186.45846 24.436726 
L 186.659276 19.253683 
L 186.860092 26.264074 
L 187.261724 21.475799 
L 187.46254 19.63693 
L 187.663356 23.668939 
L 187.864172 20.976321 
L 188.064989 23.816997 
L 188.265805 24.164224 
L 188.466621 21.178847 
L 188.667437 20.757704 
L 188.868253 22.239298 
L 189.069069 24.854567 
L 189.470701 20.820671 
L 189.671517 25.296227 
L 189.872333 23.497305 
L 190.073149 25.489658 
L 190.273965 22.359592 
L 190.474781 21.884801 
L 190.675597 21.005596 
L 190.876413 22.448791 
L 191.07723 19.356307 
L 191.278046 19.082942 
L 191.478862 23.311422 
L 191.679678 23.976394 
L 191.880494 21.199371 
L 192.08131 21.512067 
L 192.282126 22.544567 
L 192.482942 18.674993 
L 192.683758 22.408629 
L 192.884574 17.692034 
L 193.08539 25.444544 
L 193.286206 23.800714 
L 193.487022 23.898951 
L 193.687838 23.428149 
L 193.888654 19.591774 
L 194.089471 21.397444 
L 194.290287 18.122275 
L 194.691919 23.48803 
L 194.892735 23.165235 
L 195.093551 19.911002 
L 195.495183 22.272846 
L 195.695999 21.719386 
L 195.896815 17.246542 
L 196.097631 20.944938 
L 196.298447 21.559927 
L 196.499263 17.902518 
L 196.700079 23.486708 
L 196.900895 18.592176 
L 197.101712 21.056567 
L 197.302528 26.263242 
L 197.70416 20.097783 
L 197.904976 23.679486 
L 198.105792 22.1058 
L 198.306608 18.300841 
L 198.507424 25.160353 
L 198.70824 26.28819 
L 198.909056 21.612758 
L 199.109872 21.861549 
L 199.310688 27.165597 
L 199.511504 22.667438 
L 199.71232 23.340466 
L 199.913136 20.558925 
L 200.113953 20.425241 
L 200.515585 23.790294 
L 200.716401 24.162844 
L 200.917217 26.723924 
L 201.118033 22.27391 
L 201.318849 22.171162 
L 201.519665 26.399661 
L 201.720481 22.847996 
L 201.921297 26.963391 
L 202.322929 21.426962 
L 202.523745 18.829876 
L 202.724561 21.298139 
L 202.925377 22.296404 
L 203.126194 22.247816 
L 203.32701 18.002943 
L 203.527826 21.644534 
L 203.728642 19.509661 
L 203.929458 22.124328 
L 204.130274 21.213577 
L 204.531906 26.897189 
L 204.732722 21.427316 
L 204.933538 22.795783 
L 205.134354 22.951194 
L 205.736802 19.184896 
L 205.937619 20.915907 
L 206.138435 20.945677 
L 206.540067 23.185611 
L 206.740883 22.147068 
L 206.941699 22.278388 
L 207.142515 21.027307 
L 207.343331 20.900228 
L 207.544147 22.870364 
L 208.146595 19.072218 
L 208.347411 22.396876 
L 208.548227 27.759275 
L 208.749043 21.631524 
L 208.94986 22.157016 
L 209.150676 23.066963 
L 209.351492 19.882584 
L 209.552308 19.982405 
L 209.753124 26.007305 
L 209.95394 20.307886 
L 210.154756 22.572537 
L 210.355572 21.431778 
L 210.556388 18.795687 
L 210.757204 18.749925 
L 210.95802 16.593043 
L 211.158836 20.94358 
L 211.359652 22.120874 
L 211.560468 19.821881 
L 211.761284 23.370394 
L 211.962101 18.455012 
L 212.162917 24.74444 
L 212.363733 18.871972 
L 212.564549 20.632931 
L 212.765365 21.003555 
L 212.966181 22.156472 
L 213.166997 18.323415 
L 213.568629 23.13079 
L 213.769445 19.774294 
L 213.970261 22.266931 
L 214.171077 27.939295 
L 214.371893 22.323118 
L 214.572709 20.756859 
L 214.773525 22.157909 
L 215.175158 19.819393 
L 215.375974 21.680213 
L 215.57679 18.264102 
L 215.777606 18.322665 
L 215.978422 27.17345 
L 216.179238 20.864955 
L 216.380054 25.855608 
L 216.781686 25.268927 
L 216.982502 19.907167 
L 217.384134 23.756932 
L 217.58495 20.297303 
L 217.785766 20.998669 
L 217.986583 22.340917 
L 218.187399 18.918935 
L 218.388215 24.152885 
L 218.589031 16.61541 
L 218.789847 20.093799 
L 218.990663 20.684198 
L 219.191479 20.130103 
L 219.392295 22.160087 
L 219.593111 21.059916 
L 219.793927 23.477992 
L 219.994743 21.322338 
L 220.195559 24.743174 
L 220.396375 20.787604 
L 220.597191 22.047542 
L 220.798007 19.635589 
L 220.998824 21.507252 
L 221.19964 24.69782 
L 221.400456 25.343722 
L 221.601272 18.871789 
L 221.802088 20.331195 
L 222.002904 23.888959 
L 222.20372 21.019561 
L 222.404536 22.779 
L 222.605352 19.195151 
L 222.806168 23.868219 
L 223.006984 23.366264 
L 223.2078 27.453815 
L 223.408616 21.567873 
L 223.609432 19.942823 
L 223.810248 20.48862 
L 224.011065 20.303806 
L 224.211881 23.701223 
L 224.613513 22.720841 
L 224.814329 22.910171 
L 225.015145 27.241197 
L 225.215961 20.849067 
L 225.416777 23.853609 
L 225.617593 21.145255 
L 225.818409 21.684607 
L 226.019225 21.127267 
L 226.220041 21.790147 
L 226.420857 23.703016 
L 226.621673 19.947892 
L 226.822489 20.567891 
L 227.023306 19.791209 
L 227.424938 25.370595 
L 227.625754 20.071257 
L 228.027386 24.666547 
L 228.228202 20.367817 
L 228.429018 22.309357 
L 228.629834 20.875878 
L 228.83065 23.288778 
L 229.031466 20.503107 
L 229.232282 21.798986 
L 229.433098 24.665904 
L 229.633914 20.07615 
L 229.834731 22.24679 
L 230.035547 19.87199 
L 230.236363 23.003919 
L 230.437179 23.095288 
L 230.637995 19.663972 
L 230.838811 22.777449 
L 231.240443 20.888398 
L 231.441259 19.772876 
L 231.642075 27.456963 
L 232.043707 20.391359 
L 232.445339 22.912893 
L 232.646155 19.313519 
L 232.846972 22.530302 
L 233.047788 22.814016 
L 233.248604 25.882576 
L 233.650236 21.493381 
L 233.851052 25.51109 
L 234.051868 23.108773 
L 234.252684 19.107927 
L 234.4535 21.817957 
L 234.654316 26.885393 
L 234.855132 24.599399 
L 235.055948 26.68355 
L 235.45758 17.531973 
L 235.658396 21.479431 
L 235.859213 21.269155 
L 236.060029 21.89248 
L 236.260845 25.318529 
L 236.662477 19.008778 
L 237.064109 22.114343 
L 237.264925 21.068595 
L 237.465741 25.369894 
L 237.666557 22.583272 
L 237.867373 22.349125 
L 238.068189 24.927776 
L 238.269005 20.991539 
L 238.469821 22.237889 
L 238.871454 19.801394 
L 239.07227 24.960224 
L 239.273086 21.929416 
L 239.473902 21.376562 
L 239.875534 21.976901 
L 240.07635 20.194117 
L 240.277166 23.640511 
L 240.477982 22.390993 
L 240.678798 17.608744 
L 240.879614 25.00171 
L 241.08043 20.881505 
L 241.281246 20.09159 
L 241.482062 22.3083 
L 241.682878 22.771695 
L 241.883695 25.298318 
L 242.084511 24.273978 
L 242.285327 24.191978 
L 242.486143 21.660787 
L 242.686959 22.921753 
L 242.887775 22.896991 
L 243.088591 24.587828 
L 243.289407 24.40395 
L 243.490223 17.943685 
L 243.691039 21.709862 
L 243.891855 22.800935 
L 244.092671 20.139486 
L 244.293487 24.444649 
L 244.695119 20.637196 
L 244.895936 24.496836 
L 245.096752 23.091725 
L 245.297568 17.946669 
L 245.498384 21.999001 
L 245.6992 18.039698 
L 245.900016 22.998809 
L 246.100832 24.35413 
L 246.301648 19.417816 
L 246.70328 22.793147 
L 246.904096 21.65174 
L 247.104912 19.774161 
L 247.305728 23.226221 
L 247.506544 23.646434 
L 247.70736 21.804153 
L 247.908177 18.573278 
L 248.108993 23.373249 
L 248.510625 20.584943 
L 248.711441 23.525931 
L 248.912257 22.121714 
L 249.113073 30.724164 
L 249.514705 18.155484 
L 249.916337 24.666183 
L 250.117153 23.807118 
L 250.317969 19.125835 
L 250.518785 19.39437 
L 251.121234 25.721631 
L 251.32205 25.468491 
L 251.522866 19.724954 
L 251.723682 20.802294 
L 251.924498 25.337286 
L 252.125314 21.724704 
L 252.32613 27.560877 
L 252.526946 23.540425 
L 252.727762 25.949527 
L 252.928578 21.855768 
L 253.129394 22.08102 
L 253.33021 24.987782 
L 253.531026 24.397934 
L 253.731843 20.492377 
L 253.932659 24.119247 
L 254.133475 23.837483 
L 254.334291 25.025027 
L 254.535107 24.396672 
L 254.735923 28.982853 
L 255.137555 19.64651 
L 255.338371 20.473654 
L 255.539187 22.542804 
L 255.740003 18.076187 
L 255.940819 27.505603 
L 256.141635 19.057186 
L 256.543267 24.29325 
L 256.744084 26.584376 
L 256.9449 24.086028 
L 257.145716 20.029102 
L 257.346532 21.964065 
L 257.547348 18.930043 
L 257.748164 22.065475 
L 257.94898 22.453004 
L 258.149796 19.932808 
L 258.350612 20.894336 
L 258.551428 18.323667 
L 258.95306 27.253726 
L 259.153876 19.318485 
L 259.354692 19.635177 
L 259.555508 19.661719 
L 259.756325 22.45642 
L 259.957141 21.334567 
L 260.157957 18.758188 
L 260.358773 22.418884 
L 260.559589 20.346627 
L 260.760405 22.170795 
L 260.961221 21.569195 
L 261.162037 21.975289 
L 261.362853 19.17151 
L 261.563669 23.412546 
L 261.764485 22.572614 
L 261.965301 24.23591 
L 262.166117 24.292182 
L 262.366933 19.047834 
L 262.768566 23.556527 
L 262.969382 24.473653 
L 263.170198 20.257752 
L 263.371014 20.762937 
L 263.57183 21.833846 
L 263.772646 21.633424 
L 263.973462 20.358062 
L 264.174278 23.164911 
L 264.375094 24.045212 
L 264.57591 22.617046 
L 264.776726 20.341062 
L 264.977542 24.546483 
L 265.178358 20.258778 
L 265.379174 22.498815 
L 265.57999 23.452756 
L 265.981623 20.472272 
L 266.182439 25.539222 
L 266.383255 24.60652 
L 266.584071 20.577271 
L 266.784887 22.128828 
L 266.985703 21.365795 
L 267.186519 24.779173 
L 267.387335 23.395178 
L 267.588151 20.839553 
L 267.788967 20.396446 
L 267.989783 23.627826 
L 268.190599 23.036029 
L 268.391415 19.429607 
L 268.592231 21.840088 
L 268.793048 15.527627 
L 268.993864 22.166758 
L 269.19468 21.135545 
L 269.395496 25.649721 
L 269.596312 20.954557 
L 269.797128 21.691602 
L 269.997944 21.646272 
L 270.19876 22.659248 
L 270.600392 26.378473 
L 270.801208 22.773763 
L 271.002024 22.851845 
L 271.20284 22.61598 
L 271.403656 23.61232 
L 271.604472 22.452083 
L 271.805289 23.701115 
L 272.006105 22.647971 
L 272.206921 24.579594 
L 272.608553 20.624435 
L 272.809369 23.168413 
L 273.010185 23.072322 
L 273.211001 24.808108 
L 273.411817 22.337121 
L 273.612633 22.357265 
L 273.813449 21.507295 
L 274.215081 23.817817 
L 274.415897 24.246853 
L 274.616713 20.963769 
L 275.018346 25.560371 
L 275.219162 19.158532 
L 275.620794 26.465065 
L 275.82161 21.001293 
L 276.022426 19.27014 
L 276.223242 20.812033 
L 276.424058 25.206195 
L 276.624874 21.723713 
L 276.82569 25.883838 
L 277.026506 21.188629 
L 277.227322 19.644468 
L 277.428138 19.981328 
L 277.628955 21.454652 
L 277.829771 19.738626 
L 278.231403 26.176095 
L 278.432219 21.877094 
L 278.633035 21.607001 
L 278.833851 18.395108 
L 279.034667 21.36986 
L 279.235483 21.163293 
L 279.436299 18.576452 
L 279.637115 23.016347 
L 279.837931 22.228568 
L 280.038747 20.497614 
L 280.440379 24.473538 
L 280.641196 21.158019 
L 280.842012 23.028147 
L 281.042828 21.512258 
L 281.243644 22.736101 
L 281.44446 23.18773 
L 281.645276 27.253345 
L 281.846092 18.716474 
L 282.046908 22.292334 
L 282.247724 20.435015 
L 282.44854 21.513154 
L 282.850172 24.468386 
L 283.050988 23.156483 
L 283.251804 19.489876 
L 283.653437 21.376627 
L 283.854253 17.965452 
L 284.055069 21.897573 
L 284.255885 19.721773 
L 284.456701 23.856714 
L 284.657517 22.067911 
L 284.858333 18.895239 
L 285.059149 18.350515 
L 285.259965 23.186661 
L 285.460781 20.465126 
L 285.661597 19.462708 
L 285.862413 23.185267 
L 286.063229 20.674801 
L 286.264045 20.658118 
L 286.464861 22.046513 
L 286.665678 21.91358 
L 286.866494 19.285315 
L 287.06731 22.240811 
L 287.268126 19.97228 
L 287.468942 24.284891 
L 287.669758 20.52428 
L 287.870574 25.077345 
L 288.07139 22.566322 
L 288.272206 23.034137 
L 288.473022 22.018972 
L 288.673838 20.193923 
L 288.874654 22.488465 
L 289.07547 18.711167 
L 289.276286 27.230778 
L 289.677919 20.372023 
L 289.878735 18.505345 
L 290.079551 23.147911 
L 290.280367 20.877723 
L 290.481183 20.30434 
L 290.681999 17.039024 
L 290.882815 25.616476 
L 291.083631 21.486802 
L 291.284447 26.815976 
L 291.485263 20.163812 
L 291.686079 23.422917 
L 291.886895 24.049884 
L 292.087711 25.678296 
L 292.288527 20.496096 
L 292.489343 23.167108 
L 292.69016 23.80614 
L 292.890976 21.001084 
L 293.091792 26.450867 
L 293.292608 21.080284 
L 293.69424 24.895015 
L 293.895056 25.808005 
L 294.095872 22.536684 
L 294.296688 23.724451 
L 294.497504 20.199402 
L 294.69832 27.803067 
L 294.899136 23.250027 
L 295.099952 24.933901 
L 295.300768 19.087291 
L 295.501584 24.237761 
L 295.702401 19.670809 
L 296.104033 25.366486 
L 296.304849 20.533068 
L 296.505665 20.242123 
L 296.706481 20.642718 
L 296.907297 22.183551 
L 297.108113 25.700716 
L 297.308929 20.041866 
L 297.509745 28.522256 
L 297.710561 24.433044 
L 297.911377 24.807824 
L 298.112193 20.491671 
L 298.313009 23.679614 
L 298.513825 23.160997 
L 298.714642 23.769292 
L 299.116274 19.797449 
L 299.31709 29.398162 
L 299.517906 21.102249 
L 299.718722 21.726961 
L 299.919538 27.795456 
L 300.120354 18.283083 
L 300.32117 23.97822 
L 300.521986 16.730525 
L 300.722802 18.625132 
L 300.923618 24.137395 
L 301.124434 21.711113 
L 301.32525 20.928073 
L 301.526067 25.410519 
L 301.726883 20.534743 
L 301.927699 20.941393 
L 302.128515 22.897118 
L 302.329331 22.197773 
L 302.530147 19.039551 
L 302.730963 20.233481 
L 302.931779 24.307592 
L 303.333411 18.514043 
L 303.534227 22.081814 
L 303.735043 22.413729 
L 303.935859 21.935279 
L 304.136675 23.639085 
L 304.337491 21.760063 
L 304.538308 24.575814 
L 304.739124 20.858448 
L 304.93994 24.707844 
L 305.140756 23.146245 
L 305.341572 17.305627 
L 305.542388 24.636862 
L 305.743204 22.608208 
L 305.94402 18.875002 
L 306.144836 21.911875 
L 306.345652 21.71321 
L 306.747284 23.665123 
L 306.9481 26.737666 
L 307.148916 22.11594 
L 307.349732 22.96134 
L 307.550549 26.186255 
L 307.751365 20.905268 
L 307.952181 27.283374 
L 308.152997 21.926282 
L 308.353813 20.759395 
L 308.554629 26.44289 
L 308.755445 18.478733 
L 308.956261 18.568116 
L 309.157077 21.494495 
L 309.357893 26.080943 
L 309.759525 21.77413 
L 309.960341 22.006216 
L 310.161157 21.533626 
L 310.361973 19.237437 
L 310.56279 24.235869 
L 310.763606 14.815814 
L 310.964422 24.12284 
L 311.165238 22.87396 
L 311.366054 25.633626 
L 311.56687 20.978343 
L 311.767686 25.046333 
L 311.968502 19.932641 
L 312.169318 22.650666 
L 312.370134 21.617238 
L 312.57095 23.313833 
L 312.771766 22.75423 
L 312.972582 21.40157 
L 313.173398 23.243987 
L 313.374214 23.304611 
L 313.575031 25.566134 
L 313.775847 20.049162 
L 313.976663 20.543369 
L 314.177479 25.091338 
L 314.579111 22.377957 
L 314.980743 17.201353 
L 315.181559 20.99036 
L 315.382375 20.597883 
L 315.583191 23.031223 
L 315.784007 21.210278 
L 315.984823 24.162245 
L 316.185639 24.617922 
L 316.386455 22.341572 
L 316.587272 22.169723 
L 316.988904 24.334538 
L 317.18972 21.220392 
L 317.390536 22.184636 
L 317.591352 21.541686 
L 317.992984 23.211695 
L 318.1938 20.735315 
L 318.394616 25.263237 
L 318.595432 22.904879 
L 318.796248 26.533593 
L 318.997064 22.12042 
L 319.19788 22.411297 
L 319.398696 20.727014 
L 319.599513 23.005489 
L 319.800329 22.550126 
L 320.001145 22.909589 
L 320.402777 25.427983 
L 320.603593 22.970208 
L 320.804409 22.27887 
L 321.406857 29.148059 
L 321.607673 22.742257 
L 321.808489 20.236708 
L 322.009305 25.501511 
L 322.210121 24.047643 
L 322.410937 20.192085 
L 322.410937 20.192085 
" clip-path="url(#pce0c532184)" style="fill: none; stroke: #ff0000; stroke-width: 3; stroke-linecap: square"/>
   </g>
   <g id="line2d_11">
    <path d="M 65.567187 94.561575 
L 68.177796 94.204674 
L 70.989221 93.920921 
L 73.59983 93.910786 
L 78.017784 93.92241 
L 80.22676 94.004397 
L 82.636553 94.404071 
L 84.243082 94.525391 
L 85.648794 94.511947 
L 86.050426 94.090398 
L 86.452058 92.888985 
L 86.853691 90.409603 
L 87.456139 84.055518 
L 90.066748 51.089731 
L 91.070828 42.433802 
L 91.874092 37.242975 
L 92.677357 33.408516 
L 93.480621 30.719509 
L 94.083069 29.317973 
L 94.685517 28.338132 
L 95.287965 27.689566 
L 96.09123 27.196423 
L 96.894494 26.970603 
L 98.501023 26.820874 
L 103.320608 26.583264 
L 105.931217 26.782482 
L 112.156515 27.643467 
L 112.758963 28.060216 
L 113.361412 28.731831 
L 113.96386 29.745969 
L 114.566308 31.19729 
L 115.168756 33.183442 
L 115.771204 35.800762 
L 116.574469 40.427345 
L 117.377733 46.520776 
L 118.180997 54.22132 
L 119.185077 66.175593 
L 120.992422 89.191503 
L 121.394054 91.905448 
L 121.795686 93.264951 
L 122.197318 93.743943 
L 122.598951 93.818992 
L 124.205479 93.783224 
L 133.242202 94.996649 
L 134.447099 94.906772 
L 137.258524 94.398648 
L 137.660156 93.81937 
L 138.061788 92.374457 
L 138.46342 89.622558 
L 139.065868 83.044035 
L 141.475661 52.817602 
L 142.479741 43.91686 
L 143.283006 38.49306 
L 144.08627 34.399146 
L 144.889534 31.437193 
L 145.692798 29.400686 
L 146.295247 28.360137 
L 146.897695 27.649326 
L 147.700959 27.092048 
L 148.504223 26.848038 
L 149.508304 26.805374 
L 155.532786 27.257292 
L 159.950739 27.80187 
L 161.557268 27.533248 
L 162.762164 27.401042 
L 163.565428 27.561665 
L 164.167877 27.921523 
L 164.770325 28.567605 
L 165.372773 29.578003 
L 165.975221 31.035107 
L 166.577669 33.02523 
L 167.380934 36.660955 
L 168.184198 41.6056 
L 168.987462 48.037192 
L 169.790726 56.089634 
L 170.794807 68.465159 
L 172.401335 89.24658 
L 172.802967 92.210587 
L 173.2046 93.757167 
L 173.606232 94.331959 
L 174.007864 94.437473 
L 176.216841 94.355415 
L 178.425817 94.375541 
L 180.83561 94.415083 
L 187.261724 94.802597 
L 189.671517 94.534654 
L 194.491103 93.849631 
L 195.896815 93.932349 
L 197.503344 94.261692 
L 199.913136 94.762211 
L 201.318849 94.772479 
L 203.126194 94.507275 
L 206.339251 94.037167 
L 212.564549 93.415241 
L 213.568629 93.609552 
L 214.171077 93.724562 
L 214.572709 93.522755 
L 214.773525 93.207887 
L 215.175158 91.827729 
L 215.57679 89.081761 
L 216.179238 82.45371 
L 218.388215 54.394971 
L 219.392295 45.13381 
L 220.195559 39.48465 
L 220.998824 35.23115 
L 221.802088 32.171286 
L 222.605352 30.08067 
L 223.408616 28.734582 
L 224.211881 27.925698 
L 225.015145 27.476993 
L 226.019225 27.216506 
L 227.424938 27.117205 
L 229.834731 27.190264 
L 235.055948 27.455696 
L 240.07635 27.255838 
L 243.289407 27.23489 
L 246.502464 27.112949 
L 248.108993 27.318583 
L 253.129394 28.202316 
L 254.334291 28.068439 
L 255.940819 27.634955 
L 258.350612 26.957708 
L 259.756325 26.80943 
L 261.362853 26.877193 
L 265.57999 27.363397 
L 266.383255 27.714296 
L 266.985703 28.182098 
L 267.588151 28.907552 
L 268.190599 29.975803 
L 268.793048 31.478944 
L 269.395496 33.512248 
L 270.19876 37.210715 
L 271.002024 42.227989 
L 271.805289 48.741432 
L 272.809369 59.180389 
L 274.014265 74.914972 
L 275.018346 87.966831 
L 275.419978 91.466238 
L 275.82161 93.458827 
L 276.223242 94.26521 
L 276.624874 94.423813 
L 277.428138 94.212726 
L 278.432219 94.054476 
L 283.45262 93.791776 
L 285.460781 93.677516 
L 287.268126 93.826671 
L 289.677919 94.271605 
L 293.69424 95.089379 
L 295.300768 95.120784 
L 297.509745 94.915899 
L 302.931779 94.212591 
L 304.93994 94.410907 
L 307.349732 94.612261 
L 309.558709 94.518079 
L 312.57095 94.420086 
L 315.181559 94.558898 
L 319.19788 94.912294 
L 320.603593 94.718127 
L 322.410937 94.318653 
L 322.410937 94.318653 
" clip-path="url(#pce0c532184)" style="fill: none; stroke: #ff7f0e; stroke-width: 3; stroke-linecap: square"/>
   </g>
   <g id="line2d_12">
    <path d="M 65.567187 99.147917 
L 65.567187 10.8 
" clip-path="url(#pce0c532184)" style="fill: none; stroke-dasharray: 5.55,2.4; stroke-dashoffset: 0; stroke: #000000; stroke-opacity: 0.5; stroke-width: 1.5"/>
   </g>
   <g id="line2d_13">
    <path d="M 91.271644 99.147917 
L 91.271644 10.8 
" clip-path="url(#pce0c532184)" style="fill: none; stroke-dasharray: 5.55,2.4; stroke-dashoffset: 0; stroke: #000000; stroke-opacity: 0.5; stroke-width: 1.5"/>
   </g>
   <g id="line2d_14">
    <path d="M 116.976101 99.147917 
L 116.976101 10.8 
" clip-path="url(#pce0c532184)" style="fill: none; stroke-dasharray: 5.55,2.4; stroke-dashoffset: 0; stroke: #000000; stroke-opacity: 0.5; stroke-width: 1.5"/>
   </g>
   <g id="line2d_15">
    <path d="M 142.680557 99.147917 
L 142.680557 10.8 
" clip-path="url(#pce0c532184)" style="fill: none; stroke-dasharray: 5.55,2.4; stroke-dashoffset: 0; stroke: #000000; stroke-opacity: 0.5; stroke-width: 1.5"/>
   </g>
   <g id="line2d_16">
    <path d="M 168.385014 99.147917 
L 168.385014 10.8 
" clip-path="url(#pce0c532184)" style="fill: none; stroke-dasharray: 5.55,2.4; stroke-dashoffset: 0; stroke: #000000; stroke-opacity: 0.5; stroke-width: 1.5"/>
   </g>
   <g id="line2d_17">
    <path d="M 194.089471 99.147917 
L 194.089471 10.8 
" clip-path="url(#pce0c532184)" style="fill: none; stroke-dasharray: 5.55,2.4; stroke-dashoffset: 0; stroke: #000000; stroke-opacity: 0.5; stroke-width: 1.5"/>
   </g>
   <g id="line2d_18">
    <path d="M 219.793927 99.147917 
L 219.793927 10.8 
" clip-path="url(#pce0c532184)" style="fill: none; stroke-dasharray: 5.55,2.4; stroke-dashoffset: 0; stroke: #000000; stroke-opacity: 0.5; stroke-width: 1.5"/>
   </g>
   <g id="line2d_19">
    <path d="M 245.498384 99.147917 
L 245.498384 10.8 
" clip-path="url(#pce0c532184)" style="fill: none; stroke-dasharray: 5.55,2.4; stroke-dashoffset: 0; stroke: #000000; stroke-opacity: 0.5; stroke-width: 1.5"/>
   </g>
   <g id="line2d_20">
    <path d="M 271.20284 99.147917 
L 271.20284 10.8 
" clip-path="url(#pce0c532184)" style="fill: none; stroke-dasharray: 5.55,2.4; stroke-dashoffset: 0; stroke: #000000; stroke-opacity: 0.5; stroke-width: 1.5"/>
   </g>
   <g id="line2d_21">
    <path d="M 296.907297 99.147917 
L 296.907297 10.8 
" clip-path="url(#pce0c532184)" style="fill: none; stroke-dasharray: 5.55,2.4; stroke-dashoffset: 0; stroke: #000000; stroke-opacity: 0.5; stroke-width: 1.5"/>
   </g>
   <g id="patch_3">
    <path d="M 52.725 99.147917 
L 52.725 10.8 
" style="fill: none; stroke: #000000; stroke-width: 0.8; stroke-linejoin: miter; stroke-linecap: square"/>
   </g>
   <g id="patch_4">
    <path d="M 335.253125 99.147917 
L 335.253125 10.8 
" style="fill: none; stroke: #000000; stroke-width: 0.8; stroke-linejoin: miter; stroke-linecap: square"/>
   </g>
   <g id="patch_5">
    <path d="M 52.725 99.147917 
L 335.253125 99.147917 
" style="fill: none; stroke: #000000; stroke-width: 0.8; stroke-linejoin: miter; stroke-linecap: square"/>
   </g>
   <g id="patch_6">
    <path d="M 52.725 10.8 
L 335.253125 10.8 
" style="fill: none; stroke: #000000; stroke-width: 0.8; stroke-linejoin: miter; stroke-linecap: square"/>
   </g>
   <g id="legend_1">
    <g id="patch_7">
     <path d="M 342.253125 48.15625 
L 407.59375 48.15625 
Q 409.59375 48.15625 409.59375 46.15625 
L 409.59375 17.8 
Q 409.59375 15.8 407.59375 15.8 
L 342.253125 15.8 
Q 340.253125 15.8 340.253125 17.8 
L 340.253125 46.15625 
Q 340.253125 48.15625 342.253125 48.15625 
z
" style="fill: #ffffff; opacity: 0.8; stroke: #cccccc; stroke-linejoin: miter"/>
    </g>
    <g id="line2d_22">
     <path d="M 344.253125 23.898438 
L 354.253125 23.898438 
L 364.253125 23.898438 
" style="fill: none; stroke: #ff0000; stroke-width: 3; stroke-linecap: square"/>
    </g>
    <g id="text_5">
     <!-- input -->
     <g transform="translate(372.253125 27.398438) scale(0.1 -0.1)">
      <defs>
       <path id="DejaVuSerif-70" d="M 1313 1825 
L 1313 1497 
Q 1313 897 1542 583 
Q 1772 269 2209 269 
Q 2650 269 2876 622 
Q 3103 975 3103 1663 
Q 3103 2353 2876 2703 
Q 2650 3053 2209 3053 
Q 1772 3053 1542 2737 
Q 1313 2422 1313 1825 
z
M 738 2988 
L 184 2988 
L 184 3322 
L 1313 3322 
L 1313 2803 
Q 1481 3116 1742 3264 
Q 2003 3413 2388 3413 
Q 3000 3413 3387 2928 
Q 3775 2444 3775 1663 
Q 3775 881 3387 395 
Q 3000 -91 2388 -91 
Q 2003 -91 1742 57 
Q 1481 206 1313 519 
L 1313 -997 
L 1856 -997 
L 1856 -1331 
L 184 -1331 
L 184 -997 
L 738 -997 
L 738 2988 
z
" transform="scale(0.015625)"/>
       <path id="DejaVuSerif-75" d="M 2266 3322 
L 3341 3322 
L 3341 331 
L 3884 331 
L 3884 0 
L 2766 0 
L 2766 588 
Q 2606 256 2353 82 
Q 2100 -91 1766 -91 
Q 1213 -91 952 223 
Q 691 538 691 1209 
L 691 2988 
L 172 2988 
L 172 3322 
L 1269 3322 
L 1269 1388 
Q 1269 781 1417 556 
Q 1566 331 1947 331 
Q 2347 331 2556 625 
Q 2766 919 2766 1478 
L 2766 2988 
L 2266 2988 
L 2266 3322 
z
" transform="scale(0.015625)"/>
      </defs>
      <use xlink:href="#DejaVuSerif-69"/>
      <use xlink:href="#DejaVuSerif-6e" x="31.982422"/>
      <use xlink:href="#DejaVuSerif-70" x="96.386719"/>
      <use xlink:href="#DejaVuSerif-75" x="160.400391"/>
      <use xlink:href="#DejaVuSerif-74" x="224.804688"/>
     </g>
    </g>
    <g id="line2d_23">
     <path d="M 344.253125 38.576563 
L 354.253125 38.576563 
L 364.253125 38.576563 
" style="fill: none; stroke: #ff7f0e; stroke-width: 3; stroke-linecap: square"/>
    </g>
    <g id="text_6">
     <!-- output -->
     <g transform="translate(372.253125 42.076563) scale(0.1 -0.1)">
      <use xlink:href="#DejaVuSerif-6f"/>
      <use xlink:href="#DejaVuSerif-75" x="60.205078"/>
      <use xlink:href="#DejaVuSerif-74" x="124.609375"/>
      <use xlink:href="#DejaVuSerif-70" x="164.794922"/>
      <use xlink:href="#DejaVuSerif-75" x="228.808594"/>
      <use xlink:href="#DejaVuSerif-74" x="293.212891"/>
     </g>
    </g>
   </g>
  </g>
  <g id="axes_2">
   <g id="patch_8">
    <path d="M 52.725 201.795833 
L 335.253125 201.795833 
L 335.253125 113.447917 
L 52.725 113.447917 
z
" style="fill: #ffffff"/>
   </g>
   <g id="matplotlib.axis_3">
    <g id="xtick_7">
     <g id="line2d_24">
      <g>
       <use xlink:href="#mc2b160ba44" x="65.567187" y="201.795833" style="stroke: #000000; stroke-width: 0.8"/>
      </g>
     </g>
    </g>
    <g id="xtick_8">
     <g id="line2d_25">
      <g>
       <use xlink:href="#mc2b160ba44" x="116.935937" y="201.795833" style="stroke: #000000; stroke-width: 0.8"/>
      </g>
     </g>
    </g>
    <g id="xtick_9">
     <g id="line2d_26">
      <g>
       <use xlink:href="#mc2b160ba44" x="168.304687" y="201.795833" style="stroke: #000000; stroke-width: 0.8"/>
      </g>
     </g>
    </g>
    <g id="xtick_10">
     <g id="line2d_27">
      <g>
       <use xlink:href="#mc2b160ba44" x="219.673437" y="201.795833" style="stroke: #000000; stroke-width: 0.8"/>
      </g>
     </g>
    </g>
    <g id="xtick_11">
     <g id="line2d_28">
      <g>
       <use xlink:href="#mc2b160ba44" x="271.042187" y="201.795833" style="stroke: #000000; stroke-width: 0.8"/>
      </g>
     </g>
    </g>
    <g id="xtick_12">
     <g id="line2d_29">
      <g>
       <use xlink:href="#mc2b160ba44" x="322.410937" y="201.795833" style="stroke: #000000; stroke-width: 0.8"/>
      </g>
     </g>
    </g>
   </g>
   <g id="matplotlib.axis_4">
    <g id="ytick_4">
     <g id="line2d_30">
      <g>
       <use xlink:href="#maa633ff232" x="52.725" y="197.771901" style="stroke: #000000; stroke-width: 0.8"/>
      </g>
     </g>
     <g id="text_7">
      <!-- 0.0 -->
      <g transform="translate(29.821875 201.57112) scale(0.1 -0.1)">
       <defs>
        <path id="DejaVuSerif-2e" d="M 603 325 
Q 603 500 722 622 
Q 841 744 1019 744 
Q 1191 744 1312 622 
Q 1434 500 1434 325 
Q 1434 153 1312 31 
Q 1191 -91 1019 -91 
Q 841 -91 722 29 
Q 603 150 603 325 
z
" transform="scale(0.015625)"/>
       </defs>
       <use xlink:href="#DejaVuSerif-30"/>
       <use xlink:href="#DejaVuSerif-2e" x="63.623047"/>
       <use xlink:href="#DejaVuSerif-30" x="95.410156"/>
      </g>
     </g>
    </g>
    <g id="ytick_5">
     <g id="line2d_31">
      <g>
       <use xlink:href="#maa633ff232" x="52.725" y="173.266947" style="stroke: #000000; stroke-width: 0.8"/>
      </g>
     </g>
     <g id="text_8">
      <!-- 0.5 -->
      <g transform="translate(29.821875 177.066165) scale(0.1 -0.1)">
       <defs>
        <path id="DejaVuSerif-35" d="M 3219 4666 
L 3219 4153 
L 1081 4153 
L 1081 2816 
Q 1244 2928 1461 2984 
Q 1678 3041 1947 3041 
Q 2703 3041 3140 2622 
Q 3578 2203 3578 1478 
Q 3578 738 3136 323 
Q 2694 -91 1894 -91 
Q 1572 -91 1234 -12 
Q 897 66 544 225 
L 544 1131 
L 897 1131 
Q 925 688 1179 453 
Q 1434 219 1894 219 
Q 2388 219 2653 544 
Q 2919 869 2919 1478 
Q 2919 2084 2655 2407 
Q 2391 2731 1894 2731 
Q 1613 2731 1398 2631 
Q 1184 2531 1019 2322 
L 750 2322 
L 750 4666 
L 3219 4666 
z
" transform="scale(0.015625)"/>
       </defs>
       <use xlink:href="#DejaVuSerif-30"/>
       <use xlink:href="#DejaVuSerif-2e" x="63.623047"/>
       <use xlink:href="#DejaVuSerif-35" x="95.410156"/>
      </g>
     </g>
    </g>
    <g id="ytick_6">
     <g id="line2d_32">
      <g>
       <use xlink:href="#maa633ff232" x="52.725" y="148.761992" style="stroke: #000000; stroke-width: 0.8"/>
      </g>
     </g>
     <g id="text_9">
      <!-- 1.0 -->
      <g transform="translate(29.821875 152.561211) scale(0.1 -0.1)">
       <use xlink:href="#DejaVuSerif-31"/>
       <use xlink:href="#DejaVuSerif-2e" x="63.623047"/>
       <use xlink:href="#DejaVuSerif-30" x="95.410156"/>
      </g>
     </g>
    </g>
    <g id="ytick_7">
     <g id="line2d_33">
      <g>
       <use xlink:href="#maa633ff232" x="52.725" y="124.257037" style="stroke: #000000; stroke-width: 0.8"/>
      </g>
     </g>
     <g id="text_10">
      <!-- 1.5 -->
      <g transform="translate(29.821875 128.056256) scale(0.1 -0.1)">
       <use xlink:href="#DejaVuSerif-31"/>
       <use xlink:href="#DejaVuSerif-2e" x="63.623047"/>
       <use xlink:href="#DejaVuSerif-35" x="95.410156"/>
      </g>
     </g>
    </g>
    <g id="text_11">
     <!-- Fase [rad] -->
     <g transform="translate(23.742187 183.322656) rotate(-90) scale(0.1 -0.1)">
      <defs>
       <path id="DejaVuSerif-46" d="M 353 0 
L 353 331 
L 947 331 
L 947 4331 
L 353 4331 
L 353 4666 
L 4172 4666 
L 4172 3628 
L 3788 3628 
L 3788 4281 
L 1581 4281 
L 1581 2719 
L 3175 2719 
L 3175 3303 
L 3559 3303 
L 3559 1753 
L 3175 1753 
L 3175 2338 
L 1581 2338 
L 1581 331 
L 2328 331 
L 2328 0 
L 353 0 
z
" transform="scale(0.015625)"/>
       <path id="DejaVuSerif-73" d="M 359 184 
L 359 959 
L 691 959 
Q 703 588 923 403 
Q 1144 219 1575 219 
Q 1963 219 2166 364 
Q 2369 509 2369 788 
Q 2369 1006 2220 1140 
Q 2072 1275 1594 1428 
L 1178 1569 
Q 750 1706 558 1912 
Q 366 2119 366 2438 
Q 366 2894 700 3153 
Q 1034 3413 1625 3413 
Q 1888 3413 2178 3344 
Q 2469 3275 2778 3144 
L 2778 2419 
L 2447 2419 
Q 2434 2741 2221 2922 
Q 2009 3103 1644 3103 
Q 1281 3103 1095 2975 
Q 909 2847 909 2591 
Q 909 2381 1050 2254 
Q 1191 2128 1613 1997 
L 2069 1856 
Q 2541 1709 2748 1489 
Q 2956 1269 2956 922 
Q 2956 450 2595 179 
Q 2234 -91 1600 -91 
Q 1278 -91 972 -22 
Q 666 47 359 184 
z
" transform="scale(0.015625)"/>
       <path id="DejaVuSerif-72" d="M 3059 3328 
L 3059 2497 
L 2728 2497 
Q 2713 2744 2591 2866 
Q 2469 2988 2234 2988 
Q 1809 2988 1582 2694 
Q 1356 2400 1356 1850 
L 1356 331 
L 2022 331 
L 2022 0 
L 263 0 
L 263 331 
L 781 331 
L 781 2994 
L 231 2994 
L 231 3322 
L 1356 3322 
L 1356 2731 
Q 1525 3078 1790 3245 
Q 2056 3413 2438 3413 
Q 2578 3413 2733 3391 
Q 2888 3369 3059 3328 
z
" transform="scale(0.015625)"/>
      </defs>
      <use xlink:href="#DejaVuSerif-46"/>
      <use xlink:href="#DejaVuSerif-61" x="62.634766"/>
      <use xlink:href="#DejaVuSerif-73" x="122.253906"/>
      <use xlink:href="#DejaVuSerif-65" x="173.572266"/>
      <use xlink:href="#DejaVuSerif-20" x="232.751953"/>
      <use xlink:href="#DejaVuSerif-5b" x="264.539062"/>
      <use xlink:href="#DejaVuSerif-72" x="303.552734"/>
      <use xlink:href="#DejaVuSerif-61" x="351.355469"/>
      <use xlink:href="#DejaVuSerif-64" x="410.974609"/>
      <use xlink:href="#DejaVuSerif-5d" x="474.988281"/>
     </g>
    </g>
   </g>
   <g id="line2d_34">
    <path d="M 65.567187 197.771901 
L 322.410937 197.771901 
L 322.410937 197.771901 
" clip-path="url(#p724edbc921)" style="fill: none; stroke: #0000ff; stroke-width: 3; stroke-linecap: square"/>
   </g>
   <g id="line2d_35">
    <path d="M 65.567187 120.787086 
L 77.214519 120.879242 
L 80.427576 121.322328 
L 81.030025 121.096621 
L 81.632473 120.622172 
L 82.234921 119.872512 
L 83.84145 117.535802 
L 84.042266 117.463731 
L 84.243082 117.525646 
L 84.443898 117.759333 
L 84.84553 118.920265 
L 85.247162 121.359857 
L 85.648794 125.56617 
L 86.050426 131.994715 
L 86.652875 145.810962 
L 87.656955 170.511978 
L 88.259403 180.353123 
L 88.861851 186.55309 
L 89.4643 190.415791 
L 90.066748 192.871333 
L 90.669196 194.473022 
L 91.271644 195.541861 
L 92.074908 196.455052 
L 92.878173 197.010652 
L 93.882253 197.411923 
L 95.087149 197.650467 
L 96.894494 197.768034 
L 102.517344 197.770421 
L 112.758963 197.670693 
L 114.164676 197.403123 
L 115.168756 196.99167 
L 115.97202 196.417552 
L 116.574469 195.751021 
L 117.176917 194.766429 
L 117.779365 193.287501 
L 118.381813 191.016572 
L 118.984261 187.439737 
L 119.58671 181.683612 
L 120.189158 172.465199 
L 120.791606 158.916956 
L 121.996502 130.24673 
L 122.598951 122.429039 
L 123.000583 119.625764 
L 123.402215 118.179192 
L 123.803847 117.663406 
L 124.004663 117.646794 
L 124.406295 117.9272 
L 125.209559 119.071653 
L 126.21364 120.444024 
L 126.816088 120.966249 
L 127.418536 121.256961 
L 128.2218 121.389491 
L 131.234041 121.364892 
L 132.037306 121.229764 
L 132.639754 120.942712 
L 133.242202 120.428382 
L 134.045466 119.386154 
L 135.049547 117.997686 
L 135.451179 117.766328 
L 135.651995 117.813307 
L 135.852811 118.011915 
L 136.254443 119.022733 
L 136.656075 121.169588 
L 137.057707 124.901394 
L 137.45934 130.674082 
L 138.061788 143.472951 
L 139.266684 172.264377 
L 139.869132 181.439494 
L 140.471581 187.225935 
L 141.074029 190.849884 
L 141.676477 193.164681 
L 142.278925 194.679428 
L 142.881373 195.691728 
L 143.684638 196.555933 
L 144.487902 197.079152 
L 145.491982 197.452536 
L 146.897695 197.690018 
L 149.106671 197.778005 
L 163.163796 197.745911 
L 164.971141 197.55505 
L 166.176037 197.206738 
L 166.979301 196.777605 
L 167.782566 196.072478 
L 168.385014 195.250867 
L 168.987462 194.027698 
L 169.58991 192.168032 
L 170.192359 189.267311 
L 170.794807 184.624655 
L 171.397255 177.105153 
L 171.999703 165.413327 
L 173.606232 127.916783 
L 174.007864 122.936884 
L 174.409496 119.897327 
L 174.811128 118.294993 
L 175.21276 117.686041 
L 175.413576 117.640944 
L 175.815208 117.891304 
L 176.417657 118.721887 
L 177.622553 120.456428 
L 178.225001 120.99188 
L 178.827449 121.275267 
L 179.630714 121.355601 
L 180.83561 121.155265 
L 182.843771 120.796775 
L 184.651115 120.725853 
L 201.720481 120.755854 
L 204.933538 120.778989 
L 206.540067 121.013602 
L 208.548227 121.333235 
L 209.351492 121.181852 
L 209.95394 120.833927 
L 210.556388 120.242202 
L 211.560468 118.829382 
L 212.162917 118.042304 
L 212.564549 117.800011 
L 212.765365 117.838621 
L 212.966181 118.027408 
L 213.367813 119.017942 
L 213.769445 121.154431 
L 214.171077 124.905242 
L 214.572709 130.748886 
L 215.175158 143.756492 
L 216.380054 172.690011 
L 216.982502 181.732069 
L 217.58495 187.392756 
L 218.187399 190.928246 
L 218.789847 193.188311 
L 219.392295 194.672372 
L 219.994743 195.669628 
L 220.798007 196.528075 
L 221.601272 197.054087 
L 222.605352 197.435487 
L 224.011065 197.6836 
L 226.019225 197.776322 
L 237.867373 197.771973 
L 266.985703 197.673138 
L 268.391415 197.413851 
L 269.395496 197.014978 
L 270.19876 196.458441 
L 270.801208 195.812407 
L 271.403656 194.857908 
L 272.006105 193.42297 
L 272.608553 191.215491 
L 273.211001 187.727263 
L 273.612633 184.278446 
L 274.215081 176.48505 
L 274.81753 164.409942 
L 276.424058 127.202576 
L 276.82569 122.503331 
L 277.227322 119.687552 
L 277.628955 118.244505 
L 278.030587 117.737117 
L 278.231403 117.724528 
L 278.633035 118.010729 
L 279.436299 119.155536 
L 280.440379 120.510559 
L 281.042828 121.012639 
L 281.645276 121.271717 
L 282.44854 121.334068 
L 283.653437 121.130794 
L 285.661597 120.792318 
L 287.669758 120.731168 
L 300.722802 120.787284 
L 322.410937 120.787316 
L 322.410937 120.787316 
" clip-path="url(#p724edbc921)" style="fill: none; stroke: #1f77b4; stroke-width: 3; stroke-linecap: square"/>
   </g>
   <g id="line2d_36">
    <path d="M 65.567187 201.795833 
L 65.567187 113.447917 
" clip-path="url(#p724edbc921)" style="fill: none; stroke-dasharray: 5.55,2.4; stroke-dashoffset: 0; stroke: #000000; stroke-opacity: 0.5; stroke-width: 1.5"/>
   </g>
   <g id="line2d_37">
    <path d="M 91.271644 201.795833 
L 91.271644 113.447917 
" clip-path="url(#p724edbc921)" style="fill: none; stroke-dasharray: 5.55,2.4; stroke-dashoffset: 0; stroke: #000000; stroke-opacity: 0.5; stroke-width: 1.5"/>
   </g>
   <g id="line2d_38">
    <path d="M 116.976101 201.795833 
L 116.976101 113.447917 
" clip-path="url(#p724edbc921)" style="fill: none; stroke-dasharray: 5.55,2.4; stroke-dashoffset: 0; stroke: #000000; stroke-opacity: 0.5; stroke-width: 1.5"/>
   </g>
   <g id="line2d_39">
    <path d="M 142.680557 201.795833 
L 142.680557 113.447917 
" clip-path="url(#p724edbc921)" style="fill: none; stroke-dasharray: 5.55,2.4; stroke-dashoffset: 0; stroke: #000000; stroke-opacity: 0.5; stroke-width: 1.5"/>
   </g>
   <g id="line2d_40">
    <path d="M 168.385014 201.795833 
L 168.385014 113.447917 
" clip-path="url(#p724edbc921)" style="fill: none; stroke-dasharray: 5.55,2.4; stroke-dashoffset: 0; stroke: #000000; stroke-opacity: 0.5; stroke-width: 1.5"/>
   </g>
   <g id="line2d_41">
    <path d="M 194.089471 201.795833 
L 194.089471 113.447917 
" clip-path="url(#p724edbc921)" style="fill: none; stroke-dasharray: 5.55,2.4; stroke-dashoffset: 0; stroke: #000000; stroke-opacity: 0.5; stroke-width: 1.5"/>
   </g>
   <g id="line2d_42">
    <path d="M 219.793927 201.795833 
L 219.793927 113.447917 
" clip-path="url(#p724edbc921)" style="fill: none; stroke-dasharray: 5.55,2.4; stroke-dashoffset: 0; stroke: #000000; stroke-opacity: 0.5; stroke-width: 1.5"/>
   </g>
   <g id="line2d_43">
    <path d="M 245.498384 201.795833 
L 245.498384 113.447917 
" clip-path="url(#p724edbc921)" style="fill: none; stroke-dasharray: 5.55,2.4; stroke-dashoffset: 0; stroke: #000000; stroke-opacity: 0.5; stroke-width: 1.5"/>
   </g>
   <g id="line2d_44">
    <path d="M 271.20284 201.795833 
L 271.20284 113.447917 
" clip-path="url(#p724edbc921)" style="fill: none; stroke-dasharray: 5.55,2.4; stroke-dashoffset: 0; stroke: #000000; stroke-opacity: 0.5; stroke-width: 1.5"/>
   </g>
   <g id="line2d_45">
    <path d="M 296.907297 201.795833 
L 296.907297 113.447917 
" clip-path="url(#p724edbc921)" style="fill: none; stroke-dasharray: 5.55,2.4; stroke-dashoffset: 0; stroke: #000000; stroke-opacity: 0.5; stroke-width: 1.5"/>
   </g>
   <g id="patch_9">
    <path d="M 52.725 201.795833 
L 52.725 113.447917 
" style="fill: none; stroke: #000000; stroke-width: 0.8; stroke-linejoin: miter; stroke-linecap: square"/>
   </g>
   <g id="patch_10">
    <path d="M 335.253125 201.795833 
L 335.253125 113.447917 
" style="fill: none; stroke: #000000; stroke-width: 0.8; stroke-linejoin: miter; stroke-linecap: square"/>
   </g>
   <g id="patch_11">
    <path d="M 52.725 201.795833 
L 335.253125 201.795833 
" style="fill: none; stroke: #000000; stroke-width: 0.8; stroke-linejoin: miter; stroke-linecap: square"/>
   </g>
   <g id="patch_12">
    <path d="M 52.725 113.447917 
L 335.253125 113.447917 
" style="fill: none; stroke: #000000; stroke-width: 0.8; stroke-linejoin: miter; stroke-linecap: square"/>
   </g>
   <g id="legend_2">
    <g id="patch_13">
     <path d="M 342.253125 150.804167 
L 417.1875 150.804167 
Q 419.1875 150.804167 419.1875 148.804167 
L 419.1875 120.447917 
Q 419.1875 118.447917 417.1875 118.447917 
L 342.253125 118.447917 
Q 340.253125 118.447917 340.253125 120.447917 
L 340.253125 148.804167 
Q 340.253125 150.804167 342.253125 150.804167 
z
" style="fill: #ffffff; opacity: 0.8; stroke: #cccccc; stroke-linejoin: miter"/>
    </g>
    <g id="line2d_46">
     <path d="M 344.253125 126.546354 
L 354.253125 126.546354 
L 364.253125 126.546354 
" style="fill: none; stroke: #0000ff; stroke-width: 3; stroke-linecap: square"/>
    </g>
    <g id="text_12">
     <!-- Fase in -->
     <g transform="translate(372.253125 130.046354) scale(0.1 -0.1)">
      <use xlink:href="#DejaVuSerif-46"/>
      <use xlink:href="#DejaVuSerif-61" x="62.634766"/>
      <use xlink:href="#DejaVuSerif-73" x="122.253906"/>
      <use xlink:href="#DejaVuSerif-65" x="173.572266"/>
      <use xlink:href="#DejaVuSerif-20" x="232.751953"/>
      <use xlink:href="#DejaVuSerif-69" x="264.539062"/>
      <use xlink:href="#DejaVuSerif-6e" x="296.521484"/>
     </g>
    </g>
    <g id="line2d_47">
     <path d="M 344.253125 141.224479 
L 354.253125 141.224479 
L 364.253125 141.224479 
" style="fill: none; stroke: #1f77b4; stroke-width: 3; stroke-linecap: square"/>
    </g>
    <g id="text_13">
     <!-- Fase out -->
     <g transform="translate(372.253125 144.724479) scale(0.1 -0.1)">
      <use xlink:href="#DejaVuSerif-46"/>
      <use xlink:href="#DejaVuSerif-61" x="62.634766"/>
      <use xlink:href="#DejaVuSerif-73" x="122.253906"/>
      <use xlink:href="#DejaVuSerif-65" x="173.572266"/>
      <use xlink:href="#DejaVuSerif-20" x="232.751953"/>
      <use xlink:href="#DejaVuSerif-6f" x="264.539062"/>
      <use xlink:href="#DejaVuSerif-75" x="324.744141"/>
      <use xlink:href="#DejaVuSerif-74" x="389.148438"/>
     </g>
    </g>
   </g>
  </g>
  <g id="axes_3">
   <g id="patch_14">
    <path d="M 52.725 304.44375 
L 335.253125 304.44375 
L 335.253125 216.095833 
L 52.725 216.095833 
z
" style="fill: #ffffff"/>
   </g>
   <g id="matplotlib.axis_5">
    <g id="xtick_13">
     <g id="line2d_48">
      <g>
       <use xlink:href="#mc2b160ba44" x="65.567187" y="304.44375" style="stroke: #000000; stroke-width: 0.8"/>
      </g>
     </g>
     <g id="text_14">
      <!-- 0.0 -->
      <g transform="translate(57.615625 319.042188) scale(0.1 -0.1)">
       <use xlink:href="#DejaVuSerif-30"/>
       <use xlink:href="#DejaVuSerif-2e" x="63.623047"/>
       <use xlink:href="#DejaVuSerif-30" x="95.410156"/>
      </g>
     </g>
    </g>
    <g id="xtick_14">
     <g id="line2d_49">
      <g>
       <use xlink:href="#mc2b160ba44" x="116.935937" y="304.44375" style="stroke: #000000; stroke-width: 0.8"/>
      </g>
     </g>
     <g id="text_15">
      <!-- 0.2 -->
      <g transform="translate(108.984375 319.042188) scale(0.1 -0.1)">
       <defs>
        <path id="DejaVuSerif-32" d="M 819 3553 
L 469 3553 
L 469 4384 
Q 803 4563 1142 4656 
Q 1481 4750 1806 4750 
Q 2534 4750 2956 4397 
Q 3378 4044 3378 3438 
Q 3378 2753 2422 1800 
Q 2347 1728 2309 1691 
L 1131 513 
L 3078 513 
L 3078 1088 
L 3444 1088 
L 3444 0 
L 434 0 
L 434 341 
L 1850 1753 
Q 2319 2222 2519 2614 
Q 2719 3006 2719 3438 
Q 2719 3909 2473 4175 
Q 2228 4441 1797 4441 
Q 1350 4441 1106 4219 
Q 863 3997 819 3553 
z
" transform="scale(0.015625)"/>
       </defs>
       <use xlink:href="#DejaVuSerif-30"/>
       <use xlink:href="#DejaVuSerif-2e" x="63.623047"/>
       <use xlink:href="#DejaVuSerif-32" x="95.410156"/>
      </g>
     </g>
    </g>
    <g id="xtick_15">
     <g id="line2d_50">
      <g>
       <use xlink:href="#mc2b160ba44" x="168.304687" y="304.44375" style="stroke: #000000; stroke-width: 0.8"/>
      </g>
     </g>
     <g id="text_16">
      <!-- 0.4 -->
      <g transform="translate(160.353125 319.042188) scale(0.1 -0.1)">
       <defs>
        <path id="DejaVuSerif-34" d="M 2234 1581 
L 2234 4063 
L 641 1581 
L 2234 1581 
z
M 3609 0 
L 1484 0 
L 1484 331 
L 2234 331 
L 2234 1247 
L 197 1247 
L 197 1588 
L 2241 4750 
L 2859 4750 
L 2859 1581 
L 3750 1581 
L 3750 1247 
L 2859 1247 
L 2859 331 
L 3609 331 
L 3609 0 
z
" transform="scale(0.015625)"/>
       </defs>
       <use xlink:href="#DejaVuSerif-30"/>
       <use xlink:href="#DejaVuSerif-2e" x="63.623047"/>
       <use xlink:href="#DejaVuSerif-34" x="95.410156"/>
      </g>
     </g>
    </g>
    <g id="xtick_16">
     <g id="line2d_51">
      <g>
       <use xlink:href="#mc2b160ba44" x="219.673437" y="304.44375" style="stroke: #000000; stroke-width: 0.8"/>
      </g>
     </g>
     <g id="text_17">
      <!-- 0.6 -->
      <g transform="translate(211.721875 319.042188) scale(0.1 -0.1)">
       <defs>
        <path id="DejaVuSerif-36" d="M 2094 219 
Q 2534 219 2771 542 
Q 3009 866 3009 1472 
Q 3009 2078 2771 2401 
Q 2534 2725 2094 2725 
Q 1647 2725 1412 2412 
Q 1178 2100 1178 1509 
Q 1178 888 1415 553 
Q 1653 219 2094 219 
z
M 1075 2569 
Q 1288 2803 1556 2918 
Q 1825 3034 2163 3034 
Q 2859 3034 3264 2615 
Q 3669 2197 3669 1472 
Q 3669 763 3233 336 
Q 2797 -91 2069 -91 
Q 1278 -91 853 498 
Q 428 1088 428 2181 
Q 428 3406 931 4078 
Q 1434 4750 2350 4750 
Q 2597 4750 2869 4703 
Q 3141 4656 3425 4563 
L 3425 3794 
L 3072 3794 
Q 3034 4109 2831 4275 
Q 2628 4441 2284 4441 
Q 1678 4441 1381 3981 
Q 1084 3522 1075 2569 
z
" transform="scale(0.015625)"/>
       </defs>
       <use xlink:href="#DejaVuSerif-30"/>
       <use xlink:href="#DejaVuSerif-2e" x="63.623047"/>
       <use xlink:href="#DejaVuSerif-36" x="95.410156"/>
      </g>
     </g>
    </g>
    <g id="xtick_17">
     <g id="line2d_52">
      <g>
       <use xlink:href="#mc2b160ba44" x="271.042187" y="304.44375" style="stroke: #000000; stroke-width: 0.8"/>
      </g>
     </g>
     <g id="text_18">
      <!-- 0.8 -->
      <g transform="translate(263.090625 319.042188) scale(0.1 -0.1)">
       <defs>
        <path id="DejaVuSerif-38" d="M 2981 1275 
Q 2981 1775 2732 2051 
Q 2484 2328 2034 2328 
Q 1584 2328 1336 2051 
Q 1088 1775 1088 1275 
Q 1088 772 1336 495 
Q 1584 219 2034 219 
Q 2484 219 2732 495 
Q 2981 772 2981 1275 
z
M 2853 3541 
Q 2853 3966 2637 4203 
Q 2422 4441 2034 4441 
Q 1650 4441 1433 4203 
Q 1216 3966 1216 3541 
Q 1216 3113 1433 2875 
Q 1650 2638 2034 2638 
Q 2422 2638 2637 2875 
Q 2853 3113 2853 3541 
z
M 2516 2484 
Q 3047 2413 3344 2092 
Q 3641 1772 3641 1275 
Q 3641 619 3225 264 
Q 2809 -91 2034 -91 
Q 1263 -91 845 264 
Q 428 619 428 1275 
Q 428 1772 725 2092 
Q 1022 2413 1556 2484 
Q 1084 2569 832 2842 
Q 581 3116 581 3541 
Q 581 4103 968 4426 
Q 1356 4750 2034 4750 
Q 2713 4750 3100 4426 
Q 3488 4103 3488 3541 
Q 3488 3116 3236 2842 
Q 2984 2569 2516 2484 
z
" transform="scale(0.015625)"/>
       </defs>
       <use xlink:href="#DejaVuSerif-30"/>
       <use xlink:href="#DejaVuSerif-2e" x="63.623047"/>
       <use xlink:href="#DejaVuSerif-38" x="95.410156"/>
      </g>
     </g>
    </g>
    <g id="xtick_18">
     <g id="line2d_53">
      <g>
       <use xlink:href="#mc2b160ba44" x="322.410937" y="304.44375" style="stroke: #000000; stroke-width: 0.8"/>
      </g>
     </g>
     <g id="text_19">
      <!-- 1.0 -->
      <g transform="translate(314.459375 319.042188) scale(0.1 -0.1)">
       <use xlink:href="#DejaVuSerif-31"/>
       <use xlink:href="#DejaVuSerif-2e" x="63.623047"/>
       <use xlink:href="#DejaVuSerif-30" x="95.410156"/>
      </g>
     </g>
    </g>
    <g id="text_20">
     <!-- Tiempo [ns] -->
     <g transform="translate(163.866406 332.720312) scale(0.1 -0.1)">
      <defs>
       <path id="DejaVuSerif-54" d="M 1222 0 
L 1222 331 
L 1819 331 
L 1819 4294 
L 447 4294 
L 447 3566 
L 63 3566 
L 63 4666 
L 4206 4666 
L 4206 3566 
L 3822 3566 
L 3822 4294 
L 2450 4294 
L 2450 331 
L 3047 331 
L 3047 0 
L 1222 0 
z
" transform="scale(0.015625)"/>
      </defs>
      <use xlink:href="#DejaVuSerif-54"/>
      <use xlink:href="#DejaVuSerif-69" x="66.699219"/>
      <use xlink:href="#DejaVuSerif-65" x="98.681641"/>
      <use xlink:href="#DejaVuSerif-6d" x="157.861328"/>
      <use xlink:href="#DejaVuSerif-70" x="252.685547"/>
      <use xlink:href="#DejaVuSerif-6f" x="316.699219"/>
      <use xlink:href="#DejaVuSerif-20" x="376.904297"/>
      <use xlink:href="#DejaVuSerif-5b" x="408.691406"/>
      <use xlink:href="#DejaVuSerif-6e" x="447.705078"/>
      <use xlink:href="#DejaVuSerif-73" x="512.109375"/>
      <use xlink:href="#DejaVuSerif-5d" x="563.427734"/>
     </g>
    </g>
   </g>
   <g id="matplotlib.axis_6">
    <g id="ytick_8">
     <g id="line2d_54">
      <g>
       <use xlink:href="#maa633ff232" x="52.725" y="296.759193" style="stroke: #000000; stroke-width: 0.8"/>
      </g>
     </g>
     <g id="text_21">
      <!-- −20 -->
      <g transform="translate(24.620313 300.558411) scale(0.1 -0.1)">
       <use xlink:href="#DejaVuSerif-2212"/>
       <use xlink:href="#DejaVuSerif-32" x="83.789062"/>
       <use xlink:href="#DejaVuSerif-30" x="147.412109"/>
      </g>
     </g>
    </g>
    <g id="ytick_9">
     <g id="line2d_55">
      <g>
       <use xlink:href="#maa633ff232" x="52.725" y="260.547916" style="stroke: #000000; stroke-width: 0.8"/>
      </g>
     </g>
     <g id="text_22">
      <!-- 0 -->
      <g transform="translate(39.3625 264.347135) scale(0.1 -0.1)">
       <use xlink:href="#DejaVuSerif-30"/>
      </g>
     </g>
    </g>
    <g id="ytick_10">
     <g id="line2d_56">
      <g>
       <use xlink:href="#maa633ff232" x="52.725" y="224.336639" style="stroke: #000000; stroke-width: 0.8"/>
      </g>
     </g>
     <g id="text_23">
      <!-- 20 -->
      <g transform="translate(33 228.135858) scale(0.1 -0.1)">
       <use xlink:href="#DejaVuSerif-32"/>
       <use xlink:href="#DejaVuSerif-30" x="63.623047"/>
      </g>
     </g>
    </g>
    <g id="text_24">
     <!-- Frequency Chirp [Hz] -->
     <g transform="translate(18.398437 315.624479) rotate(-90) scale(0.1 -0.1)">
      <defs>
       <path id="DejaVuSerif-71" d="M 3359 2988 
L 3359 -997 
L 3909 -997 
L 3909 -1331 
L 2241 -1331 
L 2241 -997 
L 2784 -997 
L 2784 519 
Q 2616 206 2355 57 
Q 2094 -91 1709 -91 
Q 1097 -91 708 395 
Q 319 881 319 1663 
Q 319 2444 706 2928 
Q 1094 3413 1709 3413 
Q 2094 3413 2355 3264 
Q 2616 3116 2784 2803 
L 2784 3322 
L 3909 3322 
L 3909 2988 
L 3359 2988 
z
M 2784 1825 
Q 2784 2422 2554 2737 
Q 2325 3053 1888 3053 
Q 1444 3053 1217 2703 
Q 991 2353 991 1663 
Q 991 975 1217 622 
Q 1444 269 1888 269 
Q 2325 269 2554 583 
Q 2784 897 2784 1497 
L 2784 1825 
z
" transform="scale(0.015625)"/>
       <path id="DejaVuSerif-79" d="M 1381 -609 
L 1600 -56 
L 359 2988 
L -19 2988 
L -19 3322 
L 1509 3322 
L 1509 2988 
L 978 2988 
L 1913 703 
L 2847 2988 
L 2350 2988 
L 2350 3322 
L 3597 3322 
L 3597 2988 
L 3225 2988 
L 1703 -750 
Q 1547 -1138 1356 -1280 
Q 1166 -1422 819 -1422 
Q 672 -1422 517 -1397 
Q 363 -1372 206 -1325 
L 206 -691 
L 500 -691 
Q 519 -903 608 -995 
Q 697 -1088 884 -1088 
Q 1056 -1088 1161 -992 
Q 1266 -897 1381 -609 
z
" transform="scale(0.015625)"/>
       <path id="DejaVuSerif-43" d="M 4513 1234 
Q 4306 581 3820 245 
Q 3334 -91 2591 -91 
Q 2134 -91 1743 65 
Q 1353 222 1050 525 
Q 700 875 529 1320 
Q 359 1766 359 2328 
Q 359 3416 987 4083 
Q 1616 4750 2644 4750 
Q 3025 4750 3456 4650 
Q 3888 4550 4384 4347 
L 4384 3272 
L 4031 3272 
Q 3916 3859 3567 4137 
Q 3219 4416 2591 4416 
Q 1844 4416 1459 3886 
Q 1075 3356 1075 2328 
Q 1075 1303 1459 773 
Q 1844 244 2591 244 
Q 3113 244 3450 492 
Q 3788 741 3938 1234 
L 4513 1234 
z
" transform="scale(0.015625)"/>
       <path id="DejaVuSerif-68" d="M 263 0 
L 263 331 
L 781 331 
L 781 4531 
L 231 4531 
L 231 4863 
L 1356 4863 
L 1356 2731 
Q 1516 3069 1770 3241 
Q 2025 3413 2363 3413 
Q 2913 3413 3172 3097 
Q 3431 2781 3431 2113 
L 3431 331 
L 3944 331 
L 3944 0 
L 2356 0 
L 2356 331 
L 2853 331 
L 2853 1931 
Q 2853 2541 2704 2764 
Q 2556 2988 2175 2988 
Q 1775 2988 1565 2697 
Q 1356 2406 1356 1850 
L 1356 331 
L 1856 331 
L 1856 0 
L 263 0 
z
" transform="scale(0.015625)"/>
       <path id="DejaVuSerif-48" d="M 353 0 
L 353 331 
L 947 331 
L 947 4331 
L 353 4331 
L 353 4666 
L 2175 4666 
L 2175 4331 
L 1581 4331 
L 1581 2719 
L 4000 2719 
L 4000 4331 
L 3406 4331 
L 3406 4666 
L 5228 4666 
L 5228 4331 
L 4634 4331 
L 4634 331 
L 5228 331 
L 5228 0 
L 3406 0 
L 3406 331 
L 4000 331 
L 4000 2338 
L 1581 2338 
L 1581 331 
L 2175 331 
L 2175 0 
L 353 0 
z
" transform="scale(0.015625)"/>
       <path id="DejaVuSerif-7a" d="M 256 0 
L 256 269 
L 2338 2988 
L 691 2988 
L 691 2413 
L 359 2413 
L 359 3322 
L 3078 3322 
L 3078 3053 
L 997 331 
L 2803 331 
L 2803 934 
L 3138 934 
L 3138 0 
L 256 0 
z
" transform="scale(0.015625)"/>
      </defs>
      <use xlink:href="#DejaVuSerif-46"/>
      <use xlink:href="#DejaVuSerif-72" x="69.384766"/>
      <use xlink:href="#DejaVuSerif-65" x="117.1875"/>
      <use xlink:href="#DejaVuSerif-71" x="176.367188"/>
      <use xlink:href="#DejaVuSerif-75" x="240.380859"/>
      <use xlink:href="#DejaVuSerif-65" x="304.785156"/>
      <use xlink:href="#DejaVuSerif-6e" x="363.964844"/>
      <use xlink:href="#DejaVuSerif-63" x="428.369141"/>
      <use xlink:href="#DejaVuSerif-79" x="484.375"/>
      <use xlink:href="#DejaVuSerif-20" x="540.869141"/>
      <use xlink:href="#DejaVuSerif-43" x="572.65625"/>
      <use xlink:href="#DejaVuSerif-68" x="649.169922"/>
      <use xlink:href="#DejaVuSerif-69" x="713.574219"/>
      <use xlink:href="#DejaVuSerif-72" x="745.556641"/>
      <use xlink:href="#DejaVuSerif-70" x="793.359375"/>
      <use xlink:href="#DejaVuSerif-20" x="857.373047"/>
      <use xlink:href="#DejaVuSerif-5b" x="889.160156"/>
      <use xlink:href="#DejaVuSerif-48" x="928.173828"/>
      <use xlink:href="#DejaVuSerif-7a" x="1015.380859"/>
      <use xlink:href="#DejaVuSerif-5d" x="1068.066406"/>
     </g>
    </g>
   </g>
   <g id="line2d_57">
    <path d="M 65.567187 260.547916 
L 322.210121 260.547916 
L 322.210121 260.547916 
" clip-path="url(#p8f5b287b5d)" style="fill: none; stroke: #000000; stroke-width: 3; stroke-linecap: square"/>
   </g>
   <g id="line2d_58">
    <path d="M 65.567187 260.548514 
L 76.210439 260.667374 
L 78.620232 260.883989 
L 79.423496 260.734353 
L 80.22676 260.316937 
L 81.030025 259.585209 
L 82.435737 258.115899 
L 82.837369 258.020866 
L 83.038185 258.11268 
L 83.439817 258.696811 
L 83.84145 260.005939 
L 84.243082 262.305252 
L 84.644714 265.904697 
L 85.046346 271.143043 
L 85.648794 282.477608 
L 86.452058 298.615723 
L 86.652875 300.347959 
L 86.853691 300.427936 
L 87.054507 298.914873 
L 87.456139 292.644738 
L 88.259403 278.616543 
L 88.861851 271.767675 
L 89.4643 267.626352 
L 90.066748 265.130186 
L 90.669196 263.586808 
L 91.271644 262.602433 
L 92.074908 261.792149 
L 92.878173 261.309363 
L 93.882253 260.955121 
L 95.287965 260.699603 
L 97.496942 260.558771 
L 102.918976 260.547992 
L 111.955699 260.454433 
L 113.763044 260.182946 
L 114.96794 259.765153 
L 115.771204 259.25852 
L 116.373653 258.659371 
L 116.976101 257.746195 
L 117.578549 256.314412 
L 118.180997 253.999157 
L 118.582629 251.661542 
L 118.984261 248.363539 
L 119.58671 240.852841 
L 120.791606 221.161992 
L 120.992422 220.547946 
L 121.193238 221.604706 
L 121.59487 227.917258 
L 122.598951 248.506243 
L 123.201399 256.16762 
L 123.803847 260.422996 
L 124.205479 261.922635 
L 124.607111 262.675185 
L 125.008743 262.902997 
L 125.410376 262.787354 
L 126.012824 262.275058 
L 127.418536 260.961999 
L 128.2218 260.590154 
L 129.025065 260.499423 
L 131.033225 260.490365 
L 131.635674 260.254964 
L 132.438938 259.656064 
L 133.84465 258.358636 
L 134.246282 258.270181 
L 134.647915 258.538203 
L 135.049547 259.343077 
L 135.451179 260.901202 
L 135.852811 263.470256 
L 136.254443 267.35274 
L 136.856891 276.29524 
L 138.061788 298.807293 
L 138.262604 299.786916 
L 138.46342 299.1881 
L 138.865052 294.185437 
L 139.869132 277.388947 
L 140.471581 271.057196 
L 141.074029 267.212404 
L 141.676477 264.8783 
L 142.278925 263.425523 
L 142.881373 262.493712 
L 143.684638 261.722475 
L 144.487902 261.260675 
L 145.491982 260.921889 
L 146.897695 260.681395 
L 149.106671 260.555505 
L 155.532786 260.547909 
L 163.565428 260.4393 
L 165.171957 260.196151 
L 166.376853 259.796591 
L 167.180118 259.315269 
L 167.782566 258.748307 
L 168.385014 257.885926 
L 168.987462 256.534861 
L 169.58991 254.349592 
L 169.991542 252.140623 
L 170.393175 249.016221 
L 170.794807 244.620418 
L 171.397255 235.063909 
L 172.200519 221.479758 
L 172.401335 220.346664 
L 172.602151 220.885228 
L 172.802967 223.060505 
L 173.405416 235.324749 
L 174.20868 250.703605 
L 174.811128 257.50559 
L 175.21276 260.20878 
L 175.614392 261.839194 
L 176.016024 262.67654 
L 176.417657 262.95193 
L 176.819289 262.854895 
L 177.421737 262.33249 
L 178.827449 260.901011 
L 179.630714 260.426475 
L 180.433978 260.230022 
L 181.438058 260.236247 
L 186.056828 260.582037 
L 204.130274 260.599193 
L 207.544147 260.822822 
L 208.347411 260.570218 
L 209.150676 260.04331 
L 210.355572 258.859076 
L 210.95802 258.372236 
L 211.359652 258.279196 
L 211.761284 258.531349 
L 212.162917 259.309563 
L 212.564549 260.838261 
L 212.966181 263.391651 
L 213.367813 267.296522 
L 213.970261 276.40525 
L 215.175158 299.366322 
L 215.375974 300.236334 
L 215.57679 299.467127 
L 215.978422 294.098475 
L 216.982502 277.047282 
L 217.58495 270.803412 
L 218.187399 267.050553 
L 218.789847 264.784777 
L 219.392295 263.377331 
L 219.994743 262.473879 
L 220.798007 261.723537 
L 221.601272 261.271112 
L 222.806168 260.887286 
L 224.412697 260.64886 
L 226.822489 260.546745 
L 238.469821 260.547851 
L 266.383255 260.439741 
L 267.989783 260.194211 
L 269.19468 259.789051 
L 269.997944 259.298092 
L 270.600392 258.717454 
L 271.20284 257.831438 
L 271.805289 256.4387 
L 272.407737 254.177323 
L 272.809369 251.883487 
L 273.211001 248.630651 
L 273.612633 244.04919 
L 274.215081 234.150713 
L 274.81753 223.131516 
L 275.018346 220.869211 
L 275.219162 220.111648 
L 275.419978 221.081575 
L 275.82161 227.426238 
L 276.82569 248.437108 
L 277.428138 256.189636 
L 277.829771 259.343355 
L 278.231403 261.306978 
L 278.633035 262.388571 
L 279.034667 262.839427 
L 279.436299 262.862953 
L 279.837931 262.62102 
L 280.842012 261.590644 
L 281.846092 260.71599 
L 282.649356 260.343491 
L 283.45262 260.221638 
L 284.657517 260.295709 
L 287.669758 260.567155 
L 291.485263 260.554133 
L 306.144836 260.547909 
L 322.210121 260.547916 
L 322.210121 260.547916 
" clip-path="url(#p8f5b287b5d)" style="fill: none; stroke: #7f7f7f; stroke-width: 3; stroke-linecap: square"/>
   </g>
   <g id="line2d_59">
    <path d="M 65.567187 304.44375 
L 65.567187 216.095833 
" clip-path="url(#p8f5b287b5d)" style="fill: none; stroke-dasharray: 5.55,2.4; stroke-dashoffset: 0; stroke: #000000; stroke-opacity: 0.5; stroke-width: 1.5"/>
   </g>
   <g id="line2d_60">
    <path d="M 91.271644 304.44375 
L 91.271644 216.095833 
" clip-path="url(#p8f5b287b5d)" style="fill: none; stroke-dasharray: 5.55,2.4; stroke-dashoffset: 0; stroke: #000000; stroke-opacity: 0.5; stroke-width: 1.5"/>
   </g>
   <g id="line2d_61">
    <path d="M 116.976101 304.44375 
L 116.976101 216.095833 
" clip-path="url(#p8f5b287b5d)" style="fill: none; stroke-dasharray: 5.55,2.4; stroke-dashoffset: 0; stroke: #000000; stroke-opacity: 0.5; stroke-width: 1.5"/>
   </g>
   <g id="line2d_62">
    <path d="M 142.680557 304.44375 
L 142.680557 216.095833 
" clip-path="url(#p8f5b287b5d)" style="fill: none; stroke-dasharray: 5.55,2.4; stroke-dashoffset: 0; stroke: #000000; stroke-opacity: 0.5; stroke-width: 1.5"/>
   </g>
   <g id="line2d_63">
    <path d="M 168.385014 304.44375 
L 168.385014 216.095833 
" clip-path="url(#p8f5b287b5d)" style="fill: none; stroke-dasharray: 5.55,2.4; stroke-dashoffset: 0; stroke: #000000; stroke-opacity: 0.5; stroke-width: 1.5"/>
   </g>
   <g id="line2d_64">
    <path d="M 194.089471 304.44375 
L 194.089471 216.095833 
" clip-path="url(#p8f5b287b5d)" style="fill: none; stroke-dasharray: 5.55,2.4; stroke-dashoffset: 0; stroke: #000000; stroke-opacity: 0.5; stroke-width: 1.5"/>
   </g>
   <g id="line2d_65">
    <path d="M 219.793927 304.44375 
L 219.793927 216.095833 
" clip-path="url(#p8f5b287b5d)" style="fill: none; stroke-dasharray: 5.55,2.4; stroke-dashoffset: 0; stroke: #000000; stroke-opacity: 0.5; stroke-width: 1.5"/>
   </g>
   <g id="line2d_66">
    <path d="M 245.498384 304.44375 
L 245.498384 216.095833 
" clip-path="url(#p8f5b287b5d)" style="fill: none; stroke-dasharray: 5.55,2.4; stroke-dashoffset: 0; stroke: #000000; stroke-opacity: 0.5; stroke-width: 1.5"/>
   </g>
   <g id="line2d_67">
    <path d="M 271.20284 304.44375 
L 271.20284 216.095833 
" clip-path="url(#p8f5b287b5d)" style="fill: none; stroke-dasharray: 5.55,2.4; stroke-dashoffset: 0; stroke: #000000; stroke-opacity: 0.5; stroke-width: 1.5"/>
   </g>
   <g id="line2d_68">
    <path d="M 296.907297 304.44375 
L 296.907297 216.095833 
" clip-path="url(#p8f5b287b5d)" style="fill: none; stroke-dasharray: 5.55,2.4; stroke-dashoffset: 0; stroke: #000000; stroke-opacity: 0.5; stroke-width: 1.5"/>
   </g>
   <g id="patch_15">
    <path d="M 52.725 304.44375 
L 52.725 216.095833 
" style="fill: none; stroke: #000000; stroke-width: 0.8; stroke-linejoin: miter; stroke-linecap: square"/>
   </g>
   <g id="patch_16">
    <path d="M 335.253125 304.44375 
L 335.253125 216.095833 
" style="fill: none; stroke: #000000; stroke-width: 0.8; stroke-linejoin: miter; stroke-linecap: square"/>
   </g>
   <g id="patch_17">
    <path d="M 52.725 304.44375 
L 335.253125 304.44375 
" style="fill: none; stroke: #000000; stroke-width: 0.8; stroke-linejoin: miter; stroke-linecap: square"/>
   </g>
   <g id="patch_18">
    <path d="M 52.725 216.095833 
L 335.253125 216.095833 
" style="fill: none; stroke: #000000; stroke-width: 0.8; stroke-linejoin: miter; stroke-linecap: square"/>
   </g>
   <g id="legend_3">
    <g id="patch_19">
     <path d="M 342.253125 253.736458 
L 448 253.736458 
Q 450 253.736458 450 251.736458 
L 450 223.095833 
Q 450 221.095833 448 221.095833 
L 342.253125 221.095833 
Q 340.253125 221.095833 340.253125 223.095833 
L 340.253125 251.736458 
Q 340.253125 253.736458 342.253125 253.736458 
z
" style="fill: #ffffff; opacity: 0.8; stroke: #cccccc; stroke-linejoin: miter"/>
    </g>
    <g id="line2d_69">
     <path d="M 344.253125 229.194271 
L 354.253125 229.194271 
L 364.253125 229.194271 
" style="fill: none; stroke: #000000; stroke-width: 3; stroke-linecap: square"/>
    </g>
    <g id="text_25">
     <!-- Frequency in -->
     <g transform="translate(372.253125 232.694271) scale(0.1 -0.1)">
      <use xlink:href="#DejaVuSerif-46"/>
      <use xlink:href="#DejaVuSerif-72" x="69.384766"/>
      <use xlink:href="#DejaVuSerif-65" x="117.1875"/>
      <use xlink:href="#DejaVuSerif-71" x="176.367188"/>
      <use xlink:href="#DejaVuSerif-75" x="240.380859"/>
      <use xlink:href="#DejaVuSerif-65" x="304.785156"/>
      <use xlink:href="#DejaVuSerif-6e" x="363.964844"/>
      <use xlink:href="#DejaVuSerif-63" x="428.369141"/>
      <use xlink:href="#DejaVuSerif-79" x="484.375"/>
      <use xlink:href="#DejaVuSerif-20" x="540.869141"/>
      <use xlink:href="#DejaVuSerif-69" x="572.65625"/>
      <use xlink:href="#DejaVuSerif-6e" x="604.638672"/>
     </g>
    </g>
    <g id="line2d_70">
     <path d="M 344.253125 244.014583 
L 354.253125 244.014583 
L 364.253125 244.014583 
" style="fill: none; stroke: #7f7f7f; stroke-width: 3; stroke-linecap: square"/>
    </g>
    <g id="text_26">
     <!-- Frequency out -->
     <g transform="translate(372.253125 247.514583) scale(0.1 -0.1)">
      <use xlink:href="#DejaVuSerif-46"/>
      <use xlink:href="#DejaVuSerif-72" x="69.384766"/>
      <use xlink:href="#DejaVuSerif-65" x="117.1875"/>
      <use xlink:href="#DejaVuSerif-71" x="176.367188"/>
      <use xlink:href="#DejaVuSerif-75" x="240.380859"/>
      <use xlink:href="#DejaVuSerif-65" x="304.785156"/>
      <use xlink:href="#DejaVuSerif-6e" x="363.964844"/>
      <use xlink:href="#DejaVuSerif-63" x="428.369141"/>
      <use xlink:href="#DejaVuSerif-79" x="484.375"/>
      <use xlink:href="#DejaVuSerif-20" x="540.869141"/>
      <use xlink:href="#DejaVuSerif-6f" x="572.65625"/>
      <use xlink:href="#DejaVuSerif-75" x="632.861328"/>
      <use xlink:href="#DejaVuSerif-74" x="697.265625"/>
     </g>
    </g>
   </g>
  </g>
 </g>
 <defs>
  <clipPath id="pce0c532184">
   <rect x="52.725" y="10.8" width="282.528125" height="88.347917"/>
  </clipPath>
  <clipPath id="p724edbc921">
   <rect x="52.725" y="113.447917" width="282.528125" height="88.347917"/>
  </clipPath>
  <clipPath id="p8f5b287b5d">
   <rect x="52.725" y="216.095833" width="282.528125" height="88.347917"/>
  </clipPath>
 </defs>
</svg>
