<?xml version="1.0" encoding="utf-8" standalone="no"?>
<!DOCTYPE svg PUBLIC "-//W3C//DTD SVG 1.1//EN"
  "http://www.w3.org/Graphics/SVG/1.1/DTD/svg11.dtd">
<svg xmlns:xlink="http://www.w3.org/1999/xlink" width="460.8pt" height="345.6pt" viewBox="0 0 460.8 345.6" xmlns="http://www.w3.org/2000/svg" version="1.1">
 <metadata>
  <rdf:RDF xmlns:dc="http://purl.org/dc/elements/1.1/" xmlns:cc="http://creativecommons.org/ns#" xmlns:rdf="http://www.w3.org/1999/02/22-rdf-syntax-ns#">
   <cc:Work>
    <dc:type rdf:resource="http://purl.org/dc/dcmitype/StillImage"/>
    <dc:date>2024-03-08T12:57:48.209531</dc:date>
    <dc:format>image/svg+xml</dc:format>
    <dc:creator>
     <cc:Agent>
      <dc:title>Matplotlib v3.8.2, https://matplotlib.org/</dc:title>
     </cc:Agent>
    </dc:creator>
   </cc:Work>
  </rdf:RDF>
 </metadata>
 <defs>
  <style type="text/css">*{stroke-linejoin: round; stroke-linecap: butt}</style>
 </defs>
 <g id="figure_1">
  <g id="patch_1">
   <path d="M 0 345.6 
L 460.8 345.6 
L 460.8 0 
L 0 0 
z
" style="fill: #ffffff"/>
  </g>
  <g id="axes_1">
   <g id="patch_2">
    <path d="M 52.725 98.350943 
L 335.253125 98.350943 
L 335.253125 10.8 
L 52.725 10.8 
z
" style="fill: #ffffff"/>
   </g>
   <g id="matplotlib.axis_1">
    <g id="xtick_1">
     <g id="line2d_1">
      <defs>
       <path id="m7a237930ee" d="M 0 0 
L 0 3.5 
" style="stroke: #000000; stroke-width: 0.8"/>
      </defs>
      <g>
       <use xlink:href="#m7a237930ee" x="65.567187" y="98.350943" style="stroke: #000000; stroke-width: 0.8"/>
      </g>
     </g>
    </g>
    <g id="xtick_2">
     <g id="line2d_2">
      <g>
       <use xlink:href="#m7a237930ee" x="116.935937" y="98.350943" style="stroke: #000000; stroke-width: 0.8"/>
      </g>
     </g>
    </g>
    <g id="xtick_3">
     <g id="line2d_3">
      <g>
       <use xlink:href="#m7a237930ee" x="168.304687" y="98.350943" style="stroke: #000000; stroke-width: 0.8"/>
      </g>
     </g>
    </g>
    <g id="xtick_4">
     <g id="line2d_4">
      <g>
       <use xlink:href="#m7a237930ee" x="219.673437" y="98.350943" style="stroke: #000000; stroke-width: 0.8"/>
      </g>
     </g>
    </g>
    <g id="xtick_5">
     <g id="line2d_5">
      <g>
       <use xlink:href="#m7a237930ee" x="271.042187" y="98.350943" style="stroke: #000000; stroke-width: 0.8"/>
      </g>
     </g>
    </g>
    <g id="xtick_6">
     <g id="line2d_6">
      <g>
       <use xlink:href="#m7a237930ee" x="322.410937" y="98.350943" style="stroke: #000000; stroke-width: 0.8"/>
      </g>
     </g>
    </g>
   </g>
   <g id="matplotlib.axis_2">
    <g id="ytick_1">
     <g id="line2d_7">
      <defs>
       <path id="mcb98c29201" d="M 0 0 
L -3.5 0 
" style="stroke: #000000; stroke-width: 0.8"/>
      </defs>
      <g>
       <use xlink:href="#mcb98c29201" x="52.725" y="97.027139" style="stroke: #000000; stroke-width: 0.8"/>
      </g>
     </g>
     <g id="text_1">
      <!-- −20 -->
      <g transform="translate(24.620313 100.826358) scale(0.1 -0.1)">
       <defs>
        <path id="DejaVuSerif-2212" d="M 678 2259 
L 4684 2259 
L 4684 1753 
L 678 1753 
L 678 2259 
z
" transform="scale(0.015625)"/>
        <path id="DejaVuSerif-32" d="M 819 3553 
L 469 3553 
L 469 4384 
Q 803 4563 1142 4656 
Q 1481 4750 1806 4750 
Q 2534 4750 2956 4397 
Q 3378 4044 3378 3438 
Q 3378 2753 2422 1800 
Q 2347 1728 2309 1691 
L 1131 513 
L 3078 513 
L 3078 1088 
L 3444 1088 
L 3444 0 
L 434 0 
L 434 341 
L 1850 1753 
Q 2319 2222 2519 2614 
Q 2719 3006 2719 3438 
Q 2719 3909 2473 4175 
Q 2228 4441 1797 4441 
Q 1350 4441 1106 4219 
Q 863 3997 819 3553 
z
" transform="scale(0.015625)"/>
        <path id="DejaVuSerif-30" d="M 2034 219 
Q 2513 219 2750 744 
Q 2988 1269 2988 2328 
Q 2988 3391 2750 3916 
Q 2513 4441 2034 4441 
Q 1556 4441 1318 3916 
Q 1081 3391 1081 2328 
Q 1081 1269 1318 744 
Q 1556 219 2034 219 
z
M 2034 -91 
Q 1275 -91 848 546 
Q 422 1184 422 2328 
Q 422 3475 848 4112 
Q 1275 4750 2034 4750 
Q 2797 4750 3222 4112 
Q 3647 3475 3647 2328 
Q 3647 1184 3222 546 
Q 2797 -91 2034 -91 
z
" transform="scale(0.015625)"/>
       </defs>
       <use xlink:href="#DejaVuSerif-2212"/>
       <use xlink:href="#DejaVuSerif-32" x="83.789062"/>
       <use xlink:href="#DejaVuSerif-30" x="147.412109"/>
      </g>
     </g>
    </g>
    <g id="ytick_2">
     <g id="line2d_8">
      <g>
       <use xlink:href="#mcb98c29201" x="52.725" y="69.611289" style="stroke: #000000; stroke-width: 0.8"/>
      </g>
     </g>
     <g id="text_2">
      <!-- −10 -->
      <g transform="translate(24.620313 73.410508) scale(0.1 -0.1)">
       <defs>
        <path id="DejaVuSerif-31" d="M 909 0 
L 909 331 
L 1722 331 
L 1722 4213 
L 781 3603 
L 781 4013 
L 1919 4750 
L 2350 4750 
L 2350 331 
L 3163 331 
L 3163 0 
L 909 0 
z
" transform="scale(0.015625)"/>
       </defs>
       <use xlink:href="#DejaVuSerif-2212"/>
       <use xlink:href="#DejaVuSerif-31" x="83.789062"/>
       <use xlink:href="#DejaVuSerif-30" x="147.412109"/>
      </g>
     </g>
    </g>
    <g id="ytick_3">
     <g id="line2d_9">
      <g>
       <use xlink:href="#mcb98c29201" x="52.725" y="42.195439" style="stroke: #000000; stroke-width: 0.8"/>
      </g>
     </g>
     <g id="text_3">
      <!-- 0 -->
      <g transform="translate(39.3625 45.994657) scale(0.1 -0.1)">
       <use xlink:href="#DejaVuSerif-30"/>
      </g>
     </g>
    </g>
    <g id="ytick_4">
     <g id="line2d_10">
      <g>
       <use xlink:href="#mcb98c29201" x="52.725" y="14.779588" style="stroke: #000000; stroke-width: 0.8"/>
      </g>
     </g>
     <g id="text_4">
      <!-- 10 -->
      <g transform="translate(33 18.578807) scale(0.1 -0.1)">
       <use xlink:href="#DejaVuSerif-31"/>
       <use xlink:href="#DejaVuSerif-30" x="63.623047"/>
      </g>
     </g>
    </g>
    <g id="text_5">
     <!-- Power [dBm] -->
     <g transform="translate(18.540625 87.485628) rotate(-90) scale(0.1 -0.1)">
      <defs>
       <path id="DejaVuSerif-50" d="M 1581 2375 
L 2406 2375 
Q 2872 2375 3115 2626 
Q 3359 2878 3359 3353 
Q 3359 3831 3115 4081 
Q 2872 4331 2406 4331 
L 1581 4331 
L 1581 2375 
z
M 353 0 
L 353 331 
L 947 331 
L 947 4331 
L 353 4331 
L 353 4666 
L 2559 4666 
Q 3259 4666 3668 4311 
Q 4078 3956 4078 3353 
Q 4078 2753 3668 2397 
Q 3259 2041 2559 2041 
L 1581 2041 
L 1581 331 
L 2303 331 
L 2303 0 
L 353 0 
z
" transform="scale(0.015625)"/>
       <path id="DejaVuSerif-6f" d="M 1925 219 
Q 2388 219 2623 584 
Q 2859 950 2859 1663 
Q 2859 2375 2623 2739 
Q 2388 3103 1925 3103 
Q 1463 3103 1227 2739 
Q 991 2375 991 1663 
Q 991 950 1228 584 
Q 1466 219 1925 219 
z
M 1925 -91 
Q 1200 -91 759 389 
Q 319 869 319 1663 
Q 319 2456 758 2934 
Q 1197 3413 1925 3413 
Q 2653 3413 3092 2934 
Q 3531 2456 3531 1663 
Q 3531 869 3092 389 
Q 2653 -91 1925 -91 
z
" transform="scale(0.015625)"/>
       <path id="DejaVuSerif-77" d="M 3072 3322 
L 3922 728 
L 4672 2988 
L 4191 2988 
L 4191 3322 
L 5394 3322 
L 5394 2988 
L 5025 2988 
L 4038 0 
L 3559 0 
L 2741 2484 
L 1919 0 
L 1459 0 
L 475 2988 
L 103 2988 
L 103 3322 
L 1606 3322 
L 1606 2988 
L 1069 2988 
L 1813 728 
L 2669 3322 
L 3072 3322 
z
" transform="scale(0.015625)"/>
       <path id="DejaVuSerif-65" d="M 3469 1600 
L 991 1600 
L 991 1575 
Q 991 903 1244 561 
Q 1497 219 1991 219 
Q 2369 219 2611 417 
Q 2853 616 2950 1006 
L 3413 1006 
Q 3275 459 2904 184 
Q 2534 -91 1931 -91 
Q 1203 -91 761 389 
Q 319 869 319 1663 
Q 319 2450 753 2931 
Q 1188 3413 1894 3413 
Q 2647 3413 3050 2948 
Q 3453 2484 3469 1600 
z
M 2791 1931 
Q 2772 2513 2545 2808 
Q 2319 3103 1894 3103 
Q 1497 3103 1269 2806 
Q 1041 2509 991 1931 
L 2791 1931 
z
" transform="scale(0.015625)"/>
       <path id="DejaVuSerif-72" d="M 3059 3328 
L 3059 2497 
L 2728 2497 
Q 2713 2744 2591 2866 
Q 2469 2988 2234 2988 
Q 1809 2988 1582 2694 
Q 1356 2400 1356 1850 
L 1356 331 
L 2022 331 
L 2022 0 
L 263 0 
L 263 331 
L 781 331 
L 781 2994 
L 231 2994 
L 231 3322 
L 1356 3322 
L 1356 2731 
Q 1525 3078 1790 3245 
Q 2056 3413 2438 3413 
Q 2578 3413 2733 3391 
Q 2888 3369 3059 3328 
z
" transform="scale(0.015625)"/>
       <path id="DejaVuSerif-20" transform="scale(0.015625)"/>
       <path id="DejaVuSerif-5b" d="M 550 4863 
L 2003 4863 
L 2003 4531 
L 1147 4531 
L 1147 -513 
L 2003 -513 
L 2003 -844 
L 550 -844 
L 550 4863 
z
" transform="scale(0.015625)"/>
       <path id="DejaVuSerif-64" d="M 3359 331 
L 3909 331 
L 3909 0 
L 2784 0 
L 2784 519 
Q 2616 206 2355 57 
Q 2094 -91 1709 -91 
Q 1097 -91 708 395 
Q 319 881 319 1663 
Q 319 2444 706 2928 
Q 1094 3413 1709 3413 
Q 2094 3413 2355 3264 
Q 2616 3116 2784 2803 
L 2784 4531 
L 2241 4531 
L 2241 4863 
L 3359 4863 
L 3359 331 
z
M 2784 1497 
L 2784 1825 
Q 2784 2422 2554 2737 
Q 2325 3053 1888 3053 
Q 1444 3053 1217 2703 
Q 991 2353 991 1663 
Q 991 975 1217 622 
Q 1444 269 1888 269 
Q 2325 269 2554 583 
Q 2784 897 2784 1497 
z
" transform="scale(0.015625)"/>
       <path id="DejaVuSerif-42" d="M 1581 331 
L 2516 331 
Q 3078 331 3337 575 
Q 3597 819 3597 1350 
Q 3597 1878 3339 2120 
Q 3081 2363 2516 2363 
L 1581 2363 
L 1581 331 
z
M 1581 2694 
L 2375 2694 
Q 2888 2694 3123 2891 
Q 3359 3088 3359 3513 
Q 3359 3941 3123 4136 
Q 2888 4331 2375 4331 
L 1581 4331 
L 1581 2694 
z
M 353 0 
L 353 331 
L 947 331 
L 947 4331 
L 353 4331 
L 353 4666 
L 2656 4666 
Q 3363 4666 3720 4377 
Q 4078 4088 4078 3513 
Q 4078 3097 3829 2850 
Q 3581 2603 3103 2547 
Q 3697 2472 4005 2167 
Q 4313 1863 4313 1350 
Q 4313 656 3875 328 
Q 3438 0 2509 0 
L 353 0 
z
" transform="scale(0.015625)"/>
       <path id="DejaVuSerif-6d" d="M 3316 2675 
Q 3481 3041 3739 3227 
Q 3997 3413 4341 3413 
Q 4863 3413 5119 3089 
Q 5375 2766 5375 2113 
L 5375 331 
L 5894 331 
L 5894 0 
L 4300 0 
L 4300 331 
L 4800 331 
L 4800 2047 
Q 4800 2556 4650 2772 
Q 4500 2988 4153 2988 
Q 3769 2988 3567 2697 
Q 3366 2406 3366 1850 
L 3366 331 
L 3866 331 
L 3866 0 
L 2291 0 
L 2291 331 
L 2791 331 
L 2791 2069 
Q 2791 2566 2641 2777 
Q 2491 2988 2144 2988 
Q 1759 2988 1557 2697 
Q 1356 2406 1356 1850 
L 1356 331 
L 1856 331 
L 1856 0 
L 263 0 
L 263 331 
L 781 331 
L 781 2994 
L 231 2994 
L 231 3322 
L 1356 3322 
L 1356 2731 
Q 1516 3063 1762 3238 
Q 2009 3413 2322 3413 
Q 2709 3413 2968 3220 
Q 3228 3028 3316 2675 
z
" transform="scale(0.015625)"/>
       <path id="DejaVuSerif-5d" d="M 1947 4863 
L 1947 -844 
L 494 -844 
L 494 -513 
L 1350 -513 
L 1350 4531 
L 494 4531 
L 494 4863 
L 1947 4863 
z
" transform="scale(0.015625)"/>
      </defs>
      <use xlink:href="#DejaVuSerif-50"/>
      <use xlink:href="#DejaVuSerif-6f" x="63.285156"/>
      <use xlink:href="#DejaVuSerif-77" x="123.490234"/>
      <use xlink:href="#DejaVuSerif-65" x="209.085938"/>
      <use xlink:href="#DejaVuSerif-72" x="268.265625"/>
      <use xlink:href="#DejaVuSerif-20" x="316.068359"/>
      <use xlink:href="#DejaVuSerif-5b" x="347.855469"/>
      <use xlink:href="#DejaVuSerif-64" x="386.869141"/>
      <use xlink:href="#DejaVuSerif-42" x="450.882812"/>
      <use xlink:href="#DejaVuSerif-6d" x="524.369141"/>
      <use xlink:href="#DejaVuSerif-5d" x="619.193359"/>
     </g>
    </g>
   </g>
   <g id="line2d_11">
    <path d="M 65.567187 14.779588 
L 322.410937 14.779588 
L 322.410937 14.779588 
" clip-path="url(#p5478392a0f)" style="fill: none; stroke: #ff0000; stroke-width: 3; stroke-linecap: square"/>
   </g>
   <g id="line2d_12">
    <path d="M 65.567187 94.342025 
L 83.640634 94.232162 
L 84.84553 94.282671 
L 85.648794 94.353759 
L 86.050426 94.057328 
L 86.251242 93.66825 
L 86.652875 92.059704 
L 87.054507 88.972294 
L 87.656955 81.718365 
L 89.865932 51.755488 
L 90.870012 41.917215 
L 91.673276 35.913368 
L 92.476541 31.387684 
L 93.279805 28.126939 
L 94.083069 25.897272 
L 94.685517 24.761552 
L 95.287965 23.983284 
L 96.09123 23.359448 
L 96.894494 23.05684 
L 97.898574 22.934901 
L 100.107551 22.982781 
L 104.726321 23.018912 
L 111.353251 23.110172 
L 112.156515 23.479354 
L 112.758963 23.983285 
L 113.361412 24.761554 
L 113.96386 25.897276 
L 114.566308 27.482109 
L 115.168756 29.613624 
L 115.97202 33.478323 
L 116.775285 38.718664 
L 117.578549 45.528952 
L 118.381813 54.051698 
L 119.385894 67.134874 
L 120.992422 88.971341 
L 121.394054 92.058981 
L 121.795686 93.667893 
L 122.197318 94.265036 
L 122.598951 94.371352 
L 124.807927 94.256014 
L 127.820168 94.353747 
L 134.447099 94.269878 
L 136.053627 94.252877 
L 137.057707 94.353749 
L 137.45934 94.057133 
L 137.660156 93.667893 
L 138.061788 92.058981 
L 138.46342 88.971341 
L 139.065868 81.717526 
L 141.274845 51.755445 
L 142.278925 41.917223 
L 143.082189 35.913382 
L 143.885454 31.387696 
L 144.688718 28.126946 
L 145.491982 25.897276 
L 146.09443 24.761554 
L 146.696879 23.983285 
L 147.500143 23.359448 
L 148.303407 23.056839 
L 149.307488 22.934901 
L 151.516464 22.982781 
L 156.135234 23.018912 
L 162.762164 23.110173 
L 163.565428 23.479354 
L 164.167877 23.983284 
L 164.770325 24.761552 
L 165.372773 25.897272 
L 165.975221 27.482102 
L 166.577669 29.613615 
L 167.380934 33.47831 
L 168.184198 38.718651 
L 168.987462 45.528956 
L 169.790726 54.051764 
L 170.794807 67.135187 
L 172.401335 88.972294 
L 172.802967 92.059704 
L 173.2046 93.66825 
L 173.606232 94.265111 
L 174.007864 94.371355 
L 176.216841 94.257699 
L 179.028265 94.35337 
L 210.556388 94.326523 
L 213.367813 94.282672 
L 214.171077 94.353759 
L 214.572709 94.057326 
L 214.773525 93.668248 
L 215.175158 92.059704 
L 215.57679 88.972299 
L 216.179238 81.718381 
L 218.388215 51.755515 
L 219.392295 41.917232 
L 220.195559 35.913371 
L 220.998824 31.387666 
L 221.802088 28.126893 
L 222.605352 25.897197 
L 223.2078 24.761457 
L 223.810248 23.983181 
L 224.412697 23.479265 
L 225.215961 23.110159 
L 226.220041 22.945054 
L 228.027386 22.962284 
L 232.244523 23.013146 
L 254.735923 23.002906 
L 265.57999 23.110159 
L 266.383255 23.479265 
L 266.985703 23.983181 
L 267.588151 24.761457 
L 268.190599 25.897197 
L 268.793048 27.482049 
L 269.395496 29.613583 
L 270.19876 33.478303 
L 271.002024 38.718662 
L 271.805289 45.528978 
L 272.608553 54.051792 
L 273.612633 67.135215 
L 275.219162 88.972299 
L 275.620794 92.059704 
L 276.022426 93.668248 
L 276.424058 94.26511 
L 276.82569 94.371355 
L 279.034667 94.2577 
L 281.846092 94.35337 
L 319.599513 94.34203 
L 322.410937 94.34203 
L 322.410937 94.34203 
" clip-path="url(#p5478392a0f)" style="fill: none; stroke: #ff7f0e; stroke-width: 3; stroke-linecap: square"/>
   </g>
   <g id="line2d_13">
    <path d="M 65.567187 98.350943 
L 65.567187 10.8 
" clip-path="url(#p5478392a0f)" style="fill: none; stroke-dasharray: 5.55,2.4; stroke-dashoffset: 0; stroke: #000000; stroke-opacity: 0.5; stroke-width: 1.5"/>
   </g>
   <g id="line2d_14">
    <path d="M 91.271644 98.350943 
L 91.271644 10.8 
" clip-path="url(#p5478392a0f)" style="fill: none; stroke-dasharray: 5.55,2.4; stroke-dashoffset: 0; stroke: #000000; stroke-opacity: 0.5; stroke-width: 1.5"/>
   </g>
   <g id="line2d_15">
    <path d="M 116.976101 98.350943 
L 116.976101 10.8 
" clip-path="url(#p5478392a0f)" style="fill: none; stroke-dasharray: 5.55,2.4; stroke-dashoffset: 0; stroke: #000000; stroke-opacity: 0.5; stroke-width: 1.5"/>
   </g>
   <g id="line2d_16">
    <path d="M 142.680557 98.350943 
L 142.680557 10.8 
" clip-path="url(#p5478392a0f)" style="fill: none; stroke-dasharray: 5.55,2.4; stroke-dashoffset: 0; stroke: #000000; stroke-opacity: 0.5; stroke-width: 1.5"/>
   </g>
   <g id="line2d_17">
    <path d="M 168.385014 98.350943 
L 168.385014 10.8 
" clip-path="url(#p5478392a0f)" style="fill: none; stroke-dasharray: 5.55,2.4; stroke-dashoffset: 0; stroke: #000000; stroke-opacity: 0.5; stroke-width: 1.5"/>
   </g>
   <g id="line2d_18">
    <path d="M 194.089471 98.350943 
L 194.089471 10.8 
" clip-path="url(#p5478392a0f)" style="fill: none; stroke-dasharray: 5.55,2.4; stroke-dashoffset: 0; stroke: #000000; stroke-opacity: 0.5; stroke-width: 1.5"/>
   </g>
   <g id="line2d_19">
    <path d="M 219.793927 98.350943 
L 219.793927 10.8 
" clip-path="url(#p5478392a0f)" style="fill: none; stroke-dasharray: 5.55,2.4; stroke-dashoffset: 0; stroke: #000000; stroke-opacity: 0.5; stroke-width: 1.5"/>
   </g>
   <g id="line2d_20">
    <path d="M 245.498384 98.350943 
L 245.498384 10.8 
" clip-path="url(#p5478392a0f)" style="fill: none; stroke-dasharray: 5.55,2.4; stroke-dashoffset: 0; stroke: #000000; stroke-opacity: 0.5; stroke-width: 1.5"/>
   </g>
   <g id="line2d_21">
    <path d="M 271.20284 98.350943 
L 271.20284 10.8 
" clip-path="url(#p5478392a0f)" style="fill: none; stroke-dasharray: 5.55,2.4; stroke-dashoffset: 0; stroke: #000000; stroke-opacity: 0.5; stroke-width: 1.5"/>
   </g>
   <g id="line2d_22">
    <path d="M 296.907297 98.350943 
L 296.907297 10.8 
" clip-path="url(#p5478392a0f)" style="fill: none; stroke-dasharray: 5.55,2.4; stroke-dashoffset: 0; stroke: #000000; stroke-opacity: 0.5; stroke-width: 1.5"/>
   </g>
   <g id="patch_3">
    <path d="M 52.725 98.350943 
L 52.725 10.8 
" style="fill: none; stroke: #000000; stroke-width: 0.8; stroke-linejoin: miter; stroke-linecap: square"/>
   </g>
   <g id="patch_4">
    <path d="M 335.253125 98.350943 
L 335.253125 10.8 
" style="fill: none; stroke: #000000; stroke-width: 0.8; stroke-linejoin: miter; stroke-linecap: square"/>
   </g>
   <g id="patch_5">
    <path d="M 52.725 98.350943 
L 335.253125 98.350943 
" style="fill: none; stroke: #000000; stroke-width: 0.8; stroke-linejoin: miter; stroke-linecap: square"/>
   </g>
   <g id="patch_6">
    <path d="M 52.725 10.8 
L 335.253125 10.8 
" style="fill: none; stroke: #000000; stroke-width: 0.8; stroke-linejoin: miter; stroke-linecap: square"/>
   </g>
   <g id="legend_1">
    <g id="patch_7">
     <path d="M 342.253125 48.15625 
L 407.59375 48.15625 
Q 409.59375 48.15625 409.59375 46.15625 
L 409.59375 17.8 
Q 409.59375 15.8 407.59375 15.8 
L 342.253125 15.8 
Q 340.253125 15.8 340.253125 17.8 
L 340.253125 46.15625 
Q 340.253125 48.15625 342.253125 48.15625 
z
" style="fill: #ffffff; opacity: 0.8; stroke: #cccccc; stroke-linejoin: miter"/>
    </g>
    <g id="line2d_23">
     <path d="M 344.253125 23.898438 
L 354.253125 23.898438 
L 364.253125 23.898438 
" style="fill: none; stroke: #ff0000; stroke-width: 3; stroke-linecap: square"/>
    </g>
    <g id="text_6">
     <!-- input -->
     <g transform="translate(372.253125 27.398438) scale(0.1 -0.1)">
      <defs>
       <path id="DejaVuSerif-69" d="M 622 4353 
Q 622 4497 726 4603 
Q 831 4709 978 4709 
Q 1122 4709 1226 4603 
Q 1331 4497 1331 4353 
Q 1331 4206 1228 4103 
Q 1125 4000 978 4000 
Q 831 4000 726 4103 
Q 622 4206 622 4353 
z
M 1356 331 
L 1900 331 
L 1900 0 
L 231 0 
L 231 331 
L 781 331 
L 781 2988 
L 231 2988 
L 231 3322 
L 1356 3322 
L 1356 331 
z
" transform="scale(0.015625)"/>
       <path id="DejaVuSerif-6e" d="M 263 0 
L 263 331 
L 781 331 
L 781 2988 
L 231 2988 
L 231 3322 
L 1356 3322 
L 1356 2731 
Q 1516 3069 1770 3241 
Q 2025 3413 2363 3413 
Q 2913 3413 3172 3097 
Q 3431 2781 3431 2113 
L 3431 331 
L 3944 331 
L 3944 0 
L 2356 0 
L 2356 331 
L 2853 331 
L 2853 1931 
Q 2853 2541 2703 2767 
Q 2553 2994 2175 2994 
Q 1775 2994 1565 2701 
Q 1356 2409 1356 1850 
L 1356 331 
L 1856 331 
L 1856 0 
L 263 0 
z
" transform="scale(0.015625)"/>
       <path id="DejaVuSerif-70" d="M 1313 1825 
L 1313 1497 
Q 1313 897 1542 583 
Q 1772 269 2209 269 
Q 2650 269 2876 622 
Q 3103 975 3103 1663 
Q 3103 2353 2876 2703 
Q 2650 3053 2209 3053 
Q 1772 3053 1542 2737 
Q 1313 2422 1313 1825 
z
M 738 2988 
L 184 2988 
L 184 3322 
L 1313 3322 
L 1313 2803 
Q 1481 3116 1742 3264 
Q 2003 3413 2388 3413 
Q 3000 3413 3387 2928 
Q 3775 2444 3775 1663 
Q 3775 881 3387 395 
Q 3000 -91 2388 -91 
Q 2003 -91 1742 57 
Q 1481 206 1313 519 
L 1313 -997 
L 1856 -997 
L 1856 -1331 
L 184 -1331 
L 184 -997 
L 738 -997 
L 738 2988 
z
" transform="scale(0.015625)"/>
       <path id="DejaVuSerif-75" d="M 2266 3322 
L 3341 3322 
L 3341 331 
L 3884 331 
L 3884 0 
L 2766 0 
L 2766 588 
Q 2606 256 2353 82 
Q 2100 -91 1766 -91 
Q 1213 -91 952 223 
Q 691 538 691 1209 
L 691 2988 
L 172 2988 
L 172 3322 
L 1269 3322 
L 1269 1388 
Q 1269 781 1417 556 
Q 1566 331 1947 331 
Q 2347 331 2556 625 
Q 2766 919 2766 1478 
L 2766 2988 
L 2266 2988 
L 2266 3322 
z
" transform="scale(0.015625)"/>
       <path id="DejaVuSerif-74" d="M 691 2988 
L 184 2988 
L 184 3322 
L 691 3322 
L 691 4353 
L 1269 4353 
L 1269 3322 
L 2350 3322 
L 2350 2988 
L 1269 2988 
L 1269 878 
Q 1269 456 1350 337 
Q 1431 219 1650 219 
Q 1875 219 1978 351 
Q 2081 484 2088 781 
L 2522 781 
Q 2497 328 2275 118 
Q 2053 -91 1600 -91 
Q 1103 -91 897 129 
Q 691 350 691 878 
L 691 2988 
z
" transform="scale(0.015625)"/>
      </defs>
      <use xlink:href="#DejaVuSerif-69"/>
      <use xlink:href="#DejaVuSerif-6e" x="31.982422"/>
      <use xlink:href="#DejaVuSerif-70" x="96.386719"/>
      <use xlink:href="#DejaVuSerif-75" x="160.400391"/>
      <use xlink:href="#DejaVuSerif-74" x="224.804688"/>
     </g>
    </g>
    <g id="line2d_24">
     <path d="M 344.253125 38.576563 
L 354.253125 38.576563 
L 364.253125 38.576563 
" style="fill: none; stroke: #ff7f0e; stroke-width: 3; stroke-linecap: square"/>
    </g>
    <g id="text_7">
     <!-- output -->
     <g transform="translate(372.253125 42.076563) scale(0.1 -0.1)">
      <use xlink:href="#DejaVuSerif-6f"/>
      <use xlink:href="#DejaVuSerif-75" x="60.205078"/>
      <use xlink:href="#DejaVuSerif-74" x="124.609375"/>
      <use xlink:href="#DejaVuSerif-70" x="164.794922"/>
      <use xlink:href="#DejaVuSerif-75" x="228.808594"/>
      <use xlink:href="#DejaVuSerif-74" x="293.212891"/>
     </g>
    </g>
   </g>
  </g>
  <g id="axes_2">
   <g id="patch_8">
    <path d="M 52.725 201.397347 
L 335.253125 201.397347 
L 335.253125 113.846403 
L 52.725 113.846403 
z
" style="fill: #ffffff"/>
   </g>
   <g id="matplotlib.axis_3">
    <g id="xtick_7">
     <g id="line2d_25">
      <g>
       <use xlink:href="#m7a237930ee" x="65.567187" y="201.397347" style="stroke: #000000; stroke-width: 0.8"/>
      </g>
     </g>
    </g>
    <g id="xtick_8">
     <g id="line2d_26">
      <g>
       <use xlink:href="#m7a237930ee" x="116.935937" y="201.397347" style="stroke: #000000; stroke-width: 0.8"/>
      </g>
     </g>
    </g>
    <g id="xtick_9">
     <g id="line2d_27">
      <g>
       <use xlink:href="#m7a237930ee" x="168.304687" y="201.397347" style="stroke: #000000; stroke-width: 0.8"/>
      </g>
     </g>
    </g>
    <g id="xtick_10">
     <g id="line2d_28">
      <g>
       <use xlink:href="#m7a237930ee" x="219.673437" y="201.397347" style="stroke: #000000; stroke-width: 0.8"/>
      </g>
     </g>
    </g>
    <g id="xtick_11">
     <g id="line2d_29">
      <g>
       <use xlink:href="#m7a237930ee" x="271.042187" y="201.397347" style="stroke: #000000; stroke-width: 0.8"/>
      </g>
     </g>
    </g>
    <g id="xtick_12">
     <g id="line2d_30">
      <g>
       <use xlink:href="#m7a237930ee" x="322.410937" y="201.397347" style="stroke: #000000; stroke-width: 0.8"/>
      </g>
     </g>
    </g>
   </g>
   <g id="matplotlib.axis_4">
    <g id="ytick_5">
     <g id="line2d_31">
      <g>
       <use xlink:href="#mcb98c29201" x="52.725" y="197.410018" style="stroke: #000000; stroke-width: 0.8"/>
      </g>
     </g>
     <g id="text_8">
      <!-- 0.0 -->
      <g transform="translate(29.821875 201.209237) scale(0.1 -0.1)">
       <defs>
        <path id="DejaVuSerif-2e" d="M 603 325 
Q 603 500 722 622 
Q 841 744 1019 744 
Q 1191 744 1312 622 
Q 1434 500 1434 325 
Q 1434 153 1312 31 
Q 1191 -91 1019 -91 
Q 841 -91 722 29 
Q 603 150 603 325 
z
" transform="scale(0.015625)"/>
       </defs>
       <use xlink:href="#DejaVuSerif-30"/>
       <use xlink:href="#DejaVuSerif-2e" x="63.623047"/>
       <use xlink:href="#DejaVuSerif-30" x="95.410156"/>
      </g>
     </g>
    </g>
    <g id="ytick_6">
     <g id="line2d_32">
      <g>
       <use xlink:href="#mcb98c29201" x="52.725" y="173.061827" style="stroke: #000000; stroke-width: 0.8"/>
      </g>
     </g>
     <g id="text_9">
      <!-- 0.5 -->
      <g transform="translate(29.821875 176.861046) scale(0.1 -0.1)">
       <defs>
        <path id="DejaVuSerif-35" d="M 3219 4666 
L 3219 4153 
L 1081 4153 
L 1081 2816 
Q 1244 2928 1461 2984 
Q 1678 3041 1947 3041 
Q 2703 3041 3140 2622 
Q 3578 2203 3578 1478 
Q 3578 738 3136 323 
Q 2694 -91 1894 -91 
Q 1572 -91 1234 -12 
Q 897 66 544 225 
L 544 1131 
L 897 1131 
Q 925 688 1179 453 
Q 1434 219 1894 219 
Q 2388 219 2653 544 
Q 2919 869 2919 1478 
Q 2919 2084 2655 2407 
Q 2391 2731 1894 2731 
Q 1613 2731 1398 2631 
Q 1184 2531 1019 2322 
L 750 2322 
L 750 4666 
L 3219 4666 
z
" transform="scale(0.015625)"/>
       </defs>
       <use xlink:href="#DejaVuSerif-30"/>
       <use xlink:href="#DejaVuSerif-2e" x="63.623047"/>
       <use xlink:href="#DejaVuSerif-35" x="95.410156"/>
      </g>
     </g>
    </g>
    <g id="ytick_7">
     <g id="line2d_33">
      <g>
       <use xlink:href="#mcb98c29201" x="52.725" y="148.713636" style="stroke: #000000; stroke-width: 0.8"/>
      </g>
     </g>
     <g id="text_10">
      <!-- 1.0 -->
      <g transform="translate(29.821875 152.512855) scale(0.1 -0.1)">
       <use xlink:href="#DejaVuSerif-31"/>
       <use xlink:href="#DejaVuSerif-2e" x="63.623047"/>
       <use xlink:href="#DejaVuSerif-30" x="95.410156"/>
      </g>
     </g>
    </g>
    <g id="ytick_8">
     <g id="line2d_34">
      <g>
       <use xlink:href="#mcb98c29201" x="52.725" y="124.365445" style="stroke: #000000; stroke-width: 0.8"/>
      </g>
     </g>
     <g id="text_11">
      <!-- 1.5 -->
      <g transform="translate(29.821875 128.164664) scale(0.1 -0.1)">
       <use xlink:href="#DejaVuSerif-31"/>
       <use xlink:href="#DejaVuSerif-2e" x="63.623047"/>
       <use xlink:href="#DejaVuSerif-35" x="95.410156"/>
      </g>
     </g>
    </g>
    <g id="text_12">
     <!-- Fase [rad] -->
     <g transform="translate(23.742187 183.322656) rotate(-90) scale(0.1 -0.1)">
      <defs>
       <path id="DejaVuSerif-46" d="M 353 0 
L 353 331 
L 947 331 
L 947 4331 
L 353 4331 
L 353 4666 
L 4172 4666 
L 4172 3628 
L 3788 3628 
L 3788 4281 
L 1581 4281 
L 1581 2719 
L 3175 2719 
L 3175 3303 
L 3559 3303 
L 3559 1753 
L 3175 1753 
L 3175 2338 
L 1581 2338 
L 1581 331 
L 2328 331 
L 2328 0 
L 353 0 
z
" transform="scale(0.015625)"/>
       <path id="DejaVuSerif-61" d="M 2547 1044 
L 2547 1747 
L 1806 1747 
Q 1378 1747 1168 1562 
Q 959 1378 959 997 
Q 959 650 1171 447 
Q 1384 244 1747 244 
Q 2106 244 2326 466 
Q 2547 688 2547 1044 
z
M 3122 2075 
L 3122 331 
L 3634 331 
L 3634 0 
L 2547 0 
L 2547 359 
Q 2356 128 2106 18 
Q 1856 -91 1522 -91 
Q 969 -91 644 203 
Q 319 497 319 997 
Q 319 1513 691 1797 
Q 1063 2081 1741 2081 
L 2547 2081 
L 2547 2309 
Q 2547 2688 2317 2895 
Q 2088 3103 1672 3103 
Q 1328 3103 1125 2947 
Q 922 2791 872 2484 
L 575 2484 
L 575 3156 
Q 875 3284 1158 3348 
Q 1441 3413 1709 3413 
Q 2400 3413 2761 3070 
Q 3122 2728 3122 2075 
z
" transform="scale(0.015625)"/>
       <path id="DejaVuSerif-73" d="M 359 184 
L 359 959 
L 691 959 
Q 703 588 923 403 
Q 1144 219 1575 219 
Q 1963 219 2166 364 
Q 2369 509 2369 788 
Q 2369 1006 2220 1140 
Q 2072 1275 1594 1428 
L 1178 1569 
Q 750 1706 558 1912 
Q 366 2119 366 2438 
Q 366 2894 700 3153 
Q 1034 3413 1625 3413 
Q 1888 3413 2178 3344 
Q 2469 3275 2778 3144 
L 2778 2419 
L 2447 2419 
Q 2434 2741 2221 2922 
Q 2009 3103 1644 3103 
Q 1281 3103 1095 2975 
Q 909 2847 909 2591 
Q 909 2381 1050 2254 
Q 1191 2128 1613 1997 
L 2069 1856 
Q 2541 1709 2748 1489 
Q 2956 1269 2956 922 
Q 2956 450 2595 179 
Q 2234 -91 1600 -91 
Q 1278 -91 972 -22 
Q 666 47 359 184 
z
" transform="scale(0.015625)"/>
      </defs>
      <use xlink:href="#DejaVuSerif-46"/>
      <use xlink:href="#DejaVuSerif-61" x="62.634766"/>
      <use xlink:href="#DejaVuSerif-73" x="122.253906"/>
      <use xlink:href="#DejaVuSerif-65" x="173.572266"/>
      <use xlink:href="#DejaVuSerif-20" x="232.751953"/>
      <use xlink:href="#DejaVuSerif-5b" x="264.539062"/>
      <use xlink:href="#DejaVuSerif-72" x="303.552734"/>
      <use xlink:href="#DejaVuSerif-61" x="351.355469"/>
      <use xlink:href="#DejaVuSerif-64" x="410.974609"/>
      <use xlink:href="#DejaVuSerif-5d" x="474.988281"/>
     </g>
    </g>
   </g>
   <g id="line2d_35">
    <path d="M 65.567187 197.410018 
L 322.410937 197.410018 
L 322.410937 197.410018 
" clip-path="url(#p7b4770b777)" style="fill: none; stroke: #0000ff; stroke-width: 3; stroke-linecap: square"/>
   </g>
   <g id="line2d_36">
    <path d="M 65.567187 120.917696 
L 77.214519 121.002482 
L 80.427576 121.437211 
L 81.030025 121.228416 
L 81.632473 120.787128 
L 82.234921 120.091226 
L 83.84145 117.918135 
L 84.042266 117.844677 
L 84.243082 117.892741 
L 84.443898 118.097169 
L 84.84553 119.141072 
L 85.247162 121.365848 
L 85.648794 125.24388 
L 86.050426 131.246779 
L 86.652875 144.463885 
L 87.857771 173.127537 
L 88.460219 181.923619 
L 89.062667 187.411808 
L 89.665116 190.834664 
L 90.267564 193.019451 
L 90.870012 194.450957 
L 91.47246 195.410159 
L 92.275724 196.232667 
L 93.078989 196.734111 
L 94.083069 197.095454 
L 95.488782 197.328487 
L 97.697758 197.416096 
L 111.754883 197.383795 
L 113.562228 197.186448 
L 114.767124 196.825455 
L 115.570388 196.381962 
L 116.373653 195.655937 
L 116.976101 194.81319 
L 117.578549 193.563324 
L 118.180997 191.671033 
L 118.783445 188.732672 
L 119.385894 184.052221 
L 119.988342 176.512545 
L 120.59079 164.869424 
L 122.197318 127.957622 
L 122.598951 123.065912 
L 123.000583 120.073509 
L 123.402215 118.488872 
L 123.803847 117.877539 
L 124.004663 117.825992 
L 124.406295 118.056585 
L 125.008743 118.849367 
L 126.21364 120.523968 
L 126.816088 121.05386 
L 127.418536 121.355293 
L 128.2218 121.503865 
L 130.631593 121.516531 
L 131.83649 121.414287 
L 132.438938 121.177497 
L 133.041386 120.727977 
L 133.84465 119.758022 
L 135.049547 118.056585 
L 135.451179 117.825992 
L 135.651995 117.877539 
L 135.852811 118.085144 
L 136.254443 119.134448 
L 136.656075 121.363384 
L 137.057707 125.244415 
L 137.45934 131.249208 
L 138.061788 144.467079 
L 139.266684 173.128448 
L 139.869132 181.923934 
L 140.471581 187.411904 
L 141.074029 190.834689 
L 141.676477 193.019455 
L 142.278925 194.450955 
L 142.881373 195.410156 
L 143.684638 196.232665 
L 144.487902 196.73411 
L 145.491982 197.095454 
L 146.897695 197.328487 
L 149.106671 197.416096 
L 163.163796 197.383795 
L 164.971141 197.186448 
L 166.176037 196.825456 
L 166.979301 196.381964 
L 167.782566 195.655939 
L 168.385014 194.813193 
L 168.987462 193.563323 
L 169.58991 191.671018 
L 170.192359 188.732609 
L 170.794807 184.052007 
L 171.397255 176.511895 
L 171.999703 164.867769 
L 173.606232 127.956002 
L 174.007864 123.066736 
L 174.409496 120.077902 
L 174.811128 118.498037 
L 175.21276 117.892741 
L 175.413576 117.844677 
L 175.815208 118.083052 
L 176.417657 118.888739 
L 177.622553 120.582713 
L 178.225001 121.109361 
L 178.827449 121.390185 
L 179.630714 121.472369 
L 180.83561 121.278016 
L 182.843771 120.927993 
L 184.651115 120.859133 
L 201.921297 120.882677 
L 204.933538 120.909925 
L 206.540067 121.147579 
L 208.548227 121.475774 
L 209.351492 121.32135 
L 209.95394 120.9626 
L 210.556388 120.350099 
L 211.560468 118.888749 
L 212.162917 118.083069 
L 212.564549 117.844699 
L 212.765365 117.892764 
L 212.966181 118.097195 
L 213.367813 119.141101 
L 213.769445 121.365878 
L 214.171077 125.243908 
L 214.572709 131.246801 
L 215.175158 144.463886 
L 216.380054 173.127512 
L 216.982502 181.923598 
L 217.58495 187.411792 
L 218.187399 190.834653 
L 218.789847 193.019444 
L 219.392295 194.450953 
L 219.994743 195.410158 
L 220.798007 196.232669 
L 221.601272 196.734116 
L 222.605352 197.095463 
L 224.011065 197.328498 
L 226.220041 197.416073 
L 247.104912 197.410016 
L 266.985703 197.307844 
L 268.391415 197.040209 
L 269.395496 196.630805 
L 270.19876 196.063778 
L 270.801208 195.410158 
L 271.403656 194.450953 
L 272.006105 193.019444 
L 272.608553 190.834653 
L 273.211001 187.411792 
L 273.813449 181.923598 
L 274.415897 173.127512 
L 275.018346 160.052315 
L 276.223242 131.246801 
L 276.82569 123.066766 
L 277.227322 120.077932 
L 277.628955 118.498064 
L 278.030587 117.892764 
L 278.231403 117.844699 
L 278.633035 118.083069 
L 279.235483 118.888749 
L 280.440379 120.582714 
L 281.042828 121.10936 
L 281.645276 121.390182 
L 282.44854 121.472366 
L 283.653437 121.278015 
L 285.661597 120.927996 
L 287.468942 120.859132 
L 309.558709 120.917919 
L 322.410937 120.91792 
L 322.410937 120.91792 
" clip-path="url(#p7b4770b777)" style="fill: none; stroke: #1f77b4; stroke-width: 3; stroke-linecap: square"/>
   </g>
   <g id="line2d_37">
    <path d="M 65.567187 201.397347 
L 65.567187 113.846403 
" clip-path="url(#p7b4770b777)" style="fill: none; stroke-dasharray: 5.55,2.4; stroke-dashoffset: 0; stroke: #000000; stroke-opacity: 0.5; stroke-width: 1.5"/>
   </g>
   <g id="line2d_38">
    <path d="M 91.271644 201.397347 
L 91.271644 113.846403 
" clip-path="url(#p7b4770b777)" style="fill: none; stroke-dasharray: 5.55,2.4; stroke-dashoffset: 0; stroke: #000000; stroke-opacity: 0.5; stroke-width: 1.5"/>
   </g>
   <g id="line2d_39">
    <path d="M 116.976101 201.397347 
L 116.976101 113.846403 
" clip-path="url(#p7b4770b777)" style="fill: none; stroke-dasharray: 5.55,2.4; stroke-dashoffset: 0; stroke: #000000; stroke-opacity: 0.5; stroke-width: 1.5"/>
   </g>
   <g id="line2d_40">
    <path d="M 142.680557 201.397347 
L 142.680557 113.846403 
" clip-path="url(#p7b4770b777)" style="fill: none; stroke-dasharray: 5.55,2.4; stroke-dashoffset: 0; stroke: #000000; stroke-opacity: 0.5; stroke-width: 1.5"/>
   </g>
   <g id="line2d_41">
    <path d="M 168.385014 201.397347 
L 168.385014 113.846403 
" clip-path="url(#p7b4770b777)" style="fill: none; stroke-dasharray: 5.55,2.4; stroke-dashoffset: 0; stroke: #000000; stroke-opacity: 0.5; stroke-width: 1.5"/>
   </g>
   <g id="line2d_42">
    <path d="M 194.089471 201.397347 
L 194.089471 113.846403 
" clip-path="url(#p7b4770b777)" style="fill: none; stroke-dasharray: 5.55,2.4; stroke-dashoffset: 0; stroke: #000000; stroke-opacity: 0.5; stroke-width: 1.5"/>
   </g>
   <g id="line2d_43">
    <path d="M 219.793927 201.397347 
L 219.793927 113.846403 
" clip-path="url(#p7b4770b777)" style="fill: none; stroke-dasharray: 5.55,2.4; stroke-dashoffset: 0; stroke: #000000; stroke-opacity: 0.5; stroke-width: 1.5"/>
   </g>
   <g id="line2d_44">
    <path d="M 245.498384 201.397347 
L 245.498384 113.846403 
" clip-path="url(#p7b4770b777)" style="fill: none; stroke-dasharray: 5.55,2.4; stroke-dashoffset: 0; stroke: #000000; stroke-opacity: 0.5; stroke-width: 1.5"/>
   </g>
   <g id="line2d_45">
    <path d="M 271.20284 201.397347 
L 271.20284 113.846403 
" clip-path="url(#p7b4770b777)" style="fill: none; stroke-dasharray: 5.55,2.4; stroke-dashoffset: 0; stroke: #000000; stroke-opacity: 0.5; stroke-width: 1.5"/>
   </g>
   <g id="line2d_46">
    <path d="M 296.907297 201.397347 
L 296.907297 113.846403 
" clip-path="url(#p7b4770b777)" style="fill: none; stroke-dasharray: 5.55,2.4; stroke-dashoffset: 0; stroke: #000000; stroke-opacity: 0.5; stroke-width: 1.5"/>
   </g>
   <g id="patch_9">
    <path d="M 52.725 201.397347 
L 52.725 113.846403 
" style="fill: none; stroke: #000000; stroke-width: 0.8; stroke-linejoin: miter; stroke-linecap: square"/>
   </g>
   <g id="patch_10">
    <path d="M 335.253125 201.397347 
L 335.253125 113.846403 
" style="fill: none; stroke: #000000; stroke-width: 0.8; stroke-linejoin: miter; stroke-linecap: square"/>
   </g>
   <g id="patch_11">
    <path d="M 52.725 201.397347 
L 335.253125 201.397347 
" style="fill: none; stroke: #000000; stroke-width: 0.8; stroke-linejoin: miter; stroke-linecap: square"/>
   </g>
   <g id="patch_12">
    <path d="M 52.725 113.846403 
L 335.253125 113.846403 
" style="fill: none; stroke: #000000; stroke-width: 0.8; stroke-linejoin: miter; stroke-linecap: square"/>
   </g>
   <g id="legend_2">
    <g id="patch_13">
     <path d="M 342.253125 151.202653 
L 417.1875 151.202653 
Q 419.1875 151.202653 419.1875 149.202653 
L 419.1875 120.846403 
Q 419.1875 118.846403 417.1875 118.846403 
L 342.253125 118.846403 
Q 340.253125 118.846403 340.253125 120.846403 
L 340.253125 149.202653 
Q 340.253125 151.202653 342.253125 151.202653 
z
" style="fill: #ffffff; opacity: 0.8; stroke: #cccccc; stroke-linejoin: miter"/>
    </g>
    <g id="line2d_47">
     <path d="M 344.253125 126.944841 
L 354.253125 126.944841 
L 364.253125 126.944841 
" style="fill: none; stroke: #0000ff; stroke-width: 3; stroke-linecap: square"/>
    </g>
    <g id="text_13">
     <!-- Fase in -->
     <g transform="translate(372.253125 130.444841) scale(0.1 -0.1)">
      <use xlink:href="#DejaVuSerif-46"/>
      <use xlink:href="#DejaVuSerif-61" x="62.634766"/>
      <use xlink:href="#DejaVuSerif-73" x="122.253906"/>
      <use xlink:href="#DejaVuSerif-65" x="173.572266"/>
      <use xlink:href="#DejaVuSerif-20" x="232.751953"/>
      <use xlink:href="#DejaVuSerif-69" x="264.539062"/>
      <use xlink:href="#DejaVuSerif-6e" x="296.521484"/>
     </g>
    </g>
    <g id="line2d_48">
     <path d="M 344.253125 141.622966 
L 354.253125 141.622966 
L 364.253125 141.622966 
" style="fill: none; stroke: #1f77b4; stroke-width: 3; stroke-linecap: square"/>
    </g>
    <g id="text_14">
     <!-- Fase out -->
     <g transform="translate(372.253125 145.122966) scale(0.1 -0.1)">
      <use xlink:href="#DejaVuSerif-46"/>
      <use xlink:href="#DejaVuSerif-61" x="62.634766"/>
      <use xlink:href="#DejaVuSerif-73" x="122.253906"/>
      <use xlink:href="#DejaVuSerif-65" x="173.572266"/>
      <use xlink:href="#DejaVuSerif-20" x="232.751953"/>
      <use xlink:href="#DejaVuSerif-6f" x="264.539062"/>
      <use xlink:href="#DejaVuSerif-75" x="324.744141"/>
      <use xlink:href="#DejaVuSerif-74" x="389.148438"/>
     </g>
    </g>
   </g>
  </g>
  <g id="axes_3">
   <g id="patch_14">
    <path d="M 52.725 304.44375 
L 335.253125 304.44375 
L 335.253125 216.892807 
L 52.725 216.892807 
z
" style="fill: #ffffff"/>
   </g>
   <g id="matplotlib.axis_5">
    <g id="xtick_13">
     <g id="line2d_49">
      <g>
       <use xlink:href="#m7a237930ee" x="65.567187" y="304.44375" style="stroke: #000000; stroke-width: 0.8"/>
      </g>
     </g>
     <g id="text_15">
      <!-- 0.0 -->
      <g transform="translate(57.615625 319.042188) scale(0.1 -0.1)">
       <use xlink:href="#DejaVuSerif-30"/>
       <use xlink:href="#DejaVuSerif-2e" x="63.623047"/>
       <use xlink:href="#DejaVuSerif-30" x="95.410156"/>
      </g>
     </g>
    </g>
    <g id="xtick_14">
     <g id="line2d_50">
      <g>
       <use xlink:href="#m7a237930ee" x="116.935937" y="304.44375" style="stroke: #000000; stroke-width: 0.8"/>
      </g>
     </g>
     <g id="text_16">
      <!-- 0.2 -->
      <g transform="translate(108.984375 319.042188) scale(0.1 -0.1)">
       <use xlink:href="#DejaVuSerif-30"/>
       <use xlink:href="#DejaVuSerif-2e" x="63.623047"/>
       <use xlink:href="#DejaVuSerif-32" x="95.410156"/>
      </g>
     </g>
    </g>
    <g id="xtick_15">
     <g id="line2d_51">
      <g>
       <use xlink:href="#m7a237930ee" x="168.304687" y="304.44375" style="stroke: #000000; stroke-width: 0.8"/>
      </g>
     </g>
     <g id="text_17">
      <!-- 0.4 -->
      <g transform="translate(160.353125 319.042188) scale(0.1 -0.1)">
       <defs>
        <path id="DejaVuSerif-34" d="M 2234 1581 
L 2234 4063 
L 641 1581 
L 2234 1581 
z
M 3609 0 
L 1484 0 
L 1484 331 
L 2234 331 
L 2234 1247 
L 197 1247 
L 197 1588 
L 2241 4750 
L 2859 4750 
L 2859 1581 
L 3750 1581 
L 3750 1247 
L 2859 1247 
L 2859 331 
L 3609 331 
L 3609 0 
z
" transform="scale(0.015625)"/>
       </defs>
       <use xlink:href="#DejaVuSerif-30"/>
       <use xlink:href="#DejaVuSerif-2e" x="63.623047"/>
       <use xlink:href="#DejaVuSerif-34" x="95.410156"/>
      </g>
     </g>
    </g>
    <g id="xtick_16">
     <g id="line2d_52">
      <g>
       <use xlink:href="#m7a237930ee" x="219.673437" y="304.44375" style="stroke: #000000; stroke-width: 0.8"/>
      </g>
     </g>
     <g id="text_18">
      <!-- 0.6 -->
      <g transform="translate(211.721875 319.042188) scale(0.1 -0.1)">
       <defs>
        <path id="DejaVuSerif-36" d="M 2094 219 
Q 2534 219 2771 542 
Q 3009 866 3009 1472 
Q 3009 2078 2771 2401 
Q 2534 2725 2094 2725 
Q 1647 2725 1412 2412 
Q 1178 2100 1178 1509 
Q 1178 888 1415 553 
Q 1653 219 2094 219 
z
M 1075 2569 
Q 1288 2803 1556 2918 
Q 1825 3034 2163 3034 
Q 2859 3034 3264 2615 
Q 3669 2197 3669 1472 
Q 3669 763 3233 336 
Q 2797 -91 2069 -91 
Q 1278 -91 853 498 
Q 428 1088 428 2181 
Q 428 3406 931 4078 
Q 1434 4750 2350 4750 
Q 2597 4750 2869 4703 
Q 3141 4656 3425 4563 
L 3425 3794 
L 3072 3794 
Q 3034 4109 2831 4275 
Q 2628 4441 2284 4441 
Q 1678 4441 1381 3981 
Q 1084 3522 1075 2569 
z
" transform="scale(0.015625)"/>
       </defs>
       <use xlink:href="#DejaVuSerif-30"/>
       <use xlink:href="#DejaVuSerif-2e" x="63.623047"/>
       <use xlink:href="#DejaVuSerif-36" x="95.410156"/>
      </g>
     </g>
    </g>
    <g id="xtick_17">
     <g id="line2d_53">
      <g>
       <use xlink:href="#m7a237930ee" x="271.042187" y="304.44375" style="stroke: #000000; stroke-width: 0.8"/>
      </g>
     </g>
     <g id="text_19">
      <!-- 0.8 -->
      <g transform="translate(263.090625 319.042188) scale(0.1 -0.1)">
       <defs>
        <path id="DejaVuSerif-38" d="M 2981 1275 
Q 2981 1775 2732 2051 
Q 2484 2328 2034 2328 
Q 1584 2328 1336 2051 
Q 1088 1775 1088 1275 
Q 1088 772 1336 495 
Q 1584 219 2034 219 
Q 2484 219 2732 495 
Q 2981 772 2981 1275 
z
M 2853 3541 
Q 2853 3966 2637 4203 
Q 2422 4441 2034 4441 
Q 1650 4441 1433 4203 
Q 1216 3966 1216 3541 
Q 1216 3113 1433 2875 
Q 1650 2638 2034 2638 
Q 2422 2638 2637 2875 
Q 2853 3113 2853 3541 
z
M 2516 2484 
Q 3047 2413 3344 2092 
Q 3641 1772 3641 1275 
Q 3641 619 3225 264 
Q 2809 -91 2034 -91 
Q 1263 -91 845 264 
Q 428 619 428 1275 
Q 428 1772 725 2092 
Q 1022 2413 1556 2484 
Q 1084 2569 832 2842 
Q 581 3116 581 3541 
Q 581 4103 968 4426 
Q 1356 4750 2034 4750 
Q 2713 4750 3100 4426 
Q 3488 4103 3488 3541 
Q 3488 3116 3236 2842 
Q 2984 2569 2516 2484 
z
" transform="scale(0.015625)"/>
       </defs>
       <use xlink:href="#DejaVuSerif-30"/>
       <use xlink:href="#DejaVuSerif-2e" x="63.623047"/>
       <use xlink:href="#DejaVuSerif-38" x="95.410156"/>
      </g>
     </g>
    </g>
    <g id="xtick_18">
     <g id="line2d_54">
      <g>
       <use xlink:href="#m7a237930ee" x="322.410937" y="304.44375" style="stroke: #000000; stroke-width: 0.8"/>
      </g>
     </g>
     <g id="text_20">
      <!-- 1.0 -->
      <g transform="translate(314.459375 319.042188) scale(0.1 -0.1)">
       <use xlink:href="#DejaVuSerif-31"/>
       <use xlink:href="#DejaVuSerif-2e" x="63.623047"/>
       <use xlink:href="#DejaVuSerif-30" x="95.410156"/>
      </g>
     </g>
    </g>
    <g id="text_21">
     <!-- Tiempo [ns] -->
     <g transform="translate(163.866406 332.720312) scale(0.1 -0.1)">
      <defs>
       <path id="DejaVuSerif-54" d="M 1222 0 
L 1222 331 
L 1819 331 
L 1819 4294 
L 447 4294 
L 447 3566 
L 63 3566 
L 63 4666 
L 4206 4666 
L 4206 3566 
L 3822 3566 
L 3822 4294 
L 2450 4294 
L 2450 331 
L 3047 331 
L 3047 0 
L 1222 0 
z
" transform="scale(0.015625)"/>
      </defs>
      <use xlink:href="#DejaVuSerif-54"/>
      <use xlink:href="#DejaVuSerif-69" x="66.699219"/>
      <use xlink:href="#DejaVuSerif-65" x="98.681641"/>
      <use xlink:href="#DejaVuSerif-6d" x="157.861328"/>
      <use xlink:href="#DejaVuSerif-70" x="252.685547"/>
      <use xlink:href="#DejaVuSerif-6f" x="316.699219"/>
      <use xlink:href="#DejaVuSerif-20" x="376.904297"/>
      <use xlink:href="#DejaVuSerif-5b" x="408.691406"/>
      <use xlink:href="#DejaVuSerif-6e" x="447.705078"/>
      <use xlink:href="#DejaVuSerif-73" x="512.109375"/>
      <use xlink:href="#DejaVuSerif-5d" x="563.427734"/>
     </g>
    </g>
   </g>
   <g id="matplotlib.axis_6">
    <g id="ytick_9">
     <g id="line2d_55">
      <g>
       <use xlink:href="#mcb98c29201" x="52.725" y="296.808715" style="stroke: #000000; stroke-width: 0.8"/>
      </g>
     </g>
     <g id="text_22">
      <!-- −20 -->
      <g transform="translate(24.620313 300.607934) scale(0.1 -0.1)">
       <use xlink:href="#DejaVuSerif-2212"/>
       <use xlink:href="#DejaVuSerif-32" x="83.789062"/>
       <use xlink:href="#DejaVuSerif-30" x="147.412109"/>
      </g>
     </g>
    </g>
    <g id="ytick_10">
     <g id="line2d_56">
      <g>
       <use xlink:href="#mcb98c29201" x="52.725" y="260.668278" style="stroke: #000000; stroke-width: 0.8"/>
      </g>
     </g>
     <g id="text_23">
      <!-- 0 -->
      <g transform="translate(39.3625 264.467497) scale(0.1 -0.1)">
       <use xlink:href="#DejaVuSerif-30"/>
      </g>
     </g>
    </g>
    <g id="ytick_11">
     <g id="line2d_57">
      <g>
       <use xlink:href="#mcb98c29201" x="52.725" y="224.527842" style="stroke: #000000; stroke-width: 0.8"/>
      </g>
     </g>
     <g id="text_24">
      <!-- 20 -->
      <g transform="translate(33 228.327061) scale(0.1 -0.1)">
       <use xlink:href="#DejaVuSerif-32"/>
       <use xlink:href="#DejaVuSerif-30" x="63.623047"/>
      </g>
     </g>
    </g>
    <g id="text_25">
     <!-- Frequency Chirp [Hz] -->
     <g transform="translate(18.398437 316.022966) rotate(-90) scale(0.1 -0.1)">
      <defs>
       <path id="DejaVuSerif-71" d="M 3359 2988 
L 3359 -997 
L 3909 -997 
L 3909 -1331 
L 2241 -1331 
L 2241 -997 
L 2784 -997 
L 2784 519 
Q 2616 206 2355 57 
Q 2094 -91 1709 -91 
Q 1097 -91 708 395 
Q 319 881 319 1663 
Q 319 2444 706 2928 
Q 1094 3413 1709 3413 
Q 2094 3413 2355 3264 
Q 2616 3116 2784 2803 
L 2784 3322 
L 3909 3322 
L 3909 2988 
L 3359 2988 
z
M 2784 1825 
Q 2784 2422 2554 2737 
Q 2325 3053 1888 3053 
Q 1444 3053 1217 2703 
Q 991 2353 991 1663 
Q 991 975 1217 622 
Q 1444 269 1888 269 
Q 2325 269 2554 583 
Q 2784 897 2784 1497 
L 2784 1825 
z
" transform="scale(0.015625)"/>
       <path id="DejaVuSerif-63" d="M 3291 997 
Q 3169 466 2822 187 
Q 2475 -91 1925 -91 
Q 1200 -91 759 389 
Q 319 869 319 1663 
Q 319 2459 759 2936 
Q 1200 3413 1925 3413 
Q 2241 3413 2553 3339 
Q 2866 3266 3181 3116 
L 3181 2266 
L 2847 2266 
Q 2781 2703 2561 2903 
Q 2341 3103 1931 3103 
Q 1466 3103 1228 2742 
Q 991 2381 991 1663 
Q 991 944 1227 581 
Q 1463 219 1931 219 
Q 2303 219 2525 412 
Q 2747 606 2828 997 
L 3291 997 
z
" transform="scale(0.015625)"/>
       <path id="DejaVuSerif-79" d="M 1381 -609 
L 1600 -56 
L 359 2988 
L -19 2988 
L -19 3322 
L 1509 3322 
L 1509 2988 
L 978 2988 
L 1913 703 
L 2847 2988 
L 2350 2988 
L 2350 3322 
L 3597 3322 
L 3597 2988 
L 3225 2988 
L 1703 -750 
Q 1547 -1138 1356 -1280 
Q 1166 -1422 819 -1422 
Q 672 -1422 517 -1397 
Q 363 -1372 206 -1325 
L 206 -691 
L 500 -691 
Q 519 -903 608 -995 
Q 697 -1088 884 -1088 
Q 1056 -1088 1161 -992 
Q 1266 -897 1381 -609 
z
" transform="scale(0.015625)"/>
       <path id="DejaVuSerif-43" d="M 4513 1234 
Q 4306 581 3820 245 
Q 3334 -91 2591 -91 
Q 2134 -91 1743 65 
Q 1353 222 1050 525 
Q 700 875 529 1320 
Q 359 1766 359 2328 
Q 359 3416 987 4083 
Q 1616 4750 2644 4750 
Q 3025 4750 3456 4650 
Q 3888 4550 4384 4347 
L 4384 3272 
L 4031 3272 
Q 3916 3859 3567 4137 
Q 3219 4416 2591 4416 
Q 1844 4416 1459 3886 
Q 1075 3356 1075 2328 
Q 1075 1303 1459 773 
Q 1844 244 2591 244 
Q 3113 244 3450 492 
Q 3788 741 3938 1234 
L 4513 1234 
z
" transform="scale(0.015625)"/>
       <path id="DejaVuSerif-68" d="M 263 0 
L 263 331 
L 781 331 
L 781 4531 
L 231 4531 
L 231 4863 
L 1356 4863 
L 1356 2731 
Q 1516 3069 1770 3241 
Q 2025 3413 2363 3413 
Q 2913 3413 3172 3097 
Q 3431 2781 3431 2113 
L 3431 331 
L 3944 331 
L 3944 0 
L 2356 0 
L 2356 331 
L 2853 331 
L 2853 1931 
Q 2853 2541 2704 2764 
Q 2556 2988 2175 2988 
Q 1775 2988 1565 2697 
Q 1356 2406 1356 1850 
L 1356 331 
L 1856 331 
L 1856 0 
L 263 0 
z
" transform="scale(0.015625)"/>
       <path id="DejaVuSerif-48" d="M 353 0 
L 353 331 
L 947 331 
L 947 4331 
L 353 4331 
L 353 4666 
L 2175 4666 
L 2175 4331 
L 1581 4331 
L 1581 2719 
L 4000 2719 
L 4000 4331 
L 3406 4331 
L 3406 4666 
L 5228 4666 
L 5228 4331 
L 4634 4331 
L 4634 331 
L 5228 331 
L 5228 0 
L 3406 0 
L 3406 331 
L 4000 331 
L 4000 2338 
L 1581 2338 
L 1581 331 
L 2175 331 
L 2175 0 
L 353 0 
z
" transform="scale(0.015625)"/>
       <path id="DejaVuSerif-7a" d="M 256 0 
L 256 269 
L 2338 2988 
L 691 2988 
L 691 2413 
L 359 2413 
L 359 3322 
L 3078 3322 
L 3078 3053 
L 997 331 
L 2803 331 
L 2803 934 
L 3138 934 
L 3138 0 
L 256 0 
z
" transform="scale(0.015625)"/>
      </defs>
      <use xlink:href="#DejaVuSerif-46"/>
      <use xlink:href="#DejaVuSerif-72" x="69.384766"/>
      <use xlink:href="#DejaVuSerif-65" x="117.1875"/>
      <use xlink:href="#DejaVuSerif-71" x="176.367188"/>
      <use xlink:href="#DejaVuSerif-75" x="240.380859"/>
      <use xlink:href="#DejaVuSerif-65" x="304.785156"/>
      <use xlink:href="#DejaVuSerif-6e" x="363.964844"/>
      <use xlink:href="#DejaVuSerif-63" x="428.369141"/>
      <use xlink:href="#DejaVuSerif-79" x="484.375"/>
      <use xlink:href="#DejaVuSerif-20" x="540.869141"/>
      <use xlink:href="#DejaVuSerif-43" x="572.65625"/>
      <use xlink:href="#DejaVuSerif-68" x="649.169922"/>
      <use xlink:href="#DejaVuSerif-69" x="713.574219"/>
      <use xlink:href="#DejaVuSerif-72" x="745.556641"/>
      <use xlink:href="#DejaVuSerif-70" x="793.359375"/>
      <use xlink:href="#DejaVuSerif-20" x="857.373047"/>
      <use xlink:href="#DejaVuSerif-5b" x="889.160156"/>
      <use xlink:href="#DejaVuSerif-48" x="928.173828"/>
      <use xlink:href="#DejaVuSerif-7a" x="1015.380859"/>
      <use xlink:href="#DejaVuSerif-5d" x="1068.066406"/>
     </g>
    </g>
   </g>
   <g id="line2d_58">
    <path d="M 65.567187 260.668278 
L 322.210121 260.668278 
L 322.210121 260.668278 
" clip-path="url(#pee4d3b9f03)" style="fill: none; stroke: #000000; stroke-width: 3; stroke-linecap: square"/>
   </g>
   <g id="line2d_59">
    <path d="M 65.567187 260.668824 
L 76.210439 260.780906 
L 78.821048 260.979747 
L 79.624312 260.783492 
L 80.427576 260.313055 
L 81.230841 259.559693 
L 82.435737 258.406299 
L 82.837369 258.317221 
L 83.239001 258.59386 
L 83.640634 259.422558 
L 84.042266 261.031335 
L 84.443898 263.696298 
L 84.84553 267.744774 
L 85.447978 277.113678 
L 86.652875 299.850284 
L 86.853691 300.464162 
L 87.054507 299.440216 
L 87.456139 293.73146 
L 88.460219 276.745392 
L 89.062667 270.64516 
L 89.665116 266.985811 
L 90.267564 264.776504 
L 90.870012 263.404482 
L 91.47246 262.524819 
L 92.275724 261.796016 
L 93.078989 261.358267 
L 94.283885 260.989173 
L 95.890414 260.762519 
L 98.501023 260.665229 
L 112.758963 260.4863 
L 114.164676 260.193947 
L 115.168756 259.78602 
L 115.97202 259.224078 
L 116.574469 258.559101 
L 117.176917 257.542466 
L 117.779365 255.940053 
L 118.180997 254.350823 
L 118.582629 252.125667 
L 118.984261 248.98846 
L 119.58671 241.818714 
L 120.992422 220.87532 
L 121.193238 221.488043 
L 121.394054 223.689074 
L 121.996502 235.804757 
L 122.799767 250.925002 
L 123.402215 257.618658 
L 123.803847 260.278909 
L 124.205479 261.883678 
L 124.607111 262.70998 
L 125.008743 262.986926 
L 125.410376 262.902063 
L 126.012824 262.413569 
L 127.418536 261.113898 
L 128.2218 260.740697 
L 129.025065 260.643515 
L 131.033225 260.59586 
L 131.635674 260.346412 
L 132.438938 259.734364 
L 133.84465 258.434494 
L 134.246282 258.349631 
L 134.647915 258.626576 
L 135.049547 259.452879 
L 135.451179 261.057648 
L 135.852811 263.717899 
L 136.254443 267.76162 
L 136.856891 277.12395 
L 138.061788 299.848514 
L 138.262604 300.461237 
L 138.46342 299.436749 
L 138.865052 293.728374 
L 139.869132 276.744637 
L 140.471581 270.644909 
L 141.074029 266.985734 
L 141.676477 264.776483 
L 142.278925 263.404478 
L 142.881373 262.52482 
L 143.684638 261.796018 
L 144.487902 261.358268 
L 145.692798 260.989174 
L 147.299327 260.762519 
L 149.909936 260.665229 
L 164.167877 260.486301 
L 165.573589 260.193948 
L 166.577669 259.786021 
L 167.380934 259.224079 
L 167.983382 258.5591 
L 168.58583 257.542458 
L 169.188278 255.94002 
L 169.58991 254.350746 
L 169.991542 252.125496 
L 170.393175 248.988094 
L 170.995623 241.81765 
L 172.401335 220.872395 
L 172.602151 221.486272 
L 172.802967 223.688972 
L 173.405416 235.810866 
L 174.20868 250.939575 
L 174.811128 257.640259 
L 175.21276 260.305222 
L 175.614392 261.913999 
L 176.016024 262.742697 
L 176.417657 263.019336 
L 176.819289 262.930258 
L 177.421737 262.425384 
L 179.028265 260.877412 
L 179.83153 260.481082 
L 180.634794 260.340844 
L 181.83969 260.404248 
L 185.052748 260.692252 
L 189.470701 260.669292 
L 203.929458 260.702964 
L 207.744963 260.911204 
L 208.548227 260.586101 
L 209.351492 259.966271 
L 211.158836 258.326188 
L 211.560468 258.399119 
L 211.962101 258.926004 
L 212.363733 260.113416 
L 212.765365 262.212475 
L 213.166997 265.525557 
L 213.568629 270.396985 
L 214.171077 281.154702 
L 214.974342 297.647526 
L 215.175158 299.850226 
L 215.375974 300.464109 
L 215.57679 299.440175 
L 215.978422 293.731445 
L 216.982502 276.745406 
L 217.58495 270.645173 
L 218.187399 266.985822 
L 218.789847 264.776512 
L 219.392295 263.404489 
L 219.994743 262.524826 
L 220.798007 261.796022 
L 221.601272 261.358273 
L 222.806168 260.989177 
L 224.412697 260.76251 
L 227.023306 260.665153 
L 244.293487 260.668282 
L 266.182439 260.574047 
L 267.989783 260.301832 
L 269.19468 259.887904 
L 269.997944 259.392534 
L 270.600392 258.811731 
L 271.20284 257.932068 
L 271.805289 256.560044 
L 272.407737 254.350735 
L 272.809369 252.125483 
L 273.211001 248.98808 
L 273.813449 241.817637 
L 275.219162 220.872448 
L 275.419978 221.486331 
L 275.620794 223.689031 
L 276.223242 235.810897 
L 277.026506 250.939572 
L 277.628955 257.640245 
L 278.030587 260.305205 
L 278.432219 261.913982 
L 278.833851 262.74268 
L 279.235483 263.019321 
L 279.637115 262.930245 
L 280.239563 262.425376 
L 281.846092 260.877412 
L 282.649356 260.481084 
L 283.45262 260.340847 
L 284.657517 260.404251 
L 287.870574 260.69224 
L 292.288527 260.66937 
L 317.18972 260.668278 
L 322.210121 260.668278 
L 322.210121 260.668278 
" clip-path="url(#pee4d3b9f03)" style="fill: none; stroke: #7f7f7f; stroke-width: 3; stroke-linecap: square"/>
   </g>
   <g id="line2d_60">
    <path d="M 65.567187 304.44375 
L 65.567187 216.892807 
" clip-path="url(#pee4d3b9f03)" style="fill: none; stroke-dasharray: 5.55,2.4; stroke-dashoffset: 0; stroke: #000000; stroke-opacity: 0.5; stroke-width: 1.5"/>
   </g>
   <g id="line2d_61">
    <path d="M 91.271644 304.44375 
L 91.271644 216.892807 
" clip-path="url(#pee4d3b9f03)" style="fill: none; stroke-dasharray: 5.55,2.4; stroke-dashoffset: 0; stroke: #000000; stroke-opacity: 0.5; stroke-width: 1.5"/>
   </g>
   <g id="line2d_62">
    <path d="M 116.976101 304.44375 
L 116.976101 216.892807 
" clip-path="url(#pee4d3b9f03)" style="fill: none; stroke-dasharray: 5.55,2.4; stroke-dashoffset: 0; stroke: #000000; stroke-opacity: 0.5; stroke-width: 1.5"/>
   </g>
   <g id="line2d_63">
    <path d="M 142.680557 304.44375 
L 142.680557 216.892807 
" clip-path="url(#pee4d3b9f03)" style="fill: none; stroke-dasharray: 5.55,2.4; stroke-dashoffset: 0; stroke: #000000; stroke-opacity: 0.5; stroke-width: 1.5"/>
   </g>
   <g id="line2d_64">
    <path d="M 168.385014 304.44375 
L 168.385014 216.892807 
" clip-path="url(#pee4d3b9f03)" style="fill: none; stroke-dasharray: 5.55,2.4; stroke-dashoffset: 0; stroke: #000000; stroke-opacity: 0.5; stroke-width: 1.5"/>
   </g>
   <g id="line2d_65">
    <path d="M 194.089471 304.44375 
L 194.089471 216.892807 
" clip-path="url(#pee4d3b9f03)" style="fill: none; stroke-dasharray: 5.55,2.4; stroke-dashoffset: 0; stroke: #000000; stroke-opacity: 0.5; stroke-width: 1.5"/>
   </g>
   <g id="line2d_66">
    <path d="M 219.793927 304.44375 
L 219.793927 216.892807 
" clip-path="url(#pee4d3b9f03)" style="fill: none; stroke-dasharray: 5.55,2.4; stroke-dashoffset: 0; stroke: #000000; stroke-opacity: 0.5; stroke-width: 1.5"/>
   </g>
   <g id="line2d_67">
    <path d="M 245.498384 304.44375 
L 245.498384 216.892807 
" clip-path="url(#pee4d3b9f03)" style="fill: none; stroke-dasharray: 5.55,2.4; stroke-dashoffset: 0; stroke: #000000; stroke-opacity: 0.5; stroke-width: 1.5"/>
   </g>
   <g id="line2d_68">
    <path d="M 271.20284 304.44375 
L 271.20284 216.892807 
" clip-path="url(#pee4d3b9f03)" style="fill: none; stroke-dasharray: 5.55,2.4; stroke-dashoffset: 0; stroke: #000000; stroke-opacity: 0.5; stroke-width: 1.5"/>
   </g>
   <g id="line2d_69">
    <path d="M 296.907297 304.44375 
L 296.907297 216.892807 
" clip-path="url(#pee4d3b9f03)" style="fill: none; stroke-dasharray: 5.55,2.4; stroke-dashoffset: 0; stroke: #000000; stroke-opacity: 0.5; stroke-width: 1.5"/>
   </g>
   <g id="patch_15">
    <path d="M 52.725 304.44375 
L 52.725 216.892807 
" style="fill: none; stroke: #000000; stroke-width: 0.8; stroke-linejoin: miter; stroke-linecap: square"/>
   </g>
   <g id="patch_16">
    <path d="M 335.253125 304.44375 
L 335.253125 216.892807 
" style="fill: none; stroke: #000000; stroke-width: 0.8; stroke-linejoin: miter; stroke-linecap: square"/>
   </g>
   <g id="patch_17">
    <path d="M 52.725 304.44375 
L 335.253125 304.44375 
" style="fill: none; stroke: #000000; stroke-width: 0.8; stroke-linejoin: miter; stroke-linecap: square"/>
   </g>
   <g id="patch_18">
    <path d="M 52.725 216.892807 
L 335.253125 216.892807 
" style="fill: none; stroke: #000000; stroke-width: 0.8; stroke-linejoin: miter; stroke-linecap: square"/>
   </g>
   <g id="legend_3">
    <g id="patch_19">
     <path d="M 342.253125 254.533432 
L 448 254.533432 
Q 450 254.533432 450 252.533432 
L 450 223.892807 
Q 450 221.892807 448 221.892807 
L 342.253125 221.892807 
Q 340.253125 221.892807 340.253125 223.892807 
L 340.253125 252.533432 
Q 340.253125 254.533432 342.253125 254.533432 
z
" style="fill: #ffffff; opacity: 0.8; stroke: #cccccc; stroke-linejoin: miter"/>
    </g>
    <g id="line2d_70">
     <path d="M 344.253125 229.991244 
L 354.253125 229.991244 
L 364.253125 229.991244 
" style="fill: none; stroke: #000000; stroke-width: 3; stroke-linecap: square"/>
    </g>
    <g id="text_26">
     <!-- Frequency in -->
     <g transform="translate(372.253125 233.491244) scale(0.1 -0.1)">
      <use xlink:href="#DejaVuSerif-46"/>
      <use xlink:href="#DejaVuSerif-72" x="69.384766"/>
      <use xlink:href="#DejaVuSerif-65" x="117.1875"/>
      <use xlink:href="#DejaVuSerif-71" x="176.367188"/>
      <use xlink:href="#DejaVuSerif-75" x="240.380859"/>
      <use xlink:href="#DejaVuSerif-65" x="304.785156"/>
      <use xlink:href="#DejaVuSerif-6e" x="363.964844"/>
      <use xlink:href="#DejaVuSerif-63" x="428.369141"/>
      <use xlink:href="#DejaVuSerif-79" x="484.375"/>
      <use xlink:href="#DejaVuSerif-20" x="540.869141"/>
      <use xlink:href="#DejaVuSerif-69" x="572.65625"/>
      <use xlink:href="#DejaVuSerif-6e" x="604.638672"/>
     </g>
    </g>
    <g id="line2d_71">
     <path d="M 344.253125 244.811557 
L 354.253125 244.811557 
L 364.253125 244.811557 
" style="fill: none; stroke: #7f7f7f; stroke-width: 3; stroke-linecap: square"/>
    </g>
    <g id="text_27">
     <!-- Frequency out -->
     <g transform="translate(372.253125 248.311557) scale(0.1 -0.1)">
      <use xlink:href="#DejaVuSerif-46"/>
      <use xlink:href="#DejaVuSerif-72" x="69.384766"/>
      <use xlink:href="#DejaVuSerif-65" x="117.1875"/>
      <use xlink:href="#DejaVuSerif-71" x="176.367188"/>
      <use xlink:href="#DejaVuSerif-75" x="240.380859"/>
      <use xlink:href="#DejaVuSerif-65" x="304.785156"/>
      <use xlink:href="#DejaVuSerif-6e" x="363.964844"/>
      <use xlink:href="#DejaVuSerif-63" x="428.369141"/>
      <use xlink:href="#DejaVuSerif-79" x="484.375"/>
      <use xlink:href="#DejaVuSerif-20" x="540.869141"/>
      <use xlink:href="#DejaVuSerif-6f" x="572.65625"/>
      <use xlink:href="#DejaVuSerif-75" x="632.861328"/>
      <use xlink:href="#DejaVuSerif-74" x="697.265625"/>
     </g>
    </g>
   </g>
  </g>
 </g>
 <defs>
  <clipPath id="p5478392a0f">
   <rect x="52.725" y="10.8" width="282.528125" height="87.550943"/>
  </clipPath>
  <clipPath id="p7b4770b777">
   <rect x="52.725" y="113.846403" width="282.528125" height="87.550943"/>
  </clipPath>
  <clipPath id="pee4d3b9f03">
   <rect x="52.725" y="216.892807" width="282.528125" height="87.550943"/>
  </clipPath>
 </defs>
</svg>
